M48
;Layer_Color=9474304
;FILE_FORMAT=4:3
METRIC,LZ
;TYPE=PLATED
T1F00S00C0.200
T2F00S00C0.305
T4F00S00C0.900
;TYPE=NON_PLATED
T5F00S00C0.650
T6F00S00C1.000
T7F00S00C3.000
T8F00S00C3.200
%
T01
X00535Y00104
X0054906Y0010381
X00562Y00104
X00573Y001137
X00582
X00591Y001137
Y0013
X00592Y00137
X00586Y00139
X00581Y00142
X00573Y00137
X00573Y0013
X00582
X00562Y00129
Y00142
X00568
X00555
X00546Y00153
X00542Y00161
X0053075Y0014945
X0053Y00144
X00535Y00132
X00594Y00149
X00614Y00162
X0062
X00626
X00635
Y00156
Y0015
Y00144
Y00138
Y00132
Y00126
Y0012
Y00114
Y00108
X0065
X00656Y00117
X0065Y00124
Y0013
Y00136
Y0015
Y00156
Y00162
X00661Y0017
X00652Y00186
X00641Y00181
X00634Y00178
X00628
X00622
X00616Y001776
X00604Y00177
X00602Y00203
X00617Y00207
X00644
X00652Y00206
X00657Y00218
X00646Y00221
X0065342Y0022922
X00666Y0023
X00671
Y00235
Y00225
X00676Y0023
X00671Y00248
X00661Y00242
X00641Y00249
X00637
X00633
Y00253
X00637
X00641
X0064Y0027
X00644
Y00274
Y00278
Y00282
X0064
Y00278
Y00274
X0063Y00273
Y00277
X00626
X00622
Y00273
X00626
Y00269
X00622
X0063
X00653Y00276
X00665
X00678Y00296
X00705Y00295
X00709
Y00291
X00705
Y00299
X00709
Y00303
X00705
Y00307
X00709
Y00311
Y00315
X00705
Y00311
X00694Y00311
X00713Y00315
X00717
X00721
X00719Y00332
X00715
Y00336
Y0034
X00711Y00332
X00707
X00703
X00699
Y00336
Y0034
X00723Y00332
X00727
X00729Y00304
Y003
Y00296
X00733Y00296
Y00292
X00729
Y00288
Y00284
Y0028
Y00276
Y00272
Y00268
X00723
Y00272
Y00276
Y0028
X00719
Y00276
Y00272
Y00268
X00715
Y00272
Y00276
Y0028
Y00284
X00719
X00723
X00733
Y00288
X00737Y00292
Y00296
Y003
Y00304
X00733
X00733Y003
X00709Y0028
X00705
Y00276
X00709
Y00272
X00705
Y00262
X00709
Y00258
X00705
Y00254
X00701
X00709
X00715Y00256
X00719
X00723
Y0026
Y00264
X00719
Y0026
X00715
Y00264
X00687Y00256
X00698Y00234
X00723
Y00227
Y00199
X00719
X00715
X00711
X00707
Y00187
X00711
X00715
X00719
X00723
Y00191
X00719
X00715
Y00195
X00719
X00723
X00727Y00191
Y00187
X00728Y00088
X00705Y00084
X00713Y00075
X00602Y00107
X0061Y00125
X006243Y00185
X00619Y0024
X00608Y002293
X00582Y00229
X00573
X00575Y00207
X0056882Y0020675
X0057979Y0021
X00586Y00216
X00546Y00213
X00523
X00532Y002283
X00535Y00233
X00522Y002367
X00531Y00263
X00525Y0027
X00542Y00271
X00547
Y00276
Y00281
X00552
Y00276
Y00271
X00542Y00276
Y00281
X00539Y00298
X00544Y00304
X0055275Y0030525
X0055775Y0030825
X00551Y00298
Y00325
X00572Y00315
X00586Y00305
Y00301
X00569Y00286
Y0028
X0054Y00255
X0048645Y00202
Y00174
X00484Y00309
X00528Y00378
X00551Y00358
X00595Y00363
X0063Y00311
X00705Y0037
X00719Y00374
Y00366
X00713Y00465
X00473Y00354
X00462Y00363
X0045Y00331
X00427Y00332
X00411Y00331
Y00304
X00432Y0031
X00457Y00308
X00465Y00302
X00472Y00309
X00477Y00331
X0039Y00355
X00386Y0036
X00349Y00353
X00365Y00307
X00314Y0025
Y00246
X0031
Y0025
X00306
Y00246
X00302
Y0025
X00298
Y00246
X00294
X0029
Y0025
X00294
Y00242
Y00238
X00298
Y00242
X00302
Y00238
X00302Y00234
X00306
Y00238
Y00242
X0031
Y00238
X00314
Y00234
Y0023
Y00226
Y00222
Y00218
Y00214
Y0021
X0031Y0021
X00306
Y00214
X0031
Y00218
X00306
X00302
X00298
Y00222
X00302
X00306
X0031
Y00226
X00306
Y0023
X0031
Y00234
X00314Y00242
X00298Y00234
Y0023
Y00226
X00302
Y0023
X00294
X0029
Y00226
X00294
Y00222
X0029
Y00218
X00294
Y00214
X0029
Y0021
X00294
X00298
Y00214
X00302
Y0021
X00294Y00234
X0029
X0029Y00238
Y00242
X00283Y00166
X00277Y00143
X00281Y00125
Y00116
X00318Y00111
Y00089
X00319Y00149
X0031
X00372Y00156
X00234Y00152
X00214Y00129
X00199Y00125
X00219Y00113
X00185Y00093
X00159Y00094
Y00086
X00145Y0009
X00196Y00169
X00208Y00247
X00207Y0027
X00159Y00366
Y00374
X00145Y0037
X00077Y0022
Y00216
Y00212
Y00208
Y00204
Y002
Y00196
Y00192
Y00188
X00073
X00069
X00065
Y00192
X00069
X00073
Y00196
Y002
Y00204
X00069
X00065
Y002
X00069
Y00196
X00065
Y00208
X00069
X00073
Y00212
Y00216
Y0022
X00069
X00065
Y00216
X00069
Y00212
X00065
Y00578
X00069
X00073
X00077
Y00582
Y00586
Y0059
Y00594
Y00598
Y00602
Y00606
Y0061
X00073
X00069
X00065
Y00606
X00069
X00073
Y00602
Y00598
X00069
Y00602
X00065
Y00598
Y00594
X00069
X00073
Y0059
Y00586
Y00582
X00069
Y00586
Y0059
X00065
Y00586
Y00582
X00196Y00559
X00199Y00515
X00214Y00519
X00219Y00503
X00234Y00542
X00277Y00533
X00281Y00515
Y00506
X00318Y00501
Y00479
X00319Y00539
X0031
X00283Y00556
X0029Y006
Y00604
X00294
Y006
X00298
Y00604
X00302
X00306
Y006
X0031
Y00604
Y00608
X00306
X00302
X00298
Y00612
X00302
X00306
X0031
Y00616
X00306
Y0062
Y00624
Y00628
Y00632
Y00636
Y0064
X00302
Y00636
X00298
X00294
X0029
Y0064
X00294
X00298
Y00632
Y00628
X00294
X0029
Y00632
X00294
X00294Y00624
X0029
Y0062
Y00616
X00294
Y0062
X00298
Y00616
X00302
Y0062
Y00624
X00302Y00628
Y00632
X0031
Y00628
X00314
Y00624
Y0062
Y00616
Y00612
Y00608
Y00604
Y006
X00302Y006
X00294Y00608
X0029
Y00612
X00294
X00298Y00624
X0031
Y0062
X00314Y00632
Y00636
X0031
Y0064
X00314
X00365Y00697
X00411Y00694
Y00721
X00427Y00722
X0045Y00721
X00477
X00473Y00744
X00462Y00753
X00457Y00698
X00465Y00692
X00472Y00699
X00432Y007
X0039Y00745
X00386Y0075
X00349Y00743
X00159Y00756
Y00764
X00145Y0076
X00207Y0066
X00208Y00637
X00185Y00483
X00159Y00484
Y00476
X00145Y0048
X00372Y00546
X0048645Y00564
Y00592
X00523Y00603
X00546
X0056882Y0059675
X00575Y00597
X0057979Y006
X00586Y00606
X00582Y00619
X00573
X00608Y006193
X00619Y0063
X00633Y00639
X00637
X00641
Y00643
X00637
X00633
X0063Y00659
Y00663
Y00667
X00626
X00622
Y00663
X00626
Y00659
X00622
X0064Y0066
X00644
Y00664
Y00668
Y00672
X0064
Y00668
Y00664
X00653Y00666
X00665
X00678Y00686
X00705Y00685
X00709
Y00681
X00705
Y00689
X00709
Y00693
X00705
Y00697
X00709
Y00701
Y00705
X00705
Y00701
X00694Y00701
X00713Y00705
X00717
X00721
X00719Y00722
X00715
Y00726
Y0073
X00711Y00722
X00707
X00703
X00699
Y00726
Y0073
X00723Y00722
X00727
X00729Y00694
Y0069
Y00686
X00733Y00686
Y00682
X00729
Y00678
Y00674
Y0067
Y00666
Y00662
Y00658
X00723
Y00662
Y00666
Y0067
X00719
Y00666
Y00662
Y00658
X00715
Y00662
Y00666
Y0067
Y00674
X00719
X00723
X00733
Y00678
X00737Y00682
Y00686
Y0069
Y00694
X00733
X00733Y0069
X00709Y0067
X00705
Y00666
X00709
Y00662
X00705
Y00652
X00709
Y00648
X00705
Y00644
X00701
X00709
X00715Y00646
X00719
X00723
Y0065
Y00654
X00719
Y0065
X00715
Y00654
X00687Y00646
X00671Y00638
Y00625
Y0062
Y00615
X00676Y0062
X00666
X0065342Y0061922
X00657Y00608
X00646Y00611
X00644Y00597
X00652Y00596
Y00576
X00641Y00571
X00634Y00568
X00628
X00622
X00616Y005676
X00604Y00567
X00614Y00552
X0062
X00626
X00635
Y00546
Y0054
Y00534
Y00528
Y00522
Y00516
Y0051
Y00504
Y00498
X0065
X00656Y00507
X0065Y00514
Y0052
Y00526
Y0054
Y00546
Y00552
X00661Y0056
X006243Y00575
X00617Y00597
X00602Y00593
X00594Y00539
X00592Y00527
X00586Y00529
X00581Y00532
X00573Y00527
X00573Y0052
X00582
X00591Y0052
Y005037
X00582Y005037
X00573
X00562Y00494
X0054906Y0049381
X00535Y00494
Y00522
X0053Y00534
X0053075Y0053945
X00546Y00543
X00542Y00551
X00555Y00532
X00562
X00568
X00562Y00519
X0061Y00515
X00602Y00497
X00705Y00474
X00728Y00478
X00727Y00577
Y00581
X00723
Y00577
X00719
X00715
X00711
X00707
Y00589
X00711
X00715
Y00585
X00719
Y00589
X00723
Y00585
X00719Y00581
X00715
X00723Y00617
Y00624
X00698
X00661Y00632
X0063Y00701
X00586Y00695
Y00691
X00572Y00705
X0055775Y0069825
X0055275Y0069525
X00551Y00688
X00539
X00544Y00694
X00542Y00671
X00547
Y00666
X00552
Y00671
Y00661
X00547
X00542
Y00666
X0054Y00645
X00531Y00653
X00525Y0066
X00522Y006267
X00535Y00623
X00532Y006183
X00569Y0067
Y00676
X00551Y00715
Y00748
X00528Y00768
X00595Y00753
X00705Y0076
X00719Y00764
Y00756
X00484Y00699
T02
X0056011Y00164
Y00175
Y00186
X0057111
X0058211
Y00175
X0057111
Y00164
X0058211
Y00554
Y00565
Y00576
X0057111
X0056011
Y00565
X0057111
Y00554
X0056011
T04
X006712Y0015
X006966
X00722
X007474
Y0054
X00722
X006966
X006712
T05
X00749Y002011
Y002589
Y005911
Y006489
T06
X0081Y001125
Y00125
Y001375
Y0015
Y0031
Y003225
Y00335
Y003475
X0004
Y00335
Y003225
Y0031
Y0015
Y001375
Y00125
Y001125
Y005025
Y00515
Y005275
Y0054
Y007
Y007125
Y00725
Y007375
X0081
Y00725
Y007125
Y007
Y0054
Y005275
Y00515
Y005025
T07
X00025Y00025
X00825
X00025Y00825
X00825
T08
X00765Y0009
Y0037
X00085
Y0009
Y0048
Y0076
X00765
Y0048
M30
