G04*
G04 #@! TF.GenerationSoftware,Altium Limited,Altium Designer,21.3.2 (30)*
G04*
G04 Layer_Color=127485*
%FSLAX43Y43*%
%MOMM*%
G71*
G04*
G04 #@! TF.SameCoordinates,034B25BC-4B64-4F1D-819B-79BBDF65C54F*
G04*
G04*
G04 #@! TF.FilePolarity,Positive*
G04*
G01*
G75*
%ADD48C,0.200*%
%ADD50C,0.300*%
%ADD51C,0.500*%
%ADD83R,1.500X1.500*%
%ADD84C,0.450*%
G36*
X77184Y79440D02*
X77627Y79321D01*
X78051Y79146D01*
X78449Y78916D01*
X78813Y78637D01*
X79137Y78313D01*
X79416Y77949D01*
X79646Y77551D01*
X79821Y77127D01*
X79940Y76684D01*
X80000Y76229D01*
Y76000D01*
Y63000D01*
X70300D01*
Y64021D01*
X70427Y64106D01*
X70440Y64100D01*
X70560D01*
X70670Y64146D01*
X70700Y64176D01*
X70730Y64146D01*
X70840Y64100D01*
X70960D01*
X71070Y64146D01*
X71154Y64230D01*
X71200Y64340D01*
Y64460D01*
X71154Y64570D01*
X71124Y64600D01*
X71154Y64630D01*
X71200Y64740D01*
Y64860D01*
X71154Y64970D01*
X71124Y65000D01*
X71154Y65030D01*
X71200Y65140D01*
Y65260D01*
X71154Y65370D01*
X71070Y65454D01*
X70960Y65500D01*
X70840D01*
X70730Y65454D01*
X70700Y65424D01*
X70670Y65454D01*
X70560Y65500D01*
X70440D01*
X70427Y65494D01*
X70300Y65579D01*
Y65821D01*
X70427Y65906D01*
X70440Y65900D01*
X70560D01*
X70670Y65946D01*
X70700Y65976D01*
X70730Y65946D01*
X70840Y65900D01*
X70960D01*
X71070Y65946D01*
X71154Y66030D01*
X71200Y66140D01*
Y66260D01*
X71154Y66370D01*
X71124Y66400D01*
X71154Y66430D01*
X71200Y66540D01*
Y66660D01*
X71154Y66770D01*
X71124Y66800D01*
X71154Y66830D01*
X71200Y66940D01*
Y67060D01*
X71154Y67170D01*
X71070Y67254D01*
X70960Y67300D01*
X70840D01*
X70730Y67254D01*
X70700Y67224D01*
X70670Y67254D01*
X70560Y67300D01*
X70440D01*
X70427Y67294D01*
X70300Y67379D01*
Y71900D01*
X70360D01*
X70470Y71946D01*
X70500Y71976D01*
X70530Y71946D01*
X70640Y71900D01*
X70760D01*
X70870Y71946D01*
X70900Y71976D01*
X70930Y71946D01*
X71040Y71900D01*
X71160D01*
X71270Y71946D01*
X71300Y71976D01*
X71330Y71946D01*
X71440Y71900D01*
X71560D01*
X71670Y71946D01*
X71700Y71976D01*
X71730Y71946D01*
X71840Y71900D01*
X71960D01*
X72070Y71946D01*
X72100Y71976D01*
X72130Y71946D01*
X72240Y71900D01*
X72360D01*
X72470Y71946D01*
X72500Y71976D01*
X72530Y71946D01*
X72640Y71900D01*
X72760D01*
X72870Y71946D01*
X72954Y72030D01*
X73000Y72140D01*
Y72260D01*
X72954Y72370D01*
X72870Y72454D01*
X72760Y72500D01*
X72640D01*
X72530Y72454D01*
X72500Y72424D01*
X72470Y72454D01*
X72360Y72500D01*
X72240D01*
X72130Y72454D01*
X72100Y72424D01*
X72070Y72454D01*
X71960Y72500D01*
X71917D01*
X71830Y72530D01*
X71800Y72617D01*
Y72660D01*
X71754Y72770D01*
X71724Y72800D01*
X71754Y72830D01*
X71800Y72940D01*
Y73060D01*
X71754Y73170D01*
X71670Y73254D01*
X71560Y73300D01*
X71440D01*
X71330Y73254D01*
X71246Y73170D01*
X71200Y73060D01*
Y72940D01*
X71246Y72830D01*
X71276Y72800D01*
X71246Y72770D01*
X71200Y72660D01*
Y72617D01*
X71170Y72530D01*
X71083Y72500D01*
X71040D01*
X70930Y72454D01*
X70900Y72424D01*
X70870Y72454D01*
X70760Y72500D01*
X70640D01*
X70530Y72454D01*
X70500Y72424D01*
X70470Y72454D01*
X70360Y72500D01*
X70317D01*
X70230Y72530D01*
X70200Y72617D01*
Y72660D01*
X70154Y72770D01*
X70124Y72800D01*
X70154Y72830D01*
X70200Y72940D01*
Y73060D01*
X70154Y73170D01*
X70070Y73254D01*
X69960Y73300D01*
X69840D01*
X69730Y73254D01*
X69646Y73170D01*
X69600Y73060D01*
Y72940D01*
X69646Y72830D01*
X69676Y72800D01*
X69646Y72770D01*
X69600Y72660D01*
Y72540D01*
X69646Y72430D01*
X69676Y72400D01*
X69646Y72370D01*
X69600Y72260D01*
Y72140D01*
X69606Y72127D01*
X69521Y72000D01*
X48027D01*
X48000Y72040D01*
Y72160D01*
X47954Y72270D01*
X47870Y72354D01*
X47760Y72400D01*
X47640D01*
X47530Y72354D01*
X47446Y72270D01*
X47400Y72160D01*
Y72040D01*
X47373Y72000D01*
X45327D01*
X45300Y72040D01*
Y72160D01*
X45254Y72270D01*
X45170Y72354D01*
X45060Y72400D01*
X44940D01*
X44830Y72354D01*
X44746Y72270D01*
X44700Y72160D01*
Y72040D01*
X44673Y72000D01*
X43079D01*
X42994Y72127D01*
X43000Y72140D01*
Y72260D01*
X42954Y72370D01*
X42870Y72454D01*
X42760Y72500D01*
X42640D01*
X42530Y72454D01*
X42446Y72370D01*
X42400Y72260D01*
Y72140D01*
X42406Y72127D01*
X42321Y72000D01*
X41427D01*
X41400Y72040D01*
Y72160D01*
X41354Y72270D01*
X41270Y72354D01*
X41160Y72400D01*
X41040D01*
X40930Y72354D01*
X40846Y72270D01*
X40800Y72160D01*
Y72040D01*
X40773Y72000D01*
X32000D01*
Y59000D01*
X27500D01*
Y79500D01*
X76500Y79500D01*
X76729D01*
X77184Y79440D01*
D02*
G37*
G36*
X8500Y79500D02*
X27000Y79500D01*
Y58500D01*
X32500D01*
Y71500D01*
X54800D01*
Y71440D01*
X54846Y71330D01*
X54930Y71246D01*
X55040Y71200D01*
X55160D01*
X55270Y71246D01*
X55354Y71330D01*
X55400Y71440D01*
Y71500D01*
X70096D01*
Y70635D01*
X70075Y70585D01*
Y70415D01*
X70096Y70365D01*
Y70235D01*
X70075Y70185D01*
Y70015D01*
X70096Y69965D01*
Y69835D01*
X70075Y69785D01*
Y69615D01*
X70096Y69565D01*
Y69435D01*
X70075Y69385D01*
Y69215D01*
X70096Y69165D01*
Y69035D01*
X70075Y68985D01*
Y68815D01*
X70096Y68765D01*
Y68635D01*
X70075Y68585D01*
Y68415D01*
X70096Y68365D01*
Y68235D01*
X70075Y68185D01*
Y68015D01*
X70096Y67965D01*
Y67379D01*
X70100Y67360D01*
Y67340D01*
X70100Y67340D01*
Y65860D01*
X70100Y65860D01*
Y65840D01*
X70096Y65821D01*
Y65579D01*
X70100Y65560D01*
Y65540D01*
X70100Y65540D01*
Y64700D01*
X70040D01*
X69930Y64654D01*
X69846Y64570D01*
X69800Y64460D01*
Y64340D01*
X69823Y64284D01*
X69753Y64157D01*
X67344D01*
X67341Y64160D01*
X67185Y64225D01*
X67015D01*
X66859Y64160D01*
X66740Y64041D01*
X66675Y63885D01*
Y63715D01*
X66740Y63559D01*
X66859Y63440D01*
X67015Y63375D01*
X67185D01*
X67341Y63440D01*
X67344Y63443D01*
X70096D01*
Y63000D01*
X70100Y62980D01*
Y62700D01*
X71996D01*
X72049Y62573D01*
X72046Y62570D01*
X72000Y62460D01*
Y62340D01*
X72046Y62230D01*
X72130Y62146D01*
X72198Y62117D01*
Y61983D01*
X72130Y61954D01*
X72046Y61870D01*
X72000Y61760D01*
Y61640D01*
X72046Y61530D01*
X72130Y61446D01*
X72240Y61400D01*
X72360D01*
X72470Y61446D01*
X72554Y61530D01*
X72600Y61640D01*
Y61760D01*
X72554Y61870D01*
X72470Y61954D01*
X72402Y61983D01*
Y62117D01*
X72470Y62146D01*
X72554Y62230D01*
X72600Y62340D01*
Y62460D01*
X72554Y62570D01*
X72551Y62573D01*
X72604Y62700D01*
X80000D01*
Y49500D01*
X77495D01*
X77353Y49595D01*
X77025Y49731D01*
X76677Y49800D01*
X76323D01*
X75975Y49731D01*
X75647Y49595D01*
X75505Y49500D01*
X65304D01*
X65251Y49627D01*
X65254Y49630D01*
X65300Y49740D01*
Y49860D01*
X65254Y49970D01*
X65170Y50054D01*
X65060Y50100D01*
X64940D01*
X64830Y50054D01*
X64746Y49970D01*
X64700Y49860D01*
Y49740D01*
X64746Y49630D01*
X64749Y49627D01*
X64696Y49500D01*
X63804D01*
X63751Y49627D01*
X63754Y49630D01*
X63800Y49740D01*
Y49860D01*
X63754Y49970D01*
X63703Y50022D01*
X63682Y50100D01*
X63703Y50178D01*
X63754Y50230D01*
X63800Y50340D01*
Y50460D01*
X63754Y50570D01*
X63703Y50622D01*
X63682Y50700D01*
X63703Y50778D01*
X63754Y50830D01*
X63800Y50940D01*
Y51060D01*
X63754Y51170D01*
X63703Y51222D01*
X63682Y51300D01*
X63703Y51378D01*
X63754Y51430D01*
X63800Y51540D01*
Y51660D01*
X63754Y51770D01*
X63703Y51822D01*
X63682Y51900D01*
X63703Y51978D01*
X63754Y52030D01*
X63800Y52140D01*
Y52260D01*
X63754Y52370D01*
X63703Y52422D01*
X63682Y52500D01*
X63703Y52578D01*
X63754Y52630D01*
X63800Y52740D01*
Y52860D01*
X63754Y52970D01*
X63703Y53022D01*
X63682Y53100D01*
X63703Y53178D01*
X63754Y53230D01*
X63800Y53340D01*
Y53460D01*
X63754Y53570D01*
X63703Y53622D01*
X63682Y53700D01*
X63703Y53778D01*
X63754Y53830D01*
X63800Y53940D01*
Y54060D01*
X63754Y54170D01*
X63703Y54222D01*
X63682Y54300D01*
X63703Y54378D01*
X63754Y54430D01*
X63800Y54540D01*
Y54660D01*
X63754Y54770D01*
X63703Y54822D01*
X63682Y54900D01*
X63703Y54978D01*
X63754Y55030D01*
X63800Y55140D01*
Y55260D01*
X63754Y55370D01*
X63670Y55454D01*
X63560Y55500D01*
X63440D01*
X63330Y55454D01*
X63246Y55370D01*
X63200Y55260D01*
Y55140D01*
X63246Y55030D01*
X63297Y54978D01*
X63318Y54900D01*
X63297Y54822D01*
X63246Y54770D01*
X63200Y54660D01*
Y54540D01*
X63246Y54430D01*
X63297Y54378D01*
X63318Y54300D01*
X63297Y54222D01*
X63246Y54170D01*
X63200Y54060D01*
Y53940D01*
X63246Y53830D01*
X63297Y53778D01*
X63318Y53700D01*
X63297Y53622D01*
X63246Y53570D01*
X63200Y53460D01*
Y53340D01*
X63246Y53230D01*
X63297Y53178D01*
X63318Y53100D01*
X63297Y53022D01*
X63246Y52970D01*
X63200Y52860D01*
Y52740D01*
X63246Y52630D01*
X63297Y52578D01*
X63318Y52500D01*
X63297Y52422D01*
X63246Y52370D01*
X63200Y52260D01*
Y52140D01*
X63246Y52030D01*
X63297Y51978D01*
X63318Y51900D01*
X63297Y51822D01*
X63246Y51770D01*
X63200Y51660D01*
Y51540D01*
X63246Y51430D01*
X63297Y51378D01*
X63318Y51300D01*
X63297Y51222D01*
X63246Y51170D01*
X63200Y51060D01*
Y50940D01*
X63246Y50830D01*
X63297Y50778D01*
X63318Y50700D01*
X63297Y50622D01*
X63246Y50570D01*
X63200Y50460D01*
Y50340D01*
X63246Y50230D01*
X63297Y50178D01*
X63318Y50100D01*
X63297Y50022D01*
X63246Y49970D01*
X63200Y49860D01*
Y49740D01*
X63246Y49630D01*
X63249Y49627D01*
X63196Y49500D01*
X60579D01*
X60494Y49627D01*
X60500Y49640D01*
Y49760D01*
X60454Y49870D01*
X60370Y49954D01*
X60260Y50000D01*
X60140D01*
X60030Y49954D01*
X59946Y49870D01*
X59900Y49760D01*
Y49640D01*
X59946Y49530D01*
X60000Y49476D01*
Y44500D01*
X51500D01*
X51500Y44500D01*
X51254Y44500D01*
X50771Y44596D01*
X50316Y44785D01*
X49906Y45058D01*
X49558Y45406D01*
X49285Y45816D01*
X49096Y46271D01*
X49000Y46754D01*
X49000Y47000D01*
Y47500D01*
X36000D01*
Y47000D01*
X36000Y47000D01*
X36000Y46754D01*
X35904Y46271D01*
X35715Y45816D01*
X35442Y45406D01*
X35094Y45058D01*
X34684Y44785D01*
X34229Y44596D01*
X33746Y44500D01*
X8500D01*
X8500Y44500D01*
X8271Y44500D01*
X7816Y44560D01*
X7373Y44679D01*
X6949Y44854D01*
X6551Y45084D01*
X6187Y45363D01*
X5863Y45687D01*
X5584Y46051D01*
X5354Y46449D01*
X5179Y46873D01*
X5060Y47316D01*
X5000Y47771D01*
X5000Y48000D01*
Y76000D01*
X5000Y76229D01*
X5060Y76684D01*
X5179Y77127D01*
X5354Y77551D01*
X5584Y77949D01*
X5863Y78313D01*
X6187Y78637D01*
X6551Y78916D01*
X6949Y79146D01*
X7373Y79321D01*
X7816Y79440D01*
X8271Y79500D01*
X8500Y79500D01*
D02*
G37*
G36*
X77184Y40440D02*
X77627Y40321D01*
X78051Y40146D01*
X78449Y39916D01*
X78813Y39637D01*
X79137Y39313D01*
X79416Y38949D01*
X79646Y38551D01*
X79821Y38127D01*
X79940Y37684D01*
X80000Y37229D01*
Y37000D01*
Y24000D01*
X70300D01*
Y25021D01*
X70427Y25106D01*
X70440Y25100D01*
X70560D01*
X70670Y25146D01*
X70700Y25176D01*
X70730Y25146D01*
X70840Y25100D01*
X70960D01*
X71070Y25146D01*
X71154Y25230D01*
X71200Y25340D01*
Y25460D01*
X71154Y25570D01*
X71124Y25600D01*
X71154Y25630D01*
X71200Y25740D01*
Y25860D01*
X71154Y25970D01*
X71124Y26000D01*
X71154Y26030D01*
X71200Y26140D01*
Y26260D01*
X71154Y26370D01*
X71070Y26454D01*
X70960Y26500D01*
X70840D01*
X70730Y26454D01*
X70700Y26424D01*
X70670Y26454D01*
X70560Y26500D01*
X70440D01*
X70427Y26494D01*
X70300Y26579D01*
Y26821D01*
X70427Y26906D01*
X70440Y26900D01*
X70560D01*
X70670Y26946D01*
X70700Y26976D01*
X70730Y26946D01*
X70840Y26900D01*
X70960D01*
X71070Y26946D01*
X71154Y27030D01*
X71200Y27140D01*
Y27260D01*
X71154Y27370D01*
X71124Y27400D01*
X71154Y27430D01*
X71200Y27540D01*
Y27660D01*
X71154Y27770D01*
X71124Y27800D01*
X71154Y27830D01*
X71200Y27940D01*
Y28060D01*
X71154Y28170D01*
X71070Y28254D01*
X70960Y28300D01*
X70840D01*
X70730Y28254D01*
X70700Y28224D01*
X70670Y28254D01*
X70560Y28300D01*
X70440D01*
X70427Y28294D01*
X70300Y28379D01*
Y32900D01*
X70360D01*
X70470Y32946D01*
X70500Y32976D01*
X70530Y32946D01*
X70640Y32900D01*
X70760D01*
X70870Y32946D01*
X70900Y32976D01*
X70930Y32946D01*
X71040Y32900D01*
X71160D01*
X71270Y32946D01*
X71300Y32976D01*
X71330Y32946D01*
X71440Y32900D01*
X71560D01*
X71670Y32946D01*
X71700Y32976D01*
X71730Y32946D01*
X71840Y32900D01*
X71960D01*
X72070Y32946D01*
X72100Y32976D01*
X72130Y32946D01*
X72240Y32900D01*
X72360D01*
X72470Y32946D01*
X72500Y32976D01*
X72530Y32946D01*
X72640Y32900D01*
X72760D01*
X72870Y32946D01*
X72954Y33030D01*
X73000Y33140D01*
Y33260D01*
X72954Y33370D01*
X72870Y33454D01*
X72760Y33500D01*
X72640D01*
X72530Y33454D01*
X72500Y33424D01*
X72470Y33454D01*
X72360Y33500D01*
X72240D01*
X72130Y33454D01*
X72100Y33424D01*
X72070Y33454D01*
X71960Y33500D01*
X71917D01*
X71830Y33530D01*
X71800Y33617D01*
Y33660D01*
X71754Y33770D01*
X71724Y33800D01*
X71754Y33830D01*
X71800Y33940D01*
Y34060D01*
X71754Y34170D01*
X71670Y34254D01*
X71560Y34300D01*
X71440D01*
X71330Y34254D01*
X71246Y34170D01*
X71200Y34060D01*
Y33940D01*
X71246Y33830D01*
X71276Y33800D01*
X71246Y33770D01*
X71200Y33660D01*
Y33617D01*
X71170Y33530D01*
X71083Y33500D01*
X71040D01*
X70930Y33454D01*
X70900Y33424D01*
X70870Y33454D01*
X70760Y33500D01*
X70640D01*
X70530Y33454D01*
X70500Y33424D01*
X70470Y33454D01*
X70360Y33500D01*
X70317D01*
X70230Y33530D01*
X70200Y33617D01*
Y33660D01*
X70154Y33770D01*
X70124Y33800D01*
X70154Y33830D01*
X70200Y33940D01*
Y34060D01*
X70154Y34170D01*
X70070Y34254D01*
X69960Y34300D01*
X69840D01*
X69730Y34254D01*
X69646Y34170D01*
X69600Y34060D01*
Y33940D01*
X69646Y33830D01*
X69676Y33800D01*
X69646Y33770D01*
X69600Y33660D01*
Y33540D01*
X69646Y33430D01*
X69676Y33400D01*
X69646Y33370D01*
X69600Y33260D01*
Y33140D01*
X69606Y33127D01*
X69521Y33000D01*
X48027D01*
X48000Y33040D01*
Y33160D01*
X47954Y33270D01*
X47870Y33354D01*
X47760Y33400D01*
X47640D01*
X47530Y33354D01*
X47446Y33270D01*
X47400Y33160D01*
Y33040D01*
X47373Y33000D01*
X45327D01*
X45300Y33040D01*
Y33160D01*
X45254Y33270D01*
X45170Y33354D01*
X45060Y33400D01*
X44940D01*
X44830Y33354D01*
X44746Y33270D01*
X44700Y33160D01*
Y33040D01*
X44673Y33000D01*
X43079D01*
X42994Y33127D01*
X43000Y33140D01*
Y33260D01*
X42954Y33370D01*
X42870Y33454D01*
X42760Y33500D01*
X42640D01*
X42530Y33454D01*
X42446Y33370D01*
X42400Y33260D01*
Y33140D01*
X42406Y33127D01*
X42321Y33000D01*
X41427D01*
X41400Y33040D01*
Y33160D01*
X41354Y33270D01*
X41270Y33354D01*
X41160Y33400D01*
X41040D01*
X40930Y33354D01*
X40846Y33270D01*
X40800Y33160D01*
Y33040D01*
X40773Y33000D01*
X32000D01*
Y20000D01*
X27500D01*
Y40500D01*
X76500Y40500D01*
X76729D01*
X77184Y40440D01*
D02*
G37*
G36*
X8500Y40500D02*
X27000Y40500D01*
Y19500D01*
X32500D01*
Y32500D01*
X54800D01*
Y32440D01*
X54846Y32330D01*
X54930Y32246D01*
X55040Y32200D01*
X55160D01*
X55270Y32246D01*
X55354Y32330D01*
X55400Y32440D01*
Y32500D01*
X70096D01*
Y31635D01*
X70075Y31585D01*
Y31415D01*
X70096Y31365D01*
Y31235D01*
X70075Y31185D01*
Y31015D01*
X70096Y30965D01*
Y30835D01*
X70075Y30785D01*
Y30615D01*
X70096Y30565D01*
Y30435D01*
X70075Y30385D01*
Y30215D01*
X70096Y30165D01*
Y30035D01*
X70075Y29985D01*
Y29815D01*
X70096Y29765D01*
Y29635D01*
X70075Y29585D01*
Y29415D01*
X70096Y29365D01*
Y29235D01*
X70075Y29185D01*
Y29015D01*
X70096Y28965D01*
Y28379D01*
X70100Y28360D01*
Y28340D01*
X70100Y28340D01*
Y26860D01*
X70100Y26860D01*
Y26840D01*
X70096Y26821D01*
Y26579D01*
X70100Y26560D01*
Y26540D01*
X70100Y26540D01*
Y25700D01*
X70040D01*
X69930Y25654D01*
X69846Y25570D01*
X69800Y25460D01*
Y25340D01*
X69823Y25284D01*
X69753Y25157D01*
X67344D01*
X67341Y25160D01*
X67185Y25225D01*
X67015D01*
X66859Y25160D01*
X66740Y25041D01*
X66675Y24885D01*
Y24715D01*
X66740Y24559D01*
X66859Y24440D01*
X67015Y24375D01*
X67185D01*
X67341Y24440D01*
X67344Y24443D01*
X70096D01*
Y24000D01*
X70100Y23980D01*
Y23700D01*
X71996D01*
X72049Y23573D01*
X72046Y23570D01*
X72000Y23460D01*
Y23340D01*
X72046Y23230D01*
X72130Y23146D01*
X72198Y23117D01*
Y22983D01*
X72130Y22954D01*
X72046Y22870D01*
X72000Y22760D01*
Y22640D01*
X72046Y22530D01*
X72130Y22446D01*
X72240Y22400D01*
X72360D01*
X72470Y22446D01*
X72554Y22530D01*
X72600Y22640D01*
Y22760D01*
X72554Y22870D01*
X72470Y22954D01*
X72402Y22983D01*
Y23117D01*
X72470Y23146D01*
X72554Y23230D01*
X72600Y23340D01*
Y23460D01*
X72554Y23570D01*
X72551Y23573D01*
X72604Y23700D01*
X80000D01*
Y10500D01*
X77495D01*
X77353Y10595D01*
X77025Y10731D01*
X76677Y10800D01*
X76323D01*
X75975Y10731D01*
X75647Y10595D01*
X75505Y10500D01*
X65304D01*
X65251Y10627D01*
X65254Y10630D01*
X65300Y10740D01*
Y10860D01*
X65254Y10970D01*
X65170Y11054D01*
X65060Y11100D01*
X64940D01*
X64830Y11054D01*
X64746Y10970D01*
X64700Y10860D01*
Y10740D01*
X64746Y10630D01*
X64749Y10627D01*
X64696Y10500D01*
X63804D01*
X63751Y10627D01*
X63754Y10630D01*
X63800Y10740D01*
Y10860D01*
X63754Y10970D01*
X63703Y11022D01*
X63682Y11100D01*
X63703Y11178D01*
X63754Y11230D01*
X63800Y11340D01*
Y11460D01*
X63754Y11570D01*
X63703Y11622D01*
X63682Y11700D01*
X63703Y11778D01*
X63754Y11830D01*
X63800Y11940D01*
Y12060D01*
X63754Y12170D01*
X63703Y12222D01*
X63682Y12300D01*
X63703Y12378D01*
X63754Y12430D01*
X63800Y12540D01*
Y12660D01*
X63754Y12770D01*
X63703Y12822D01*
X63682Y12900D01*
X63703Y12978D01*
X63754Y13030D01*
X63800Y13140D01*
Y13260D01*
X63754Y13370D01*
X63703Y13422D01*
X63682Y13500D01*
X63703Y13578D01*
X63754Y13630D01*
X63800Y13740D01*
Y13860D01*
X63754Y13970D01*
X63703Y14022D01*
X63682Y14100D01*
X63703Y14178D01*
X63754Y14230D01*
X63800Y14340D01*
Y14460D01*
X63754Y14570D01*
X63703Y14622D01*
X63682Y14700D01*
X63703Y14778D01*
X63754Y14830D01*
X63800Y14940D01*
Y15060D01*
X63754Y15170D01*
X63703Y15222D01*
X63682Y15300D01*
X63703Y15378D01*
X63754Y15430D01*
X63800Y15540D01*
Y15660D01*
X63754Y15770D01*
X63703Y15822D01*
X63682Y15900D01*
X63703Y15978D01*
X63754Y16030D01*
X63800Y16140D01*
Y16260D01*
X63754Y16370D01*
X63670Y16454D01*
X63560Y16500D01*
X63440D01*
X63330Y16454D01*
X63246Y16370D01*
X63200Y16260D01*
Y16140D01*
X63246Y16030D01*
X63297Y15978D01*
X63318Y15900D01*
X63297Y15822D01*
X63246Y15770D01*
X63200Y15660D01*
Y15540D01*
X63246Y15430D01*
X63297Y15378D01*
X63318Y15300D01*
X63297Y15222D01*
X63246Y15170D01*
X63200Y15060D01*
Y14940D01*
X63246Y14830D01*
X63297Y14778D01*
X63318Y14700D01*
X63297Y14622D01*
X63246Y14570D01*
X63200Y14460D01*
Y14340D01*
X63246Y14230D01*
X63297Y14178D01*
X63318Y14100D01*
X63297Y14022D01*
X63246Y13970D01*
X63200Y13860D01*
Y13740D01*
X63246Y13630D01*
X63297Y13578D01*
X63318Y13500D01*
X63297Y13422D01*
X63246Y13370D01*
X63200Y13260D01*
Y13140D01*
X63246Y13030D01*
X63297Y12978D01*
X63318Y12900D01*
X63297Y12822D01*
X63246Y12770D01*
X63200Y12660D01*
Y12540D01*
X63246Y12430D01*
X63297Y12378D01*
X63318Y12300D01*
X63297Y12222D01*
X63246Y12170D01*
X63200Y12060D01*
Y11940D01*
X63246Y11830D01*
X63297Y11778D01*
X63318Y11700D01*
X63297Y11622D01*
X63246Y11570D01*
X63200Y11460D01*
Y11340D01*
X63246Y11230D01*
X63297Y11178D01*
X63318Y11100D01*
X63297Y11022D01*
X63246Y10970D01*
X63200Y10860D01*
Y10740D01*
X63246Y10630D01*
X63249Y10627D01*
X63196Y10500D01*
X60579D01*
X60494Y10627D01*
X60500Y10640D01*
Y10760D01*
X60454Y10870D01*
X60370Y10954D01*
X60260Y11000D01*
X60140D01*
X60030Y10954D01*
X59946Y10870D01*
X59900Y10760D01*
Y10640D01*
X59946Y10530D01*
X60000Y10476D01*
Y5500D01*
X51500D01*
X51500Y5500D01*
X51254Y5500D01*
X50771Y5596D01*
X50316Y5785D01*
X49906Y6058D01*
X49558Y6406D01*
X49285Y6816D01*
X49096Y7271D01*
X49000Y7754D01*
X49000Y8000D01*
Y8500D01*
X36000D01*
Y8000D01*
X36000Y8000D01*
X36000Y7754D01*
X35904Y7271D01*
X35715Y6816D01*
X35442Y6406D01*
X35094Y6058D01*
X34684Y5785D01*
X34229Y5596D01*
X33746Y5500D01*
X8500D01*
X8500Y5500D01*
X8271Y5500D01*
X7816Y5560D01*
X7373Y5679D01*
X6949Y5854D01*
X6551Y6084D01*
X6187Y6363D01*
X5863Y6687D01*
X5584Y7051D01*
X5354Y7449D01*
X5179Y7873D01*
X5060Y8316D01*
X5000Y8771D01*
X5000Y9000D01*
Y37000D01*
X5000Y37229D01*
X5060Y37684D01*
X5179Y38127D01*
X5354Y38551D01*
X5584Y38949D01*
X5863Y39313D01*
X6187Y39637D01*
X6551Y39916D01*
X6949Y40146D01*
X7373Y40321D01*
X7816Y40440D01*
X8271Y40500D01*
X8500Y40500D01*
D02*
G37*
%LPC*%
G36*
X52860Y77100D02*
X52740D01*
X52630Y77054D01*
X52546Y76970D01*
X52500Y76860D01*
Y76740D01*
X52546Y76630D01*
X52630Y76546D01*
X52740Y76500D01*
X52860D01*
X52970Y76546D01*
X53054Y76630D01*
X53100Y76740D01*
Y76860D01*
X53054Y76970D01*
X52970Y77054D01*
X52860Y77100D01*
D02*
G37*
G36*
X71960Y76700D02*
X71840D01*
X71730Y76654D01*
X71646Y76570D01*
X71600Y76460D01*
Y76340D01*
X71646Y76230D01*
X71730Y76146D01*
X71840Y76100D01*
X71960D01*
X72070Y76146D01*
X72154Y76230D01*
X72200Y76340D01*
Y76460D01*
X72154Y76570D01*
X72070Y76654D01*
X71960Y76700D01*
D02*
G37*
G36*
X70560Y76300D02*
X70440D01*
X70330Y76254D01*
X70246Y76170D01*
X70200Y76060D01*
Y75940D01*
X70246Y75830D01*
X70330Y75746D01*
X70440Y75700D01*
X70560D01*
X70670Y75746D01*
X70754Y75830D01*
X70800Y75940D01*
Y76060D01*
X70754Y76170D01*
X70670Y76254D01*
X70560Y76300D01*
D02*
G37*
G36*
X71960Y75900D02*
X71840D01*
X71730Y75854D01*
X71646Y75770D01*
X71600Y75660D01*
Y75540D01*
X71646Y75430D01*
X71730Y75346D01*
X71840Y75300D01*
X71960D01*
X72070Y75346D01*
X72154Y75430D01*
X72200Y75540D01*
Y75660D01*
X72154Y75770D01*
X72070Y75854D01*
X71960Y75900D01*
D02*
G37*
G36*
X59560Y75600D02*
X59440D01*
X59330Y75554D01*
X59246Y75470D01*
X59200Y75360D01*
Y75240D01*
X59246Y75130D01*
X59330Y75046D01*
X59440Y75000D01*
X59560D01*
X59670Y75046D01*
X59754Y75130D01*
X59800Y75240D01*
Y75360D01*
X59754Y75470D01*
X59670Y75554D01*
X59560Y75600D01*
D02*
G37*
G36*
X46260D02*
X46140D01*
X46030Y75554D01*
X45946Y75470D01*
X45900Y75360D01*
Y75240D01*
X45946Y75130D01*
X46030Y75046D01*
X46140Y75000D01*
X46260D01*
X46370Y75046D01*
X46454Y75130D01*
X46500Y75240D01*
Y75360D01*
X46454Y75470D01*
X46370Y75554D01*
X46260Y75600D01*
D02*
G37*
G36*
X55160Y75100D02*
X55040D01*
X54930Y75054D01*
X54846Y74970D01*
X54800Y74860D01*
Y74740D01*
X54846Y74630D01*
X54930Y74546D01*
X55040Y74500D01*
X55160D01*
X55270Y74546D01*
X55354Y74630D01*
X55400Y74740D01*
Y74860D01*
X55354Y74970D01*
X55270Y75054D01*
X55160Y75100D01*
D02*
G37*
G36*
X76677Y77800D02*
X76323D01*
X75975Y77731D01*
X75647Y77595D01*
X75353Y77398D01*
X75102Y77147D01*
X74905Y76853D01*
X74769Y76525D01*
X74700Y76177D01*
Y75823D01*
X74769Y75475D01*
X74905Y75147D01*
X75102Y74853D01*
X75353Y74602D01*
X75647Y74405D01*
X75975Y74269D01*
X76323Y74200D01*
X76677D01*
X77025Y74269D01*
X77353Y74405D01*
X77647Y74602D01*
X77898Y74853D01*
X78095Y75147D01*
X78231Y75475D01*
X78300Y75823D01*
Y76177D01*
X78231Y76525D01*
X78095Y76853D01*
X77898Y77147D01*
X77647Y77398D01*
X77353Y77595D01*
X77025Y77731D01*
X76677Y77800D01*
D02*
G37*
G36*
X38660Y75300D02*
X38540D01*
X38430Y75254D01*
X38346Y75170D01*
X38300Y75060D01*
Y74940D01*
X38346Y74830D01*
X38430Y74746D01*
X38540Y74700D01*
X38621D01*
X38695Y74618D01*
X38710Y74583D01*
X38700Y74560D01*
Y74440D01*
X38746Y74330D01*
X38830Y74246D01*
X38940Y74200D01*
X39060D01*
X39170Y74246D01*
X39254Y74330D01*
X39300Y74440D01*
Y74560D01*
X39254Y74670D01*
X39170Y74754D01*
X39060Y74800D01*
X38979D01*
X38905Y74882D01*
X38890Y74917D01*
X38900Y74940D01*
Y75060D01*
X38854Y75170D01*
X38770Y75254D01*
X38660Y75300D01*
D02*
G37*
G36*
X47360Y74700D02*
X47240D01*
X47130Y74654D01*
X47046Y74570D01*
X47000Y74460D01*
Y74340D01*
X47046Y74230D01*
X47130Y74146D01*
X47240Y74100D01*
X47360D01*
X47470Y74146D01*
X47554Y74230D01*
X47600Y74340D01*
Y74460D01*
X47554Y74570D01*
X47470Y74654D01*
X47360Y74700D01*
D02*
G37*
G36*
X34960Y74600D02*
X34840D01*
X34730Y74554D01*
X34646Y74470D01*
X34600Y74360D01*
Y74240D01*
X34646Y74130D01*
X34730Y74046D01*
X34840Y74000D01*
X34960D01*
X35070Y74046D01*
X35154Y74130D01*
X35200Y74240D01*
Y74360D01*
X35154Y74470D01*
X35070Y74554D01*
X34960Y74600D01*
D02*
G37*
G36*
X73760Y69700D02*
X73640D01*
X73530Y69654D01*
X73500Y69624D01*
X73470Y69654D01*
X73360Y69700D01*
X73240D01*
X73130Y69654D01*
X73100Y69624D01*
X73070Y69654D01*
X72960Y69700D01*
X72840D01*
X72730Y69654D01*
X72646Y69570D01*
X72600Y69460D01*
Y69340D01*
X72646Y69230D01*
X72676Y69200D01*
X72646Y69170D01*
X72600Y69060D01*
Y68940D01*
X72646Y68830D01*
X72676Y68800D01*
X72646Y68770D01*
X72600Y68660D01*
Y68540D01*
X72646Y68430D01*
X72676Y68400D01*
X72646Y68370D01*
X72600Y68260D01*
Y68140D01*
X72646Y68030D01*
X72676Y68000D01*
X72646Y67970D01*
X72600Y67860D01*
Y67740D01*
X72646Y67630D01*
X72676Y67600D01*
X72646Y67570D01*
X72600Y67460D01*
Y67340D01*
X72646Y67230D01*
X72676Y67200D01*
X72646Y67170D01*
X72600Y67060D01*
Y66940D01*
X72646Y66830D01*
X72676Y66800D01*
X72646Y66770D01*
X72600Y66660D01*
Y66540D01*
X72646Y66430D01*
X72676Y66400D01*
X72646Y66370D01*
X72600Y66260D01*
Y66140D01*
X72646Y66030D01*
X72676Y66000D01*
X72646Y65970D01*
X72600Y65860D01*
Y65740D01*
X72646Y65630D01*
X72730Y65546D01*
X72840Y65500D01*
X72960D01*
X73070Y65546D01*
X73154Y65630D01*
X73200Y65740D01*
Y65860D01*
X73154Y65970D01*
X73124Y66000D01*
X73154Y66030D01*
X73200Y66140D01*
Y66260D01*
X73154Y66370D01*
X73124Y66400D01*
X73154Y66430D01*
X73200Y66540D01*
Y66660D01*
X73154Y66770D01*
X73124Y66800D01*
X73154Y66830D01*
X73200Y66940D01*
Y66983D01*
X73230Y67070D01*
X73317Y67100D01*
X73360D01*
X73470Y67146D01*
X73554Y67230D01*
X73600Y67340D01*
Y67460D01*
X73554Y67570D01*
X73524Y67600D01*
X73554Y67630D01*
X73600Y67740D01*
Y67783D01*
X73630Y67870D01*
X73717Y67900D01*
X73760D01*
X73870Y67946D01*
X73954Y68030D01*
X74000Y68140D01*
Y68260D01*
X73954Y68370D01*
X73924Y68400D01*
X73954Y68430D01*
X74000Y68540D01*
Y68660D01*
X73954Y68770D01*
X73924Y68800D01*
X73954Y68830D01*
X74000Y68940D01*
Y69060D01*
X73954Y69170D01*
X73924Y69200D01*
X73954Y69230D01*
X74000Y69340D01*
Y69460D01*
X73954Y69570D01*
X73870Y69654D01*
X73760Y69700D01*
D02*
G37*
G36*
X78825Y66835D02*
X78275D01*
X78070Y66795D01*
X77896Y66678D01*
X77780Y66505D01*
X77740Y66300D01*
X77780Y66095D01*
X77896Y65922D01*
X78070Y65805D01*
X78275Y65765D01*
X78825D01*
X79030Y65805D01*
X79203Y65922D01*
X79320Y66095D01*
X79360Y66300D01*
X79320Y66505D01*
X79203Y66678D01*
X79030Y66795D01*
X78825Y66835D01*
D02*
G37*
G36*
X74875D02*
X73925D01*
X73720Y66795D01*
X73547Y66678D01*
X73430Y66505D01*
X73390Y66300D01*
X73430Y66095D01*
X73547Y65922D01*
X73720Y65805D01*
X73925Y65765D01*
X74875D01*
X75080Y65805D01*
X75254Y65922D01*
X75370Y66095D01*
X75410Y66300D01*
X75370Y66505D01*
X75254Y66678D01*
X75080Y66795D01*
X74875Y66835D01*
D02*
G37*
G36*
X75004Y65415D02*
X74796D01*
X74603Y65335D01*
X74455Y65187D01*
X74375Y64994D01*
Y64786D01*
X74455Y64593D01*
X74603Y64445D01*
X74796Y64365D01*
X75004D01*
X75197Y64445D01*
X75345Y64593D01*
X75425Y64786D01*
Y64994D01*
X75345Y65187D01*
X75197Y65335D01*
X75004Y65415D01*
D02*
G37*
G36*
X15960Y76700D02*
X15840D01*
X15730Y76654D01*
X15646Y76570D01*
X15600Y76460D01*
Y76340D01*
X15646Y76230D01*
X15730Y76146D01*
X15840Y76100D01*
X15960D01*
X16070Y76146D01*
X16154Y76230D01*
X16200Y76340D01*
Y76460D01*
X16154Y76570D01*
X16070Y76654D01*
X15960Y76700D01*
D02*
G37*
G36*
X14560Y76300D02*
X14440D01*
X14330Y76254D01*
X14246Y76170D01*
X14200Y76060D01*
Y75940D01*
X14246Y75830D01*
X14330Y75746D01*
X14440Y75700D01*
X14560D01*
X14670Y75746D01*
X14754Y75830D01*
X14800Y75940D01*
Y76060D01*
X14754Y76170D01*
X14670Y76254D01*
X14560Y76300D01*
D02*
G37*
G36*
X15960Y75900D02*
X15840D01*
X15730Y75854D01*
X15646Y75770D01*
X15600Y75660D01*
Y75540D01*
X15646Y75430D01*
X15730Y75346D01*
X15840Y75300D01*
X15960D01*
X16070Y75346D01*
X16154Y75430D01*
X16200Y75540D01*
Y75660D01*
X16154Y75770D01*
X16070Y75854D01*
X15960Y75900D01*
D02*
G37*
G36*
X8677Y77800D02*
X8323D01*
X7975Y77731D01*
X7647Y77595D01*
X7353Y77398D01*
X7102Y77147D01*
X6905Y76853D01*
X6769Y76525D01*
X6700Y76177D01*
Y75823D01*
X6769Y75475D01*
X6905Y75147D01*
X7102Y74853D01*
X7353Y74602D01*
X7647Y74405D01*
X7975Y74269D01*
X8323Y74200D01*
X8677D01*
X9025Y74269D01*
X9353Y74405D01*
X9647Y74602D01*
X9898Y74853D01*
X10095Y75147D01*
X10231Y75475D01*
X10300Y75823D01*
Y76177D01*
X10231Y76525D01*
X10095Y76853D01*
X9898Y77147D01*
X9647Y77398D01*
X9353Y77595D01*
X9025Y77731D01*
X8677Y77800D01*
D02*
G37*
G36*
X57260Y70800D02*
X57140D01*
X57030Y70754D01*
X56946Y70670D01*
X56900Y70560D01*
Y70440D01*
X56946Y70330D01*
X57030Y70246D01*
X57140Y70200D01*
X57260D01*
X57370Y70246D01*
X57454Y70330D01*
X57500Y70440D01*
Y70560D01*
X57454Y70670D01*
X57370Y70754D01*
X57260Y70800D01*
D02*
G37*
G36*
X55835Y70125D02*
X55715D01*
X55605Y70079D01*
X55521Y69995D01*
X55475Y69885D01*
X55348Y69819D01*
X55335Y69825D01*
X55215D01*
X55105Y69779D01*
X55021Y69695D01*
X54975Y69585D01*
Y69465D01*
X55008Y69386D01*
X54966Y69292D01*
X54937Y69259D01*
X54754D01*
X54700Y69340D01*
Y69460D01*
X54654Y69570D01*
X54570Y69654D01*
X54460Y69700D01*
X54340D01*
X54230Y69654D01*
X54146Y69570D01*
X54100Y69460D01*
Y69340D01*
X54046Y69259D01*
X53900D01*
X53724Y69224D01*
X53576Y69124D01*
X53476Y68976D01*
X53441Y68800D01*
X53476Y68624D01*
X53576Y68476D01*
X53724Y68376D01*
X53900Y68341D01*
X56417D01*
X56441Y68317D01*
Y67600D01*
Y67000D01*
X56476Y66824D01*
X56576Y66676D01*
X56724Y66576D01*
X56900Y66541D01*
X57076Y66576D01*
X57224Y66676D01*
X57324Y66824D01*
X57359Y67000D01*
Y67600D01*
Y68507D01*
X57324Y68683D01*
X57224Y68832D01*
X56932Y69124D01*
X56783Y69224D01*
X56607Y69259D01*
X55613D01*
X55584Y69292D01*
X55542Y69386D01*
X55575Y69465D01*
X55702Y69531D01*
X55715Y69525D01*
X55835D01*
X55945Y69571D01*
X56029Y69655D01*
X56075Y69765D01*
Y69885D01*
X56029Y69995D01*
X55945Y70079D01*
X55835Y70125D01*
D02*
G37*
G36*
X69460Y70400D02*
X69340D01*
X69230Y70354D01*
X69146Y70270D01*
X69100Y70160D01*
Y70040D01*
X69146Y69930D01*
X69230Y69846D01*
X69340Y69800D01*
X69460D01*
X69570Y69846D01*
X69654Y69930D01*
X69700Y70040D01*
Y70160D01*
X69654Y70270D01*
X69570Y70354D01*
X69460Y70400D01*
D02*
G37*
G36*
X63060D02*
X62940D01*
X62830Y70354D01*
X62746Y70270D01*
X62700Y70160D01*
Y70040D01*
X62746Y69930D01*
X62830Y69846D01*
X62940Y69800D01*
X63060D01*
X63170Y69846D01*
X63254Y69930D01*
X63300Y70040D01*
Y70160D01*
X63254Y70270D01*
X63170Y70354D01*
X63060Y70400D01*
D02*
G37*
G36*
X43260Y70300D02*
X43140D01*
X43030Y70254D01*
X42946Y70170D01*
X42900Y70060D01*
Y69940D01*
X42946Y69830D01*
X43030Y69746D01*
X43140Y69700D01*
X43260D01*
X43370Y69746D01*
X43454Y69830D01*
X43500Y69940D01*
Y70060D01*
X43454Y70170D01*
X43370Y70254D01*
X43260Y70300D01*
D02*
G37*
G36*
X48460Y70200D02*
X48340D01*
X48230Y70154D01*
X48146Y70070D01*
X48100Y69960D01*
Y69840D01*
X48146Y69730D01*
X48230Y69646D01*
X48340Y69600D01*
X48460D01*
X48570Y69646D01*
X48654Y69730D01*
X48700Y69840D01*
Y69960D01*
X48654Y70070D01*
X48570Y70154D01*
X48460Y70200D01*
D02*
G37*
G36*
X47260D02*
X47140D01*
X47030Y70154D01*
X46946Y70070D01*
X46900Y69960D01*
Y69840D01*
X46946Y69730D01*
X47030Y69646D01*
X47140Y69600D01*
X47260D01*
X47370Y69646D01*
X47454Y69730D01*
X47500Y69840D01*
Y69960D01*
X47454Y70070D01*
X47370Y70154D01*
X47260Y70200D01*
D02*
G37*
G36*
X45760Y70100D02*
X45640D01*
X45530Y70054D01*
X45446Y69970D01*
X45400Y69860D01*
Y69740D01*
X45446Y69630D01*
X45530Y69546D01*
X45640Y69500D01*
X45760D01*
X45870Y69546D01*
X45954Y69630D01*
X46000Y69740D01*
Y69860D01*
X45954Y69970D01*
X45870Y70054D01*
X45760Y70100D01*
D02*
G37*
G36*
X36560Y70000D02*
X36440D01*
X36330Y69954D01*
X36246Y69870D01*
X36200Y69760D01*
Y69640D01*
X36246Y69530D01*
X36330Y69446D01*
X36440Y69400D01*
X36560D01*
X36670Y69446D01*
X36754Y69530D01*
X36800Y69640D01*
Y69760D01*
X36754Y69870D01*
X36670Y69954D01*
X36560Y70000D01*
D02*
G37*
G36*
X41160Y69700D02*
X41040D01*
X40930Y69654D01*
X40846Y69570D01*
X40800Y69460D01*
Y69340D01*
X40846Y69230D01*
X40930Y69146D01*
X41040Y69100D01*
X41160D01*
X41270Y69146D01*
X41354Y69230D01*
X41400Y69340D01*
Y69460D01*
X41354Y69570D01*
X41270Y69654D01*
X41160Y69700D01*
D02*
G37*
G36*
X58660Y69800D02*
X58540D01*
X58430Y69754D01*
X58346Y69670D01*
X58300Y69560D01*
Y69440D01*
X58346Y69330D01*
X58376Y69300D01*
X58346Y69270D01*
X58300Y69160D01*
Y69040D01*
X58346Y68930D01*
X58430Y68846D01*
X58540Y68800D01*
X58660D01*
X58770Y68846D01*
X58854Y68930D01*
X58900Y69040D01*
Y69160D01*
X58854Y69270D01*
X58824Y69300D01*
X58854Y69330D01*
X58900Y69440D01*
Y69560D01*
X58854Y69670D01*
X58770Y69754D01*
X58660Y69800D01*
D02*
G37*
G36*
X67860Y68900D02*
X67740D01*
X67630Y68854D01*
X67546Y68770D01*
X67500Y68660D01*
Y68540D01*
X67546Y68430D01*
X67630Y68346D01*
X67740Y68300D01*
X67860D01*
X67970Y68346D01*
X68054Y68430D01*
X68100Y68540D01*
Y68660D01*
X68054Y68770D01*
X67970Y68854D01*
X67860Y68900D01*
D02*
G37*
G36*
X64460Y67500D02*
X64340D01*
X64230Y67454D01*
X64200Y67424D01*
X64170Y67454D01*
X64060Y67500D01*
X63940D01*
X63830Y67454D01*
X63746Y67370D01*
X63700Y67260D01*
Y67140D01*
X63746Y67030D01*
X63776Y67000D01*
X63746Y66970D01*
X63700Y66860D01*
Y66740D01*
X63746Y66630D01*
X63776Y66600D01*
X63746Y66570D01*
X63700Y66460D01*
Y66340D01*
X63746Y66230D01*
X63776Y66200D01*
X63746Y66170D01*
X63700Y66060D01*
Y65940D01*
X63746Y65830D01*
X63830Y65746D01*
X63940Y65700D01*
X64060D01*
X64170Y65746D01*
X64200Y65776D01*
X64230Y65746D01*
X64340Y65700D01*
X64460D01*
X64570Y65746D01*
X64654Y65830D01*
X64700Y65940D01*
Y66060D01*
X64654Y66170D01*
X64624Y66200D01*
X64654Y66230D01*
X64700Y66340D01*
Y66460D01*
X64654Y66570D01*
X64624Y66600D01*
X64654Y66630D01*
X64700Y66740D01*
Y66860D01*
X64654Y66970D01*
X64624Y67000D01*
X64654Y67030D01*
X64700Y67140D01*
Y67260D01*
X64654Y67370D01*
X64570Y67454D01*
X64460Y67500D01*
D02*
G37*
G36*
X55260Y67400D02*
X55140D01*
X55030Y67354D01*
X54950Y67274D01*
X54870Y67354D01*
X54760Y67400D01*
X54640D01*
X54530Y67354D01*
X54450Y67274D01*
X54370Y67354D01*
X54260Y67400D01*
X54140D01*
X54030Y67354D01*
X53946Y67270D01*
X53900Y67160D01*
Y67040D01*
X53946Y66930D01*
X54026Y66850D01*
X53946Y66770D01*
X53900Y66660D01*
Y66540D01*
X53946Y66430D01*
X54026Y66350D01*
X53946Y66270D01*
X53900Y66160D01*
Y66040D01*
X53946Y65930D01*
X54030Y65846D01*
X54140Y65800D01*
X54260D01*
X54370Y65846D01*
X54450Y65926D01*
X54530Y65846D01*
X54640Y65800D01*
X54760D01*
X54870Y65846D01*
X54950Y65926D01*
X55030Y65846D01*
X55140Y65800D01*
X55260D01*
X55370Y65846D01*
X55454Y65930D01*
X55500Y66040D01*
Y66160D01*
X55454Y66270D01*
X55374Y66350D01*
X55454Y66430D01*
X55500Y66540D01*
Y66660D01*
X55454Y66770D01*
X55374Y66850D01*
X55454Y66930D01*
X55500Y67040D01*
Y67160D01*
X55454Y67270D01*
X55370Y67354D01*
X55260Y67400D01*
D02*
G37*
G36*
X66560Y66900D02*
X66440D01*
X66330Y66854D01*
X66246Y66770D01*
X66200Y66660D01*
Y66540D01*
X66246Y66430D01*
X66330Y66346D01*
X66440Y66300D01*
X66560D01*
X66670Y66346D01*
X66754Y66430D01*
X66800Y66540D01*
Y66660D01*
X66754Y66770D01*
X66670Y66854D01*
X66560Y66900D01*
D02*
G37*
G36*
X65360D02*
X65240D01*
X65130Y66854D01*
X65046Y66770D01*
X65000Y66660D01*
Y66540D01*
X65046Y66430D01*
X65130Y66346D01*
X65240Y66300D01*
X65360D01*
X65470Y66346D01*
X65554Y66430D01*
X65600Y66540D01*
Y66660D01*
X65554Y66770D01*
X65470Y66854D01*
X65360Y66900D01*
D02*
G37*
G36*
X52560Y66300D02*
X52440D01*
X52330Y66254D01*
X52246Y66170D01*
X52200Y66060D01*
Y65940D01*
X52246Y65830D01*
X52330Y65746D01*
X52440Y65700D01*
X52560D01*
X52670Y65746D01*
X52754Y65830D01*
X52800Y65940D01*
Y66060D01*
X52754Y66170D01*
X52670Y66254D01*
X52560Y66300D01*
D02*
G37*
G36*
X20760D02*
X20640D01*
X20530Y66254D01*
X20446Y66170D01*
X20400Y66060D01*
Y65940D01*
X20446Y65830D01*
X20530Y65746D01*
X20640Y65700D01*
X20760D01*
X20870Y65746D01*
X20954Y65830D01*
X21000Y65940D01*
Y66060D01*
X20954Y66170D01*
X20870Y66254D01*
X20760Y66300D01*
D02*
G37*
G36*
X53160Y65600D02*
X53040D01*
X52930Y65554D01*
X52846Y65470D01*
X52800Y65360D01*
Y65240D01*
X52846Y65130D01*
X52930Y65046D01*
X53040Y65000D01*
X53160D01*
X53270Y65046D01*
X53354Y65130D01*
X53400Y65240D01*
Y65360D01*
X53354Y65470D01*
X53270Y65554D01*
X53160Y65600D01*
D02*
G37*
G36*
X64160Y64600D02*
X64040D01*
X63930Y64554D01*
X63900Y64524D01*
X63870Y64554D01*
X63760Y64600D01*
X63640D01*
X63530Y64554D01*
X63500Y64524D01*
X63470Y64554D01*
X63360Y64600D01*
X63240D01*
X63130Y64554D01*
X63046Y64470D01*
X63000Y64360D01*
Y64240D01*
X63046Y64130D01*
X63076Y64100D01*
X63046Y64070D01*
X63000Y63960D01*
Y63840D01*
X63046Y63730D01*
X63130Y63646D01*
X63240Y63600D01*
X63360D01*
X63470Y63646D01*
X63500Y63676D01*
X63530Y63646D01*
X63640Y63600D01*
X63760D01*
X63870Y63646D01*
X63900Y63676D01*
X63930Y63646D01*
X64040Y63600D01*
X64160D01*
X64270Y63646D01*
X64354Y63730D01*
X64400Y63840D01*
Y63960D01*
X64354Y64070D01*
X64324Y64100D01*
X64354Y64130D01*
X64400Y64240D01*
Y64360D01*
X64354Y64470D01*
X64270Y64554D01*
X64160Y64600D01*
D02*
G37*
G36*
X68760Y64900D02*
X68640D01*
X68530Y64854D01*
X68446Y64770D01*
X68400Y64660D01*
Y64540D01*
X68446Y64430D01*
X68530Y64346D01*
X68640Y64300D01*
X68760D01*
X68870Y64346D01*
X68954Y64430D01*
X69000Y64540D01*
Y64660D01*
X68954Y64770D01*
X68870Y64854D01*
X68760Y64900D01*
D02*
G37*
G36*
X54060Y64800D02*
X53940D01*
X53830Y64754D01*
X53746Y64670D01*
X53700Y64560D01*
Y64440D01*
X53746Y64330D01*
X53830Y64246D01*
X53940Y64200D01*
X54060D01*
X54170Y64246D01*
X54254Y64330D01*
X54300Y64440D01*
Y64560D01*
X54254Y64670D01*
X54170Y64754D01*
X54060Y64800D01*
D02*
G37*
G36*
X20860Y64000D02*
X20740D01*
X20630Y63954D01*
X20546Y63870D01*
X20500Y63760D01*
Y63640D01*
X20546Y63530D01*
X20630Y63446D01*
X20740Y63400D01*
X20860D01*
X20970Y63446D01*
X21054Y63530D01*
X21100Y63640D01*
Y63760D01*
X21054Y63870D01*
X20970Y63954D01*
X20860Y64000D01*
D02*
G37*
G36*
X61960Y63300D02*
X61840D01*
X61730Y63254D01*
X61646Y63170D01*
X61600Y63060D01*
Y62940D01*
X61646Y62830D01*
X61730Y62746D01*
X61840Y62700D01*
X61960D01*
X62070Y62746D01*
X62154Y62830D01*
X62200Y62940D01*
Y63060D01*
X62154Y63170D01*
X62070Y63254D01*
X61960Y63300D01*
D02*
G37*
G36*
X52260Y62970D02*
X52140D01*
X52030Y62924D01*
X51946Y62840D01*
X51900Y62730D01*
Y62610D01*
X51946Y62500D01*
X52030Y62416D01*
X52140Y62370D01*
X52260D01*
X52370Y62416D01*
X52454Y62500D01*
X52500Y62610D01*
Y62730D01*
X52454Y62840D01*
X52370Y62924D01*
X52260Y62970D01*
D02*
G37*
G36*
X67160Y62800D02*
X67040D01*
X66930Y62754D01*
X66846Y62670D01*
X66800Y62560D01*
Y62440D01*
X66835Y62355D01*
X66745Y62265D01*
X66660Y62300D01*
X66540D01*
X66430Y62254D01*
X66346Y62170D01*
X66300Y62060D01*
Y61940D01*
X66346Y61830D01*
X66430Y61746D01*
X66540Y61700D01*
X66660D01*
X66745Y61735D01*
X66835Y61645D01*
X66800Y61560D01*
Y61440D01*
X66846Y61330D01*
X66930Y61246D01*
X67040Y61200D01*
X67160D01*
X67270Y61246D01*
X67354Y61330D01*
X67400Y61440D01*
Y61560D01*
X67365Y61645D01*
X67455Y61735D01*
X67540Y61700D01*
X67660D01*
X67770Y61746D01*
X67854Y61830D01*
X67900Y61940D01*
Y62060D01*
X67854Y62170D01*
X67770Y62254D01*
X67660Y62300D01*
X67540D01*
X67455Y62265D01*
X67365Y62355D01*
X67400Y62440D01*
Y62560D01*
X67354Y62670D01*
X67270Y62754D01*
X67160Y62800D01*
D02*
G37*
G36*
X60860Y62230D02*
X60740D01*
X60630Y62184D01*
X60546Y62100D01*
X60500Y61990D01*
Y61870D01*
X60546Y61760D01*
X60630Y61676D01*
X60740Y61630D01*
X60860D01*
X60970Y61676D01*
X61054Y61760D01*
X61100Y61870D01*
Y61990D01*
X61054Y62100D01*
X60970Y62184D01*
X60860Y62230D01*
D02*
G37*
G36*
X65402Y62222D02*
X65283D01*
X65173Y62176D01*
X65088Y62092D01*
X65042Y61982D01*
Y61862D01*
X65088Y61752D01*
X65173Y61668D01*
X65283Y61622D01*
X65402D01*
X65512Y61668D01*
X65597Y61752D01*
X65642Y61862D01*
Y61982D01*
X65597Y62092D01*
X65512Y62176D01*
X65402Y62222D01*
D02*
G37*
G36*
X58260Y62200D02*
X58140D01*
X58030Y62154D01*
X57946Y62070D01*
X57900Y61960D01*
Y61840D01*
X57946Y61730D01*
X58030Y61646D01*
X58140Y61600D01*
X58260D01*
X58370Y61646D01*
X58454Y61730D01*
X58500Y61840D01*
Y61960D01*
X58454Y62070D01*
X58370Y62154D01*
X58260Y62200D01*
D02*
G37*
G36*
X57360D02*
X57240D01*
X57130Y62154D01*
X57046Y62070D01*
X57000Y61960D01*
Y61840D01*
X57046Y61730D01*
X57130Y61646D01*
X57240Y61600D01*
X57360D01*
X57470Y61646D01*
X57554Y61730D01*
X57600Y61840D01*
Y61960D01*
X57554Y62070D01*
X57470Y62154D01*
X57360Y62200D01*
D02*
G37*
G36*
X53560Y62600D02*
X53440D01*
X53330Y62554D01*
X53246Y62470D01*
X53200Y62360D01*
Y62240D01*
X53140Y62130D01*
X53122Y62122D01*
X53030Y62084D01*
X52946Y62000D01*
X52900Y61890D01*
Y61770D01*
X52946Y61660D01*
X53030Y61576D01*
X53140Y61530D01*
X53260D01*
X53370Y61576D01*
X53454Y61660D01*
X53500Y61770D01*
Y61890D01*
X53560Y62000D01*
X53578Y62008D01*
X53670Y62046D01*
X53754Y62130D01*
X53800Y62240D01*
Y62360D01*
X53754Y62470D01*
X53670Y62554D01*
X53560Y62600D01*
D02*
G37*
G36*
X7760Y61300D02*
X7640D01*
X7530Y61254D01*
X7500Y61224D01*
X7470Y61254D01*
X7360Y61300D01*
X7240D01*
X7130Y61254D01*
X7100Y61224D01*
X7070Y61254D01*
X6960Y61300D01*
X6840D01*
X6730Y61254D01*
X6700Y61224D01*
X6670Y61254D01*
X6560Y61300D01*
X6440D01*
X6330Y61254D01*
X6246Y61170D01*
X6200Y61060D01*
Y60940D01*
X6246Y60830D01*
X6276Y60800D01*
X6246Y60770D01*
X6200Y60660D01*
Y60540D01*
X6246Y60430D01*
X6276Y60400D01*
X6246Y60370D01*
X6200Y60260D01*
Y60140D01*
X6246Y60030D01*
X6276Y60000D01*
X6246Y59970D01*
X6200Y59860D01*
Y59740D01*
X6246Y59630D01*
X6276Y59600D01*
X6246Y59570D01*
X6200Y59460D01*
Y59340D01*
X6246Y59230D01*
X6276Y59200D01*
X6246Y59170D01*
X6200Y59060D01*
Y58940D01*
X6246Y58830D01*
X6276Y58800D01*
X6246Y58770D01*
X6200Y58660D01*
Y58540D01*
X6246Y58430D01*
X6276Y58400D01*
X6246Y58370D01*
X6200Y58260D01*
Y58140D01*
X6246Y58030D01*
X6276Y58000D01*
X6246Y57970D01*
X6200Y57860D01*
Y57740D01*
X6246Y57630D01*
X6330Y57546D01*
X6440Y57500D01*
X6560D01*
X6670Y57546D01*
X6700Y57576D01*
X6730Y57546D01*
X6840Y57500D01*
X6960D01*
X7070Y57546D01*
X7100Y57576D01*
X7130Y57546D01*
X7240Y57500D01*
X7360D01*
X7470Y57546D01*
X7500Y57576D01*
X7530Y57546D01*
X7640Y57500D01*
X7760D01*
X7870Y57546D01*
X7954Y57630D01*
X8000Y57740D01*
Y57860D01*
X7954Y57970D01*
X7924Y58000D01*
X7954Y58030D01*
X8000Y58140D01*
Y58260D01*
X7954Y58370D01*
X7924Y58400D01*
X7954Y58430D01*
X8000Y58540D01*
Y58660D01*
X7954Y58770D01*
X7924Y58800D01*
X7954Y58830D01*
X8000Y58940D01*
Y59060D01*
X7954Y59170D01*
X7924Y59200D01*
X7954Y59230D01*
X8000Y59340D01*
Y59460D01*
X7954Y59570D01*
X7924Y59600D01*
X7954Y59630D01*
X8000Y59740D01*
Y59860D01*
X7954Y59970D01*
X7924Y60000D01*
X7954Y60030D01*
X8000Y60140D01*
Y60260D01*
X7954Y60370D01*
X7924Y60400D01*
X7954Y60430D01*
X8000Y60540D01*
Y60660D01*
X7954Y60770D01*
X7924Y60800D01*
X7954Y60830D01*
X8000Y60940D01*
Y61060D01*
X7954Y61170D01*
X7870Y61254D01*
X7760Y61300D01*
D02*
G37*
G36*
X64660Y61400D02*
X64540D01*
X64430Y61354D01*
X64346Y61270D01*
X64300Y61160D01*
Y61040D01*
X64346Y60930D01*
X64430Y60846D01*
X64540Y60800D01*
X64660D01*
X64770Y60846D01*
X64854Y60930D01*
X64900Y61040D01*
Y61160D01*
X64854Y61270D01*
X64770Y61354D01*
X64660Y61400D01*
D02*
G37*
G36*
X65760Y61100D02*
X65640D01*
X65530Y61054D01*
X65446Y60970D01*
X65400Y60860D01*
Y60740D01*
X65446Y60630D01*
X65530Y60546D01*
X65640Y60500D01*
X65760D01*
X65870Y60546D01*
X65954Y60630D01*
X66000Y60740D01*
Y60860D01*
X65954Y60970D01*
X65870Y61054D01*
X65760Y61100D01*
D02*
G37*
G36*
X58039Y60300D02*
X57919D01*
X57809Y60254D01*
X57725Y60170D01*
X57679Y60060D01*
X57560Y60000D01*
X57440D01*
X57330Y59954D01*
X57258Y59882D01*
X57219Y59870D01*
X57109Y59872D01*
X57052Y59929D01*
X56941Y59975D01*
X56822D01*
X56712Y59929D01*
X56627Y59845D01*
X56582Y59735D01*
Y59615D01*
X56627Y59505D01*
X56712Y59421D01*
X56822Y59375D01*
X56941D01*
X57052Y59421D01*
X57124Y59493D01*
X57163Y59505D01*
X57273Y59503D01*
X57330Y59446D01*
X57440Y59400D01*
X57560D01*
X57670Y59446D01*
X57754Y59530D01*
X57800Y59640D01*
X57919Y59700D01*
X58039D01*
X58149Y59746D01*
X58233Y59830D01*
X58279Y59940D01*
Y60060D01*
X58233Y60170D01*
X58149Y60254D01*
X58039Y60300D01*
D02*
G37*
G36*
X64460Y60000D02*
X64340D01*
X64230Y59954D01*
X64146Y59870D01*
X64100Y59760D01*
Y59640D01*
X64146Y59530D01*
X64230Y59446D01*
X64340Y59400D01*
X64460D01*
X64570Y59446D01*
X64654Y59530D01*
X64700Y59640D01*
Y59760D01*
X64654Y59870D01*
X64570Y59954D01*
X64460Y60000D01*
D02*
G37*
G36*
X61760D02*
X61640D01*
X61530Y59954D01*
X61446Y59870D01*
X61400Y59760D01*
Y59640D01*
X61446Y59530D01*
X61530Y59446D01*
X61640Y59400D01*
X61760D01*
X61870Y59446D01*
X61954Y59530D01*
X62000Y59640D01*
Y59760D01*
X61954Y59870D01*
X61870Y59954D01*
X61760Y60000D01*
D02*
G37*
G36*
X65260Y59900D02*
X65140D01*
X65030Y59854D01*
X64946Y59770D01*
X64900Y59660D01*
Y59540D01*
X64946Y59430D01*
X65030Y59346D01*
X65140Y59300D01*
X65260D01*
X65370Y59346D01*
X65454Y59430D01*
X65500Y59540D01*
Y59660D01*
X65454Y59770D01*
X65370Y59854D01*
X65260Y59900D01*
D02*
G37*
G36*
X72360Y59200D02*
X72240D01*
X72130Y59154D01*
X72100Y59124D01*
X72070Y59154D01*
X71960Y59200D01*
X71840D01*
X71730Y59154D01*
X71700Y59124D01*
X71670Y59154D01*
X71560Y59200D01*
X71440D01*
X71330Y59154D01*
X71300Y59124D01*
X71270Y59154D01*
X71160Y59200D01*
X71040D01*
X70930Y59154D01*
X70900Y59124D01*
X70870Y59154D01*
X70760Y59200D01*
X70640D01*
X70530Y59154D01*
X70446Y59070D01*
X70400Y58960D01*
Y58840D01*
X70446Y58730D01*
X70530Y58646D01*
X70640Y58600D01*
X70760D01*
X70870Y58646D01*
X70900Y58676D01*
X70930Y58646D01*
X71040Y58600D01*
X71083D01*
X71170Y58570D01*
X71200Y58483D01*
Y58440D01*
X71246Y58330D01*
X71276Y58300D01*
X71246Y58270D01*
X71200Y58160D01*
Y58117D01*
X71170Y58030D01*
X71083Y58000D01*
X71040D01*
X70930Y57954D01*
X70900Y57924D01*
X70870Y57954D01*
X70760Y58000D01*
X70640D01*
X70530Y57954D01*
X70446Y57870D01*
X70400Y57760D01*
Y57640D01*
X70446Y57530D01*
X70530Y57446D01*
X70640Y57400D01*
X70760D01*
X70870Y57446D01*
X70900Y57476D01*
X70930Y57446D01*
X71040Y57400D01*
X71160D01*
X71270Y57446D01*
X71300Y57476D01*
X71330Y57446D01*
X71440Y57400D01*
X71560D01*
X71670Y57446D01*
X71700Y57476D01*
X71730Y57446D01*
X71840Y57400D01*
X71960D01*
X72070Y57446D01*
X72100Y57476D01*
X72130Y57446D01*
X72240Y57400D01*
X72360D01*
X72470Y57446D01*
X72500Y57476D01*
X72530Y57446D01*
X72640Y57400D01*
X72760D01*
X72870Y57446D01*
X72954Y57530D01*
X73000Y57640D01*
Y57760D01*
X72954Y57870D01*
X72924Y57900D01*
X72954Y57930D01*
X73000Y58040D01*
Y58160D01*
X72954Y58270D01*
X72870Y58354D01*
X72760Y58400D01*
X72717D01*
X72630Y58430D01*
X72600Y58517D01*
Y58560D01*
X72554Y58670D01*
X72524Y58700D01*
X72554Y58730D01*
X72600Y58840D01*
Y58960D01*
X72554Y59070D01*
X72470Y59154D01*
X72360Y59200D01*
D02*
G37*
G36*
X48705Y59500D02*
X48585D01*
X48475Y59454D01*
X48391Y59370D01*
X48345Y59260D01*
Y59140D01*
X48391Y59030D01*
X48475Y58946D01*
X48585Y58900D01*
X48705D01*
X48815Y58946D01*
X48899Y59030D01*
X48945Y59140D01*
Y59260D01*
X48899Y59370D01*
X48815Y59454D01*
X48705Y59500D01*
D02*
G37*
G36*
X75004Y59635D02*
X74796D01*
X74603Y59555D01*
X74455Y59407D01*
X74375Y59214D01*
Y59006D01*
X74455Y58813D01*
X74603Y58665D01*
X74796Y58585D01*
X75004D01*
X75197Y58665D01*
X75345Y58813D01*
X75425Y59006D01*
Y59214D01*
X75345Y59407D01*
X75197Y59555D01*
X75004Y59635D01*
D02*
G37*
G36*
X65260Y57900D02*
X65140D01*
X65030Y57854D01*
X64946Y57770D01*
X64900Y57660D01*
Y57540D01*
X64946Y57430D01*
X65030Y57346D01*
X65140Y57300D01*
X65260D01*
X65370Y57346D01*
X65454Y57430D01*
X65500Y57540D01*
Y57660D01*
X65454Y57770D01*
X65370Y57854D01*
X65260Y57900D01*
D02*
G37*
G36*
X58281Y57953D02*
X58141D01*
X58011Y57899D01*
X57912Y57800D01*
X57858Y57670D01*
Y57530D01*
X57912Y57401D01*
X58011Y57302D01*
X58141Y57248D01*
X58281D01*
X58410Y57302D01*
X58510Y57401D01*
X58563Y57530D01*
Y57670D01*
X58510Y57800D01*
X58410Y57899D01*
X58281Y57953D01*
D02*
G37*
G36*
X57181D02*
X57041D01*
X56911Y57899D01*
X56812Y57800D01*
X56758Y57670D01*
Y57530D01*
X56812Y57401D01*
X56911Y57302D01*
X57041Y57248D01*
X57181D01*
X57310Y57302D01*
X57410Y57401D01*
X57463Y57530D01*
Y57670D01*
X57410Y57800D01*
X57310Y57899D01*
X57181Y57953D01*
D02*
G37*
G36*
X56081D02*
X55941D01*
X55811Y57899D01*
X55712Y57800D01*
X55658Y57670D01*
Y57530D01*
X55712Y57401D01*
X55811Y57302D01*
X55941Y57248D01*
X56081D01*
X56210Y57302D01*
X56310Y57401D01*
X56363Y57530D01*
Y57670D01*
X56310Y57800D01*
X56210Y57899D01*
X56081Y57953D01*
D02*
G37*
G36*
X62490Y57800D02*
X62370D01*
X62260Y57754D01*
X62176Y57670D01*
X62130Y57560D01*
Y57440D01*
X62176Y57330D01*
X62260Y57246D01*
X62370Y57200D01*
X62490D01*
X62600Y57246D01*
X62684Y57330D01*
X62730Y57440D01*
Y57560D01*
X62684Y57670D01*
X62600Y57754D01*
X62490Y57800D01*
D02*
G37*
G36*
X78825Y58235D02*
X78275D01*
X78070Y58195D01*
X77896Y58078D01*
X77780Y57905D01*
X77740Y57700D01*
X77780Y57495D01*
X77896Y57321D01*
X78070Y57205D01*
X78275Y57165D01*
X78825D01*
X79030Y57205D01*
X79203Y57321D01*
X79320Y57495D01*
X79360Y57700D01*
X79320Y57905D01*
X79203Y58078D01*
X79030Y58195D01*
X78825Y58235D01*
D02*
G37*
G36*
X74875D02*
X73925D01*
X73720Y58195D01*
X73547Y58078D01*
X73430Y57905D01*
X73390Y57700D01*
X73430Y57495D01*
X73547Y57321D01*
X73720Y57205D01*
X73925Y57165D01*
X74875D01*
X75080Y57205D01*
X75254Y57321D01*
X75370Y57495D01*
X75410Y57700D01*
X75370Y57905D01*
X75254Y58078D01*
X75080Y58195D01*
X74875Y58235D01*
D02*
G37*
G36*
X63460Y57100D02*
X63340D01*
X63230Y57054D01*
X63178Y57003D01*
X63100Y56982D01*
X63022Y57003D01*
X62970Y57054D01*
X62860Y57100D01*
X62740D01*
X62630Y57054D01*
X62578Y57003D01*
X62500Y56982D01*
X62422Y57003D01*
X62370Y57054D01*
X62260Y57100D01*
X62140D01*
X62030Y57054D01*
X61963Y56987D01*
X61931Y56970D01*
X61810Y56974D01*
X61770Y57014D01*
X61660Y57060D01*
X61540D01*
X61430Y57014D01*
X61346Y56930D01*
X61300Y56820D01*
Y56700D01*
X61346Y56590D01*
X61430Y56506D01*
X61540Y56460D01*
X61660D01*
X61770Y56506D01*
X61837Y56573D01*
X61869Y56590D01*
X61990Y56586D01*
X62030Y56546D01*
X62140Y56500D01*
X62260D01*
X62370Y56546D01*
X62422Y56597D01*
X62500Y56618D01*
X62578Y56597D01*
X62630Y56546D01*
X62740Y56500D01*
X62860D01*
X62970Y56546D01*
X63022Y56597D01*
X63100Y56618D01*
X63178Y56597D01*
X63230Y56546D01*
X63340Y56500D01*
X63460D01*
X63570Y56546D01*
X63654Y56630D01*
X63700Y56740D01*
Y56860D01*
X63654Y56970D01*
X63570Y57054D01*
X63460Y57100D01*
D02*
G37*
G36*
X64160Y57400D02*
X64040D01*
X63930Y57354D01*
X63846Y57270D01*
X63800Y57160D01*
Y57040D01*
X63846Y56930D01*
X63930Y56846D01*
X64040Y56800D01*
X64160D01*
X64270Y56846D01*
X64354Y56930D01*
X64400Y57040D01*
Y57160D01*
X64354Y57270D01*
X64270Y57354D01*
X64160Y57400D01*
D02*
G37*
G36*
X58685Y61025D02*
X58515D01*
X58359Y60960D01*
X58240Y60841D01*
X58175Y60685D01*
Y60515D01*
X58240Y60359D01*
X58359Y60240D01*
X58515Y60175D01*
X58592D01*
X58694Y60073D01*
Y57100D01*
X58694Y57100D01*
X58717Y56983D01*
X58784Y56884D01*
X59184Y56484D01*
X59184Y56484D01*
X59283Y56417D01*
X59400Y56394D01*
X60105D01*
X60159Y56340D01*
X60315Y56275D01*
X60485D01*
X60641Y56340D01*
X60760Y56459D01*
X60825Y56615D01*
Y56785D01*
X60760Y56941D01*
X60641Y57060D01*
X60485Y57125D01*
X60315D01*
X60159Y57060D01*
X60105Y57006D01*
X59527D01*
X59306Y57227D01*
Y60200D01*
X59283Y60317D01*
X59216Y60416D01*
X59216Y60416D01*
X59025Y60608D01*
Y60685D01*
X58960Y60841D01*
X58841Y60960D01*
X58685Y61025D01*
D02*
G37*
G36*
X58281Y56853D02*
X58141D01*
X58011Y56799D01*
X57912Y56700D01*
X57858Y56570D01*
Y56430D01*
X57912Y56301D01*
X58011Y56202D01*
X58141Y56148D01*
X58281D01*
X58410Y56202D01*
X58510Y56301D01*
X58563Y56430D01*
Y56570D01*
X58510Y56700D01*
X58410Y56799D01*
X58281Y56853D01*
D02*
G37*
G36*
X57181D02*
X57041D01*
X56911Y56799D01*
X56812Y56700D01*
X56758Y56570D01*
Y56430D01*
X56812Y56301D01*
X56911Y56202D01*
X57041Y56148D01*
X57181D01*
X57310Y56202D01*
X57410Y56301D01*
X57463Y56430D01*
Y56570D01*
X57410Y56700D01*
X57310Y56799D01*
X57181Y56853D01*
D02*
G37*
G36*
X56081D02*
X55941D01*
X55811Y56799D01*
X55712Y56700D01*
X55658Y56570D01*
Y56430D01*
X55712Y56301D01*
X55811Y56202D01*
X55941Y56148D01*
X56081D01*
X56210Y56202D01*
X56310Y56301D01*
X56363Y56430D01*
Y56570D01*
X56310Y56700D01*
X56210Y56799D01*
X56081Y56853D01*
D02*
G37*
G36*
X48705Y56700D02*
X48585D01*
X48475Y56654D01*
X48391Y56570D01*
X48345Y56460D01*
Y56340D01*
X48391Y56230D01*
X48475Y56146D01*
X48585Y56100D01*
X48705D01*
X48815Y56146D01*
X48899Y56230D01*
X48945Y56340D01*
Y56460D01*
X48899Y56570D01*
X48815Y56654D01*
X48705Y56700D01*
D02*
G37*
G36*
X62660Y55500D02*
X62540D01*
X62430Y55454D01*
X62378Y55403D01*
X62300Y55382D01*
X62222Y55403D01*
X62170Y55454D01*
X62060Y55500D01*
X61940D01*
X61830Y55454D01*
X61778Y55403D01*
X61700Y55382D01*
X61622Y55403D01*
X61570Y55454D01*
X61460Y55500D01*
X61340D01*
X61230Y55454D01*
X61146Y55370D01*
X61100Y55260D01*
Y55140D01*
X61146Y55030D01*
X61230Y54946D01*
X61340Y54900D01*
X61460D01*
X61570Y54946D01*
X61622Y54997D01*
X61700Y55018D01*
X61778Y54997D01*
X61830Y54946D01*
X61940Y54900D01*
X62060D01*
X62170Y54946D01*
X62222Y54997D01*
X62300Y55018D01*
X62378Y54997D01*
X62430Y54946D01*
X62540Y54900D01*
X62660D01*
X62770Y54946D01*
X62854Y55030D01*
X62900Y55140D01*
Y55260D01*
X62854Y55370D01*
X62770Y55454D01*
X62660Y55500D01*
D02*
G37*
G36*
X28360Y55900D02*
X28240D01*
X28130Y55854D01*
X28046Y55770D01*
X28000Y55660D01*
Y55540D01*
X28046Y55430D01*
X28130Y55346D01*
X28240Y55300D01*
X28360D01*
X28470Y55346D01*
X28554Y55430D01*
X28600Y55540D01*
Y55660D01*
X28554Y55770D01*
X28470Y55854D01*
X28360Y55900D01*
D02*
G37*
G36*
X58281Y55753D02*
X58141D01*
X58011Y55699D01*
X57912Y55600D01*
X57858Y55470D01*
Y55330D01*
X57912Y55201D01*
X58011Y55102D01*
X58141Y55048D01*
X58281D01*
X58410Y55102D01*
X58510Y55201D01*
X58563Y55330D01*
Y55470D01*
X58510Y55600D01*
X58410Y55699D01*
X58281Y55753D01*
D02*
G37*
G36*
X57181D02*
X57041D01*
X56911Y55699D01*
X56812Y55600D01*
X56758Y55470D01*
Y55330D01*
X56812Y55201D01*
X56911Y55102D01*
X57041Y55048D01*
X57181D01*
X57310Y55102D01*
X57410Y55201D01*
X57463Y55330D01*
Y55470D01*
X57410Y55600D01*
X57310Y55699D01*
X57181Y55753D01*
D02*
G37*
G36*
X56081D02*
X55941D01*
X55811Y55699D01*
X55712Y55600D01*
X55658Y55470D01*
Y55330D01*
X55712Y55201D01*
X55811Y55102D01*
X55941Y55048D01*
X56081D01*
X56210Y55102D01*
X56310Y55201D01*
X56363Y55330D01*
Y55470D01*
X56310Y55600D01*
X56210Y55699D01*
X56081Y55753D01*
D02*
G37*
G36*
X54685Y54725D02*
X54515D01*
X54359Y54660D01*
X54305Y54606D01*
X53800D01*
X53800Y54606D01*
X53683Y54583D01*
X53584Y54516D01*
X53584Y54516D01*
X53284Y54216D01*
X53274Y54202D01*
X53245Y54199D01*
X53135Y54245D01*
X53015D01*
X52905Y54199D01*
X52821Y54115D01*
X52775Y54005D01*
Y53885D01*
X52816Y53786D01*
X52823Y53746D01*
X52830Y53654D01*
X52803Y53627D01*
X52746Y53570D01*
X52700Y53460D01*
Y53340D01*
X52746Y53230D01*
X52830Y53146D01*
X52940Y53100D01*
X53060D01*
X53067Y53103D01*
X53194Y53018D01*
Y52495D01*
X53140Y52441D01*
X53075Y52285D01*
Y52115D01*
X53140Y51959D01*
X53259Y51840D01*
X53415Y51775D01*
X53585D01*
X53741Y51840D01*
X53860Y51959D01*
X53925Y52115D01*
Y52285D01*
X53860Y52441D01*
X53806Y52495D01*
Y53873D01*
X53927Y53994D01*
X54305D01*
X54359Y53940D01*
X54515Y53875D01*
X54685D01*
X54841Y53940D01*
X54960Y54059D01*
X55025Y54215D01*
Y54385D01*
X54960Y54541D01*
X54841Y54660D01*
X54685Y54725D01*
D02*
G37*
G36*
X37260Y54900D02*
X37140D01*
X37030Y54854D01*
X36946Y54770D01*
X36900Y54660D01*
Y54540D01*
X36946Y54430D01*
X37030Y54346D01*
X37140Y54300D01*
X37260D01*
X37370Y54346D01*
X37454Y54430D01*
X37500Y54540D01*
Y54660D01*
X37454Y54770D01*
X37370Y54854D01*
X37260Y54900D01*
D02*
G37*
G36*
X75690Y54950D02*
X74990D01*
Y54250D01*
X75690D01*
Y54950D01*
D02*
G37*
G36*
X74490D02*
X73790D01*
Y54250D01*
X74490D01*
Y54950D01*
D02*
G37*
G36*
X23460Y54500D02*
X23340D01*
X23230Y54454D01*
X23146Y54370D01*
X23100Y54260D01*
Y54140D01*
X23146Y54030D01*
X23230Y53946D01*
X23340Y53900D01*
X23460D01*
X23570Y53946D01*
X23654Y54030D01*
X23700Y54140D01*
Y54260D01*
X23654Y54370D01*
X23570Y54454D01*
X23460Y54500D01*
D02*
G37*
G36*
X65060Y55500D02*
X64940D01*
X64830Y55454D01*
X64746Y55370D01*
X64700Y55260D01*
Y55140D01*
X64746Y55030D01*
X64797Y54978D01*
X64818Y54900D01*
X64797Y54822D01*
X64746Y54770D01*
X64700Y54660D01*
Y54540D01*
X64746Y54430D01*
X64797Y54378D01*
X64818Y54300D01*
X64797Y54222D01*
X64746Y54170D01*
X64700Y54060D01*
Y53940D01*
X64746Y53830D01*
X64830Y53746D01*
X64940Y53700D01*
X65060D01*
X65170Y53746D01*
X65254Y53830D01*
X65300Y53940D01*
Y54060D01*
X65254Y54170D01*
X65203Y54222D01*
X65182Y54300D01*
X65203Y54378D01*
X65254Y54430D01*
X65300Y54540D01*
Y54660D01*
X65254Y54770D01*
X65203Y54822D01*
X65182Y54900D01*
X65203Y54978D01*
X65254Y55030D01*
X65300Y55140D01*
Y55260D01*
X65254Y55370D01*
X65170Y55454D01*
X65060Y55500D01*
D02*
G37*
G36*
X59460Y54200D02*
X59340D01*
X59230Y54154D01*
X59146Y54070D01*
X59100Y53960D01*
Y53840D01*
X59146Y53730D01*
X59230Y53646D01*
X59340Y53600D01*
X59460D01*
X59570Y53646D01*
X59654Y53730D01*
X59700Y53840D01*
Y53960D01*
X59654Y54070D01*
X59570Y54154D01*
X59460Y54200D01*
D02*
G37*
G36*
X31960D02*
X31840D01*
X31730Y54154D01*
X31646Y54070D01*
X31600Y53960D01*
Y53840D01*
X31646Y53730D01*
X31730Y53646D01*
X31840Y53600D01*
X31960D01*
X32070Y53646D01*
X32154Y53730D01*
X32200Y53840D01*
Y53960D01*
X32154Y54070D01*
X32070Y54154D01*
X31960Y54200D01*
D02*
G37*
G36*
X31060D02*
X30940D01*
X30830Y54154D01*
X30746Y54070D01*
X30700Y53960D01*
Y53840D01*
X30746Y53730D01*
X30830Y53646D01*
X30940Y53600D01*
X31060D01*
X31170Y53646D01*
X31254Y53730D01*
X31300Y53840D01*
Y53960D01*
X31254Y54070D01*
X31170Y54154D01*
X31060Y54200D01*
D02*
G37*
G36*
X56860Y53500D02*
X56740D01*
X56630Y53454D01*
X56578Y53403D01*
X56500Y53382D01*
X56422Y53403D01*
X56370Y53454D01*
X56260Y53500D01*
X56140D01*
X56030Y53454D01*
X55946Y53370D01*
X55917Y53302D01*
X55783D01*
X55754Y53370D01*
X55670Y53454D01*
X55560Y53500D01*
X55440D01*
X55330Y53454D01*
X55246Y53370D01*
X55200Y53260D01*
Y53140D01*
X55246Y53030D01*
X55330Y52946D01*
X55440Y52900D01*
X55560D01*
X55670Y52946D01*
X55754Y53030D01*
X55783Y53098D01*
X55917D01*
X55946Y53030D01*
X56030Y52946D01*
X56140Y52900D01*
X56260D01*
X56370Y52946D01*
X56422Y52997D01*
X56500Y53018D01*
X56578Y52997D01*
X56630Y52946D01*
X56740Y52900D01*
X56860D01*
X56945Y52935D01*
X57035Y52845D01*
X57000Y52760D01*
Y52640D01*
X57046Y52530D01*
X57130Y52446D01*
X57240Y52400D01*
X57360D01*
X57470Y52446D01*
X57554Y52530D01*
X57600Y52640D01*
Y52760D01*
X57554Y52870D01*
X57470Y52954D01*
X57360Y53000D01*
X57240D01*
X57155Y52965D01*
X57065Y53055D01*
X57100Y53140D01*
Y53260D01*
X57054Y53370D01*
X56970Y53454D01*
X56860Y53500D01*
D02*
G37*
G36*
X72286Y54650D02*
X72114D01*
X71949Y54606D01*
X71801Y54520D01*
X71680Y54399D01*
X71594Y54251D01*
X71550Y54086D01*
Y53914D01*
X71594Y53749D01*
X71680Y53601D01*
X71801Y53480D01*
X71949Y53394D01*
X72114Y53350D01*
X72286D01*
X72451Y53394D01*
X72599Y53480D01*
X72720Y53601D01*
X72806Y53749D01*
X72850Y53914D01*
Y54086D01*
X72806Y54251D01*
X72720Y54399D01*
X72599Y54520D01*
X72451Y54606D01*
X72286Y54650D01*
D02*
G37*
G36*
X69746D02*
X69574D01*
X69409Y54606D01*
X69261Y54520D01*
X69140Y54399D01*
X69054Y54251D01*
X69010Y54086D01*
Y53914D01*
X69054Y53749D01*
X69140Y53601D01*
X69261Y53480D01*
X69409Y53394D01*
X69574Y53350D01*
X69746D01*
X69911Y53394D01*
X70059Y53480D01*
X70180Y53601D01*
X70266Y53749D01*
X70310Y53914D01*
Y54086D01*
X70266Y54251D01*
X70180Y54399D01*
X70059Y54520D01*
X69911Y54606D01*
X69746Y54650D01*
D02*
G37*
G36*
X67206D02*
X67034D01*
X66869Y54606D01*
X66721Y54520D01*
X66600Y54399D01*
X66514Y54251D01*
X66470Y54086D01*
Y53914D01*
X66514Y53749D01*
X66600Y53601D01*
X66721Y53480D01*
X66869Y53394D01*
X67034Y53350D01*
X67206D01*
X67371Y53394D01*
X67519Y53480D01*
X67640Y53601D01*
X67726Y53749D01*
X67770Y53914D01*
Y54086D01*
X67726Y54251D01*
X67640Y54399D01*
X67519Y54520D01*
X67371Y54606D01*
X67206Y54650D01*
D02*
G37*
G36*
X75690Y53750D02*
X74990D01*
Y53050D01*
X75690D01*
Y53750D01*
D02*
G37*
G36*
X74490D02*
X73790D01*
Y53050D01*
X74490D01*
Y53750D01*
D02*
G37*
G36*
X27760Y53600D02*
X27640D01*
X27530Y53554D01*
X27446Y53470D01*
X27400Y53360D01*
Y53240D01*
X27446Y53130D01*
X27530Y53046D01*
X27640Y53000D01*
X27760D01*
X27870Y53046D01*
X27954Y53130D01*
X28000Y53240D01*
Y53360D01*
X27954Y53470D01*
X27870Y53554D01*
X27760Y53600D01*
D02*
G37*
G36*
X58660Y53200D02*
X58540D01*
X58430Y53154D01*
X58346Y53070D01*
X58300Y52960D01*
Y52840D01*
X58346Y52730D01*
X58430Y52646D01*
X58540Y52600D01*
X58660D01*
X58770Y52646D01*
X58773Y52649D01*
X58816Y52646D01*
X58913Y52609D01*
X58946Y52530D01*
X59030Y52446D01*
X59075Y52427D01*
X59050Y52300D01*
X59040D01*
X58930Y52254D01*
X58846Y52170D01*
X58800Y52060D01*
Y51940D01*
X58846Y51830D01*
X58930Y51746D01*
X59040Y51700D01*
X59160D01*
X59270Y51746D01*
X59354Y51830D01*
X59400Y51940D01*
Y52060D01*
X59354Y52170D01*
X59270Y52254D01*
X59225Y52273D01*
X59250Y52400D01*
X59260D01*
X59370Y52446D01*
X59454Y52530D01*
X59500Y52640D01*
Y52760D01*
X59454Y52870D01*
X59370Y52954D01*
X59260Y53000D01*
X59140D01*
X59030Y52954D01*
X59027Y52951D01*
X58984Y52954D01*
X58887Y52991D01*
X58854Y53070D01*
X58770Y53154D01*
X58660Y53200D01*
D02*
G37*
G36*
X58260Y52300D02*
X58140D01*
X58030Y52254D01*
X57946Y52170D01*
X57900Y52060D01*
Y51940D01*
X57946Y51830D01*
X58030Y51746D01*
X58140Y51700D01*
X58260D01*
X58370Y51746D01*
X58454Y51830D01*
X58500Y51940D01*
Y52060D01*
X58454Y52170D01*
X58370Y52254D01*
X58260Y52300D01*
D02*
G37*
G36*
X19960Y51800D02*
X19840D01*
X19730Y51754D01*
X19646Y51670D01*
X19600Y51560D01*
Y51440D01*
X19646Y51330D01*
X19730Y51246D01*
X19840Y51200D01*
X19960D01*
X20070Y51246D01*
X20154Y51330D01*
X20200Y51440D01*
Y51560D01*
X20154Y51670D01*
X20070Y51754D01*
X19960Y51800D01*
D02*
G37*
G36*
X65060Y52900D02*
X64940D01*
X64830Y52854D01*
X64746Y52770D01*
X64700Y52660D01*
Y52540D01*
X64746Y52430D01*
X64797Y52378D01*
X64818Y52300D01*
X64797Y52222D01*
X64746Y52170D01*
X64700Y52060D01*
Y51940D01*
X64746Y51830D01*
X64797Y51778D01*
X64818Y51700D01*
X64797Y51622D01*
X64746Y51570D01*
X64700Y51460D01*
Y51340D01*
X64746Y51230D01*
X64830Y51146D01*
X64940Y51100D01*
X65060D01*
X65170Y51146D01*
X65254Y51230D01*
X65300Y51340D01*
Y51460D01*
X65254Y51570D01*
X65203Y51622D01*
X65182Y51700D01*
X65203Y51778D01*
X65254Y51830D01*
X65300Y51940D01*
Y52060D01*
X65254Y52170D01*
X65203Y52222D01*
X65182Y52300D01*
X65203Y52378D01*
X65254Y52430D01*
X65300Y52540D01*
Y52660D01*
X65254Y52770D01*
X65170Y52854D01*
X65060Y52900D01*
D02*
G37*
G36*
X65660Y51000D02*
X65540D01*
X65430Y50954D01*
X65346Y50870D01*
X65300Y50760D01*
Y50640D01*
X65346Y50530D01*
X65430Y50446D01*
X65540Y50400D01*
X65660D01*
X65770Y50446D01*
X65854Y50530D01*
X65900Y50640D01*
Y50760D01*
X65854Y50870D01*
X65770Y50954D01*
X65660Y51000D01*
D02*
G37*
G36*
X28160Y50900D02*
X28040D01*
X27930Y50854D01*
X27846Y50770D01*
X27800Y50660D01*
Y50540D01*
X27846Y50430D01*
X27930Y50346D01*
X28040Y50300D01*
X28160D01*
X28270Y50346D01*
X28354Y50430D01*
X28400Y50540D01*
Y50660D01*
X28354Y50770D01*
X28270Y50854D01*
X28160Y50900D01*
D02*
G37*
G36*
X59160Y50670D02*
X59040D01*
X58930Y50624D01*
X58846Y50540D01*
X58800Y50430D01*
Y50310D01*
X58846Y50200D01*
X58930Y50116D01*
X59040Y50070D01*
X59160D01*
X59270Y50116D01*
X59354Y50200D01*
X59400Y50310D01*
Y50430D01*
X59354Y50540D01*
X59270Y50624D01*
X59160Y50670D01*
D02*
G37*
G36*
X58260Y50670D02*
X58140D01*
X58030Y50624D01*
X57946Y50540D01*
X57900Y50430D01*
Y50310D01*
X57946Y50200D01*
X58030Y50116D01*
X58140Y50070D01*
X58260D01*
X58370Y50116D01*
X58454Y50200D01*
X58500Y50310D01*
Y50430D01*
X58454Y50540D01*
X58370Y50624D01*
X58260Y50670D01*
D02*
G37*
G36*
X57360D02*
X57240D01*
X57130Y50624D01*
X57046Y50540D01*
X57000Y50430D01*
Y50310D01*
X57046Y50200D01*
X57130Y50116D01*
X57240Y50070D01*
X57360D01*
X57470Y50116D01*
X57554Y50200D01*
X57600Y50310D01*
Y50430D01*
X57554Y50540D01*
X57470Y50624D01*
X57360Y50670D01*
D02*
G37*
G36*
X21960Y50600D02*
X21840D01*
X21730Y50554D01*
X21646Y50470D01*
X21600Y50360D01*
Y50240D01*
X21646Y50130D01*
X21730Y50046D01*
X21840Y50000D01*
X21960D01*
X22070Y50046D01*
X22154Y50130D01*
X22200Y50240D01*
Y50360D01*
X22154Y50470D01*
X22070Y50554D01*
X21960Y50600D01*
D02*
G37*
G36*
X31860Y50400D02*
X31740D01*
X31630Y50354D01*
X31546Y50270D01*
X31500Y50160D01*
Y50040D01*
X31546Y49930D01*
X31630Y49846D01*
X31740Y49800D01*
X31860D01*
X31970Y49846D01*
X32054Y49930D01*
X32100Y50040D01*
Y50160D01*
X32054Y50270D01*
X31970Y50354D01*
X31860Y50400D01*
D02*
G37*
G36*
X53560Y49700D02*
X53440D01*
X53330Y49654D01*
X53246Y49570D01*
X53200Y49460D01*
Y49340D01*
X53246Y49230D01*
X53330Y49146D01*
X53440Y49100D01*
X53560D01*
X53670Y49146D01*
X53754Y49230D01*
X53800Y49340D01*
Y49460D01*
X53754Y49570D01*
X53670Y49654D01*
X53560Y49700D01*
D02*
G37*
G36*
X56260Y49700D02*
X56140D01*
X56030Y49654D01*
X55946Y49570D01*
X55900Y49460D01*
Y49340D01*
X55946Y49230D01*
X56030Y49146D01*
X56140Y49100D01*
X56260D01*
X56370Y49146D01*
X56454Y49230D01*
X56500Y49340D01*
Y49460D01*
X56454Y49570D01*
X56370Y49654D01*
X56260Y49700D01*
D02*
G37*
G36*
X54966Y49681D02*
X54847D01*
X54736Y49635D01*
X54652Y49551D01*
X54606Y49440D01*
Y49321D01*
X54652Y49211D01*
X54736Y49126D01*
X54847Y49081D01*
X54966D01*
X55076Y49126D01*
X55161Y49211D01*
X55206Y49321D01*
Y49440D01*
X55161Y49551D01*
X55076Y49635D01*
X54966Y49681D01*
D02*
G37*
G36*
X15960Y48700D02*
X15840D01*
X15730Y48654D01*
X15646Y48570D01*
X15600Y48460D01*
Y48340D01*
X15646Y48230D01*
X15730Y48146D01*
X15840Y48100D01*
X15960D01*
X16070Y48146D01*
X16154Y48230D01*
X16200Y48340D01*
Y48460D01*
X16154Y48570D01*
X16070Y48654D01*
X15960Y48700D01*
D02*
G37*
G36*
X14560Y48300D02*
X14440D01*
X14330Y48254D01*
X14246Y48170D01*
X14200Y48060D01*
Y47940D01*
X14246Y47830D01*
X14330Y47746D01*
X14440Y47700D01*
X14560D01*
X14670Y47746D01*
X14754Y47830D01*
X14800Y47940D01*
Y48060D01*
X14754Y48170D01*
X14670Y48254D01*
X14560Y48300D01*
D02*
G37*
G36*
X31860Y48200D02*
X31740D01*
X31630Y48154D01*
X31546Y48070D01*
X31500Y47960D01*
Y47840D01*
X31546Y47730D01*
X31630Y47646D01*
X31740Y47600D01*
X31860D01*
X31970Y47646D01*
X32054Y47730D01*
X32100Y47840D01*
Y47960D01*
X32054Y48070D01*
X31970Y48154D01*
X31860Y48200D01*
D02*
G37*
G36*
X15960Y47900D02*
X15840D01*
X15730Y47854D01*
X15646Y47770D01*
X15600Y47660D01*
Y47540D01*
X15646Y47430D01*
X15730Y47346D01*
X15840Y47300D01*
X15960D01*
X16070Y47346D01*
X16154Y47430D01*
X16200Y47540D01*
Y47660D01*
X16154Y47770D01*
X16070Y47854D01*
X15960Y47900D01*
D02*
G37*
G36*
X8677Y49800D02*
X8323D01*
X7975Y49731D01*
X7647Y49595D01*
X7353Y49398D01*
X7102Y49147D01*
X6905Y48853D01*
X6769Y48525D01*
X6700Y48177D01*
Y47823D01*
X6769Y47475D01*
X6905Y47147D01*
X7102Y46853D01*
X7353Y46602D01*
X7647Y46405D01*
X7975Y46269D01*
X8323Y46200D01*
X8677D01*
X9025Y46269D01*
X9353Y46405D01*
X9647Y46602D01*
X9898Y46853D01*
X10095Y47147D01*
X10231Y47475D01*
X10300Y47823D01*
Y48177D01*
X10231Y48525D01*
X10095Y48853D01*
X9898Y49147D01*
X9647Y49398D01*
X9353Y49595D01*
X9025Y49731D01*
X8677Y49800D01*
D02*
G37*
G36*
X52860Y38100D02*
X52740D01*
X52630Y38054D01*
X52546Y37970D01*
X52500Y37860D01*
Y37740D01*
X52546Y37630D01*
X52630Y37546D01*
X52740Y37500D01*
X52860D01*
X52970Y37546D01*
X53054Y37630D01*
X53100Y37740D01*
Y37860D01*
X53054Y37970D01*
X52970Y38054D01*
X52860Y38100D01*
D02*
G37*
G36*
X71960Y37700D02*
X71840D01*
X71730Y37654D01*
X71646Y37570D01*
X71600Y37460D01*
Y37340D01*
X71646Y37230D01*
X71730Y37146D01*
X71840Y37100D01*
X71960D01*
X72070Y37146D01*
X72154Y37230D01*
X72200Y37340D01*
Y37460D01*
X72154Y37570D01*
X72070Y37654D01*
X71960Y37700D01*
D02*
G37*
G36*
X70560Y37300D02*
X70440D01*
X70330Y37254D01*
X70246Y37170D01*
X70200Y37060D01*
Y36940D01*
X70246Y36830D01*
X70330Y36746D01*
X70440Y36700D01*
X70560D01*
X70670Y36746D01*
X70754Y36830D01*
X70800Y36940D01*
Y37060D01*
X70754Y37170D01*
X70670Y37254D01*
X70560Y37300D01*
D02*
G37*
G36*
X71960Y36900D02*
X71840D01*
X71730Y36854D01*
X71646Y36770D01*
X71600Y36660D01*
Y36540D01*
X71646Y36430D01*
X71730Y36346D01*
X71840Y36300D01*
X71960D01*
X72070Y36346D01*
X72154Y36430D01*
X72200Y36540D01*
Y36660D01*
X72154Y36770D01*
X72070Y36854D01*
X71960Y36900D01*
D02*
G37*
G36*
X59560Y36600D02*
X59440D01*
X59330Y36554D01*
X59246Y36470D01*
X59200Y36360D01*
Y36240D01*
X59246Y36130D01*
X59330Y36046D01*
X59440Y36000D01*
X59560D01*
X59670Y36046D01*
X59754Y36130D01*
X59800Y36240D01*
Y36360D01*
X59754Y36470D01*
X59670Y36554D01*
X59560Y36600D01*
D02*
G37*
G36*
X46260D02*
X46140D01*
X46030Y36554D01*
X45946Y36470D01*
X45900Y36360D01*
Y36240D01*
X45946Y36130D01*
X46030Y36046D01*
X46140Y36000D01*
X46260D01*
X46370Y36046D01*
X46454Y36130D01*
X46500Y36240D01*
Y36360D01*
X46454Y36470D01*
X46370Y36554D01*
X46260Y36600D01*
D02*
G37*
G36*
X55160Y36100D02*
X55040D01*
X54930Y36054D01*
X54846Y35970D01*
X54800Y35860D01*
Y35740D01*
X54846Y35630D01*
X54930Y35546D01*
X55040Y35500D01*
X55160D01*
X55270Y35546D01*
X55354Y35630D01*
X55400Y35740D01*
Y35860D01*
X55354Y35970D01*
X55270Y36054D01*
X55160Y36100D01*
D02*
G37*
G36*
X76677Y38800D02*
X76323D01*
X75975Y38731D01*
X75647Y38595D01*
X75353Y38398D01*
X75102Y38147D01*
X74905Y37853D01*
X74769Y37525D01*
X74700Y37177D01*
Y36823D01*
X74769Y36475D01*
X74905Y36147D01*
X75102Y35853D01*
X75353Y35602D01*
X75647Y35405D01*
X75975Y35269D01*
X76323Y35200D01*
X76677D01*
X77025Y35269D01*
X77353Y35405D01*
X77647Y35602D01*
X77898Y35853D01*
X78095Y36147D01*
X78231Y36475D01*
X78300Y36823D01*
Y37177D01*
X78231Y37525D01*
X78095Y37853D01*
X77898Y38147D01*
X77647Y38398D01*
X77353Y38595D01*
X77025Y38731D01*
X76677Y38800D01*
D02*
G37*
G36*
X38660Y36300D02*
X38540D01*
X38430Y36254D01*
X38346Y36170D01*
X38300Y36060D01*
Y35940D01*
X38346Y35830D01*
X38430Y35746D01*
X38540Y35700D01*
X38621D01*
X38695Y35618D01*
X38710Y35583D01*
X38700Y35560D01*
Y35440D01*
X38746Y35330D01*
X38830Y35246D01*
X38940Y35200D01*
X39060D01*
X39170Y35246D01*
X39254Y35330D01*
X39300Y35440D01*
Y35560D01*
X39254Y35670D01*
X39170Y35754D01*
X39060Y35800D01*
X38979D01*
X38905Y35882D01*
X38890Y35917D01*
X38900Y35940D01*
Y36060D01*
X38854Y36170D01*
X38770Y36254D01*
X38660Y36300D01*
D02*
G37*
G36*
X47360Y35700D02*
X47240D01*
X47130Y35654D01*
X47046Y35570D01*
X47000Y35460D01*
Y35340D01*
X47046Y35230D01*
X47130Y35146D01*
X47240Y35100D01*
X47360D01*
X47470Y35146D01*
X47554Y35230D01*
X47600Y35340D01*
Y35460D01*
X47554Y35570D01*
X47470Y35654D01*
X47360Y35700D01*
D02*
G37*
G36*
X34960Y35600D02*
X34840D01*
X34730Y35554D01*
X34646Y35470D01*
X34600Y35360D01*
Y35240D01*
X34646Y35130D01*
X34730Y35046D01*
X34840Y35000D01*
X34960D01*
X35070Y35046D01*
X35154Y35130D01*
X35200Y35240D01*
Y35360D01*
X35154Y35470D01*
X35070Y35554D01*
X34960Y35600D01*
D02*
G37*
G36*
X73760Y30700D02*
X73640D01*
X73530Y30654D01*
X73500Y30624D01*
X73470Y30654D01*
X73360Y30700D01*
X73240D01*
X73130Y30654D01*
X73100Y30624D01*
X73070Y30654D01*
X72960Y30700D01*
X72840D01*
X72730Y30654D01*
X72646Y30570D01*
X72600Y30460D01*
Y30340D01*
X72646Y30230D01*
X72676Y30200D01*
X72646Y30170D01*
X72600Y30060D01*
Y29940D01*
X72646Y29830D01*
X72676Y29800D01*
X72646Y29770D01*
X72600Y29660D01*
Y29540D01*
X72646Y29430D01*
X72676Y29400D01*
X72646Y29370D01*
X72600Y29260D01*
Y29140D01*
X72646Y29030D01*
X72676Y29000D01*
X72646Y28970D01*
X72600Y28860D01*
Y28740D01*
X72646Y28630D01*
X72676Y28600D01*
X72646Y28570D01*
X72600Y28460D01*
Y28340D01*
X72646Y28230D01*
X72676Y28200D01*
X72646Y28170D01*
X72600Y28060D01*
Y27940D01*
X72646Y27830D01*
X72676Y27800D01*
X72646Y27770D01*
X72600Y27660D01*
Y27540D01*
X72646Y27430D01*
X72676Y27400D01*
X72646Y27370D01*
X72600Y27260D01*
Y27140D01*
X72646Y27030D01*
X72676Y27000D01*
X72646Y26970D01*
X72600Y26860D01*
Y26740D01*
X72646Y26630D01*
X72730Y26546D01*
X72840Y26500D01*
X72960D01*
X73070Y26546D01*
X73154Y26630D01*
X73200Y26740D01*
Y26860D01*
X73154Y26970D01*
X73124Y27000D01*
X73154Y27030D01*
X73200Y27140D01*
Y27260D01*
X73154Y27370D01*
X73124Y27400D01*
X73154Y27430D01*
X73200Y27540D01*
Y27660D01*
X73154Y27770D01*
X73124Y27800D01*
X73154Y27830D01*
X73200Y27940D01*
Y27983D01*
X73230Y28070D01*
X73317Y28100D01*
X73360D01*
X73470Y28146D01*
X73554Y28230D01*
X73600Y28340D01*
Y28460D01*
X73554Y28570D01*
X73524Y28600D01*
X73554Y28630D01*
X73600Y28740D01*
Y28783D01*
X73630Y28870D01*
X73717Y28900D01*
X73760D01*
X73870Y28946D01*
X73954Y29030D01*
X74000Y29140D01*
Y29260D01*
X73954Y29370D01*
X73924Y29400D01*
X73954Y29430D01*
X74000Y29540D01*
Y29660D01*
X73954Y29770D01*
X73924Y29800D01*
X73954Y29830D01*
X74000Y29940D01*
Y30060D01*
X73954Y30170D01*
X73924Y30200D01*
X73954Y30230D01*
X74000Y30340D01*
Y30460D01*
X73954Y30570D01*
X73870Y30654D01*
X73760Y30700D01*
D02*
G37*
G36*
X78825Y27835D02*
X78275D01*
X78070Y27795D01*
X77896Y27678D01*
X77780Y27505D01*
X77740Y27300D01*
X77780Y27095D01*
X77896Y26921D01*
X78070Y26805D01*
X78275Y26765D01*
X78825D01*
X79030Y26805D01*
X79203Y26921D01*
X79320Y27095D01*
X79360Y27300D01*
X79320Y27505D01*
X79203Y27678D01*
X79030Y27795D01*
X78825Y27835D01*
D02*
G37*
G36*
X74875D02*
X73925D01*
X73720Y27795D01*
X73547Y27678D01*
X73430Y27505D01*
X73390Y27300D01*
X73430Y27095D01*
X73547Y26921D01*
X73720Y26805D01*
X73925Y26765D01*
X74875D01*
X75080Y26805D01*
X75254Y26921D01*
X75370Y27095D01*
X75410Y27300D01*
X75370Y27505D01*
X75254Y27678D01*
X75080Y27795D01*
X74875Y27835D01*
D02*
G37*
G36*
X75004Y26415D02*
X74796D01*
X74603Y26335D01*
X74455Y26187D01*
X74375Y25994D01*
Y25786D01*
X74455Y25593D01*
X74603Y25445D01*
X74796Y25365D01*
X75004D01*
X75197Y25445D01*
X75345Y25593D01*
X75425Y25786D01*
Y25994D01*
X75345Y26187D01*
X75197Y26335D01*
X75004Y26415D01*
D02*
G37*
G36*
X15960Y37700D02*
X15840D01*
X15730Y37654D01*
X15646Y37570D01*
X15600Y37460D01*
Y37340D01*
X15646Y37230D01*
X15730Y37146D01*
X15840Y37100D01*
X15960D01*
X16070Y37146D01*
X16154Y37230D01*
X16200Y37340D01*
Y37460D01*
X16154Y37570D01*
X16070Y37654D01*
X15960Y37700D01*
D02*
G37*
G36*
X14560Y37300D02*
X14440D01*
X14330Y37254D01*
X14246Y37170D01*
X14200Y37060D01*
Y36940D01*
X14246Y36830D01*
X14330Y36746D01*
X14440Y36700D01*
X14560D01*
X14670Y36746D01*
X14754Y36830D01*
X14800Y36940D01*
Y37060D01*
X14754Y37170D01*
X14670Y37254D01*
X14560Y37300D01*
D02*
G37*
G36*
X15960Y36900D02*
X15840D01*
X15730Y36854D01*
X15646Y36770D01*
X15600Y36660D01*
Y36540D01*
X15646Y36430D01*
X15730Y36346D01*
X15840Y36300D01*
X15960D01*
X16070Y36346D01*
X16154Y36430D01*
X16200Y36540D01*
Y36660D01*
X16154Y36770D01*
X16070Y36854D01*
X15960Y36900D01*
D02*
G37*
G36*
X8677Y38800D02*
X8323D01*
X7975Y38731D01*
X7647Y38595D01*
X7353Y38398D01*
X7102Y38147D01*
X6905Y37853D01*
X6769Y37525D01*
X6700Y37177D01*
Y36823D01*
X6769Y36475D01*
X6905Y36147D01*
X7102Y35853D01*
X7353Y35602D01*
X7647Y35405D01*
X7975Y35269D01*
X8323Y35200D01*
X8677D01*
X9025Y35269D01*
X9353Y35405D01*
X9647Y35602D01*
X9898Y35853D01*
X10095Y36147D01*
X10231Y36475D01*
X10300Y36823D01*
Y37177D01*
X10231Y37525D01*
X10095Y37853D01*
X9898Y38147D01*
X9647Y38398D01*
X9353Y38595D01*
X9025Y38731D01*
X8677Y38800D01*
D02*
G37*
G36*
X57260Y31800D02*
X57140D01*
X57030Y31754D01*
X56946Y31670D01*
X56900Y31560D01*
Y31440D01*
X56946Y31330D01*
X57030Y31246D01*
X57140Y31200D01*
X57260D01*
X57370Y31246D01*
X57454Y31330D01*
X57500Y31440D01*
Y31560D01*
X57454Y31670D01*
X57370Y31754D01*
X57260Y31800D01*
D02*
G37*
G36*
X55835Y31125D02*
X55715D01*
X55605Y31079D01*
X55521Y30995D01*
X55475Y30885D01*
X55348Y30819D01*
X55335Y30825D01*
X55215D01*
X55105Y30779D01*
X55021Y30695D01*
X54975Y30585D01*
Y30465D01*
X55008Y30386D01*
X54966Y30292D01*
X54937Y30259D01*
X54754D01*
X54700Y30340D01*
Y30460D01*
X54654Y30570D01*
X54570Y30654D01*
X54460Y30700D01*
X54340D01*
X54230Y30654D01*
X54146Y30570D01*
X54100Y30460D01*
Y30340D01*
X54046Y30259D01*
X53900D01*
X53724Y30224D01*
X53576Y30124D01*
X53476Y29976D01*
X53441Y29800D01*
X53476Y29624D01*
X53576Y29476D01*
X53724Y29376D01*
X53900Y29341D01*
X56417D01*
X56441Y29317D01*
Y28600D01*
Y28000D01*
X56476Y27824D01*
X56576Y27676D01*
X56724Y27576D01*
X56900Y27541D01*
X57076Y27576D01*
X57224Y27676D01*
X57324Y27824D01*
X57359Y28000D01*
Y28600D01*
Y29507D01*
X57324Y29683D01*
X57224Y29832D01*
X56932Y30124D01*
X56783Y30224D01*
X56607Y30259D01*
X55613D01*
X55584Y30292D01*
X55542Y30386D01*
X55575Y30465D01*
X55702Y30531D01*
X55715Y30525D01*
X55835D01*
X55945Y30571D01*
X56029Y30655D01*
X56075Y30765D01*
Y30885D01*
X56029Y30995D01*
X55945Y31079D01*
X55835Y31125D01*
D02*
G37*
G36*
X69460Y31400D02*
X69340D01*
X69230Y31354D01*
X69146Y31270D01*
X69100Y31160D01*
Y31040D01*
X69146Y30930D01*
X69230Y30846D01*
X69340Y30800D01*
X69460D01*
X69570Y30846D01*
X69654Y30930D01*
X69700Y31040D01*
Y31160D01*
X69654Y31270D01*
X69570Y31354D01*
X69460Y31400D01*
D02*
G37*
G36*
X63060D02*
X62940D01*
X62830Y31354D01*
X62746Y31270D01*
X62700Y31160D01*
Y31040D01*
X62746Y30930D01*
X62830Y30846D01*
X62940Y30800D01*
X63060D01*
X63170Y30846D01*
X63254Y30930D01*
X63300Y31040D01*
Y31160D01*
X63254Y31270D01*
X63170Y31354D01*
X63060Y31400D01*
D02*
G37*
G36*
X43260Y31300D02*
X43140D01*
X43030Y31254D01*
X42946Y31170D01*
X42900Y31060D01*
Y30940D01*
X42946Y30830D01*
X43030Y30746D01*
X43140Y30700D01*
X43260D01*
X43370Y30746D01*
X43454Y30830D01*
X43500Y30940D01*
Y31060D01*
X43454Y31170D01*
X43370Y31254D01*
X43260Y31300D01*
D02*
G37*
G36*
X48460Y31200D02*
X48340D01*
X48230Y31154D01*
X48146Y31070D01*
X48100Y30960D01*
Y30840D01*
X48146Y30730D01*
X48230Y30646D01*
X48340Y30600D01*
X48460D01*
X48570Y30646D01*
X48654Y30730D01*
X48700Y30840D01*
Y30960D01*
X48654Y31070D01*
X48570Y31154D01*
X48460Y31200D01*
D02*
G37*
G36*
X47260D02*
X47140D01*
X47030Y31154D01*
X46946Y31070D01*
X46900Y30960D01*
Y30840D01*
X46946Y30730D01*
X47030Y30646D01*
X47140Y30600D01*
X47260D01*
X47370Y30646D01*
X47454Y30730D01*
X47500Y30840D01*
Y30960D01*
X47454Y31070D01*
X47370Y31154D01*
X47260Y31200D01*
D02*
G37*
G36*
X45760Y31100D02*
X45640D01*
X45530Y31054D01*
X45446Y30970D01*
X45400Y30860D01*
Y30740D01*
X45446Y30630D01*
X45530Y30546D01*
X45640Y30500D01*
X45760D01*
X45870Y30546D01*
X45954Y30630D01*
X46000Y30740D01*
Y30860D01*
X45954Y30970D01*
X45870Y31054D01*
X45760Y31100D01*
D02*
G37*
G36*
X36560Y31000D02*
X36440D01*
X36330Y30954D01*
X36246Y30870D01*
X36200Y30760D01*
Y30640D01*
X36246Y30530D01*
X36330Y30446D01*
X36440Y30400D01*
X36560D01*
X36670Y30446D01*
X36754Y30530D01*
X36800Y30640D01*
Y30760D01*
X36754Y30870D01*
X36670Y30954D01*
X36560Y31000D01*
D02*
G37*
G36*
X41160Y30700D02*
X41040D01*
X40930Y30654D01*
X40846Y30570D01*
X40800Y30460D01*
Y30340D01*
X40846Y30230D01*
X40930Y30146D01*
X41040Y30100D01*
X41160D01*
X41270Y30146D01*
X41354Y30230D01*
X41400Y30340D01*
Y30460D01*
X41354Y30570D01*
X41270Y30654D01*
X41160Y30700D01*
D02*
G37*
G36*
X58660Y30800D02*
X58540D01*
X58430Y30754D01*
X58346Y30670D01*
X58300Y30560D01*
Y30440D01*
X58346Y30330D01*
X58376Y30300D01*
X58346Y30270D01*
X58300Y30160D01*
Y30040D01*
X58346Y29930D01*
X58430Y29846D01*
X58540Y29800D01*
X58660D01*
X58770Y29846D01*
X58854Y29930D01*
X58900Y30040D01*
Y30160D01*
X58854Y30270D01*
X58824Y30300D01*
X58854Y30330D01*
X58900Y30440D01*
Y30560D01*
X58854Y30670D01*
X58770Y30754D01*
X58660Y30800D01*
D02*
G37*
G36*
X67860Y29900D02*
X67740D01*
X67630Y29854D01*
X67546Y29770D01*
X67500Y29660D01*
Y29540D01*
X67546Y29430D01*
X67630Y29346D01*
X67740Y29300D01*
X67860D01*
X67970Y29346D01*
X68054Y29430D01*
X68100Y29540D01*
Y29660D01*
X68054Y29770D01*
X67970Y29854D01*
X67860Y29900D01*
D02*
G37*
G36*
X64460Y28500D02*
X64340D01*
X64230Y28454D01*
X64200Y28424D01*
X64170Y28454D01*
X64060Y28500D01*
X63940D01*
X63830Y28454D01*
X63746Y28370D01*
X63700Y28260D01*
Y28140D01*
X63746Y28030D01*
X63776Y28000D01*
X63746Y27970D01*
X63700Y27860D01*
Y27740D01*
X63746Y27630D01*
X63776Y27600D01*
X63746Y27570D01*
X63700Y27460D01*
Y27340D01*
X63746Y27230D01*
X63776Y27200D01*
X63746Y27170D01*
X63700Y27060D01*
Y26940D01*
X63746Y26830D01*
X63830Y26746D01*
X63940Y26700D01*
X64060D01*
X64170Y26746D01*
X64200Y26776D01*
X64230Y26746D01*
X64340Y26700D01*
X64460D01*
X64570Y26746D01*
X64654Y26830D01*
X64700Y26940D01*
Y27060D01*
X64654Y27170D01*
X64624Y27200D01*
X64654Y27230D01*
X64700Y27340D01*
Y27460D01*
X64654Y27570D01*
X64624Y27600D01*
X64654Y27630D01*
X64700Y27740D01*
Y27860D01*
X64654Y27970D01*
X64624Y28000D01*
X64654Y28030D01*
X64700Y28140D01*
Y28260D01*
X64654Y28370D01*
X64570Y28454D01*
X64460Y28500D01*
D02*
G37*
G36*
X55260Y28400D02*
X55140D01*
X55030Y28354D01*
X54950Y28274D01*
X54870Y28354D01*
X54760Y28400D01*
X54640D01*
X54530Y28354D01*
X54450Y28274D01*
X54370Y28354D01*
X54260Y28400D01*
X54140D01*
X54030Y28354D01*
X53946Y28270D01*
X53900Y28160D01*
Y28040D01*
X53946Y27930D01*
X54026Y27850D01*
X53946Y27770D01*
X53900Y27660D01*
Y27540D01*
X53946Y27430D01*
X54026Y27350D01*
X53946Y27270D01*
X53900Y27160D01*
Y27040D01*
X53946Y26930D01*
X54030Y26846D01*
X54140Y26800D01*
X54260D01*
X54370Y26846D01*
X54450Y26926D01*
X54530Y26846D01*
X54640Y26800D01*
X54760D01*
X54870Y26846D01*
X54950Y26926D01*
X55030Y26846D01*
X55140Y26800D01*
X55260D01*
X55370Y26846D01*
X55454Y26930D01*
X55500Y27040D01*
Y27160D01*
X55454Y27270D01*
X55374Y27350D01*
X55454Y27430D01*
X55500Y27540D01*
Y27660D01*
X55454Y27770D01*
X55374Y27850D01*
X55454Y27930D01*
X55500Y28040D01*
Y28160D01*
X55454Y28270D01*
X55370Y28354D01*
X55260Y28400D01*
D02*
G37*
G36*
X66560Y27900D02*
X66440D01*
X66330Y27854D01*
X66246Y27770D01*
X66200Y27660D01*
Y27540D01*
X66246Y27430D01*
X66330Y27346D01*
X66440Y27300D01*
X66560D01*
X66670Y27346D01*
X66754Y27430D01*
X66800Y27540D01*
Y27660D01*
X66754Y27770D01*
X66670Y27854D01*
X66560Y27900D01*
D02*
G37*
G36*
X65360D02*
X65240D01*
X65130Y27854D01*
X65046Y27770D01*
X65000Y27660D01*
Y27540D01*
X65046Y27430D01*
X65130Y27346D01*
X65240Y27300D01*
X65360D01*
X65470Y27346D01*
X65554Y27430D01*
X65600Y27540D01*
Y27660D01*
X65554Y27770D01*
X65470Y27854D01*
X65360Y27900D01*
D02*
G37*
G36*
X52560Y27300D02*
X52440D01*
X52330Y27254D01*
X52246Y27170D01*
X52200Y27060D01*
Y26940D01*
X52246Y26830D01*
X52330Y26746D01*
X52440Y26700D01*
X52560D01*
X52670Y26746D01*
X52754Y26830D01*
X52800Y26940D01*
Y27060D01*
X52754Y27170D01*
X52670Y27254D01*
X52560Y27300D01*
D02*
G37*
G36*
X20760D02*
X20640D01*
X20530Y27254D01*
X20446Y27170D01*
X20400Y27060D01*
Y26940D01*
X20446Y26830D01*
X20530Y26746D01*
X20640Y26700D01*
X20760D01*
X20870Y26746D01*
X20954Y26830D01*
X21000Y26940D01*
Y27060D01*
X20954Y27170D01*
X20870Y27254D01*
X20760Y27300D01*
D02*
G37*
G36*
X53160Y26600D02*
X53040D01*
X52930Y26554D01*
X52846Y26470D01*
X52800Y26360D01*
Y26240D01*
X52846Y26130D01*
X52930Y26046D01*
X53040Y26000D01*
X53160D01*
X53270Y26046D01*
X53354Y26130D01*
X53400Y26240D01*
Y26360D01*
X53354Y26470D01*
X53270Y26554D01*
X53160Y26600D01*
D02*
G37*
G36*
X64160Y25600D02*
X64040D01*
X63930Y25554D01*
X63900Y25524D01*
X63870Y25554D01*
X63760Y25600D01*
X63640D01*
X63530Y25554D01*
X63500Y25524D01*
X63470Y25554D01*
X63360Y25600D01*
X63240D01*
X63130Y25554D01*
X63046Y25470D01*
X63000Y25360D01*
Y25240D01*
X63046Y25130D01*
X63076Y25100D01*
X63046Y25070D01*
X63000Y24960D01*
Y24840D01*
X63046Y24730D01*
X63130Y24646D01*
X63240Y24600D01*
X63360D01*
X63470Y24646D01*
X63500Y24676D01*
X63530Y24646D01*
X63640Y24600D01*
X63760D01*
X63870Y24646D01*
X63900Y24676D01*
X63930Y24646D01*
X64040Y24600D01*
X64160D01*
X64270Y24646D01*
X64354Y24730D01*
X64400Y24840D01*
Y24960D01*
X64354Y25070D01*
X64324Y25100D01*
X64354Y25130D01*
X64400Y25240D01*
Y25360D01*
X64354Y25470D01*
X64270Y25554D01*
X64160Y25600D01*
D02*
G37*
G36*
X68760Y25900D02*
X68640D01*
X68530Y25854D01*
X68446Y25770D01*
X68400Y25660D01*
Y25540D01*
X68446Y25430D01*
X68530Y25346D01*
X68640Y25300D01*
X68760D01*
X68870Y25346D01*
X68954Y25430D01*
X69000Y25540D01*
Y25660D01*
X68954Y25770D01*
X68870Y25854D01*
X68760Y25900D01*
D02*
G37*
G36*
X54060Y25800D02*
X53940D01*
X53830Y25754D01*
X53746Y25670D01*
X53700Y25560D01*
Y25440D01*
X53746Y25330D01*
X53830Y25246D01*
X53940Y25200D01*
X54060D01*
X54170Y25246D01*
X54254Y25330D01*
X54300Y25440D01*
Y25560D01*
X54254Y25670D01*
X54170Y25754D01*
X54060Y25800D01*
D02*
G37*
G36*
X20860Y25000D02*
X20740D01*
X20630Y24954D01*
X20546Y24870D01*
X20500Y24760D01*
Y24640D01*
X20546Y24530D01*
X20630Y24446D01*
X20740Y24400D01*
X20860D01*
X20970Y24446D01*
X21054Y24530D01*
X21100Y24640D01*
Y24760D01*
X21054Y24870D01*
X20970Y24954D01*
X20860Y25000D01*
D02*
G37*
G36*
X61960Y24300D02*
X61840D01*
X61730Y24254D01*
X61646Y24170D01*
X61600Y24060D01*
Y23940D01*
X61646Y23830D01*
X61730Y23746D01*
X61840Y23700D01*
X61960D01*
X62070Y23746D01*
X62154Y23830D01*
X62200Y23940D01*
Y24060D01*
X62154Y24170D01*
X62070Y24254D01*
X61960Y24300D01*
D02*
G37*
G36*
X52260Y23970D02*
X52140D01*
X52030Y23924D01*
X51946Y23840D01*
X51900Y23730D01*
Y23610D01*
X51946Y23500D01*
X52030Y23416D01*
X52140Y23370D01*
X52260D01*
X52370Y23416D01*
X52454Y23500D01*
X52500Y23610D01*
Y23730D01*
X52454Y23840D01*
X52370Y23924D01*
X52260Y23970D01*
D02*
G37*
G36*
X67160Y23800D02*
X67040D01*
X66930Y23754D01*
X66846Y23670D01*
X66800Y23560D01*
Y23440D01*
X66835Y23355D01*
X66745Y23265D01*
X66660Y23300D01*
X66540D01*
X66430Y23254D01*
X66346Y23170D01*
X66300Y23060D01*
Y22940D01*
X66346Y22830D01*
X66430Y22746D01*
X66540Y22700D01*
X66660D01*
X66745Y22735D01*
X66835Y22645D01*
X66800Y22560D01*
Y22440D01*
X66846Y22330D01*
X66930Y22246D01*
X67040Y22200D01*
X67160D01*
X67270Y22246D01*
X67354Y22330D01*
X67400Y22440D01*
Y22560D01*
X67365Y22645D01*
X67455Y22735D01*
X67540Y22700D01*
X67660D01*
X67770Y22746D01*
X67854Y22830D01*
X67900Y22940D01*
Y23060D01*
X67854Y23170D01*
X67770Y23254D01*
X67660Y23300D01*
X67540D01*
X67455Y23265D01*
X67365Y23355D01*
X67400Y23440D01*
Y23560D01*
X67354Y23670D01*
X67270Y23754D01*
X67160Y23800D01*
D02*
G37*
G36*
X60860Y23230D02*
X60740D01*
X60630Y23184D01*
X60546Y23100D01*
X60500Y22990D01*
Y22870D01*
X60546Y22760D01*
X60630Y22676D01*
X60740Y22630D01*
X60860D01*
X60970Y22676D01*
X61054Y22760D01*
X61100Y22870D01*
Y22990D01*
X61054Y23100D01*
X60970Y23184D01*
X60860Y23230D01*
D02*
G37*
G36*
X65402Y23222D02*
X65283D01*
X65173Y23176D01*
X65088Y23092D01*
X65042Y22982D01*
Y22862D01*
X65088Y22752D01*
X65173Y22668D01*
X65283Y22622D01*
X65402D01*
X65512Y22668D01*
X65597Y22752D01*
X65642Y22862D01*
Y22982D01*
X65597Y23092D01*
X65512Y23176D01*
X65402Y23222D01*
D02*
G37*
G36*
X58260Y23200D02*
X58140D01*
X58030Y23154D01*
X57946Y23070D01*
X57900Y22960D01*
Y22840D01*
X57946Y22730D01*
X58030Y22646D01*
X58140Y22600D01*
X58260D01*
X58370Y22646D01*
X58454Y22730D01*
X58500Y22840D01*
Y22960D01*
X58454Y23070D01*
X58370Y23154D01*
X58260Y23200D01*
D02*
G37*
G36*
X57360D02*
X57240D01*
X57130Y23154D01*
X57046Y23070D01*
X57000Y22960D01*
Y22840D01*
X57046Y22730D01*
X57130Y22646D01*
X57240Y22600D01*
X57360D01*
X57470Y22646D01*
X57554Y22730D01*
X57600Y22840D01*
Y22960D01*
X57554Y23070D01*
X57470Y23154D01*
X57360Y23200D01*
D02*
G37*
G36*
X53560Y23600D02*
X53440D01*
X53330Y23554D01*
X53246Y23470D01*
X53200Y23360D01*
Y23240D01*
X53140Y23130D01*
X53122Y23122D01*
X53030Y23084D01*
X52946Y23000D01*
X52900Y22890D01*
Y22770D01*
X52946Y22660D01*
X53030Y22576D01*
X53140Y22530D01*
X53260D01*
X53370Y22576D01*
X53454Y22660D01*
X53500Y22770D01*
Y22890D01*
X53560Y23000D01*
X53578Y23008D01*
X53670Y23046D01*
X53754Y23130D01*
X53800Y23240D01*
Y23360D01*
X53754Y23470D01*
X53670Y23554D01*
X53560Y23600D01*
D02*
G37*
G36*
X7760Y22300D02*
X7640D01*
X7530Y22254D01*
X7500Y22224D01*
X7470Y22254D01*
X7360Y22300D01*
X7240D01*
X7130Y22254D01*
X7100Y22224D01*
X7070Y22254D01*
X6960Y22300D01*
X6840D01*
X6730Y22254D01*
X6700Y22224D01*
X6670Y22254D01*
X6560Y22300D01*
X6440D01*
X6330Y22254D01*
X6246Y22170D01*
X6200Y22060D01*
Y21940D01*
X6246Y21830D01*
X6276Y21800D01*
X6246Y21770D01*
X6200Y21660D01*
Y21540D01*
X6246Y21430D01*
X6276Y21400D01*
X6246Y21370D01*
X6200Y21260D01*
Y21140D01*
X6246Y21030D01*
X6276Y21000D01*
X6246Y20970D01*
X6200Y20860D01*
Y20740D01*
X6246Y20630D01*
X6276Y20600D01*
X6246Y20570D01*
X6200Y20460D01*
Y20340D01*
X6246Y20230D01*
X6276Y20200D01*
X6246Y20170D01*
X6200Y20060D01*
Y19940D01*
X6246Y19830D01*
X6276Y19800D01*
X6246Y19770D01*
X6200Y19660D01*
Y19540D01*
X6246Y19430D01*
X6276Y19400D01*
X6246Y19370D01*
X6200Y19260D01*
Y19140D01*
X6246Y19030D01*
X6276Y19000D01*
X6246Y18970D01*
X6200Y18860D01*
Y18740D01*
X6246Y18630D01*
X6330Y18546D01*
X6440Y18500D01*
X6560D01*
X6670Y18546D01*
X6700Y18576D01*
X6730Y18546D01*
X6840Y18500D01*
X6960D01*
X7070Y18546D01*
X7100Y18576D01*
X7130Y18546D01*
X7240Y18500D01*
X7360D01*
X7470Y18546D01*
X7500Y18576D01*
X7530Y18546D01*
X7640Y18500D01*
X7760D01*
X7870Y18546D01*
X7954Y18630D01*
X8000Y18740D01*
Y18860D01*
X7954Y18970D01*
X7924Y19000D01*
X7954Y19030D01*
X8000Y19140D01*
Y19260D01*
X7954Y19370D01*
X7924Y19400D01*
X7954Y19430D01*
X8000Y19540D01*
Y19660D01*
X7954Y19770D01*
X7924Y19800D01*
X7954Y19830D01*
X8000Y19940D01*
Y20060D01*
X7954Y20170D01*
X7924Y20200D01*
X7954Y20230D01*
X8000Y20340D01*
Y20460D01*
X7954Y20570D01*
X7924Y20600D01*
X7954Y20630D01*
X8000Y20740D01*
Y20860D01*
X7954Y20970D01*
X7924Y21000D01*
X7954Y21030D01*
X8000Y21140D01*
Y21260D01*
X7954Y21370D01*
X7924Y21400D01*
X7954Y21430D01*
X8000Y21540D01*
Y21660D01*
X7954Y21770D01*
X7924Y21800D01*
X7954Y21830D01*
X8000Y21940D01*
Y22060D01*
X7954Y22170D01*
X7870Y22254D01*
X7760Y22300D01*
D02*
G37*
G36*
X64660Y22400D02*
X64540D01*
X64430Y22354D01*
X64346Y22270D01*
X64300Y22160D01*
Y22040D01*
X64346Y21930D01*
X64430Y21846D01*
X64540Y21800D01*
X64660D01*
X64770Y21846D01*
X64854Y21930D01*
X64900Y22040D01*
Y22160D01*
X64854Y22270D01*
X64770Y22354D01*
X64660Y22400D01*
D02*
G37*
G36*
X65760Y22100D02*
X65640D01*
X65530Y22054D01*
X65446Y21970D01*
X65400Y21860D01*
Y21740D01*
X65446Y21630D01*
X65530Y21546D01*
X65640Y21500D01*
X65760D01*
X65870Y21546D01*
X65954Y21630D01*
X66000Y21740D01*
Y21860D01*
X65954Y21970D01*
X65870Y22054D01*
X65760Y22100D01*
D02*
G37*
G36*
X58039Y21300D02*
X57919D01*
X57809Y21254D01*
X57725Y21170D01*
X57679Y21060D01*
X57560Y21000D01*
X57440D01*
X57330Y20954D01*
X57258Y20882D01*
X57219Y20870D01*
X57109Y20872D01*
X57052Y20929D01*
X56941Y20975D01*
X56822D01*
X56712Y20929D01*
X56627Y20845D01*
X56582Y20735D01*
Y20615D01*
X56627Y20505D01*
X56712Y20421D01*
X56822Y20375D01*
X56941D01*
X57052Y20421D01*
X57124Y20493D01*
X57163Y20505D01*
X57273Y20503D01*
X57330Y20446D01*
X57440Y20400D01*
X57560D01*
X57670Y20446D01*
X57754Y20530D01*
X57800Y20640D01*
X57919Y20700D01*
X58039D01*
X58149Y20746D01*
X58233Y20830D01*
X58279Y20940D01*
Y21060D01*
X58233Y21170D01*
X58149Y21254D01*
X58039Y21300D01*
D02*
G37*
G36*
X64460Y21000D02*
X64340D01*
X64230Y20954D01*
X64146Y20870D01*
X64100Y20760D01*
Y20640D01*
X64146Y20530D01*
X64230Y20446D01*
X64340Y20400D01*
X64460D01*
X64570Y20446D01*
X64654Y20530D01*
X64700Y20640D01*
Y20760D01*
X64654Y20870D01*
X64570Y20954D01*
X64460Y21000D01*
D02*
G37*
G36*
X61760D02*
X61640D01*
X61530Y20954D01*
X61446Y20870D01*
X61400Y20760D01*
Y20640D01*
X61446Y20530D01*
X61530Y20446D01*
X61640Y20400D01*
X61760D01*
X61870Y20446D01*
X61954Y20530D01*
X62000Y20640D01*
Y20760D01*
X61954Y20870D01*
X61870Y20954D01*
X61760Y21000D01*
D02*
G37*
G36*
X65260Y20900D02*
X65140D01*
X65030Y20854D01*
X64946Y20770D01*
X64900Y20660D01*
Y20540D01*
X64946Y20430D01*
X65030Y20346D01*
X65140Y20300D01*
X65260D01*
X65370Y20346D01*
X65454Y20430D01*
X65500Y20540D01*
Y20660D01*
X65454Y20770D01*
X65370Y20854D01*
X65260Y20900D01*
D02*
G37*
G36*
X72360Y20200D02*
X72240D01*
X72130Y20154D01*
X72100Y20124D01*
X72070Y20154D01*
X71960Y20200D01*
X71840D01*
X71730Y20154D01*
X71700Y20124D01*
X71670Y20154D01*
X71560Y20200D01*
X71440D01*
X71330Y20154D01*
X71300Y20124D01*
X71270Y20154D01*
X71160Y20200D01*
X71040D01*
X70930Y20154D01*
X70900Y20124D01*
X70870Y20154D01*
X70760Y20200D01*
X70640D01*
X70530Y20154D01*
X70446Y20070D01*
X70400Y19960D01*
Y19840D01*
X70446Y19730D01*
X70530Y19646D01*
X70640Y19600D01*
X70760D01*
X70870Y19646D01*
X70900Y19676D01*
X70930Y19646D01*
X71040Y19600D01*
X71083D01*
X71170Y19570D01*
X71200Y19483D01*
Y19440D01*
X71246Y19330D01*
X71276Y19300D01*
X71246Y19270D01*
X71200Y19160D01*
Y19117D01*
X71170Y19030D01*
X71083Y19000D01*
X71040D01*
X70930Y18954D01*
X70900Y18924D01*
X70870Y18954D01*
X70760Y19000D01*
X70640D01*
X70530Y18954D01*
X70446Y18870D01*
X70400Y18760D01*
Y18640D01*
X70446Y18530D01*
X70530Y18446D01*
X70640Y18400D01*
X70760D01*
X70870Y18446D01*
X70900Y18476D01*
X70930Y18446D01*
X71040Y18400D01*
X71160D01*
X71270Y18446D01*
X71300Y18476D01*
X71330Y18446D01*
X71440Y18400D01*
X71560D01*
X71670Y18446D01*
X71700Y18476D01*
X71730Y18446D01*
X71840Y18400D01*
X71960D01*
X72070Y18446D01*
X72100Y18476D01*
X72130Y18446D01*
X72240Y18400D01*
X72360D01*
X72470Y18446D01*
X72500Y18476D01*
X72530Y18446D01*
X72640Y18400D01*
X72760D01*
X72870Y18446D01*
X72954Y18530D01*
X73000Y18640D01*
Y18760D01*
X72954Y18870D01*
X72924Y18900D01*
X72954Y18930D01*
X73000Y19040D01*
Y19160D01*
X72954Y19270D01*
X72870Y19354D01*
X72760Y19400D01*
X72717D01*
X72630Y19430D01*
X72600Y19517D01*
Y19560D01*
X72554Y19670D01*
X72524Y19700D01*
X72554Y19730D01*
X72600Y19840D01*
Y19960D01*
X72554Y20070D01*
X72470Y20154D01*
X72360Y20200D01*
D02*
G37*
G36*
X48705Y20500D02*
X48585D01*
X48475Y20454D01*
X48391Y20370D01*
X48345Y20260D01*
Y20140D01*
X48391Y20030D01*
X48475Y19946D01*
X48585Y19900D01*
X48705D01*
X48815Y19946D01*
X48899Y20030D01*
X48945Y20140D01*
Y20260D01*
X48899Y20370D01*
X48815Y20454D01*
X48705Y20500D01*
D02*
G37*
G36*
X75004Y20635D02*
X74796D01*
X74603Y20555D01*
X74455Y20407D01*
X74375Y20214D01*
Y20006D01*
X74455Y19813D01*
X74603Y19665D01*
X74796Y19585D01*
X75004D01*
X75197Y19665D01*
X75345Y19813D01*
X75425Y20006D01*
Y20214D01*
X75345Y20407D01*
X75197Y20555D01*
X75004Y20635D01*
D02*
G37*
G36*
X65260Y18900D02*
X65140D01*
X65030Y18854D01*
X64946Y18770D01*
X64900Y18660D01*
Y18540D01*
X64946Y18430D01*
X65030Y18346D01*
X65140Y18300D01*
X65260D01*
X65370Y18346D01*
X65454Y18430D01*
X65500Y18540D01*
Y18660D01*
X65454Y18770D01*
X65370Y18854D01*
X65260Y18900D01*
D02*
G37*
G36*
X58281Y18953D02*
X58141D01*
X58011Y18899D01*
X57912Y18800D01*
X57858Y18670D01*
Y18530D01*
X57912Y18401D01*
X58011Y18302D01*
X58141Y18248D01*
X58281D01*
X58410Y18302D01*
X58510Y18401D01*
X58563Y18530D01*
Y18670D01*
X58510Y18800D01*
X58410Y18899D01*
X58281Y18953D01*
D02*
G37*
G36*
X57181D02*
X57041D01*
X56911Y18899D01*
X56812Y18800D01*
X56758Y18670D01*
Y18530D01*
X56812Y18401D01*
X56911Y18302D01*
X57041Y18248D01*
X57181D01*
X57310Y18302D01*
X57410Y18401D01*
X57463Y18530D01*
Y18670D01*
X57410Y18800D01*
X57310Y18899D01*
X57181Y18953D01*
D02*
G37*
G36*
X56081D02*
X55941D01*
X55811Y18899D01*
X55712Y18800D01*
X55658Y18670D01*
Y18530D01*
X55712Y18401D01*
X55811Y18302D01*
X55941Y18248D01*
X56081D01*
X56210Y18302D01*
X56310Y18401D01*
X56363Y18530D01*
Y18670D01*
X56310Y18800D01*
X56210Y18899D01*
X56081Y18953D01*
D02*
G37*
G36*
X62490Y18800D02*
X62370D01*
X62260Y18754D01*
X62176Y18670D01*
X62130Y18560D01*
Y18440D01*
X62176Y18330D01*
X62260Y18246D01*
X62370Y18200D01*
X62490D01*
X62600Y18246D01*
X62684Y18330D01*
X62730Y18440D01*
Y18560D01*
X62684Y18670D01*
X62600Y18754D01*
X62490Y18800D01*
D02*
G37*
G36*
X78825Y19235D02*
X78275D01*
X78070Y19195D01*
X77896Y19079D01*
X77780Y18905D01*
X77740Y18700D01*
X77780Y18495D01*
X77896Y18322D01*
X78070Y18205D01*
X78275Y18165D01*
X78825D01*
X79030Y18205D01*
X79203Y18322D01*
X79320Y18495D01*
X79360Y18700D01*
X79320Y18905D01*
X79203Y19079D01*
X79030Y19195D01*
X78825Y19235D01*
D02*
G37*
G36*
X74875D02*
X73925D01*
X73720Y19195D01*
X73547Y19079D01*
X73430Y18905D01*
X73390Y18700D01*
X73430Y18495D01*
X73547Y18322D01*
X73720Y18205D01*
X73925Y18165D01*
X74875D01*
X75080Y18205D01*
X75254Y18322D01*
X75370Y18495D01*
X75410Y18700D01*
X75370Y18905D01*
X75254Y19079D01*
X75080Y19195D01*
X74875Y19235D01*
D02*
G37*
G36*
X63460Y18100D02*
X63340D01*
X63230Y18054D01*
X63178Y18003D01*
X63100Y17982D01*
X63022Y18003D01*
X62970Y18054D01*
X62860Y18100D01*
X62740D01*
X62630Y18054D01*
X62578Y18003D01*
X62500Y17982D01*
X62422Y18003D01*
X62370Y18054D01*
X62260Y18100D01*
X62140D01*
X62030Y18054D01*
X61963Y17987D01*
X61931Y17970D01*
X61810Y17974D01*
X61770Y18014D01*
X61660Y18060D01*
X61540D01*
X61430Y18014D01*
X61346Y17930D01*
X61300Y17820D01*
Y17700D01*
X61346Y17590D01*
X61430Y17506D01*
X61540Y17460D01*
X61660D01*
X61770Y17506D01*
X61837Y17573D01*
X61869Y17590D01*
X61990Y17586D01*
X62030Y17546D01*
X62140Y17500D01*
X62260D01*
X62370Y17546D01*
X62422Y17597D01*
X62500Y17618D01*
X62578Y17597D01*
X62630Y17546D01*
X62740Y17500D01*
X62860D01*
X62970Y17546D01*
X63022Y17597D01*
X63100Y17618D01*
X63178Y17597D01*
X63230Y17546D01*
X63340Y17500D01*
X63460D01*
X63570Y17546D01*
X63654Y17630D01*
X63700Y17740D01*
Y17860D01*
X63654Y17970D01*
X63570Y18054D01*
X63460Y18100D01*
D02*
G37*
G36*
X64160Y18400D02*
X64040D01*
X63930Y18354D01*
X63846Y18270D01*
X63800Y18160D01*
Y18040D01*
X63846Y17930D01*
X63930Y17846D01*
X64040Y17800D01*
X64160D01*
X64270Y17846D01*
X64354Y17930D01*
X64400Y18040D01*
Y18160D01*
X64354Y18270D01*
X64270Y18354D01*
X64160Y18400D01*
D02*
G37*
G36*
X58685Y22025D02*
X58515D01*
X58359Y21960D01*
X58240Y21841D01*
X58175Y21685D01*
Y21515D01*
X58240Y21359D01*
X58359Y21240D01*
X58515Y21175D01*
X58592D01*
X58694Y21073D01*
Y18100D01*
X58694Y18100D01*
X58717Y17983D01*
X58784Y17884D01*
X59184Y17484D01*
X59184Y17484D01*
X59283Y17417D01*
X59400Y17394D01*
X60105D01*
X60159Y17340D01*
X60315Y17275D01*
X60485D01*
X60641Y17340D01*
X60760Y17459D01*
X60825Y17615D01*
Y17785D01*
X60760Y17941D01*
X60641Y18060D01*
X60485Y18125D01*
X60315D01*
X60159Y18060D01*
X60105Y18006D01*
X59527D01*
X59306Y18227D01*
Y21200D01*
X59283Y21317D01*
X59216Y21416D01*
X59216Y21416D01*
X59025Y21608D01*
Y21685D01*
X58960Y21841D01*
X58841Y21960D01*
X58685Y22025D01*
D02*
G37*
G36*
X58281Y17853D02*
X58141D01*
X58011Y17799D01*
X57912Y17700D01*
X57858Y17570D01*
Y17430D01*
X57912Y17301D01*
X58011Y17202D01*
X58141Y17148D01*
X58281D01*
X58410Y17202D01*
X58510Y17301D01*
X58563Y17430D01*
Y17570D01*
X58510Y17700D01*
X58410Y17799D01*
X58281Y17853D01*
D02*
G37*
G36*
X57181D02*
X57041D01*
X56911Y17799D01*
X56812Y17700D01*
X56758Y17570D01*
Y17430D01*
X56812Y17301D01*
X56911Y17202D01*
X57041Y17148D01*
X57181D01*
X57310Y17202D01*
X57410Y17301D01*
X57463Y17430D01*
Y17570D01*
X57410Y17700D01*
X57310Y17799D01*
X57181Y17853D01*
D02*
G37*
G36*
X56081D02*
X55941D01*
X55811Y17799D01*
X55712Y17700D01*
X55658Y17570D01*
Y17430D01*
X55712Y17301D01*
X55811Y17202D01*
X55941Y17148D01*
X56081D01*
X56210Y17202D01*
X56310Y17301D01*
X56363Y17430D01*
Y17570D01*
X56310Y17700D01*
X56210Y17799D01*
X56081Y17853D01*
D02*
G37*
G36*
X48705Y17700D02*
X48585D01*
X48475Y17654D01*
X48391Y17570D01*
X48345Y17460D01*
Y17340D01*
X48391Y17230D01*
X48475Y17146D01*
X48585Y17100D01*
X48705D01*
X48815Y17146D01*
X48899Y17230D01*
X48945Y17340D01*
Y17460D01*
X48899Y17570D01*
X48815Y17654D01*
X48705Y17700D01*
D02*
G37*
G36*
X62660Y16500D02*
X62540D01*
X62430Y16454D01*
X62378Y16403D01*
X62300Y16382D01*
X62222Y16403D01*
X62170Y16454D01*
X62060Y16500D01*
X61940D01*
X61830Y16454D01*
X61778Y16403D01*
X61700Y16382D01*
X61622Y16403D01*
X61570Y16454D01*
X61460Y16500D01*
X61340D01*
X61230Y16454D01*
X61146Y16370D01*
X61100Y16260D01*
Y16140D01*
X61146Y16030D01*
X61230Y15946D01*
X61340Y15900D01*
X61460D01*
X61570Y15946D01*
X61622Y15997D01*
X61700Y16018D01*
X61778Y15997D01*
X61830Y15946D01*
X61940Y15900D01*
X62060D01*
X62170Y15946D01*
X62222Y15997D01*
X62300Y16018D01*
X62378Y15997D01*
X62430Y15946D01*
X62540Y15900D01*
X62660D01*
X62770Y15946D01*
X62854Y16030D01*
X62900Y16140D01*
Y16260D01*
X62854Y16370D01*
X62770Y16454D01*
X62660Y16500D01*
D02*
G37*
G36*
X28360Y16900D02*
X28240D01*
X28130Y16854D01*
X28046Y16770D01*
X28000Y16660D01*
Y16540D01*
X28046Y16430D01*
X28130Y16346D01*
X28240Y16300D01*
X28360D01*
X28470Y16346D01*
X28554Y16430D01*
X28600Y16540D01*
Y16660D01*
X28554Y16770D01*
X28470Y16854D01*
X28360Y16900D01*
D02*
G37*
G36*
X58281Y16753D02*
X58141D01*
X58011Y16699D01*
X57912Y16600D01*
X57858Y16470D01*
Y16330D01*
X57912Y16201D01*
X58011Y16102D01*
X58141Y16048D01*
X58281D01*
X58410Y16102D01*
X58510Y16201D01*
X58563Y16330D01*
Y16470D01*
X58510Y16600D01*
X58410Y16699D01*
X58281Y16753D01*
D02*
G37*
G36*
X57181D02*
X57041D01*
X56911Y16699D01*
X56812Y16600D01*
X56758Y16470D01*
Y16330D01*
X56812Y16201D01*
X56911Y16102D01*
X57041Y16048D01*
X57181D01*
X57310Y16102D01*
X57410Y16201D01*
X57463Y16330D01*
Y16470D01*
X57410Y16600D01*
X57310Y16699D01*
X57181Y16753D01*
D02*
G37*
G36*
X56081D02*
X55941D01*
X55811Y16699D01*
X55712Y16600D01*
X55658Y16470D01*
Y16330D01*
X55712Y16201D01*
X55811Y16102D01*
X55941Y16048D01*
X56081D01*
X56210Y16102D01*
X56310Y16201D01*
X56363Y16330D01*
Y16470D01*
X56310Y16600D01*
X56210Y16699D01*
X56081Y16753D01*
D02*
G37*
G36*
X54685Y15725D02*
X54515D01*
X54359Y15660D01*
X54305Y15606D01*
X53800D01*
X53800Y15606D01*
X53683Y15583D01*
X53584Y15516D01*
X53584Y15516D01*
X53284Y15216D01*
X53274Y15202D01*
X53245Y15199D01*
X53135Y15245D01*
X53015D01*
X52905Y15199D01*
X52821Y15115D01*
X52775Y15005D01*
Y14885D01*
X52816Y14786D01*
X52823Y14746D01*
X52830Y14654D01*
X52803Y14627D01*
X52746Y14570D01*
X52700Y14460D01*
Y14340D01*
X52746Y14230D01*
X52830Y14146D01*
X52940Y14100D01*
X53060D01*
X53067Y14103D01*
X53194Y14018D01*
Y13495D01*
X53140Y13441D01*
X53075Y13285D01*
Y13115D01*
X53140Y12959D01*
X53259Y12840D01*
X53415Y12775D01*
X53585D01*
X53741Y12840D01*
X53860Y12959D01*
X53925Y13115D01*
Y13285D01*
X53860Y13441D01*
X53806Y13495D01*
Y14873D01*
X53927Y14994D01*
X54305D01*
X54359Y14940D01*
X54515Y14875D01*
X54685D01*
X54841Y14940D01*
X54960Y15059D01*
X55025Y15215D01*
Y15385D01*
X54960Y15541D01*
X54841Y15660D01*
X54685Y15725D01*
D02*
G37*
G36*
X37260Y15900D02*
X37140D01*
X37030Y15854D01*
X36946Y15770D01*
X36900Y15660D01*
Y15540D01*
X36946Y15430D01*
X37030Y15346D01*
X37140Y15300D01*
X37260D01*
X37370Y15346D01*
X37454Y15430D01*
X37500Y15540D01*
Y15660D01*
X37454Y15770D01*
X37370Y15854D01*
X37260Y15900D01*
D02*
G37*
G36*
X75690Y15950D02*
X74990D01*
Y15250D01*
X75690D01*
Y15950D01*
D02*
G37*
G36*
X74490D02*
X73790D01*
Y15250D01*
X74490D01*
Y15950D01*
D02*
G37*
G36*
X23460Y15500D02*
X23340D01*
X23230Y15454D01*
X23146Y15370D01*
X23100Y15260D01*
Y15140D01*
X23146Y15030D01*
X23230Y14946D01*
X23340Y14900D01*
X23460D01*
X23570Y14946D01*
X23654Y15030D01*
X23700Y15140D01*
Y15260D01*
X23654Y15370D01*
X23570Y15454D01*
X23460Y15500D01*
D02*
G37*
G36*
X65060Y16500D02*
X64940D01*
X64830Y16454D01*
X64746Y16370D01*
X64700Y16260D01*
Y16140D01*
X64746Y16030D01*
X64797Y15978D01*
X64818Y15900D01*
X64797Y15822D01*
X64746Y15770D01*
X64700Y15660D01*
Y15540D01*
X64746Y15430D01*
X64797Y15378D01*
X64818Y15300D01*
X64797Y15222D01*
X64746Y15170D01*
X64700Y15060D01*
Y14940D01*
X64746Y14830D01*
X64830Y14746D01*
X64940Y14700D01*
X65060D01*
X65170Y14746D01*
X65254Y14830D01*
X65300Y14940D01*
Y15060D01*
X65254Y15170D01*
X65203Y15222D01*
X65182Y15300D01*
X65203Y15378D01*
X65254Y15430D01*
X65300Y15540D01*
Y15660D01*
X65254Y15770D01*
X65203Y15822D01*
X65182Y15900D01*
X65203Y15978D01*
X65254Y16030D01*
X65300Y16140D01*
Y16260D01*
X65254Y16370D01*
X65170Y16454D01*
X65060Y16500D01*
D02*
G37*
G36*
X59460Y15200D02*
X59340D01*
X59230Y15154D01*
X59146Y15070D01*
X59100Y14960D01*
Y14840D01*
X59146Y14730D01*
X59230Y14646D01*
X59340Y14600D01*
X59460D01*
X59570Y14646D01*
X59654Y14730D01*
X59700Y14840D01*
Y14960D01*
X59654Y15070D01*
X59570Y15154D01*
X59460Y15200D01*
D02*
G37*
G36*
X31960D02*
X31840D01*
X31730Y15154D01*
X31646Y15070D01*
X31600Y14960D01*
Y14840D01*
X31646Y14730D01*
X31730Y14646D01*
X31840Y14600D01*
X31960D01*
X32070Y14646D01*
X32154Y14730D01*
X32200Y14840D01*
Y14960D01*
X32154Y15070D01*
X32070Y15154D01*
X31960Y15200D01*
D02*
G37*
G36*
X31060D02*
X30940D01*
X30830Y15154D01*
X30746Y15070D01*
X30700Y14960D01*
Y14840D01*
X30746Y14730D01*
X30830Y14646D01*
X30940Y14600D01*
X31060D01*
X31170Y14646D01*
X31254Y14730D01*
X31300Y14840D01*
Y14960D01*
X31254Y15070D01*
X31170Y15154D01*
X31060Y15200D01*
D02*
G37*
G36*
X56860Y14500D02*
X56740D01*
X56630Y14454D01*
X56578Y14403D01*
X56500Y14382D01*
X56422Y14403D01*
X56370Y14454D01*
X56260Y14500D01*
X56140D01*
X56030Y14454D01*
X55946Y14370D01*
X55917Y14302D01*
X55783D01*
X55754Y14370D01*
X55670Y14454D01*
X55560Y14500D01*
X55440D01*
X55330Y14454D01*
X55246Y14370D01*
X55200Y14260D01*
Y14140D01*
X55246Y14030D01*
X55330Y13946D01*
X55440Y13900D01*
X55560D01*
X55670Y13946D01*
X55754Y14030D01*
X55783Y14098D01*
X55917D01*
X55946Y14030D01*
X56030Y13946D01*
X56140Y13900D01*
X56260D01*
X56370Y13946D01*
X56422Y13997D01*
X56500Y14018D01*
X56578Y13997D01*
X56630Y13946D01*
X56740Y13900D01*
X56860D01*
X56945Y13935D01*
X57035Y13845D01*
X57000Y13760D01*
Y13640D01*
X57046Y13530D01*
X57130Y13446D01*
X57240Y13400D01*
X57360D01*
X57470Y13446D01*
X57554Y13530D01*
X57600Y13640D01*
Y13760D01*
X57554Y13870D01*
X57470Y13954D01*
X57360Y14000D01*
X57240D01*
X57155Y13965D01*
X57065Y14055D01*
X57100Y14140D01*
Y14260D01*
X57054Y14370D01*
X56970Y14454D01*
X56860Y14500D01*
D02*
G37*
G36*
X72286Y15650D02*
X72114D01*
X71949Y15606D01*
X71801Y15520D01*
X71680Y15399D01*
X71594Y15251D01*
X71550Y15086D01*
Y14914D01*
X71594Y14749D01*
X71680Y14601D01*
X71801Y14480D01*
X71949Y14394D01*
X72114Y14350D01*
X72286D01*
X72451Y14394D01*
X72599Y14480D01*
X72720Y14601D01*
X72806Y14749D01*
X72850Y14914D01*
Y15086D01*
X72806Y15251D01*
X72720Y15399D01*
X72599Y15520D01*
X72451Y15606D01*
X72286Y15650D01*
D02*
G37*
G36*
X69746D02*
X69574D01*
X69409Y15606D01*
X69261Y15520D01*
X69140Y15399D01*
X69054Y15251D01*
X69010Y15086D01*
Y14914D01*
X69054Y14749D01*
X69140Y14601D01*
X69261Y14480D01*
X69409Y14394D01*
X69574Y14350D01*
X69746D01*
X69911Y14394D01*
X70059Y14480D01*
X70180Y14601D01*
X70266Y14749D01*
X70310Y14914D01*
Y15086D01*
X70266Y15251D01*
X70180Y15399D01*
X70059Y15520D01*
X69911Y15606D01*
X69746Y15650D01*
D02*
G37*
G36*
X67206D02*
X67034D01*
X66869Y15606D01*
X66721Y15520D01*
X66600Y15399D01*
X66514Y15251D01*
X66470Y15086D01*
Y14914D01*
X66514Y14749D01*
X66600Y14601D01*
X66721Y14480D01*
X66869Y14394D01*
X67034Y14350D01*
X67206D01*
X67371Y14394D01*
X67519Y14480D01*
X67640Y14601D01*
X67726Y14749D01*
X67770Y14914D01*
Y15086D01*
X67726Y15251D01*
X67640Y15399D01*
X67519Y15520D01*
X67371Y15606D01*
X67206Y15650D01*
D02*
G37*
G36*
X75690Y14750D02*
X74990D01*
Y14050D01*
X75690D01*
Y14750D01*
D02*
G37*
G36*
X74490D02*
X73790D01*
Y14050D01*
X74490D01*
Y14750D01*
D02*
G37*
G36*
X27760Y14600D02*
X27640D01*
X27530Y14554D01*
X27446Y14470D01*
X27400Y14360D01*
Y14240D01*
X27446Y14130D01*
X27530Y14046D01*
X27640Y14000D01*
X27760D01*
X27870Y14046D01*
X27954Y14130D01*
X28000Y14240D01*
Y14360D01*
X27954Y14470D01*
X27870Y14554D01*
X27760Y14600D01*
D02*
G37*
G36*
X58660Y14200D02*
X58540D01*
X58430Y14154D01*
X58346Y14070D01*
X58300Y13960D01*
Y13840D01*
X58346Y13730D01*
X58430Y13646D01*
X58540Y13600D01*
X58660D01*
X58770Y13646D01*
X58773Y13649D01*
X58816Y13646D01*
X58913Y13609D01*
X58946Y13530D01*
X59030Y13446D01*
X59075Y13427D01*
X59050Y13300D01*
X59040D01*
X58930Y13254D01*
X58846Y13170D01*
X58800Y13060D01*
Y12940D01*
X58846Y12830D01*
X58930Y12746D01*
X59040Y12700D01*
X59160D01*
X59270Y12746D01*
X59354Y12830D01*
X59400Y12940D01*
Y13060D01*
X59354Y13170D01*
X59270Y13254D01*
X59225Y13273D01*
X59250Y13400D01*
X59260D01*
X59370Y13446D01*
X59454Y13530D01*
X59500Y13640D01*
Y13760D01*
X59454Y13870D01*
X59370Y13954D01*
X59260Y14000D01*
X59140D01*
X59030Y13954D01*
X59027Y13951D01*
X58984Y13954D01*
X58887Y13991D01*
X58854Y14070D01*
X58770Y14154D01*
X58660Y14200D01*
D02*
G37*
G36*
X58260Y13300D02*
X58140D01*
X58030Y13254D01*
X57946Y13170D01*
X57900Y13060D01*
Y12940D01*
X57946Y12830D01*
X58030Y12746D01*
X58140Y12700D01*
X58260D01*
X58370Y12746D01*
X58454Y12830D01*
X58500Y12940D01*
Y13060D01*
X58454Y13170D01*
X58370Y13254D01*
X58260Y13300D01*
D02*
G37*
G36*
X19960Y12800D02*
X19840D01*
X19730Y12754D01*
X19646Y12670D01*
X19600Y12560D01*
Y12440D01*
X19646Y12330D01*
X19730Y12246D01*
X19840Y12200D01*
X19960D01*
X20070Y12246D01*
X20154Y12330D01*
X20200Y12440D01*
Y12560D01*
X20154Y12670D01*
X20070Y12754D01*
X19960Y12800D01*
D02*
G37*
G36*
X65060Y13900D02*
X64940D01*
X64830Y13854D01*
X64746Y13770D01*
X64700Y13660D01*
Y13540D01*
X64746Y13430D01*
X64797Y13378D01*
X64818Y13300D01*
X64797Y13222D01*
X64746Y13170D01*
X64700Y13060D01*
Y12940D01*
X64746Y12830D01*
X64797Y12778D01*
X64818Y12700D01*
X64797Y12622D01*
X64746Y12570D01*
X64700Y12460D01*
Y12340D01*
X64746Y12230D01*
X64830Y12146D01*
X64940Y12100D01*
X65060D01*
X65170Y12146D01*
X65254Y12230D01*
X65300Y12340D01*
Y12460D01*
X65254Y12570D01*
X65203Y12622D01*
X65182Y12700D01*
X65203Y12778D01*
X65254Y12830D01*
X65300Y12940D01*
Y13060D01*
X65254Y13170D01*
X65203Y13222D01*
X65182Y13300D01*
X65203Y13378D01*
X65254Y13430D01*
X65300Y13540D01*
Y13660D01*
X65254Y13770D01*
X65170Y13854D01*
X65060Y13900D01*
D02*
G37*
G36*
X65660Y12000D02*
X65540D01*
X65430Y11954D01*
X65346Y11870D01*
X65300Y11760D01*
Y11640D01*
X65346Y11530D01*
X65430Y11446D01*
X65540Y11400D01*
X65660D01*
X65770Y11446D01*
X65854Y11530D01*
X65900Y11640D01*
Y11760D01*
X65854Y11870D01*
X65770Y11954D01*
X65660Y12000D01*
D02*
G37*
G36*
X28160Y11900D02*
X28040D01*
X27930Y11854D01*
X27846Y11770D01*
X27800Y11660D01*
Y11540D01*
X27846Y11430D01*
X27930Y11346D01*
X28040Y11300D01*
X28160D01*
X28270Y11346D01*
X28354Y11430D01*
X28400Y11540D01*
Y11660D01*
X28354Y11770D01*
X28270Y11854D01*
X28160Y11900D01*
D02*
G37*
G36*
X59160Y11670D02*
X59040D01*
X58930Y11624D01*
X58846Y11540D01*
X58800Y11430D01*
Y11310D01*
X58846Y11200D01*
X58930Y11116D01*
X59040Y11070D01*
X59160D01*
X59270Y11116D01*
X59354Y11200D01*
X59400Y11310D01*
Y11430D01*
X59354Y11540D01*
X59270Y11624D01*
X59160Y11670D01*
D02*
G37*
G36*
X58260Y11670D02*
X58140D01*
X58030Y11624D01*
X57946Y11540D01*
X57900Y11430D01*
Y11310D01*
X57946Y11200D01*
X58030Y11116D01*
X58140Y11070D01*
X58260D01*
X58370Y11116D01*
X58454Y11200D01*
X58500Y11310D01*
Y11430D01*
X58454Y11540D01*
X58370Y11624D01*
X58260Y11670D01*
D02*
G37*
G36*
X57360D02*
X57240D01*
X57130Y11624D01*
X57046Y11540D01*
X57000Y11430D01*
Y11310D01*
X57046Y11200D01*
X57130Y11116D01*
X57240Y11070D01*
X57360D01*
X57470Y11116D01*
X57554Y11200D01*
X57600Y11310D01*
Y11430D01*
X57554Y11540D01*
X57470Y11624D01*
X57360Y11670D01*
D02*
G37*
G36*
X21960Y11600D02*
X21840D01*
X21730Y11554D01*
X21646Y11470D01*
X21600Y11360D01*
Y11240D01*
X21646Y11130D01*
X21730Y11046D01*
X21840Y11000D01*
X21960D01*
X22070Y11046D01*
X22154Y11130D01*
X22200Y11240D01*
Y11360D01*
X22154Y11470D01*
X22070Y11554D01*
X21960Y11600D01*
D02*
G37*
G36*
X31860Y11400D02*
X31740D01*
X31630Y11354D01*
X31546Y11270D01*
X31500Y11160D01*
Y11040D01*
X31546Y10930D01*
X31630Y10846D01*
X31740Y10800D01*
X31860D01*
X31970Y10846D01*
X32054Y10930D01*
X32100Y11040D01*
Y11160D01*
X32054Y11270D01*
X31970Y11354D01*
X31860Y11400D01*
D02*
G37*
G36*
X53560Y10700D02*
X53440D01*
X53330Y10654D01*
X53246Y10570D01*
X53200Y10460D01*
Y10340D01*
X53246Y10230D01*
X53330Y10146D01*
X53440Y10100D01*
X53560D01*
X53670Y10146D01*
X53754Y10230D01*
X53800Y10340D01*
Y10460D01*
X53754Y10570D01*
X53670Y10654D01*
X53560Y10700D01*
D02*
G37*
G36*
X56260Y10700D02*
X56140D01*
X56030Y10654D01*
X55946Y10570D01*
X55900Y10460D01*
Y10340D01*
X55946Y10230D01*
X56030Y10146D01*
X56140Y10100D01*
X56260D01*
X56370Y10146D01*
X56454Y10230D01*
X56500Y10340D01*
Y10460D01*
X56454Y10570D01*
X56370Y10654D01*
X56260Y10700D01*
D02*
G37*
G36*
X54966Y10681D02*
X54847D01*
X54736Y10635D01*
X54652Y10551D01*
X54606Y10440D01*
Y10321D01*
X54652Y10211D01*
X54736Y10126D01*
X54847Y10081D01*
X54966D01*
X55076Y10126D01*
X55161Y10211D01*
X55206Y10321D01*
Y10440D01*
X55161Y10551D01*
X55076Y10635D01*
X54966Y10681D01*
D02*
G37*
G36*
X15960Y9700D02*
X15840D01*
X15730Y9654D01*
X15646Y9570D01*
X15600Y9460D01*
Y9340D01*
X15646Y9230D01*
X15730Y9146D01*
X15840Y9100D01*
X15960D01*
X16070Y9146D01*
X16154Y9230D01*
X16200Y9340D01*
Y9460D01*
X16154Y9570D01*
X16070Y9654D01*
X15960Y9700D01*
D02*
G37*
G36*
X14560Y9300D02*
X14440D01*
X14330Y9254D01*
X14246Y9170D01*
X14200Y9060D01*
Y8940D01*
X14246Y8830D01*
X14330Y8746D01*
X14440Y8700D01*
X14560D01*
X14670Y8746D01*
X14754Y8830D01*
X14800Y8940D01*
Y9060D01*
X14754Y9170D01*
X14670Y9254D01*
X14560Y9300D01*
D02*
G37*
G36*
X31860Y9200D02*
X31740D01*
X31630Y9154D01*
X31546Y9070D01*
X31500Y8960D01*
Y8840D01*
X31546Y8730D01*
X31630Y8646D01*
X31740Y8600D01*
X31860D01*
X31970Y8646D01*
X32054Y8730D01*
X32100Y8840D01*
Y8960D01*
X32054Y9070D01*
X31970Y9154D01*
X31860Y9200D01*
D02*
G37*
G36*
X15960Y8900D02*
X15840D01*
X15730Y8854D01*
X15646Y8770D01*
X15600Y8660D01*
Y8540D01*
X15646Y8430D01*
X15730Y8346D01*
X15840Y8300D01*
X15960D01*
X16070Y8346D01*
X16154Y8430D01*
X16200Y8540D01*
Y8660D01*
X16154Y8770D01*
X16070Y8854D01*
X15960Y8900D01*
D02*
G37*
G36*
X8677Y10800D02*
X8323D01*
X7975Y10731D01*
X7647Y10595D01*
X7353Y10398D01*
X7102Y10147D01*
X6905Y9853D01*
X6769Y9525D01*
X6700Y9177D01*
Y8823D01*
X6769Y8475D01*
X6905Y8147D01*
X7102Y7853D01*
X7353Y7602D01*
X7647Y7405D01*
X7975Y7269D01*
X8323Y7200D01*
X8677D01*
X9025Y7269D01*
X9353Y7405D01*
X9647Y7602D01*
X9898Y7853D01*
X10095Y8147D01*
X10231Y8475D01*
X10300Y8823D01*
Y9177D01*
X10231Y9525D01*
X10095Y9853D01*
X9898Y10147D01*
X9647Y10398D01*
X9353Y10595D01*
X9025Y10731D01*
X8677Y10800D01*
D02*
G37*
%LPD*%
D48*
X53500Y13200D02*
X53500Y13200D01*
Y15000D01*
X53800Y15300D01*
X54600D01*
X59400Y17700D02*
X60400D01*
X59000Y18100D02*
Y21200D01*
Y18100D02*
X59400Y17700D01*
X58600Y21600D02*
X59000Y21200D01*
X53500Y52200D02*
X53500Y52200D01*
Y54000D01*
X53800Y54300D01*
X54600D01*
X59400Y56700D02*
X60400D01*
X59000Y57100D02*
Y60200D01*
Y57100D02*
X59400Y56700D01*
X58600Y60600D02*
X59000Y60200D01*
D50*
X71900Y25000D02*
Y25600D01*
X67100Y24800D02*
X71700D01*
X71900Y25000D01*
Y64000D02*
Y64600D01*
X67100Y63800D02*
X71700D01*
X71900Y64000D01*
D51*
X56900Y28600D02*
Y29507D01*
Y28000D02*
Y28600D01*
X55100Y29800D02*
X56607D01*
X53900D02*
X55100D01*
X56607D02*
X56900Y29507D01*
Y67600D02*
Y68507D01*
Y67000D02*
Y67600D01*
X55100Y68800D02*
X56607D01*
X53900D02*
X55100D01*
X56607D02*
X56900Y68507D01*
D83*
X74740Y15000D02*
D03*
Y54000D02*
D03*
D84*
X63000Y27700D02*
D03*
X62600D02*
D03*
X62200D02*
D03*
X63000Y27300D02*
D03*
X62200D02*
D03*
X62600D02*
D03*
X63000Y26900D02*
D03*
X62600D02*
D03*
X62200D02*
D03*
X58100Y14200D02*
D03*
X66100Y17000D02*
D03*
X52300Y21300D02*
D03*
X66100Y24200D02*
D03*
X60200Y20300D02*
D03*
X46500Y30200D02*
D03*
X56900Y28600D02*
D03*
X57300Y13000D02*
D03*
X60400Y17700D02*
D03*
X54600Y15300D02*
D03*
X54200Y16100D02*
D03*
X61000Y12500D02*
D03*
X56200Y12900D02*
D03*
X58600Y21600D02*
D03*
X54600Y21300D02*
D03*
X53500Y13200D02*
D03*
X56900Y28000D02*
D03*
X55100Y29800D02*
D03*
X53900D02*
D03*
X67100Y24800D02*
D03*
X31400Y21800D02*
D03*
Y22200D02*
D03*
Y21000D02*
D03*
Y21400D02*
D03*
Y23000D02*
D03*
Y22600D02*
D03*
Y23400D02*
D03*
X29800Y24600D02*
D03*
X30200D02*
D03*
X29000D02*
D03*
X29400D02*
D03*
X29800Y25000D02*
D03*
X30200D02*
D03*
X29000D02*
D03*
X29400D02*
D03*
X31000Y24600D02*
D03*
X30600D02*
D03*
X31400D02*
D03*
X31000Y25000D02*
D03*
X30600D02*
D03*
X31400D02*
D03*
X29800Y23800D02*
D03*
X30200D02*
D03*
X29000D02*
D03*
X29400D02*
D03*
X29800Y24200D02*
D03*
X30200D02*
D03*
X29000D02*
D03*
X29400D02*
D03*
X31000Y23800D02*
D03*
X30600D02*
D03*
X31400D02*
D03*
X31000Y24200D02*
D03*
X30600D02*
D03*
X31400D02*
D03*
X30600Y22600D02*
D03*
Y22200D02*
D03*
Y23400D02*
D03*
Y23000D02*
D03*
X31000Y22600D02*
D03*
Y22200D02*
D03*
Y23400D02*
D03*
Y23000D02*
D03*
X30600Y21400D02*
D03*
Y21800D02*
D03*
Y21000D02*
D03*
X31000Y21400D02*
D03*
Y21800D02*
D03*
Y21000D02*
D03*
X29800Y22600D02*
D03*
Y22200D02*
D03*
Y23400D02*
D03*
Y23000D02*
D03*
X30200Y22600D02*
D03*
Y22200D02*
D03*
Y23400D02*
D03*
Y23000D02*
D03*
X29800Y21400D02*
D03*
Y21800D02*
D03*
Y21000D02*
D03*
X30200Y21400D02*
D03*
Y21800D02*
D03*
Y21000D02*
D03*
X29000Y22600D02*
D03*
Y22200D02*
D03*
Y23400D02*
D03*
Y23000D02*
D03*
X29400Y22600D02*
D03*
Y22200D02*
D03*
Y23400D02*
D03*
Y23000D02*
D03*
X29000Y21400D02*
D03*
Y21800D02*
D03*
Y21000D02*
D03*
X29400Y21400D02*
D03*
Y21800D02*
D03*
Y21000D02*
D03*
X72300Y26000D02*
D03*
Y25600D02*
D03*
Y26800D02*
D03*
Y26400D02*
D03*
Y27600D02*
D03*
Y27200D02*
D03*
Y28400D02*
D03*
Y28000D02*
D03*
X71900Y26000D02*
D03*
Y25600D02*
D03*
Y26800D02*
D03*
Y26400D02*
D03*
X71500Y26000D02*
D03*
Y25600D02*
D03*
Y26800D02*
D03*
Y26400D02*
D03*
X71900Y27600D02*
D03*
Y27200D02*
D03*
Y28400D02*
D03*
Y28000D02*
D03*
X71500Y27600D02*
D03*
Y27200D02*
D03*
Y28400D02*
D03*
Y28000D02*
D03*
X70900Y29100D02*
D03*
Y29900D02*
D03*
Y29500D02*
D03*
X70500Y29100D02*
D03*
Y29900D02*
D03*
Y29500D02*
D03*
X71700Y31500D02*
D03*
X71300D02*
D03*
X72100D02*
D03*
X70900Y31100D02*
D03*
Y31500D02*
D03*
Y30300D02*
D03*
Y30700D02*
D03*
X70500Y31100D02*
D03*
Y31500D02*
D03*
Y30300D02*
D03*
Y30700D02*
D03*
X18500Y9300D02*
D03*
X21400Y12900D02*
D03*
X19600Y16900D02*
D03*
X28100Y12500D02*
D03*
X69800Y23400D02*
D03*
X63000Y66700D02*
D03*
X62600D02*
D03*
X62200D02*
D03*
X63000Y66300D02*
D03*
X62200D02*
D03*
X62600D02*
D03*
X63000Y65900D02*
D03*
X62600D02*
D03*
X62200D02*
D03*
X58100Y53200D02*
D03*
X66100Y56000D02*
D03*
X52300Y60300D02*
D03*
X66100Y63200D02*
D03*
X60200Y59300D02*
D03*
X46500Y69200D02*
D03*
X56900Y67600D02*
D03*
X57300Y52000D02*
D03*
X60400Y56700D02*
D03*
X54600Y54300D02*
D03*
X54200Y55100D02*
D03*
X61000Y51500D02*
D03*
X56200Y51900D02*
D03*
X58600Y60600D02*
D03*
X54600Y60300D02*
D03*
X53500Y52200D02*
D03*
X56900Y67000D02*
D03*
X55100Y68800D02*
D03*
X53900D02*
D03*
X67100Y63800D02*
D03*
X31400Y60800D02*
D03*
Y61200D02*
D03*
Y60000D02*
D03*
Y60400D02*
D03*
Y62000D02*
D03*
Y61600D02*
D03*
Y62400D02*
D03*
X29800Y63600D02*
D03*
X30200D02*
D03*
X29000D02*
D03*
X29400D02*
D03*
X29800Y64000D02*
D03*
X30200D02*
D03*
X29000D02*
D03*
X29400D02*
D03*
X31000Y63600D02*
D03*
X30600D02*
D03*
X31400D02*
D03*
X31000Y64000D02*
D03*
X30600D02*
D03*
X31400D02*
D03*
X29800Y62800D02*
D03*
X30200D02*
D03*
X29000D02*
D03*
X29400D02*
D03*
X29800Y63200D02*
D03*
X30200D02*
D03*
X29000D02*
D03*
X29400D02*
D03*
X31000Y62800D02*
D03*
X30600D02*
D03*
X31400D02*
D03*
X31000Y63200D02*
D03*
X30600D02*
D03*
X31400D02*
D03*
X30600Y61600D02*
D03*
Y61200D02*
D03*
Y62400D02*
D03*
Y62000D02*
D03*
X31000Y61600D02*
D03*
Y61200D02*
D03*
Y62400D02*
D03*
Y62000D02*
D03*
X30600Y60400D02*
D03*
Y60800D02*
D03*
Y60000D02*
D03*
X31000Y60400D02*
D03*
Y60800D02*
D03*
Y60000D02*
D03*
X29800Y61600D02*
D03*
Y61200D02*
D03*
Y62400D02*
D03*
Y62000D02*
D03*
X30200Y61600D02*
D03*
Y61200D02*
D03*
Y62400D02*
D03*
Y62000D02*
D03*
X29800Y60400D02*
D03*
Y60800D02*
D03*
Y60000D02*
D03*
X30200Y60400D02*
D03*
Y60800D02*
D03*
Y60000D02*
D03*
X29000Y61600D02*
D03*
Y61200D02*
D03*
Y62400D02*
D03*
Y62000D02*
D03*
X29400Y61600D02*
D03*
Y61200D02*
D03*
Y62400D02*
D03*
Y62000D02*
D03*
X29000Y60400D02*
D03*
Y60800D02*
D03*
Y60000D02*
D03*
X29400Y60400D02*
D03*
Y60800D02*
D03*
Y60000D02*
D03*
X72300Y65000D02*
D03*
Y64600D02*
D03*
Y65800D02*
D03*
Y65400D02*
D03*
Y66600D02*
D03*
Y66200D02*
D03*
Y67400D02*
D03*
Y67000D02*
D03*
X71900Y65000D02*
D03*
Y64600D02*
D03*
Y65800D02*
D03*
Y65400D02*
D03*
X71500Y65000D02*
D03*
Y64600D02*
D03*
Y65800D02*
D03*
Y65400D02*
D03*
X71900Y66600D02*
D03*
Y66200D02*
D03*
Y67400D02*
D03*
Y67000D02*
D03*
X71500Y66600D02*
D03*
Y66200D02*
D03*
Y67400D02*
D03*
Y67000D02*
D03*
X70900Y68100D02*
D03*
Y68900D02*
D03*
Y68500D02*
D03*
X70500Y68100D02*
D03*
Y68900D02*
D03*
Y68500D02*
D03*
X71700Y70500D02*
D03*
X71300D02*
D03*
X72100D02*
D03*
X70900Y70100D02*
D03*
Y70500D02*
D03*
Y69300D02*
D03*
Y69700D02*
D03*
X70500Y70100D02*
D03*
Y70500D02*
D03*
Y69300D02*
D03*
Y69700D02*
D03*
X18500Y48300D02*
D03*
X21400Y51900D02*
D03*
X19600Y55900D02*
D03*
X28100Y51500D02*
D03*
X69800Y62400D02*
D03*
M02*
