G04*
G04 #@! TF.GenerationSoftware,Altium Limited,Altium Designer,21.3.2 (30)*
G04*
G04 Layer_Color=12465579*
%FSLAX43Y43*%
%MOMM*%
G71*
G04*
G04 #@! TF.SameCoordinates,034B25BC-4B64-4F1D-819B-79BBDF65C54F*
G04*
G04*
G04 #@! TF.FilePolarity,Positive*
G04*
G01*
G75*
%ADD48C,0.200*%
%ADD50C,0.300*%
%ADD87R,0.750X0.750*%
%ADD88R,0.625X2.000*%
%ADD89R,0.625X1.500*%
%ADD90R,1.000X0.625*%
%ADD91R,1.500X0.625*%
%ADD92R,0.600X1.600*%
%ADD93R,0.600X0.600*%
G36*
X28304Y75500D02*
X28067D01*
X27496Y77004D01*
X27759D01*
X28144Y75911D01*
X28148Y75907D01*
X28152Y75893D01*
X28159Y75867D01*
X28167Y75841D01*
X28174Y75807D01*
X28185Y75770D01*
X28196Y75700D01*
X28200D01*
Y75704D01*
X28204Y75718D01*
X28207Y75741D01*
X28211Y75767D01*
X28218Y75800D01*
X28226Y75833D01*
X28248Y75904D01*
X28648Y77004D01*
X28900D01*
X28304Y75500D01*
D02*
G37*
G36*
X29741Y77637D02*
X29770D01*
X29807Y77629D01*
X29848Y77622D01*
X29889Y77615D01*
X29929Y77600D01*
X29933D01*
X29948Y77592D01*
X29970Y77585D01*
X29996Y77574D01*
X30026Y77559D01*
X30059Y77541D01*
X30122Y77492D01*
X30126Y77489D01*
X30137Y77481D01*
X30152Y77463D01*
X30170Y77444D01*
X30189Y77418D01*
X30211Y77389D01*
X30229Y77352D01*
X30248Y77315D01*
X30252Y77311D01*
X30255Y77296D01*
X30263Y77274D01*
X30274Y77244D01*
X30281Y77207D01*
X30289Y77166D01*
X30292Y77122D01*
X30296Y77074D01*
Y77070D01*
Y77052D01*
Y77029D01*
X30292Y77000D01*
X30289Y76963D01*
X30285Y76926D01*
X30266Y76844D01*
Y76841D01*
X30263Y76826D01*
X30255Y76807D01*
X30244Y76785D01*
X30233Y76755D01*
X30218Y76722D01*
X30177Y76655D01*
X30174Y76652D01*
X30166Y76641D01*
X30155Y76622D01*
X30140Y76600D01*
X30118Y76574D01*
X30092Y76544D01*
X30033Y76481D01*
X30029Y76478D01*
X30018Y76467D01*
X30000Y76452D01*
X29974Y76430D01*
X29944Y76404D01*
X29907Y76378D01*
X29870Y76348D01*
X29826Y76315D01*
X29818Y76311D01*
X29800Y76296D01*
X29774Y76278D01*
X29741Y76252D01*
X29700Y76226D01*
X29659Y76196D01*
X29618Y76163D01*
X29581Y76133D01*
X29578Y76130D01*
X29566Y76122D01*
X29548Y76107D01*
X29526Y76089D01*
X29478Y76044D01*
X29452Y76018D01*
X29429Y75993D01*
X29426Y75989D01*
X29422Y75981D01*
X29411Y75970D01*
X29400Y75952D01*
X29374Y75911D01*
X29352Y75863D01*
Y75859D01*
X29348Y75852D01*
X29344Y75837D01*
X29341Y75822D01*
X29337Y75800D01*
X29333Y75774D01*
X29329Y75715D01*
X30377D01*
Y75500D01*
X29078D01*
Y75604D01*
Y75611D01*
Y75626D01*
Y75652D01*
X29081Y75685D01*
X29085Y75718D01*
X29089Y75759D01*
X29107Y75841D01*
Y75844D01*
X29115Y75859D01*
X29122Y75878D01*
X29129Y75904D01*
X29144Y75933D01*
X29159Y75967D01*
X29204Y76037D01*
X29207Y76041D01*
X29215Y76052D01*
X29229Y76070D01*
X29252Y76096D01*
X29274Y76122D01*
X29304Y76155D01*
X29341Y76189D01*
X29378Y76222D01*
X29381Y76226D01*
X29396Y76237D01*
X29422Y76259D01*
X29452Y76281D01*
X29492Y76315D01*
X29537Y76348D01*
X29592Y76389D01*
X29648Y76430D01*
X29652Y76433D01*
X29666Y76444D01*
X29689Y76459D01*
X29715Y76481D01*
X29778Y76530D01*
X29840Y76585D01*
X29844Y76589D01*
X29855Y76600D01*
X29866Y76615D01*
X29885Y76633D01*
X29926Y76681D01*
X29963Y76737D01*
X29966Y76741D01*
X29970Y76748D01*
X29978Y76763D01*
X29989Y76785D01*
X30011Y76833D01*
X30029Y76889D01*
Y76892D01*
X30033Y76904D01*
X30037Y76918D01*
X30040Y76937D01*
X30044Y76963D01*
X30048Y76989D01*
X30052Y77052D01*
Y77055D01*
Y77067D01*
Y77085D01*
X30048Y77107D01*
X30037Y77163D01*
X30018Y77218D01*
Y77222D01*
X30015Y77229D01*
X30007Y77244D01*
X29996Y77263D01*
X29970Y77300D01*
X29937Y77341D01*
X29933Y77344D01*
X29929Y77348D01*
X29918Y77355D01*
X29903Y77366D01*
X29863Y77392D01*
X29815Y77411D01*
X29811D01*
X29803Y77415D01*
X29789Y77418D01*
X29770Y77422D01*
X29748Y77426D01*
X29722Y77429D01*
X29663Y77433D01*
X29637D01*
X29618Y77429D01*
X29574Y77426D01*
X29522Y77415D01*
X29518D01*
X29511Y77411D01*
X29496Y77407D01*
X29481Y77400D01*
X29441Y77385D01*
X29392Y77363D01*
X29389D01*
X29381Y77355D01*
X29370Y77348D01*
X29355Y77341D01*
X29315Y77315D01*
X29270Y77281D01*
X29266Y77278D01*
X29259Y77274D01*
X29248Y77263D01*
X29233Y77252D01*
X29200Y77218D01*
X29159Y77178D01*
Y77437D01*
X29163Y77441D01*
X29178Y77452D01*
X29196Y77470D01*
X29226Y77492D01*
X29259Y77515D01*
X29296Y77541D01*
X29341Y77563D01*
X29385Y77585D01*
X29392Y77589D01*
X29407Y77592D01*
X29433Y77603D01*
X29470Y77615D01*
X29515Y77622D01*
X29566Y77633D01*
X29626Y77637D01*
X29692Y77641D01*
X29715D01*
X29741Y77637D01*
D02*
G37*
G36*
X33166Y75793D02*
X33181Y75789D01*
X33222Y75774D01*
X33240Y75763D01*
X33259Y75744D01*
X33262Y75741D01*
X33266Y75737D01*
X33273Y75726D01*
X33285Y75711D01*
X33299Y75674D01*
X33303Y75656D01*
X33307Y75630D01*
Y75626D01*
Y75619D01*
X33303Y75607D01*
X33299Y75589D01*
X33288Y75552D01*
X33273Y75533D01*
X33259Y75515D01*
X33255D01*
X33251Y75507D01*
X33240Y75500D01*
X33225Y75493D01*
X33188Y75478D01*
X33166Y75474D01*
X33140Y75470D01*
X33129D01*
X33118Y75474D01*
X33099Y75478D01*
X33062Y75489D01*
X33044Y75500D01*
X33025Y75515D01*
X33022Y75519D01*
X33018Y75522D01*
X33011Y75533D01*
X33003Y75548D01*
X32985Y75585D01*
X32981Y75607D01*
X32977Y75630D01*
Y75633D01*
Y75641D01*
X32981Y75652D01*
X32985Y75670D01*
X32999Y75707D01*
X33011Y75726D01*
X33025Y75744D01*
X33029Y75748D01*
X33033Y75752D01*
X33044Y75759D01*
X33059Y75770D01*
X33096Y75789D01*
X33118Y75793D01*
X33140Y75796D01*
X33151D01*
X33166Y75793D01*
D02*
G37*
G36*
X30892D02*
X30907Y75789D01*
X30948Y75774D01*
X30966Y75763D01*
X30985Y75744D01*
X30989Y75741D01*
X30992Y75737D01*
X31000Y75726D01*
X31011Y75711D01*
X31026Y75674D01*
X31029Y75656D01*
X31033Y75630D01*
Y75626D01*
Y75619D01*
X31029Y75607D01*
X31026Y75589D01*
X31014Y75552D01*
X31000Y75533D01*
X30985Y75515D01*
X30981D01*
X30977Y75507D01*
X30966Y75500D01*
X30951Y75493D01*
X30914Y75478D01*
X30892Y75474D01*
X30866Y75470D01*
X30855D01*
X30844Y75474D01*
X30826Y75478D01*
X30789Y75489D01*
X30770Y75500D01*
X30752Y75515D01*
X30748Y75519D01*
X30744Y75522D01*
X30737Y75533D01*
X30729Y75548D01*
X30711Y75585D01*
X30707Y75607D01*
X30703Y75630D01*
Y75633D01*
Y75641D01*
X30707Y75652D01*
X30711Y75670D01*
X30726Y75707D01*
X30737Y75726D01*
X30752Y75744D01*
X30755Y75748D01*
X30759Y75752D01*
X30770Y75759D01*
X30785Y75770D01*
X30822Y75789D01*
X30844Y75793D01*
X30866Y75796D01*
X30877D01*
X30892Y75793D01*
D02*
G37*
G36*
X34329Y77637D02*
X34362Y77633D01*
X34403Y77622D01*
X34455Y77607D01*
X34510Y77585D01*
X34570Y77552D01*
X34633Y77507D01*
X34692Y77448D01*
X34721Y77415D01*
X34751Y77378D01*
X34781Y77337D01*
X34810Y77289D01*
X34836Y77241D01*
X34859Y77185D01*
X34881Y77126D01*
X34903Y77059D01*
X34918Y76992D01*
X34933Y76915D01*
X34947Y76837D01*
X34955Y76748D01*
X34962Y76659D01*
Y76559D01*
Y76555D01*
Y76548D01*
Y76533D01*
Y76515D01*
Y76492D01*
X34958Y76467D01*
X34955Y76404D01*
X34951Y76330D01*
X34944Y76252D01*
X34929Y76170D01*
X34914Y76093D01*
Y76089D01*
X34910Y76085D01*
Y76074D01*
X34907Y76059D01*
X34896Y76022D01*
X34877Y75974D01*
X34859Y75918D01*
X34836Y75863D01*
X34807Y75804D01*
X34773Y75748D01*
X34770Y75741D01*
X34759Y75726D01*
X34740Y75700D01*
X34714Y75670D01*
X34681Y75633D01*
X34644Y75600D01*
X34599Y75567D01*
X34551Y75537D01*
X34544Y75533D01*
X34529Y75526D01*
X34503Y75515D01*
X34466Y75504D01*
X34422Y75489D01*
X34373Y75478D01*
X34314Y75470D01*
X34255Y75467D01*
X34229D01*
X34199Y75470D01*
X34159Y75474D01*
X34114Y75481D01*
X34066Y75496D01*
X34018Y75511D01*
X33970Y75533D01*
X33966Y75537D01*
X33951Y75544D01*
X33925Y75563D01*
X33899Y75585D01*
X33866Y75611D01*
X33829Y75644D01*
X33796Y75685D01*
X33762Y75733D01*
X33759Y75741D01*
X33748Y75756D01*
X33733Y75785D01*
X33714Y75826D01*
X33692Y75870D01*
X33673Y75926D01*
X33651Y75989D01*
X33633Y76059D01*
Y76063D01*
Y76067D01*
X33629Y76078D01*
X33625Y76093D01*
X33622Y76111D01*
Y76133D01*
X33614Y76189D01*
X33607Y76255D01*
X33599Y76330D01*
X33596Y76415D01*
X33592Y76507D01*
Y76511D01*
Y76518D01*
Y76533D01*
Y76555D01*
Y76578D01*
X33596Y76607D01*
X33599Y76674D01*
X33603Y76748D01*
X33610Y76829D01*
X33622Y76915D01*
X33636Y76996D01*
Y77000D01*
X33640Y77007D01*
Y77018D01*
X33644Y77033D01*
X33655Y77070D01*
X33673Y77118D01*
X33692Y77174D01*
X33714Y77233D01*
X33744Y77292D01*
X33773Y77348D01*
X33777Y77355D01*
X33788Y77370D01*
X33810Y77396D01*
X33836Y77429D01*
X33866Y77466D01*
X33903Y77500D01*
X33947Y77537D01*
X33996Y77566D01*
X34003Y77570D01*
X34018Y77578D01*
X34047Y77589D01*
X34084Y77603D01*
X34129Y77618D01*
X34181Y77629D01*
X34236Y77637D01*
X34299Y77641D01*
X34307D01*
X34329Y77637D01*
D02*
G37*
G36*
X32055D02*
X32088Y77633D01*
X32129Y77622D01*
X32181Y77607D01*
X32237Y77585D01*
X32296Y77552D01*
X32359Y77507D01*
X32418Y77448D01*
X32448Y77415D01*
X32477Y77378D01*
X32507Y77337D01*
X32537Y77289D01*
X32562Y77241D01*
X32585Y77185D01*
X32607Y77126D01*
X32629Y77059D01*
X32644Y76992D01*
X32659Y76915D01*
X32674Y76837D01*
X32681Y76748D01*
X32688Y76659D01*
Y76559D01*
Y76555D01*
Y76548D01*
Y76533D01*
Y76515D01*
Y76492D01*
X32685Y76467D01*
X32681Y76404D01*
X32677Y76330D01*
X32670Y76252D01*
X32655Y76170D01*
X32640Y76093D01*
Y76089D01*
X32637Y76085D01*
Y76074D01*
X32633Y76059D01*
X32622Y76022D01*
X32603Y75974D01*
X32585Y75918D01*
X32562Y75863D01*
X32533Y75804D01*
X32499Y75748D01*
X32496Y75741D01*
X32485Y75726D01*
X32466Y75700D01*
X32440Y75670D01*
X32407Y75633D01*
X32370Y75600D01*
X32325Y75567D01*
X32277Y75537D01*
X32270Y75533D01*
X32255Y75526D01*
X32229Y75515D01*
X32192Y75504D01*
X32148Y75489D01*
X32100Y75478D01*
X32040Y75470D01*
X31981Y75467D01*
X31955D01*
X31925Y75470D01*
X31885Y75474D01*
X31840Y75481D01*
X31792Y75496D01*
X31744Y75511D01*
X31696Y75533D01*
X31692Y75537D01*
X31677Y75544D01*
X31651Y75563D01*
X31625Y75585D01*
X31592Y75611D01*
X31555Y75644D01*
X31522Y75685D01*
X31488Y75733D01*
X31485Y75741D01*
X31474Y75756D01*
X31459Y75785D01*
X31440Y75826D01*
X31418Y75870D01*
X31400Y75926D01*
X31377Y75989D01*
X31359Y76059D01*
Y76063D01*
Y76067D01*
X31355Y76078D01*
X31351Y76093D01*
X31348Y76111D01*
Y76133D01*
X31340Y76189D01*
X31333Y76255D01*
X31326Y76330D01*
X31322Y76415D01*
X31318Y76507D01*
Y76511D01*
Y76518D01*
Y76533D01*
Y76555D01*
Y76578D01*
X31322Y76607D01*
X31326Y76674D01*
X31329Y76748D01*
X31337Y76829D01*
X31348Y76915D01*
X31363Y76996D01*
Y77000D01*
X31366Y77007D01*
Y77018D01*
X31370Y77033D01*
X31381Y77070D01*
X31400Y77118D01*
X31418Y77174D01*
X31440Y77233D01*
X31470Y77292D01*
X31500Y77348D01*
X31503Y77355D01*
X31514Y77370D01*
X31537Y77396D01*
X31563Y77429D01*
X31592Y77466D01*
X31629Y77500D01*
X31674Y77537D01*
X31722Y77566D01*
X31729Y77570D01*
X31744Y77578D01*
X31774Y77589D01*
X31811Y77603D01*
X31855Y77618D01*
X31907Y77629D01*
X31962Y77637D01*
X32025Y77641D01*
X32033D01*
X32055Y77637D01*
D02*
G37*
G36*
X17614Y74757D02*
X17738D01*
X17796Y74751D01*
X18178D01*
X18282Y74744D01*
X18450D01*
X18548Y74738D01*
X18599D01*
X18638Y74731D01*
X18677D01*
X18729Y74725D01*
X18839Y74718D01*
X18897D01*
X18943Y74712D01*
X18995D01*
X19053Y74705D01*
X19124Y74699D01*
X19195Y74692D01*
Y74686D01*
Y74673D01*
X19202Y74660D01*
Y74640D01*
Y74627D01*
X19195Y74602D01*
X19189Y74569D01*
X19170Y74524D01*
X19163Y74517D01*
X19150Y74491D01*
X19118Y74459D01*
X19085Y74420D01*
X19079Y74414D01*
X19053Y74394D01*
X19014Y74368D01*
X18969Y74342D01*
X18962Y74336D01*
X18936Y74323D01*
X18897Y74310D01*
X18865Y74297D01*
X18859D01*
X18833Y74291D01*
X18787Y74284D01*
X18722Y74271D01*
X18710D01*
X18690Y74265D01*
X18664D01*
X18606Y74258D01*
X18535Y74245D01*
X18522D01*
X18476Y74239D01*
X18418Y74232D01*
X18360Y74219D01*
X18321D01*
X18282Y74213D01*
X18094D01*
X17161Y74245D01*
Y73332D01*
Y73319D01*
X17167Y73306D01*
X17180Y73280D01*
X17187Y73273D01*
X17193Y73260D01*
X17206Y73241D01*
X17213Y73221D01*
X17219Y73215D01*
X17245Y73183D01*
X17252D01*
X17258Y73176D01*
X17265Y73170D01*
X17271Y73163D01*
X18580D01*
X18625Y73157D01*
X18664Y73144D01*
X18671Y73137D01*
X18690Y73124D01*
X18703Y73098D01*
X18710Y73053D01*
Y73046D01*
Y73027D01*
X18703Y73001D01*
X18697Y72969D01*
X18684Y72930D01*
X18658Y72891D01*
X18632Y72852D01*
X18593Y72820D01*
X18586D01*
X18573Y72807D01*
X18548Y72794D01*
X18515Y72781D01*
X18470Y72761D01*
X18424Y72748D01*
X18308Y72716D01*
X18301D01*
X18275Y72710D01*
X18243D01*
X18198Y72703D01*
X18139Y72697D01*
X18081Y72690D01*
X18010D01*
X17932Y72684D01*
X17751D01*
X17686Y72677D01*
X17556Y72671D01*
X17530D01*
X17498Y72664D01*
X17459D01*
X17368Y72651D01*
X17271Y72625D01*
X17265D01*
X17252Y72619D01*
X17219Y72593D01*
X17180Y72548D01*
X17167Y72522D01*
X17161Y72483D01*
Y71180D01*
Y71167D01*
X17180Y71141D01*
X17193Y71122D01*
X17213Y71096D01*
X17245Y71077D01*
X17291Y71057D01*
X17297D01*
X17316Y71051D01*
X17342Y71044D01*
X17388Y71031D01*
X17433Y71018D01*
X17491Y71005D01*
X17563Y70999D01*
X17634Y70986D01*
X17640D01*
X17673Y70979D01*
X17712D01*
X17770Y70973D01*
X17835Y70967D01*
X17913Y70954D01*
X18003Y70947D01*
X18094Y70941D01*
X18139D01*
X18185Y70934D01*
X18249D01*
X18327Y70928D01*
X18411D01*
X18586Y70921D01*
X18865D01*
X19014Y70915D01*
X19079D01*
X19124Y70908D01*
X19215Y70902D01*
X19260D01*
X19299Y70895D01*
Y70882D01*
X19306Y70869D01*
X19312Y70856D01*
Y70837D01*
Y70830D01*
X19306Y70805D01*
X19299Y70772D01*
X19273Y70733D01*
X19267Y70727D01*
X19254Y70701D01*
X19221Y70662D01*
X19189Y70623D01*
X19183Y70617D01*
X19157Y70591D01*
X19124Y70565D01*
X19079Y70532D01*
X19072Y70526D01*
X19046Y70519D01*
X19008Y70506D01*
X18975Y70500D01*
X16604D01*
X16597Y70506D01*
X16578Y70519D01*
Y70526D01*
X16565Y70532D01*
X16552Y70558D01*
X16545Y70571D01*
X16532Y70597D01*
X16519Y70636D01*
X16506Y70681D01*
Y70694D01*
X16500Y70720D01*
X16494Y70759D01*
Y70798D01*
Y70811D01*
Y70837D01*
Y70876D01*
Y70921D01*
Y70928D01*
Y70934D01*
X16500Y70967D01*
Y71018D01*
Y71077D01*
Y71517D01*
Y71524D01*
Y71537D01*
Y71563D01*
Y71602D01*
Y71647D01*
Y71705D01*
Y71776D01*
Y71854D01*
Y71867D01*
Y71893D01*
Y71938D01*
X16506Y72003D01*
Y72081D01*
Y72165D01*
Y72262D01*
Y72366D01*
Y72373D01*
Y72379D01*
Y72418D01*
Y72470D01*
X16513Y72548D01*
Y72638D01*
Y72735D01*
X16519Y72846D01*
Y72962D01*
Y72969D01*
Y72975D01*
Y73014D01*
Y73079D01*
X16526Y73157D01*
Y73247D01*
Y73351D01*
X16532Y73565D01*
Y73571D01*
Y73578D01*
Y73617D01*
Y73669D01*
X16539Y73740D01*
Y73818D01*
Y73902D01*
X16545Y73992D01*
Y74077D01*
Y74090D01*
Y74116D01*
Y74154D01*
X16552Y74206D01*
Y74310D01*
Y74362D01*
Y74407D01*
X16558Y74414D01*
X16571Y74433D01*
X16597Y74465D01*
X16630Y74504D01*
X16668Y74543D01*
X16714Y74582D01*
X16772Y74621D01*
X16830Y74653D01*
X16837Y74660D01*
X16863Y74666D01*
X16895Y74679D01*
X16941Y74692D01*
X16999Y74705D01*
X17064Y74725D01*
X17206Y74744D01*
X17213D01*
X17245Y74751D01*
X17284D01*
X17336Y74757D01*
X17394D01*
X17465Y74764D01*
X17614Y74757D01*
D02*
G37*
G36*
X28358Y74673D02*
X28390Y74653D01*
X28422Y74621D01*
X28429Y74615D01*
X28442Y74589D01*
X28461Y74550D01*
X28481Y74511D01*
Y74504D01*
Y74485D01*
Y74459D01*
Y74414D01*
Y74355D01*
Y74291D01*
Y74206D01*
Y74116D01*
Y74103D01*
Y74070D01*
Y74018D01*
X28487Y73947D01*
Y73856D01*
Y73759D01*
X28494Y73649D01*
Y73526D01*
Y73519D01*
Y73513D01*
Y73494D01*
Y73468D01*
Y73403D01*
X28500Y73319D01*
Y73215D01*
Y73098D01*
X28507Y72969D01*
Y72833D01*
Y72826D01*
Y72820D01*
Y72800D01*
Y72768D01*
Y72703D01*
X28513Y72612D01*
Y72502D01*
Y72386D01*
X28520Y72139D01*
Y72133D01*
Y72126D01*
Y72107D01*
Y72081D01*
X28526Y72023D01*
Y71938D01*
Y71848D01*
X28533Y71751D01*
Y71543D01*
Y71530D01*
Y71498D01*
Y71452D01*
X28539Y71401D01*
Y71271D01*
Y71206D01*
Y71154D01*
Y71122D01*
Y71116D01*
Y71109D01*
Y71090D01*
Y71064D01*
X28533Y70999D01*
X28520Y70921D01*
Y70915D01*
X28513Y70902D01*
Y70882D01*
X28507Y70856D01*
X28481Y70785D01*
X28448Y70714D01*
Y70707D01*
X28442Y70701D01*
X28416Y70662D01*
X28377Y70610D01*
X28325Y70558D01*
X28319D01*
X28312Y70552D01*
X28273Y70532D01*
X28209Y70506D01*
X28131Y70500D01*
X28014D01*
X27995Y70506D01*
X27969Y70526D01*
X27930Y70552D01*
X27923Y70558D01*
X27917Y70565D01*
X27898Y70584D01*
X27872Y70610D01*
X27800Y70675D01*
X27710Y70759D01*
X27606Y70863D01*
X27496Y70979D01*
X27379Y71103D01*
X27256Y71232D01*
X27250Y71239D01*
X27243Y71245D01*
X27224Y71265D01*
X27204Y71291D01*
X27139Y71362D01*
X27062Y71452D01*
X26971Y71556D01*
X26861Y71673D01*
X26751Y71802D01*
X26634Y71932D01*
X26628Y71938D01*
X26621Y71945D01*
X26602Y71964D01*
X26582Y71990D01*
X26524Y72062D01*
X26440Y72152D01*
X26349Y72262D01*
X26245Y72379D01*
X26129Y72502D01*
X26012Y72632D01*
X26005Y72638D01*
X25999Y72645D01*
X25980Y72664D01*
X25960Y72690D01*
X25895Y72761D01*
X25811Y72846D01*
X25714Y72949D01*
X25604Y73059D01*
X25481Y73183D01*
X25351Y73299D01*
X25345D01*
X25332Y73286D01*
X25312Y73273D01*
X25293Y73247D01*
Y73241D01*
X25280Y73221D01*
X25273Y73195D01*
X25260Y73163D01*
Y73157D01*
X25254Y73137D01*
X25247Y73105D01*
X25241Y73072D01*
Y73066D01*
Y73053D01*
Y73040D01*
Y73027D01*
Y72917D01*
Y72722D01*
Y72528D01*
Y72418D01*
Y72411D01*
Y72399D01*
Y72373D01*
X25234Y72340D01*
Y72301D01*
Y72249D01*
X25228Y72139D01*
Y72133D01*
Y72113D01*
Y72081D01*
Y72036D01*
Y71984D01*
Y71925D01*
X25221Y71796D01*
Y71789D01*
Y71764D01*
Y71731D01*
X25215Y71686D01*
Y71634D01*
Y71576D01*
X25208Y71446D01*
Y71440D01*
Y71420D01*
Y71388D01*
Y71342D01*
Y71297D01*
Y71245D01*
X25202Y71135D01*
Y71129D01*
Y71116D01*
Y71090D01*
X25196Y71057D01*
Y70979D01*
X25189Y70908D01*
Y70902D01*
Y70895D01*
Y70869D01*
X25183Y70837D01*
Y70830D01*
Y70824D01*
X24910Y70552D01*
X24742D01*
Y70565D01*
Y70591D01*
X24736Y70649D01*
Y70681D01*
X24729Y70727D01*
Y70733D01*
Y70746D01*
X24723Y70772D01*
Y70805D01*
X24716Y70889D01*
X24710Y70986D01*
Y70992D01*
Y71012D01*
Y71038D01*
X24703Y71070D01*
Y71161D01*
X24697Y71252D01*
Y71258D01*
Y71271D01*
Y71297D01*
Y71323D01*
X24690Y71381D01*
Y71414D01*
Y71433D01*
Y71440D01*
Y71452D01*
Y71472D01*
Y71498D01*
Y71537D01*
Y71582D01*
X24684Y71640D01*
Y71705D01*
Y71712D01*
Y71738D01*
Y71776D01*
Y71828D01*
Y71893D01*
Y71964D01*
Y72042D01*
Y72126D01*
Y72612D01*
Y73098D01*
Y73111D01*
Y73137D01*
Y73183D01*
Y73241D01*
Y73306D01*
Y73377D01*
Y73519D01*
Y73526D01*
Y73552D01*
Y73584D01*
X24690Y73623D01*
Y73714D01*
Y73753D01*
Y73792D01*
Y73798D01*
X24684Y73805D01*
X24658Y73837D01*
X24625Y73882D01*
X24599Y73928D01*
X24593Y73941D01*
X24586Y73973D01*
X24580Y74018D01*
X24574Y74070D01*
Y74077D01*
Y74096D01*
Y74103D01*
X24580Y74109D01*
Y74122D01*
X24586Y74129D01*
X24599Y74154D01*
X24619Y74193D01*
X24645Y74239D01*
X24671Y74297D01*
X24710Y74355D01*
X24787Y74472D01*
X24794Y74478D01*
X24807Y74498D01*
X24833Y74524D01*
X24865Y74556D01*
X24904Y74589D01*
X24956Y74621D01*
X25008Y74653D01*
X25072Y74673D01*
X25079Y74666D01*
X25098Y74647D01*
X25124Y74615D01*
X25163Y74576D01*
X25208Y74530D01*
X25260Y74485D01*
X25370Y74388D01*
X25377Y74381D01*
X25396Y74368D01*
X25429Y74342D01*
X25468Y74310D01*
X25513Y74278D01*
X25565Y74232D01*
X25675Y74135D01*
X25682Y74129D01*
X25701Y74109D01*
X25727Y74083D01*
X25766Y74051D01*
X25805Y74005D01*
X25850Y73960D01*
X25947Y73856D01*
X25954Y73850D01*
X25967Y73837D01*
X25993Y73811D01*
X26018Y73779D01*
X26070Y73701D01*
X26096Y73669D01*
X26116Y73630D01*
X27327Y72418D01*
X27334Y72405D01*
X27347Y72373D01*
X27366Y72314D01*
X27399Y72243D01*
Y72237D01*
X27405Y72224D01*
X27418Y72204D01*
X27431Y72178D01*
X27470Y72113D01*
X27522Y72042D01*
X27528Y72036D01*
X27535Y72029D01*
X27567Y71984D01*
X27619Y71932D01*
X27677Y71874D01*
X27684D01*
X27690Y71861D01*
X27729Y71841D01*
X27787Y71822D01*
X27852Y71809D01*
X27865D01*
X27872Y71815D01*
X27878D01*
X27930Y72036D01*
Y74070D01*
Y74077D01*
X27923Y74083D01*
X27917Y74109D01*
X27904Y74148D01*
Y74161D01*
X27891Y74180D01*
X27885Y74213D01*
X27878Y74232D01*
Y74258D01*
Y74265D01*
Y74271D01*
X27885Y74303D01*
X27898Y74349D01*
X27917Y74401D01*
Y74407D01*
X27923Y74414D01*
X27949Y74446D01*
X27982Y74491D01*
X28027Y74537D01*
X28034D01*
X28040Y74550D01*
X28072Y74576D01*
X28118Y74608D01*
X28170Y74640D01*
X28176D01*
X28183Y74647D01*
X28215Y74660D01*
X28267Y74673D01*
X28319Y74679D01*
X28332D01*
X28358Y74673D01*
D02*
G37*
G36*
X31390Y74712D02*
X31448Y74686D01*
X31481Y74666D01*
X31513Y74634D01*
X31520Y74627D01*
X31526Y74621D01*
X31545Y74595D01*
X31571Y74569D01*
X31597Y74537D01*
X31623Y74498D01*
X31682Y74401D01*
X31688Y74394D01*
X31695Y74375D01*
X31714Y74349D01*
X31733Y74310D01*
X31759Y74258D01*
X31785Y74206D01*
X31844Y74077D01*
X31850Y74070D01*
X31857Y74044D01*
X31869Y74012D01*
X31889Y73967D01*
X31915Y73908D01*
X31934Y73850D01*
X31986Y73720D01*
Y73714D01*
X31999Y73694D01*
X32012Y73662D01*
X32025Y73617D01*
X32044Y73565D01*
X32064Y73513D01*
X32103Y73396D01*
Y73390D01*
X32116Y73370D01*
X32122Y73345D01*
X32135Y73312D01*
X32174Y73234D01*
X32206Y73163D01*
Y73157D01*
X32213Y73144D01*
X32226Y73111D01*
X32252Y73059D01*
X32258Y73046D01*
X32278Y73014D01*
X32304Y72962D01*
X32336Y72897D01*
Y72891D01*
X32342Y72884D01*
X32368Y72839D01*
X32394Y72787D01*
X32427Y72722D01*
X32433Y72710D01*
X32453Y72684D01*
X32466Y72651D01*
X32479Y72632D01*
Y72625D01*
X32492Y72606D01*
X32498Y72573D01*
X32517Y72522D01*
X32524Y72509D01*
X32537Y72476D01*
X32550Y72424D01*
X32569Y72360D01*
Y72353D01*
X32576Y72347D01*
X32582Y72308D01*
X32602Y72256D01*
X32615Y72198D01*
X32621Y72185D01*
X32628Y72159D01*
X32641Y72126D01*
X32647Y72094D01*
X32653D01*
X32660Y72087D01*
X32673Y72081D01*
X32692Y72062D01*
X32712Y72042D01*
X32738Y72010D01*
X32757Y71971D01*
X32783Y71919D01*
X32790Y71913D01*
X32796Y71893D01*
X32809Y71861D01*
X32828Y71822D01*
X32848Y71770D01*
X32867Y71712D01*
X32906Y71582D01*
Y71576D01*
X32919Y71550D01*
X32926Y71517D01*
X32939Y71472D01*
X32952Y71414D01*
X32971Y71355D01*
X32997Y71226D01*
Y71219D01*
X33003Y71200D01*
X33010Y71167D01*
X33016Y71129D01*
X33029Y71044D01*
X33036Y71005D01*
Y70973D01*
Y70967D01*
Y70941D01*
X33029Y70902D01*
X33023Y70856D01*
X33010Y70805D01*
X32984Y70753D01*
X32958Y70701D01*
X32919Y70656D01*
X32913Y70649D01*
X32900Y70636D01*
X32874Y70623D01*
X32835Y70604D01*
X32790Y70578D01*
X32731Y70565D01*
X32666Y70552D01*
X32589Y70545D01*
X32492D01*
X32472Y70552D01*
X32427D01*
X32420Y70565D01*
X32401Y70591D01*
X32375Y70643D01*
X32342Y70720D01*
Y70727D01*
X32336Y70740D01*
X32330Y70766D01*
X32317Y70798D01*
X32304Y70837D01*
X32291Y70882D01*
X32258Y70979D01*
Y70986D01*
Y70992D01*
X32245Y71025D01*
X32232Y71070D01*
X32213Y71122D01*
Y71129D01*
Y71135D01*
X32200Y71167D01*
X32187Y71213D01*
X32168Y71271D01*
Y71278D01*
X32161Y71284D01*
X32155Y71316D01*
X32135Y71362D01*
X32116Y71414D01*
Y71420D01*
X32109Y71427D01*
X32103Y71459D01*
X32083Y71498D01*
X32064Y71543D01*
X32057Y71556D01*
X32044Y71589D01*
X32019Y71647D01*
X31986Y71725D01*
Y71731D01*
X31980Y71744D01*
X31967Y71770D01*
X31954Y71802D01*
X31941Y71848D01*
X31915Y71900D01*
X31895Y71951D01*
X31869Y72016D01*
Y72023D01*
X31857Y72049D01*
X31844Y72081D01*
X31831Y72120D01*
X31785Y72217D01*
X31746Y72314D01*
Y72321D01*
X31740Y72334D01*
X31733Y72360D01*
X31720Y72386D01*
X31695Y72450D01*
X31675Y72509D01*
Y72515D01*
X31662Y72535D01*
X31649Y72560D01*
X31636Y72599D01*
X31597Y72684D01*
X31558Y72787D01*
Y72794D01*
X31552Y72813D01*
X31539Y72839D01*
X31526Y72872D01*
X31507Y72917D01*
X31487Y72962D01*
X31442Y73066D01*
Y73072D01*
X31435Y73085D01*
X31422Y73105D01*
X31409Y73131D01*
X31377Y73195D01*
X31338Y73273D01*
Y73280D01*
X31332Y73293D01*
X31319Y73312D01*
X31306Y73338D01*
X31273Y73403D01*
X31234Y73468D01*
Y73474D01*
X31228Y73481D01*
X31202Y73519D01*
X31170Y73571D01*
X31131Y73617D01*
X31124Y73630D01*
X31105Y73649D01*
X31079Y73681D01*
X31053Y73707D01*
X30885Y73552D01*
X30450Y72625D01*
X30444Y72619D01*
X30437Y72593D01*
X30425Y72560D01*
X30405Y72509D01*
X30379Y72457D01*
X30353Y72399D01*
X30301Y72275D01*
Y72269D01*
X30288Y72249D01*
X30275Y72217D01*
X30263Y72178D01*
X30243Y72133D01*
X30217Y72087D01*
X30172Y71977D01*
X30165Y71964D01*
X30152Y71932D01*
X30126Y71880D01*
X30101Y71822D01*
X30036Y71692D01*
X30003Y71627D01*
X29977Y71576D01*
X29971Y71563D01*
X29964Y71537D01*
X29945Y71491D01*
X29926Y71440D01*
X29919Y71427D01*
X29913Y71401D01*
X29893Y71355D01*
X29874Y71303D01*
Y71297D01*
X29867Y71278D01*
X29861Y71252D01*
X29848Y71213D01*
X29841Y71174D01*
X29828Y71122D01*
X29802Y71018D01*
Y71012D01*
X29796Y70992D01*
X29790Y70967D01*
X29777Y70934D01*
X29751Y70850D01*
X29712Y70759D01*
Y70753D01*
X29699Y70740D01*
X29686Y70720D01*
X29666Y70694D01*
X29615Y70630D01*
X29543Y70571D01*
X29537D01*
X29524Y70558D01*
X29498Y70552D01*
X29466Y70539D01*
X29420Y70526D01*
X29368Y70513D01*
X29310Y70506D01*
X29239Y70500D01*
X29226D01*
X29193Y70506D01*
X29155Y70519D01*
X29142Y70532D01*
X29135Y70545D01*
Y70552D01*
X29129Y70578D01*
X29122Y70610D01*
Y70656D01*
Y70662D01*
Y70675D01*
Y70694D01*
X29129Y70720D01*
X29142Y70779D01*
X29161Y70856D01*
Y70863D01*
X29167Y70876D01*
X29174Y70895D01*
X29187Y70928D01*
X29213Y70992D01*
X29252Y71070D01*
Y71077D01*
X29258Y71090D01*
X29271Y71109D01*
X29284Y71135D01*
X29323Y71206D01*
X29362Y71278D01*
Y71284D01*
X29375Y71297D01*
X29381Y71310D01*
X29394Y71336D01*
X29427Y71394D01*
X29459Y71459D01*
Y71465D01*
X29466Y71472D01*
X29479Y71511D01*
X29504Y71563D01*
X29537Y71640D01*
X29576Y71725D01*
X29621Y71828D01*
X29673Y71932D01*
X29725Y72042D01*
Y72049D01*
X29731Y72055D01*
X29751Y72094D01*
X29777Y72152D01*
X29815Y72230D01*
X29861Y72314D01*
X29906Y72418D01*
X29958Y72522D01*
X30016Y72632D01*
Y72638D01*
X30023Y72645D01*
X30042Y72684D01*
X30068Y72742D01*
X30107Y72820D01*
X30152Y72904D01*
X30204Y73008D01*
X30256Y73111D01*
X30308Y73221D01*
Y73228D01*
X30314Y73234D01*
X30334Y73273D01*
X30360Y73332D01*
X30392Y73409D01*
X30431Y73494D01*
X30470Y73591D01*
X30554Y73805D01*
Y73811D01*
X30567Y73830D01*
X30574Y73863D01*
X30587Y73902D01*
X30606Y73947D01*
X30625Y73999D01*
X30658Y74116D01*
Y74122D01*
X30664Y74142D01*
X30677Y74174D01*
X30690Y74213D01*
X30729Y74310D01*
X30781Y74407D01*
X30787Y74414D01*
X30794Y74433D01*
X30813Y74453D01*
X30833Y74485D01*
X30898Y74563D01*
X30982Y74634D01*
X30988Y74640D01*
X31008Y74647D01*
X31034Y74660D01*
X31072Y74679D01*
X31124Y74699D01*
X31183Y74712D01*
X31254Y74718D01*
X31332Y74725D01*
X31345D01*
X31390Y74712D01*
D02*
G37*
G36*
X23880Y74699D02*
X23913Y74692D01*
X23919D01*
X23945Y74686D01*
X23977Y74679D01*
X24010Y74660D01*
X24016Y74653D01*
X24036Y74647D01*
X24088Y74608D01*
X24094Y74602D01*
X24107Y74589D01*
X24113Y74569D01*
X24120Y74543D01*
Y74537D01*
X24113Y74511D01*
Y74498D01*
Y74485D01*
Y74478D01*
X24101Y74465D01*
X24088Y74446D01*
X24068Y74414D01*
X24062Y74407D01*
X24049Y74388D01*
X24023Y74362D01*
X23997Y74329D01*
X23990Y74323D01*
X23977Y74303D01*
X23932Y74258D01*
X23926Y74252D01*
X23919Y74245D01*
X23906Y74239D01*
X23900Y74232D01*
X22306D01*
X22247Y74148D01*
Y74142D01*
Y74135D01*
Y74116D01*
Y74083D01*
Y74044D01*
Y73999D01*
Y73941D01*
Y73869D01*
Y73863D01*
Y73837D01*
Y73798D01*
X22254Y73746D01*
Y73681D01*
Y73610D01*
Y73532D01*
Y73448D01*
Y73442D01*
Y73429D01*
Y73409D01*
Y73377D01*
Y73312D01*
Y73228D01*
Y73221D01*
Y73208D01*
Y73189D01*
Y73163D01*
Y73092D01*
X22247Y73021D01*
Y73014D01*
Y73008D01*
Y72969D01*
Y72910D01*
Y72852D01*
Y72839D01*
Y72813D01*
Y72774D01*
Y72742D01*
X22196Y71226D01*
Y71219D01*
Y71206D01*
Y71180D01*
X22189Y71148D01*
X22183Y71070D01*
X22176Y70973D01*
Y70967D01*
Y70954D01*
X22170Y70928D01*
X22163Y70895D01*
X22144Y70817D01*
X22118Y70733D01*
Y70727D01*
X22111Y70714D01*
X22098Y70694D01*
X22085Y70668D01*
X22040Y70610D01*
X21982Y70558D01*
X21975D01*
X21962Y70545D01*
X21943Y70539D01*
X21917Y70526D01*
X21878Y70513D01*
X21839Y70506D01*
X21787Y70494D01*
X21684D01*
X21638Y70500D01*
X21580Y70506D01*
X21567Y70513D01*
X21541Y70526D01*
X21509Y70558D01*
X21489Y70578D01*
X21476Y70610D01*
Y70973D01*
Y70979D01*
Y71005D01*
Y71038D01*
Y71090D01*
Y71148D01*
Y71219D01*
Y71297D01*
X21483Y71388D01*
Y71485D01*
Y71589D01*
X21489Y71815D01*
X21496Y72049D01*
X21502Y72295D01*
Y72301D01*
Y72327D01*
Y72360D01*
X21509Y72411D01*
Y72470D01*
X21515Y72541D01*
Y72619D01*
X21522Y72710D01*
Y72807D01*
Y72910D01*
X21528Y73137D01*
X21535Y73377D01*
Y73623D01*
Y73630D01*
Y73643D01*
Y73669D01*
Y73701D01*
Y73779D01*
X21541Y73856D01*
Y73863D01*
Y73876D01*
Y73895D01*
Y73915D01*
X21535Y73973D01*
X21522Y74031D01*
Y74038D01*
X21515Y74044D01*
X21502Y74077D01*
X21470Y74116D01*
X21424Y74154D01*
X21411Y74161D01*
X21392Y74167D01*
X21373Y74180D01*
X21340Y74187D01*
X21301Y74193D01*
X21256Y74200D01*
X21204Y74206D01*
X20187D01*
X20161Y74213D01*
X20154D01*
X20135Y74219D01*
X20109D01*
X20077Y74226D01*
X20070D01*
X20051Y74232D01*
X20025Y74239D01*
X19992Y74245D01*
X19986D01*
X19973Y74252D01*
X19941Y74258D01*
Y74265D01*
X19934Y74284D01*
Y74291D01*
Y74297D01*
Y74316D01*
Y74323D01*
Y74336D01*
X19941Y74355D01*
Y74381D01*
X19967Y74440D01*
X19980Y74472D01*
X20005Y74498D01*
X20012Y74504D01*
X20018Y74511D01*
X20057Y74543D01*
X20116Y74582D01*
X20187Y74621D01*
X20193D01*
X20206Y74627D01*
X20226Y74634D01*
X20252Y74647D01*
X20323Y74666D01*
X20407Y74686D01*
X20414D01*
X20427Y74692D01*
X20446D01*
X20478Y74699D01*
X20537Y74705D01*
X23861D01*
X23880Y74699D01*
D02*
G37*
G36*
X7500Y67217D02*
X5413D01*
Y71783D01*
X7500D01*
Y67217D01*
D02*
G37*
G36*
X7500Y62217D02*
X5413D01*
Y66783D01*
X7500D01*
Y62217D01*
D02*
G37*
G36*
Y57217D02*
X5413D01*
Y61783D01*
X7500D01*
Y57217D01*
D02*
G37*
G36*
Y52084D02*
X5413D01*
Y56916D01*
X7500D01*
Y52084D01*
D02*
G37*
G36*
X70750Y50688D02*
X65750D01*
Y52775D01*
X70750D01*
Y50688D01*
D02*
G37*
G36*
X28304Y36500D02*
X28067D01*
X27496Y38004D01*
X27759D01*
X28144Y36911D01*
X28148Y36907D01*
X28152Y36893D01*
X28159Y36867D01*
X28167Y36841D01*
X28174Y36807D01*
X28185Y36770D01*
X28196Y36700D01*
X28200D01*
Y36704D01*
X28204Y36718D01*
X28207Y36741D01*
X28211Y36767D01*
X28218Y36800D01*
X28226Y36833D01*
X28248Y36904D01*
X28648Y38004D01*
X28900D01*
X28304Y36500D01*
D02*
G37*
G36*
X29741Y38637D02*
X29770D01*
X29807Y38629D01*
X29848Y38622D01*
X29889Y38615D01*
X29929Y38600D01*
X29933D01*
X29948Y38592D01*
X29970Y38585D01*
X29996Y38574D01*
X30026Y38559D01*
X30059Y38541D01*
X30122Y38492D01*
X30126Y38489D01*
X30137Y38481D01*
X30152Y38463D01*
X30170Y38444D01*
X30189Y38418D01*
X30211Y38389D01*
X30229Y38352D01*
X30248Y38315D01*
X30252Y38311D01*
X30255Y38296D01*
X30263Y38274D01*
X30274Y38244D01*
X30281Y38207D01*
X30289Y38166D01*
X30292Y38122D01*
X30296Y38074D01*
Y38070D01*
Y38052D01*
Y38029D01*
X30292Y38000D01*
X30289Y37963D01*
X30285Y37926D01*
X30266Y37844D01*
Y37841D01*
X30263Y37826D01*
X30255Y37807D01*
X30244Y37785D01*
X30233Y37755D01*
X30218Y37722D01*
X30177Y37655D01*
X30174Y37652D01*
X30166Y37641D01*
X30155Y37622D01*
X30140Y37600D01*
X30118Y37574D01*
X30092Y37544D01*
X30033Y37481D01*
X30029Y37478D01*
X30018Y37467D01*
X30000Y37452D01*
X29974Y37430D01*
X29944Y37404D01*
X29907Y37378D01*
X29870Y37348D01*
X29826Y37315D01*
X29818Y37311D01*
X29800Y37296D01*
X29774Y37278D01*
X29741Y37252D01*
X29700Y37226D01*
X29659Y37196D01*
X29618Y37163D01*
X29581Y37133D01*
X29578Y37130D01*
X29566Y37122D01*
X29548Y37107D01*
X29526Y37089D01*
X29478Y37044D01*
X29452Y37018D01*
X29429Y36993D01*
X29426Y36989D01*
X29422Y36981D01*
X29411Y36970D01*
X29400Y36952D01*
X29374Y36911D01*
X29352Y36863D01*
Y36859D01*
X29348Y36852D01*
X29344Y36837D01*
X29341Y36822D01*
X29337Y36800D01*
X29333Y36774D01*
X29329Y36715D01*
X30377D01*
Y36500D01*
X29078D01*
Y36604D01*
Y36611D01*
Y36626D01*
Y36652D01*
X29081Y36685D01*
X29085Y36718D01*
X29089Y36759D01*
X29107Y36841D01*
Y36844D01*
X29115Y36859D01*
X29122Y36878D01*
X29129Y36904D01*
X29144Y36933D01*
X29159Y36967D01*
X29204Y37037D01*
X29207Y37041D01*
X29215Y37052D01*
X29229Y37070D01*
X29252Y37096D01*
X29274Y37122D01*
X29304Y37155D01*
X29341Y37189D01*
X29378Y37222D01*
X29381Y37226D01*
X29396Y37237D01*
X29422Y37259D01*
X29452Y37281D01*
X29492Y37315D01*
X29537Y37348D01*
X29592Y37389D01*
X29648Y37430D01*
X29652Y37433D01*
X29666Y37444D01*
X29689Y37459D01*
X29715Y37481D01*
X29778Y37530D01*
X29840Y37585D01*
X29844Y37589D01*
X29855Y37600D01*
X29866Y37615D01*
X29885Y37633D01*
X29926Y37681D01*
X29963Y37737D01*
X29966Y37741D01*
X29970Y37748D01*
X29978Y37763D01*
X29989Y37785D01*
X30011Y37833D01*
X30029Y37889D01*
Y37892D01*
X30033Y37904D01*
X30037Y37918D01*
X30040Y37937D01*
X30044Y37963D01*
X30048Y37989D01*
X30052Y38052D01*
Y38055D01*
Y38067D01*
Y38085D01*
X30048Y38107D01*
X30037Y38163D01*
X30018Y38218D01*
Y38222D01*
X30015Y38229D01*
X30007Y38244D01*
X29996Y38263D01*
X29970Y38300D01*
X29937Y38341D01*
X29933Y38344D01*
X29929Y38348D01*
X29918Y38355D01*
X29903Y38366D01*
X29863Y38392D01*
X29815Y38411D01*
X29811D01*
X29803Y38415D01*
X29789Y38418D01*
X29770Y38422D01*
X29748Y38426D01*
X29722Y38429D01*
X29663Y38433D01*
X29637D01*
X29618Y38429D01*
X29574Y38426D01*
X29522Y38415D01*
X29518D01*
X29511Y38411D01*
X29496Y38407D01*
X29481Y38400D01*
X29441Y38385D01*
X29392Y38363D01*
X29389D01*
X29381Y38355D01*
X29370Y38348D01*
X29355Y38341D01*
X29315Y38315D01*
X29270Y38281D01*
X29266Y38278D01*
X29259Y38274D01*
X29248Y38263D01*
X29233Y38252D01*
X29200Y38218D01*
X29159Y38178D01*
Y38437D01*
X29163Y38441D01*
X29178Y38452D01*
X29196Y38470D01*
X29226Y38492D01*
X29259Y38515D01*
X29296Y38541D01*
X29341Y38563D01*
X29385Y38585D01*
X29392Y38589D01*
X29407Y38592D01*
X29433Y38603D01*
X29470Y38615D01*
X29515Y38622D01*
X29566Y38633D01*
X29626Y38637D01*
X29692Y38641D01*
X29715D01*
X29741Y38637D01*
D02*
G37*
G36*
X33166Y36793D02*
X33181Y36789D01*
X33222Y36774D01*
X33240Y36763D01*
X33259Y36744D01*
X33262Y36741D01*
X33266Y36737D01*
X33273Y36726D01*
X33285Y36711D01*
X33299Y36674D01*
X33303Y36656D01*
X33307Y36630D01*
Y36626D01*
Y36619D01*
X33303Y36607D01*
X33299Y36589D01*
X33288Y36552D01*
X33273Y36533D01*
X33259Y36515D01*
X33255D01*
X33251Y36507D01*
X33240Y36500D01*
X33225Y36493D01*
X33188Y36478D01*
X33166Y36474D01*
X33140Y36470D01*
X33129D01*
X33118Y36474D01*
X33099Y36478D01*
X33062Y36489D01*
X33044Y36500D01*
X33025Y36515D01*
X33022Y36519D01*
X33018Y36522D01*
X33011Y36533D01*
X33003Y36548D01*
X32985Y36585D01*
X32981Y36607D01*
X32977Y36630D01*
Y36633D01*
Y36641D01*
X32981Y36652D01*
X32985Y36670D01*
X32999Y36707D01*
X33011Y36726D01*
X33025Y36744D01*
X33029Y36748D01*
X33033Y36752D01*
X33044Y36759D01*
X33059Y36770D01*
X33096Y36789D01*
X33118Y36793D01*
X33140Y36796D01*
X33151D01*
X33166Y36793D01*
D02*
G37*
G36*
X30892D02*
X30907Y36789D01*
X30948Y36774D01*
X30966Y36763D01*
X30985Y36744D01*
X30989Y36741D01*
X30992Y36737D01*
X31000Y36726D01*
X31011Y36711D01*
X31026Y36674D01*
X31029Y36656D01*
X31033Y36630D01*
Y36626D01*
Y36619D01*
X31029Y36607D01*
X31026Y36589D01*
X31014Y36552D01*
X31000Y36533D01*
X30985Y36515D01*
X30981D01*
X30977Y36507D01*
X30966Y36500D01*
X30951Y36493D01*
X30914Y36478D01*
X30892Y36474D01*
X30866Y36470D01*
X30855D01*
X30844Y36474D01*
X30826Y36478D01*
X30789Y36489D01*
X30770Y36500D01*
X30752Y36515D01*
X30748Y36519D01*
X30744Y36522D01*
X30737Y36533D01*
X30729Y36548D01*
X30711Y36585D01*
X30707Y36607D01*
X30703Y36630D01*
Y36633D01*
Y36641D01*
X30707Y36652D01*
X30711Y36670D01*
X30726Y36707D01*
X30737Y36726D01*
X30752Y36744D01*
X30755Y36748D01*
X30759Y36752D01*
X30770Y36759D01*
X30785Y36770D01*
X30822Y36789D01*
X30844Y36793D01*
X30866Y36796D01*
X30877D01*
X30892Y36793D01*
D02*
G37*
G36*
X34329Y38637D02*
X34362Y38633D01*
X34403Y38622D01*
X34455Y38607D01*
X34510Y38585D01*
X34570Y38552D01*
X34633Y38507D01*
X34692Y38448D01*
X34721Y38415D01*
X34751Y38378D01*
X34781Y38337D01*
X34810Y38289D01*
X34836Y38241D01*
X34859Y38185D01*
X34881Y38126D01*
X34903Y38059D01*
X34918Y37992D01*
X34933Y37915D01*
X34947Y37837D01*
X34955Y37748D01*
X34962Y37659D01*
Y37559D01*
Y37555D01*
Y37548D01*
Y37533D01*
Y37515D01*
Y37492D01*
X34958Y37467D01*
X34955Y37404D01*
X34951Y37330D01*
X34944Y37252D01*
X34929Y37170D01*
X34914Y37093D01*
Y37089D01*
X34910Y37085D01*
Y37074D01*
X34907Y37059D01*
X34896Y37022D01*
X34877Y36974D01*
X34859Y36918D01*
X34836Y36863D01*
X34807Y36804D01*
X34773Y36748D01*
X34770Y36741D01*
X34759Y36726D01*
X34740Y36700D01*
X34714Y36670D01*
X34681Y36633D01*
X34644Y36600D01*
X34599Y36567D01*
X34551Y36537D01*
X34544Y36533D01*
X34529Y36526D01*
X34503Y36515D01*
X34466Y36504D01*
X34422Y36489D01*
X34373Y36478D01*
X34314Y36470D01*
X34255Y36467D01*
X34229D01*
X34199Y36470D01*
X34159Y36474D01*
X34114Y36481D01*
X34066Y36496D01*
X34018Y36511D01*
X33970Y36533D01*
X33966Y36537D01*
X33951Y36544D01*
X33925Y36563D01*
X33899Y36585D01*
X33866Y36611D01*
X33829Y36644D01*
X33796Y36685D01*
X33762Y36733D01*
X33759Y36741D01*
X33748Y36756D01*
X33733Y36785D01*
X33714Y36826D01*
X33692Y36870D01*
X33673Y36926D01*
X33651Y36989D01*
X33633Y37059D01*
Y37063D01*
Y37067D01*
X33629Y37078D01*
X33625Y37093D01*
X33622Y37111D01*
Y37133D01*
X33614Y37189D01*
X33607Y37255D01*
X33599Y37330D01*
X33596Y37415D01*
X33592Y37507D01*
Y37511D01*
Y37518D01*
Y37533D01*
Y37555D01*
Y37578D01*
X33596Y37607D01*
X33599Y37674D01*
X33603Y37748D01*
X33610Y37829D01*
X33622Y37915D01*
X33636Y37996D01*
Y38000D01*
X33640Y38007D01*
Y38018D01*
X33644Y38033D01*
X33655Y38070D01*
X33673Y38118D01*
X33692Y38174D01*
X33714Y38233D01*
X33744Y38292D01*
X33773Y38348D01*
X33777Y38355D01*
X33788Y38370D01*
X33810Y38396D01*
X33836Y38429D01*
X33866Y38466D01*
X33903Y38500D01*
X33947Y38537D01*
X33996Y38566D01*
X34003Y38570D01*
X34018Y38578D01*
X34047Y38589D01*
X34084Y38603D01*
X34129Y38618D01*
X34181Y38629D01*
X34236Y38637D01*
X34299Y38641D01*
X34307D01*
X34329Y38637D01*
D02*
G37*
G36*
X32055D02*
X32088Y38633D01*
X32129Y38622D01*
X32181Y38607D01*
X32237Y38585D01*
X32296Y38552D01*
X32359Y38507D01*
X32418Y38448D01*
X32448Y38415D01*
X32477Y38378D01*
X32507Y38337D01*
X32537Y38289D01*
X32562Y38241D01*
X32585Y38185D01*
X32607Y38126D01*
X32629Y38059D01*
X32644Y37992D01*
X32659Y37915D01*
X32674Y37837D01*
X32681Y37748D01*
X32688Y37659D01*
Y37559D01*
Y37555D01*
Y37548D01*
Y37533D01*
Y37515D01*
Y37492D01*
X32685Y37467D01*
X32681Y37404D01*
X32677Y37330D01*
X32670Y37252D01*
X32655Y37170D01*
X32640Y37093D01*
Y37089D01*
X32637Y37085D01*
Y37074D01*
X32633Y37059D01*
X32622Y37022D01*
X32603Y36974D01*
X32585Y36918D01*
X32562Y36863D01*
X32533Y36804D01*
X32499Y36748D01*
X32496Y36741D01*
X32485Y36726D01*
X32466Y36700D01*
X32440Y36670D01*
X32407Y36633D01*
X32370Y36600D01*
X32325Y36567D01*
X32277Y36537D01*
X32270Y36533D01*
X32255Y36526D01*
X32229Y36515D01*
X32192Y36504D01*
X32148Y36489D01*
X32100Y36478D01*
X32040Y36470D01*
X31981Y36467D01*
X31955D01*
X31925Y36470D01*
X31885Y36474D01*
X31840Y36481D01*
X31792Y36496D01*
X31744Y36511D01*
X31696Y36533D01*
X31692Y36537D01*
X31677Y36544D01*
X31651Y36563D01*
X31625Y36585D01*
X31592Y36611D01*
X31555Y36644D01*
X31522Y36685D01*
X31488Y36733D01*
X31485Y36741D01*
X31474Y36756D01*
X31459Y36785D01*
X31440Y36826D01*
X31418Y36870D01*
X31400Y36926D01*
X31377Y36989D01*
X31359Y37059D01*
Y37063D01*
Y37067D01*
X31355Y37078D01*
X31351Y37093D01*
X31348Y37111D01*
Y37133D01*
X31340Y37189D01*
X31333Y37255D01*
X31326Y37330D01*
X31322Y37415D01*
X31318Y37507D01*
Y37511D01*
Y37518D01*
Y37533D01*
Y37555D01*
Y37578D01*
X31322Y37607D01*
X31326Y37674D01*
X31329Y37748D01*
X31337Y37829D01*
X31348Y37915D01*
X31363Y37996D01*
Y38000D01*
X31366Y38007D01*
Y38018D01*
X31370Y38033D01*
X31381Y38070D01*
X31400Y38118D01*
X31418Y38174D01*
X31440Y38233D01*
X31470Y38292D01*
X31500Y38348D01*
X31503Y38355D01*
X31514Y38370D01*
X31537Y38396D01*
X31563Y38429D01*
X31592Y38466D01*
X31629Y38500D01*
X31674Y38537D01*
X31722Y38566D01*
X31729Y38570D01*
X31744Y38578D01*
X31774Y38589D01*
X31811Y38603D01*
X31855Y38618D01*
X31907Y38629D01*
X31962Y38637D01*
X32025Y38641D01*
X32033D01*
X32055Y38637D01*
D02*
G37*
G36*
X17614Y35757D02*
X17738D01*
X17796Y35751D01*
X18178D01*
X18282Y35744D01*
X18450D01*
X18548Y35738D01*
X18599D01*
X18638Y35731D01*
X18677D01*
X18729Y35725D01*
X18839Y35718D01*
X18897D01*
X18943Y35712D01*
X18995D01*
X19053Y35705D01*
X19124Y35699D01*
X19195Y35692D01*
Y35686D01*
Y35673D01*
X19202Y35660D01*
Y35640D01*
Y35627D01*
X19195Y35602D01*
X19189Y35569D01*
X19170Y35524D01*
X19163Y35517D01*
X19150Y35491D01*
X19118Y35459D01*
X19085Y35420D01*
X19079Y35414D01*
X19053Y35394D01*
X19014Y35368D01*
X18969Y35342D01*
X18962Y35336D01*
X18936Y35323D01*
X18897Y35310D01*
X18865Y35297D01*
X18859D01*
X18833Y35291D01*
X18787Y35284D01*
X18722Y35271D01*
X18710D01*
X18690Y35265D01*
X18664D01*
X18606Y35258D01*
X18535Y35245D01*
X18522D01*
X18476Y35239D01*
X18418Y35232D01*
X18360Y35219D01*
X18321D01*
X18282Y35213D01*
X18094D01*
X17161Y35245D01*
Y34332D01*
Y34319D01*
X17167Y34306D01*
X17180Y34280D01*
X17187Y34273D01*
X17193Y34260D01*
X17206Y34241D01*
X17213Y34221D01*
X17219Y34215D01*
X17245Y34183D01*
X17252D01*
X17258Y34176D01*
X17265Y34170D01*
X17271Y34163D01*
X18580D01*
X18625Y34157D01*
X18664Y34144D01*
X18671Y34137D01*
X18690Y34124D01*
X18703Y34098D01*
X18710Y34053D01*
Y34046D01*
Y34027D01*
X18703Y34001D01*
X18697Y33969D01*
X18684Y33930D01*
X18658Y33891D01*
X18632Y33852D01*
X18593Y33820D01*
X18586D01*
X18573Y33807D01*
X18548Y33794D01*
X18515Y33781D01*
X18470Y33761D01*
X18424Y33748D01*
X18308Y33716D01*
X18301D01*
X18275Y33710D01*
X18243D01*
X18198Y33703D01*
X18139Y33697D01*
X18081Y33690D01*
X18010D01*
X17932Y33684D01*
X17751D01*
X17686Y33677D01*
X17556Y33671D01*
X17530D01*
X17498Y33664D01*
X17459D01*
X17368Y33651D01*
X17271Y33625D01*
X17265D01*
X17252Y33619D01*
X17219Y33593D01*
X17180Y33548D01*
X17167Y33522D01*
X17161Y33483D01*
Y32180D01*
Y32167D01*
X17180Y32141D01*
X17193Y32122D01*
X17213Y32096D01*
X17245Y32077D01*
X17291Y32057D01*
X17297D01*
X17316Y32051D01*
X17342Y32044D01*
X17388Y32031D01*
X17433Y32018D01*
X17491Y32005D01*
X17563Y31999D01*
X17634Y31986D01*
X17640D01*
X17673Y31979D01*
X17712D01*
X17770Y31973D01*
X17835Y31967D01*
X17913Y31954D01*
X18003Y31947D01*
X18094Y31941D01*
X18139D01*
X18185Y31934D01*
X18249D01*
X18327Y31928D01*
X18411D01*
X18586Y31921D01*
X18865D01*
X19014Y31915D01*
X19079D01*
X19124Y31908D01*
X19215Y31902D01*
X19260D01*
X19299Y31895D01*
Y31882D01*
X19306Y31869D01*
X19312Y31856D01*
Y31837D01*
Y31830D01*
X19306Y31805D01*
X19299Y31772D01*
X19273Y31733D01*
X19267Y31727D01*
X19254Y31701D01*
X19221Y31662D01*
X19189Y31623D01*
X19183Y31617D01*
X19157Y31591D01*
X19124Y31565D01*
X19079Y31532D01*
X19072Y31526D01*
X19046Y31519D01*
X19008Y31506D01*
X18975Y31500D01*
X16604D01*
X16597Y31506D01*
X16578Y31519D01*
Y31526D01*
X16565Y31532D01*
X16552Y31558D01*
X16545Y31571D01*
X16532Y31597D01*
X16519Y31636D01*
X16506Y31681D01*
Y31694D01*
X16500Y31720D01*
X16494Y31759D01*
Y31798D01*
Y31811D01*
Y31837D01*
Y31876D01*
Y31921D01*
Y31928D01*
Y31934D01*
X16500Y31967D01*
Y32018D01*
Y32077D01*
Y32517D01*
Y32524D01*
Y32537D01*
Y32563D01*
Y32602D01*
Y32647D01*
Y32705D01*
Y32776D01*
Y32854D01*
Y32867D01*
Y32893D01*
Y32938D01*
X16506Y33003D01*
Y33081D01*
Y33165D01*
Y33262D01*
Y33366D01*
Y33373D01*
Y33379D01*
Y33418D01*
Y33470D01*
X16513Y33548D01*
Y33638D01*
Y33735D01*
X16519Y33846D01*
Y33962D01*
Y33969D01*
Y33975D01*
Y34014D01*
Y34079D01*
X16526Y34157D01*
Y34247D01*
Y34351D01*
X16532Y34565D01*
Y34571D01*
Y34578D01*
Y34617D01*
Y34668D01*
X16539Y34740D01*
Y34818D01*
Y34902D01*
X16545Y34992D01*
Y35077D01*
Y35090D01*
Y35116D01*
Y35154D01*
X16552Y35206D01*
Y35310D01*
Y35362D01*
Y35407D01*
X16558Y35414D01*
X16571Y35433D01*
X16597Y35465D01*
X16630Y35504D01*
X16668Y35543D01*
X16714Y35582D01*
X16772Y35621D01*
X16830Y35653D01*
X16837Y35660D01*
X16863Y35666D01*
X16895Y35679D01*
X16941Y35692D01*
X16999Y35705D01*
X17064Y35725D01*
X17206Y35744D01*
X17213D01*
X17245Y35751D01*
X17284D01*
X17336Y35757D01*
X17394D01*
X17465Y35764D01*
X17614Y35757D01*
D02*
G37*
G36*
X28358Y35673D02*
X28390Y35653D01*
X28422Y35621D01*
X28429Y35615D01*
X28442Y35589D01*
X28461Y35550D01*
X28481Y35511D01*
Y35504D01*
Y35485D01*
Y35459D01*
Y35414D01*
Y35355D01*
Y35291D01*
Y35206D01*
Y35116D01*
Y35103D01*
Y35070D01*
Y35018D01*
X28487Y34947D01*
Y34856D01*
Y34759D01*
X28494Y34649D01*
Y34526D01*
Y34519D01*
Y34513D01*
Y34494D01*
Y34468D01*
Y34403D01*
X28500Y34319D01*
Y34215D01*
Y34098D01*
X28507Y33969D01*
Y33833D01*
Y33826D01*
Y33820D01*
Y33800D01*
Y33768D01*
Y33703D01*
X28513Y33612D01*
Y33502D01*
Y33386D01*
X28520Y33139D01*
Y33133D01*
Y33126D01*
Y33107D01*
Y33081D01*
X28526Y33023D01*
Y32938D01*
Y32848D01*
X28533Y32751D01*
Y32543D01*
Y32530D01*
Y32498D01*
Y32452D01*
X28539Y32401D01*
Y32271D01*
Y32206D01*
Y32154D01*
Y32122D01*
Y32116D01*
Y32109D01*
Y32090D01*
Y32064D01*
X28533Y31999D01*
X28520Y31921D01*
Y31915D01*
X28513Y31902D01*
Y31882D01*
X28507Y31856D01*
X28481Y31785D01*
X28448Y31714D01*
Y31707D01*
X28442Y31701D01*
X28416Y31662D01*
X28377Y31610D01*
X28325Y31558D01*
X28319D01*
X28312Y31552D01*
X28273Y31532D01*
X28209Y31506D01*
X28131Y31500D01*
X28014D01*
X27995Y31506D01*
X27969Y31526D01*
X27930Y31552D01*
X27923Y31558D01*
X27917Y31565D01*
X27898Y31584D01*
X27872Y31610D01*
X27800Y31675D01*
X27710Y31759D01*
X27606Y31863D01*
X27496Y31979D01*
X27379Y32103D01*
X27256Y32232D01*
X27250Y32239D01*
X27243Y32245D01*
X27224Y32265D01*
X27204Y32291D01*
X27139Y32362D01*
X27062Y32452D01*
X26971Y32556D01*
X26861Y32673D01*
X26751Y32802D01*
X26634Y32932D01*
X26628Y32938D01*
X26621Y32945D01*
X26602Y32964D01*
X26582Y32990D01*
X26524Y33062D01*
X26440Y33152D01*
X26349Y33262D01*
X26245Y33379D01*
X26129Y33502D01*
X26012Y33632D01*
X26005Y33638D01*
X25999Y33645D01*
X25980Y33664D01*
X25960Y33690D01*
X25895Y33761D01*
X25811Y33846D01*
X25714Y33949D01*
X25604Y34059D01*
X25481Y34183D01*
X25351Y34299D01*
X25345D01*
X25332Y34286D01*
X25312Y34273D01*
X25293Y34247D01*
Y34241D01*
X25280Y34221D01*
X25273Y34195D01*
X25260Y34163D01*
Y34157D01*
X25254Y34137D01*
X25247Y34105D01*
X25241Y34072D01*
Y34066D01*
Y34053D01*
Y34040D01*
Y34027D01*
Y33917D01*
Y33722D01*
Y33528D01*
Y33418D01*
Y33411D01*
Y33399D01*
Y33373D01*
X25234Y33340D01*
Y33301D01*
Y33249D01*
X25228Y33139D01*
Y33133D01*
Y33113D01*
Y33081D01*
Y33036D01*
Y32984D01*
Y32925D01*
X25221Y32796D01*
Y32789D01*
Y32764D01*
Y32731D01*
X25215Y32686D01*
Y32634D01*
Y32576D01*
X25208Y32446D01*
Y32440D01*
Y32420D01*
Y32388D01*
Y32342D01*
Y32297D01*
Y32245D01*
X25202Y32135D01*
Y32129D01*
Y32116D01*
Y32090D01*
X25196Y32057D01*
Y31979D01*
X25189Y31908D01*
Y31902D01*
Y31895D01*
Y31869D01*
X25183Y31837D01*
Y31830D01*
Y31824D01*
X24910Y31552D01*
X24742D01*
Y31565D01*
Y31591D01*
X24736Y31649D01*
Y31681D01*
X24729Y31727D01*
Y31733D01*
Y31746D01*
X24723Y31772D01*
Y31805D01*
X24716Y31889D01*
X24710Y31986D01*
Y31992D01*
Y32012D01*
Y32038D01*
X24703Y32070D01*
Y32161D01*
X24697Y32252D01*
Y32258D01*
Y32271D01*
Y32297D01*
Y32323D01*
X24690Y32381D01*
Y32414D01*
Y32433D01*
Y32440D01*
Y32452D01*
Y32472D01*
Y32498D01*
Y32537D01*
Y32582D01*
X24684Y32640D01*
Y32705D01*
Y32712D01*
Y32738D01*
Y32776D01*
Y32828D01*
Y32893D01*
Y32964D01*
Y33042D01*
Y33126D01*
Y33612D01*
Y34098D01*
Y34111D01*
Y34137D01*
Y34183D01*
Y34241D01*
Y34306D01*
Y34377D01*
Y34519D01*
Y34526D01*
Y34552D01*
Y34584D01*
X24690Y34623D01*
Y34714D01*
Y34753D01*
Y34792D01*
Y34798D01*
X24684Y34805D01*
X24658Y34837D01*
X24625Y34882D01*
X24599Y34928D01*
X24593Y34941D01*
X24586Y34973D01*
X24580Y35018D01*
X24574Y35070D01*
Y35077D01*
Y35096D01*
Y35103D01*
X24580Y35109D01*
Y35122D01*
X24586Y35129D01*
X24599Y35154D01*
X24619Y35193D01*
X24645Y35239D01*
X24671Y35297D01*
X24710Y35355D01*
X24787Y35472D01*
X24794Y35478D01*
X24807Y35498D01*
X24833Y35524D01*
X24865Y35556D01*
X24904Y35589D01*
X24956Y35621D01*
X25008Y35653D01*
X25072Y35673D01*
X25079Y35666D01*
X25098Y35647D01*
X25124Y35615D01*
X25163Y35576D01*
X25208Y35530D01*
X25260Y35485D01*
X25370Y35388D01*
X25377Y35381D01*
X25396Y35368D01*
X25429Y35342D01*
X25468Y35310D01*
X25513Y35278D01*
X25565Y35232D01*
X25675Y35135D01*
X25682Y35129D01*
X25701Y35109D01*
X25727Y35083D01*
X25766Y35051D01*
X25805Y35005D01*
X25850Y34960D01*
X25947Y34856D01*
X25954Y34850D01*
X25967Y34837D01*
X25993Y34811D01*
X26018Y34779D01*
X26070Y34701D01*
X26096Y34668D01*
X26116Y34630D01*
X27327Y33418D01*
X27334Y33405D01*
X27347Y33373D01*
X27366Y33314D01*
X27399Y33243D01*
Y33237D01*
X27405Y33224D01*
X27418Y33204D01*
X27431Y33178D01*
X27470Y33113D01*
X27522Y33042D01*
X27528Y33036D01*
X27535Y33029D01*
X27567Y32984D01*
X27619Y32932D01*
X27677Y32874D01*
X27684D01*
X27690Y32861D01*
X27729Y32841D01*
X27787Y32822D01*
X27852Y32809D01*
X27865D01*
X27872Y32815D01*
X27878D01*
X27930Y33036D01*
Y35070D01*
Y35077D01*
X27923Y35083D01*
X27917Y35109D01*
X27904Y35148D01*
Y35161D01*
X27891Y35180D01*
X27885Y35213D01*
X27878Y35232D01*
Y35258D01*
Y35265D01*
Y35271D01*
X27885Y35303D01*
X27898Y35349D01*
X27917Y35401D01*
Y35407D01*
X27923Y35414D01*
X27949Y35446D01*
X27982Y35491D01*
X28027Y35537D01*
X28034D01*
X28040Y35550D01*
X28072Y35576D01*
X28118Y35608D01*
X28170Y35640D01*
X28176D01*
X28183Y35647D01*
X28215Y35660D01*
X28267Y35673D01*
X28319Y35679D01*
X28332D01*
X28358Y35673D01*
D02*
G37*
G36*
X31390Y35712D02*
X31448Y35686D01*
X31481Y35666D01*
X31513Y35634D01*
X31520Y35627D01*
X31526Y35621D01*
X31545Y35595D01*
X31571Y35569D01*
X31597Y35537D01*
X31623Y35498D01*
X31682Y35401D01*
X31688Y35394D01*
X31695Y35375D01*
X31714Y35349D01*
X31733Y35310D01*
X31759Y35258D01*
X31785Y35206D01*
X31844Y35077D01*
X31850Y35070D01*
X31857Y35044D01*
X31869Y35012D01*
X31889Y34967D01*
X31915Y34908D01*
X31934Y34850D01*
X31986Y34720D01*
Y34714D01*
X31999Y34694D01*
X32012Y34662D01*
X32025Y34617D01*
X32044Y34565D01*
X32064Y34513D01*
X32103Y34396D01*
Y34390D01*
X32116Y34370D01*
X32122Y34345D01*
X32135Y34312D01*
X32174Y34234D01*
X32206Y34163D01*
Y34157D01*
X32213Y34144D01*
X32226Y34111D01*
X32252Y34059D01*
X32258Y34046D01*
X32278Y34014D01*
X32304Y33962D01*
X32336Y33897D01*
Y33891D01*
X32342Y33884D01*
X32368Y33839D01*
X32394Y33787D01*
X32427Y33722D01*
X32433Y33710D01*
X32453Y33684D01*
X32466Y33651D01*
X32479Y33632D01*
Y33625D01*
X32492Y33606D01*
X32498Y33573D01*
X32517Y33522D01*
X32524Y33509D01*
X32537Y33476D01*
X32550Y33424D01*
X32569Y33360D01*
Y33353D01*
X32576Y33347D01*
X32582Y33308D01*
X32602Y33256D01*
X32615Y33198D01*
X32621Y33185D01*
X32628Y33159D01*
X32641Y33126D01*
X32647Y33094D01*
X32653D01*
X32660Y33087D01*
X32673Y33081D01*
X32692Y33062D01*
X32712Y33042D01*
X32738Y33010D01*
X32757Y32971D01*
X32783Y32919D01*
X32790Y32913D01*
X32796Y32893D01*
X32809Y32861D01*
X32828Y32822D01*
X32848Y32770D01*
X32867Y32712D01*
X32906Y32582D01*
Y32576D01*
X32919Y32550D01*
X32926Y32517D01*
X32939Y32472D01*
X32952Y32414D01*
X32971Y32355D01*
X32997Y32226D01*
Y32219D01*
X33003Y32200D01*
X33010Y32167D01*
X33016Y32129D01*
X33029Y32044D01*
X33036Y32005D01*
Y31973D01*
Y31967D01*
Y31941D01*
X33029Y31902D01*
X33023Y31856D01*
X33010Y31805D01*
X32984Y31753D01*
X32958Y31701D01*
X32919Y31656D01*
X32913Y31649D01*
X32900Y31636D01*
X32874Y31623D01*
X32835Y31604D01*
X32790Y31578D01*
X32731Y31565D01*
X32666Y31552D01*
X32589Y31545D01*
X32492D01*
X32472Y31552D01*
X32427D01*
X32420Y31565D01*
X32401Y31591D01*
X32375Y31643D01*
X32342Y31720D01*
Y31727D01*
X32336Y31740D01*
X32330Y31766D01*
X32317Y31798D01*
X32304Y31837D01*
X32291Y31882D01*
X32258Y31979D01*
Y31986D01*
Y31992D01*
X32245Y32025D01*
X32232Y32070D01*
X32213Y32122D01*
Y32129D01*
Y32135D01*
X32200Y32167D01*
X32187Y32213D01*
X32168Y32271D01*
Y32278D01*
X32161Y32284D01*
X32155Y32316D01*
X32135Y32362D01*
X32116Y32414D01*
Y32420D01*
X32109Y32427D01*
X32103Y32459D01*
X32083Y32498D01*
X32064Y32543D01*
X32057Y32556D01*
X32044Y32589D01*
X32019Y32647D01*
X31986Y32725D01*
Y32731D01*
X31980Y32744D01*
X31967Y32770D01*
X31954Y32802D01*
X31941Y32848D01*
X31915Y32900D01*
X31895Y32951D01*
X31869Y33016D01*
Y33023D01*
X31857Y33049D01*
X31844Y33081D01*
X31831Y33120D01*
X31785Y33217D01*
X31746Y33314D01*
Y33321D01*
X31740Y33334D01*
X31733Y33360D01*
X31720Y33386D01*
X31695Y33450D01*
X31675Y33509D01*
Y33515D01*
X31662Y33535D01*
X31649Y33560D01*
X31636Y33599D01*
X31597Y33684D01*
X31558Y33787D01*
Y33794D01*
X31552Y33813D01*
X31539Y33839D01*
X31526Y33872D01*
X31507Y33917D01*
X31487Y33962D01*
X31442Y34066D01*
Y34072D01*
X31435Y34085D01*
X31422Y34105D01*
X31409Y34131D01*
X31377Y34195D01*
X31338Y34273D01*
Y34280D01*
X31332Y34293D01*
X31319Y34312D01*
X31306Y34338D01*
X31273Y34403D01*
X31234Y34468D01*
Y34474D01*
X31228Y34481D01*
X31202Y34519D01*
X31170Y34571D01*
X31131Y34617D01*
X31124Y34630D01*
X31105Y34649D01*
X31079Y34681D01*
X31053Y34707D01*
X30885Y34552D01*
X30450Y33625D01*
X30444Y33619D01*
X30437Y33593D01*
X30425Y33560D01*
X30405Y33509D01*
X30379Y33457D01*
X30353Y33399D01*
X30301Y33275D01*
Y33269D01*
X30288Y33249D01*
X30275Y33217D01*
X30263Y33178D01*
X30243Y33133D01*
X30217Y33087D01*
X30172Y32977D01*
X30165Y32964D01*
X30152Y32932D01*
X30126Y32880D01*
X30101Y32822D01*
X30036Y32692D01*
X30003Y32627D01*
X29977Y32576D01*
X29971Y32563D01*
X29964Y32537D01*
X29945Y32491D01*
X29926Y32440D01*
X29919Y32427D01*
X29913Y32401D01*
X29893Y32355D01*
X29874Y32303D01*
Y32297D01*
X29867Y32278D01*
X29861Y32252D01*
X29848Y32213D01*
X29841Y32174D01*
X29828Y32122D01*
X29802Y32018D01*
Y32012D01*
X29796Y31992D01*
X29790Y31967D01*
X29777Y31934D01*
X29751Y31850D01*
X29712Y31759D01*
Y31753D01*
X29699Y31740D01*
X29686Y31720D01*
X29666Y31694D01*
X29615Y31630D01*
X29543Y31571D01*
X29537D01*
X29524Y31558D01*
X29498Y31552D01*
X29466Y31539D01*
X29420Y31526D01*
X29368Y31513D01*
X29310Y31506D01*
X29239Y31500D01*
X29226D01*
X29193Y31506D01*
X29155Y31519D01*
X29142Y31532D01*
X29135Y31545D01*
Y31552D01*
X29129Y31578D01*
X29122Y31610D01*
Y31656D01*
Y31662D01*
Y31675D01*
Y31694D01*
X29129Y31720D01*
X29142Y31779D01*
X29161Y31856D01*
Y31863D01*
X29167Y31876D01*
X29174Y31895D01*
X29187Y31928D01*
X29213Y31992D01*
X29252Y32070D01*
Y32077D01*
X29258Y32090D01*
X29271Y32109D01*
X29284Y32135D01*
X29323Y32206D01*
X29362Y32278D01*
Y32284D01*
X29375Y32297D01*
X29381Y32310D01*
X29394Y32336D01*
X29427Y32394D01*
X29459Y32459D01*
Y32465D01*
X29466Y32472D01*
X29479Y32511D01*
X29504Y32563D01*
X29537Y32640D01*
X29576Y32725D01*
X29621Y32828D01*
X29673Y32932D01*
X29725Y33042D01*
Y33049D01*
X29731Y33055D01*
X29751Y33094D01*
X29777Y33152D01*
X29815Y33230D01*
X29861Y33314D01*
X29906Y33418D01*
X29958Y33522D01*
X30016Y33632D01*
Y33638D01*
X30023Y33645D01*
X30042Y33684D01*
X30068Y33742D01*
X30107Y33820D01*
X30152Y33904D01*
X30204Y34008D01*
X30256Y34111D01*
X30308Y34221D01*
Y34228D01*
X30314Y34234D01*
X30334Y34273D01*
X30360Y34332D01*
X30392Y34409D01*
X30431Y34494D01*
X30470Y34591D01*
X30554Y34805D01*
Y34811D01*
X30567Y34830D01*
X30574Y34863D01*
X30587Y34902D01*
X30606Y34947D01*
X30625Y34999D01*
X30658Y35116D01*
Y35122D01*
X30664Y35141D01*
X30677Y35174D01*
X30690Y35213D01*
X30729Y35310D01*
X30781Y35407D01*
X30787Y35414D01*
X30794Y35433D01*
X30813Y35453D01*
X30833Y35485D01*
X30898Y35563D01*
X30982Y35634D01*
X30988Y35640D01*
X31008Y35647D01*
X31034Y35660D01*
X31072Y35679D01*
X31124Y35699D01*
X31183Y35712D01*
X31254Y35718D01*
X31332Y35725D01*
X31345D01*
X31390Y35712D01*
D02*
G37*
G36*
X23880Y35699D02*
X23913Y35692D01*
X23919D01*
X23945Y35686D01*
X23977Y35679D01*
X24010Y35660D01*
X24016Y35653D01*
X24036Y35647D01*
X24088Y35608D01*
X24094Y35602D01*
X24107Y35589D01*
X24113Y35569D01*
X24120Y35543D01*
Y35537D01*
X24113Y35511D01*
Y35498D01*
Y35485D01*
Y35478D01*
X24101Y35465D01*
X24088Y35446D01*
X24068Y35414D01*
X24062Y35407D01*
X24049Y35388D01*
X24023Y35362D01*
X23997Y35329D01*
X23990Y35323D01*
X23977Y35303D01*
X23932Y35258D01*
X23926Y35252D01*
X23919Y35245D01*
X23906Y35239D01*
X23900Y35232D01*
X22306D01*
X22247Y35148D01*
Y35141D01*
Y35135D01*
Y35116D01*
Y35083D01*
Y35044D01*
Y34999D01*
Y34941D01*
Y34869D01*
Y34863D01*
Y34837D01*
Y34798D01*
X22254Y34746D01*
Y34681D01*
Y34610D01*
Y34532D01*
Y34448D01*
Y34442D01*
Y34429D01*
Y34409D01*
Y34377D01*
Y34312D01*
Y34228D01*
Y34221D01*
Y34208D01*
Y34189D01*
Y34163D01*
Y34092D01*
X22247Y34021D01*
Y34014D01*
Y34008D01*
Y33969D01*
Y33910D01*
Y33852D01*
Y33839D01*
Y33813D01*
Y33774D01*
Y33742D01*
X22196Y32226D01*
Y32219D01*
Y32206D01*
Y32180D01*
X22189Y32148D01*
X22183Y32070D01*
X22176Y31973D01*
Y31967D01*
Y31954D01*
X22170Y31928D01*
X22163Y31895D01*
X22144Y31817D01*
X22118Y31733D01*
Y31727D01*
X22111Y31714D01*
X22098Y31694D01*
X22085Y31668D01*
X22040Y31610D01*
X21982Y31558D01*
X21975D01*
X21962Y31545D01*
X21943Y31539D01*
X21917Y31526D01*
X21878Y31513D01*
X21839Y31506D01*
X21787Y31494D01*
X21684D01*
X21638Y31500D01*
X21580Y31506D01*
X21567Y31513D01*
X21541Y31526D01*
X21509Y31558D01*
X21489Y31578D01*
X21476Y31610D01*
Y31973D01*
Y31979D01*
Y32005D01*
Y32038D01*
Y32090D01*
Y32148D01*
Y32219D01*
Y32297D01*
X21483Y32388D01*
Y32485D01*
Y32589D01*
X21489Y32815D01*
X21496Y33049D01*
X21502Y33295D01*
Y33301D01*
Y33327D01*
Y33360D01*
X21509Y33411D01*
Y33470D01*
X21515Y33541D01*
Y33619D01*
X21522Y33710D01*
Y33807D01*
Y33910D01*
X21528Y34137D01*
X21535Y34377D01*
Y34623D01*
Y34630D01*
Y34643D01*
Y34668D01*
Y34701D01*
Y34779D01*
X21541Y34856D01*
Y34863D01*
Y34876D01*
Y34895D01*
Y34915D01*
X21535Y34973D01*
X21522Y35031D01*
Y35038D01*
X21515Y35044D01*
X21502Y35077D01*
X21470Y35116D01*
X21424Y35154D01*
X21411Y35161D01*
X21392Y35167D01*
X21373Y35180D01*
X21340Y35187D01*
X21301Y35193D01*
X21256Y35200D01*
X21204Y35206D01*
X20187D01*
X20161Y35213D01*
X20154D01*
X20135Y35219D01*
X20109D01*
X20077Y35226D01*
X20070D01*
X20051Y35232D01*
X20025Y35239D01*
X19992Y35245D01*
X19986D01*
X19973Y35252D01*
X19941Y35258D01*
Y35265D01*
X19934Y35284D01*
Y35291D01*
Y35297D01*
Y35316D01*
Y35323D01*
Y35336D01*
X19941Y35355D01*
Y35381D01*
X19967Y35440D01*
X19980Y35472D01*
X20005Y35498D01*
X20012Y35504D01*
X20018Y35511D01*
X20057Y35543D01*
X20116Y35582D01*
X20187Y35621D01*
X20193D01*
X20206Y35627D01*
X20226Y35634D01*
X20252Y35647D01*
X20323Y35666D01*
X20407Y35686D01*
X20414D01*
X20427Y35692D01*
X20446D01*
X20478Y35699D01*
X20537Y35705D01*
X23861D01*
X23880Y35699D01*
D02*
G37*
G36*
X7500Y28217D02*
X5413D01*
Y32783D01*
X7500D01*
Y28217D01*
D02*
G37*
G36*
X7500Y23217D02*
X5413D01*
Y27783D01*
X7500D01*
Y23217D01*
D02*
G37*
G36*
Y18217D02*
X5413D01*
Y22783D01*
X7500D01*
Y18217D01*
D02*
G37*
G36*
Y13084D02*
X5413D01*
Y17916D01*
X7500D01*
Y13084D01*
D02*
G37*
G36*
X70750Y11688D02*
X65750D01*
Y13775D01*
X70750D01*
Y11688D01*
D02*
G37*
%LPC*%
G36*
X34288Y77433D02*
X34270D01*
X34247Y77426D01*
X34218Y77418D01*
X34184Y77404D01*
X34144Y77385D01*
X34103Y77355D01*
X34062Y77318D01*
X34022Y77270D01*
X33981Y77211D01*
X33940Y77137D01*
X33925Y77092D01*
X33907Y77048D01*
X33892Y76996D01*
X33877Y76944D01*
X33866Y76885D01*
X33855Y76822D01*
X33847Y76752D01*
X33840Y76681D01*
X33836Y76600D01*
Y76518D01*
Y76515D01*
Y76507D01*
Y76496D01*
Y76481D01*
Y76463D01*
X33840Y76441D01*
X33844Y76385D01*
X33851Y76322D01*
X33859Y76248D01*
X33873Y76170D01*
X33892Y76093D01*
X33914Y76015D01*
X33944Y75937D01*
X33981Y75863D01*
X34025Y75800D01*
X34073Y75744D01*
X34103Y75722D01*
X34133Y75704D01*
X34166Y75689D01*
X34203Y75678D01*
X34240Y75670D01*
X34281Y75667D01*
X34299D01*
X34322Y75674D01*
X34347Y75681D01*
X34381Y75693D01*
X34418Y75711D01*
X34459Y75741D01*
X34499Y75774D01*
X34536Y75822D01*
X34577Y75878D01*
X34614Y75948D01*
X34629Y75989D01*
X34647Y76033D01*
X34662Y76081D01*
X34673Y76133D01*
X34684Y76189D01*
X34696Y76248D01*
X34703Y76315D01*
X34710Y76385D01*
X34714Y76459D01*
Y76537D01*
Y76541D01*
Y76548D01*
Y76559D01*
Y76574D01*
Y76596D01*
X34710Y76618D01*
X34707Y76678D01*
X34703Y76744D01*
X34692Y76822D01*
X34677Y76900D01*
X34662Y76985D01*
X34640Y77070D01*
X34610Y77148D01*
X34577Y77226D01*
X34536Y77292D01*
X34484Y77352D01*
X34459Y77374D01*
X34429Y77396D01*
X34396Y77411D01*
X34362Y77422D01*
X34325Y77429D01*
X34288Y77433D01*
D02*
G37*
G36*
X32014D02*
X31996D01*
X31974Y77426D01*
X31944Y77418D01*
X31911Y77404D01*
X31870Y77385D01*
X31829Y77355D01*
X31788Y77318D01*
X31748Y77270D01*
X31707Y77211D01*
X31666Y77137D01*
X31651Y77092D01*
X31633Y77048D01*
X31618Y76996D01*
X31603Y76944D01*
X31592Y76885D01*
X31581Y76822D01*
X31574Y76752D01*
X31566Y76681D01*
X31563Y76600D01*
Y76518D01*
Y76515D01*
Y76507D01*
Y76496D01*
Y76481D01*
Y76463D01*
X31566Y76441D01*
X31570Y76385D01*
X31577Y76322D01*
X31585Y76248D01*
X31600Y76170D01*
X31618Y76093D01*
X31640Y76015D01*
X31670Y75937D01*
X31707Y75863D01*
X31751Y75800D01*
X31800Y75744D01*
X31829Y75722D01*
X31859Y75704D01*
X31892Y75689D01*
X31929Y75678D01*
X31966Y75670D01*
X32007Y75667D01*
X32025D01*
X32048Y75674D01*
X32074Y75681D01*
X32107Y75693D01*
X32144Y75711D01*
X32185Y75741D01*
X32225Y75774D01*
X32262Y75822D01*
X32303Y75878D01*
X32340Y75948D01*
X32355Y75989D01*
X32374Y76033D01*
X32388Y76081D01*
X32399Y76133D01*
X32411Y76189D01*
X32422Y76248D01*
X32429Y76315D01*
X32437Y76385D01*
X32440Y76459D01*
Y76537D01*
Y76541D01*
Y76548D01*
Y76559D01*
Y76574D01*
Y76596D01*
X32437Y76618D01*
X32433Y76678D01*
X32429Y76744D01*
X32418Y76822D01*
X32403Y76900D01*
X32388Y76985D01*
X32366Y77070D01*
X32337Y77148D01*
X32303Y77226D01*
X32262Y77292D01*
X32211Y77352D01*
X32185Y77374D01*
X32155Y77396D01*
X32122Y77411D01*
X32088Y77422D01*
X32051Y77429D01*
X32014Y77433D01*
D02*
G37*
G36*
X7000Y71283D02*
X5948D01*
Y71109D01*
X6404D01*
Y70613D01*
X5948D01*
Y70439D01*
X7000D01*
Y71283D01*
D02*
G37*
G36*
Y70178D02*
X5948D01*
Y69587D01*
X6095D01*
Y70004D01*
X6406D01*
Y69641D01*
X6554D01*
Y70004D01*
X6852D01*
Y69611D01*
X7000D01*
Y70178D01*
D02*
G37*
G36*
Y69519D02*
X5948D01*
D01*
X7000D01*
Y69124D01*
X5948Y69519D01*
Y69328D01*
X6215Y69237D01*
Y68822D01*
X5948Y68728D01*
Y68535D01*
X7000Y68928D01*
Y68535D01*
D01*
Y69519D01*
D02*
G37*
G36*
Y68495D02*
X5948D01*
Y67717D01*
Y68019D01*
X6852D01*
Y67717D01*
X7000D01*
Y68495D01*
D02*
G37*
%LPD*%
G36*
Y70613D02*
X6557D01*
Y71109D01*
X7000D01*
Y70613D01*
D02*
G37*
G36*
X6778Y69046D02*
X6798Y69041D01*
X6820Y69035D01*
X6830Y69033D01*
X6837D01*
X6843Y69032D01*
X6844D01*
Y69028D01*
X6828Y69026D01*
X6815Y69022D01*
X6804Y69020D01*
X6794Y69019D01*
X6787Y69017D01*
X6781Y69015D01*
X6780D01*
X6778D01*
X6357Y68869D01*
Y69191D01*
X6778Y69046D01*
D02*
G37*
G36*
X6852Y68193D02*
X5948D01*
Y68495D01*
X6852D01*
Y68193D01*
D02*
G37*
%LPC*%
G36*
X6981Y65886D02*
X5930D01*
Y65108D01*
Y65410D01*
X6833D01*
Y65108D01*
X6981D01*
Y65886D01*
D02*
G37*
G36*
Y64953D02*
X5930D01*
Y64108D01*
X6981D01*
Y64282D01*
X6539D01*
Y64779D01*
X6981D01*
Y64953D01*
D02*
G37*
G36*
X7000Y63914D02*
X5913D01*
D01*
X6435D01*
X6393Y63912D01*
X6352Y63908D01*
X6313Y63901D01*
X6276Y63892D01*
X6243Y63882D01*
X6211Y63871D01*
X6183Y63858D01*
X6157Y63845D01*
X6133Y63832D01*
X6113Y63820D01*
X6096Y63808D01*
X6082Y63799D01*
X6070Y63790D01*
X6063Y63782D01*
X6057Y63779D01*
X6056Y63777D01*
X6030Y63749D01*
X6009Y63721D01*
X5989Y63692D01*
X5974Y63660D01*
X5959Y63631D01*
X5948Y63599D01*
X5939Y63570D01*
X5932Y63542D01*
X5924Y63514D01*
X5920Y63490D01*
X5917Y63468D01*
X5915Y63447D01*
Y63433D01*
X5913Y63420D01*
Y63410D01*
X5915Y63347D01*
X5922Y63288D01*
X5926Y63262D01*
X5932Y63238D01*
X5937Y63216D01*
X5943Y63195D01*
X5948Y63177D01*
X5954Y63160D01*
X5959Y63147D01*
X5963Y63134D01*
X5967Y63127D01*
X5970Y63120D01*
X5972Y63116D01*
Y63114D01*
X6135D01*
X6111Y63157D01*
X6093Y63201D01*
X6082Y63244D01*
X6072Y63284D01*
X6067Y63320D01*
X6065Y63334D01*
Y63347D01*
X6063Y63357D01*
Y63371D01*
X6065Y63401D01*
X6067Y63429D01*
X6080Y63481D01*
X6096Y63527D01*
X6106Y63545D01*
X6115Y63564D01*
X6124Y63581D01*
X6133Y63594D01*
X6143Y63607D01*
X6150Y63616D01*
X6157Y63623D01*
X6163Y63629D01*
X6165Y63632D01*
X6167Y63634D01*
X6187Y63651D01*
X6209Y63666D01*
X6232Y63681D01*
X6254Y63692D01*
X6300Y63708D01*
X6345Y63720D01*
X6365Y63725D01*
X6383Y63727D01*
X6402Y63729D01*
X6415Y63731D01*
X6428Y63732D01*
X6437D01*
X6443D01*
X6444D01*
X6478Y63731D01*
X6509Y63729D01*
X6539Y63723D01*
X6567Y63716D01*
X6594Y63708D01*
X6619Y63699D01*
X6639Y63690D01*
X6659Y63679D01*
X6678Y63670D01*
X6693Y63660D01*
X6706Y63651D01*
X6717Y63644D01*
X6726Y63636D01*
X6732Y63631D01*
X6735Y63629D01*
X6737Y63627D01*
X6756Y63607D01*
X6774Y63584D01*
X6787Y63562D01*
X6800Y63538D01*
X6811Y63514D01*
X6820Y63492D01*
X6833Y63447D01*
X6837Y63427D01*
X6841Y63408D01*
X6843Y63392D01*
X6844Y63377D01*
X6846Y63366D01*
Y63349D01*
X6844Y63301D01*
X6837Y63258D01*
X6826Y63218D01*
X6815Y63183D01*
X6804Y63155D01*
X6798Y63142D01*
X6793Y63133D01*
X6789Y63125D01*
X6785Y63120D01*
X6783Y63116D01*
Y63114D01*
X6956D01*
X6970Y63153D01*
X6981Y63195D01*
X6989Y63238D01*
X6994Y63279D01*
X6998Y63314D01*
Y63329D01*
X7000Y63342D01*
Y63368D01*
X6998Y63410D01*
X6993Y63453D01*
X6985Y63492D01*
X6976Y63529D01*
X6963Y63564D01*
X6950Y63595D01*
X6935Y63625D01*
X6922Y63653D01*
X6907Y63677D01*
X6893Y63699D01*
X6880Y63718D01*
X6867Y63732D01*
X6857Y63744D01*
X6850Y63753D01*
X6844Y63758D01*
X6843Y63760D01*
X6813Y63788D01*
X6780Y63810D01*
X6748Y63831D01*
X6713Y63849D01*
X6680Y63864D01*
X6646Y63877D01*
X6613Y63886D01*
X6582Y63895D01*
X6550Y63901D01*
X6522Y63907D01*
X6498Y63908D01*
X6478Y63912D01*
X6459D01*
X6446Y63914D01*
X7000D01*
D01*
D02*
G37*
%LPD*%
G36*
X6833Y65584D02*
X5930D01*
Y65886D01*
X6833D01*
Y65584D01*
D02*
G37*
G36*
X6385Y64282D02*
X5930D01*
Y64779D01*
X6385D01*
Y64282D01*
D02*
G37*
%LPC*%
G36*
X7000Y61079D02*
X5913D01*
D01*
X6441D01*
X6396Y61078D01*
X6356Y61074D01*
X6317Y61067D01*
X6280Y61057D01*
X6246Y61046D01*
X6215Y61033D01*
X6185Y61020D01*
X6159Y61007D01*
X6137Y60994D01*
X6117Y60981D01*
X6098Y60968D01*
X6083Y60957D01*
X6072Y60948D01*
X6065Y60941D01*
X6059Y60937D01*
X6057Y60935D01*
X6032Y60907D01*
X6009Y60878D01*
X5991Y60846D01*
X5974Y60815D01*
X5959Y60783D01*
X5948Y60752D01*
X5939Y60720D01*
X5932Y60691D01*
X5926Y60663D01*
X5920Y60637D01*
X5917Y60615D01*
X5915Y60594D01*
Y60578D01*
X5913Y60567D01*
Y60555D01*
X5915Y60518D01*
X5917Y60481D01*
X5926Y60413D01*
X5933Y60381D01*
X5941Y60352D01*
X5948Y60324D01*
X5958Y60298D01*
X5965Y60274D01*
X5972Y60254D01*
X5980Y60235D01*
X5987Y60218D01*
X5993Y60207D01*
X5996Y60198D01*
X6000Y60193D01*
Y60191D01*
X6500D01*
Y60585D01*
X6354D01*
Y60365D01*
X6104D01*
X6089Y60394D01*
X6080Y60426D01*
X6072Y60457D01*
X6067Y60487D01*
X6063Y60513D01*
X6061Y60533D01*
Y60552D01*
X6063Y60581D01*
X6065Y60609D01*
X6078Y60657D01*
X6095Y60702D01*
X6104Y60720D01*
X6113Y60737D01*
X6122Y60752D01*
X6132Y60767D01*
X6141Y60778D01*
X6148Y60787D01*
X6156Y60794D01*
X6161Y60800D01*
X6163Y60802D01*
X6165Y60804D01*
X6185Y60820D01*
X6207Y60833D01*
X6230Y60846D01*
X6254Y60857D01*
X6300Y60874D01*
X6346Y60885D01*
X6367Y60889D01*
X6387Y60891D01*
X6406Y60892D01*
X6420Y60894D01*
X6433Y60896D01*
X6443D01*
X6448D01*
X6450D01*
X6483Y60894D01*
X6513Y60891D01*
X6543Y60887D01*
X6570Y60879D01*
X6596Y60872D01*
X6619Y60863D01*
X6641Y60852D01*
X6661Y60842D01*
X6678Y60833D01*
X6693Y60822D01*
X6706Y60813D01*
X6717Y60805D01*
X6726Y60798D01*
X6732Y60792D01*
X6735Y60791D01*
X6737Y60789D01*
X6757Y60768D01*
X6774Y60746D01*
X6789Y60722D01*
X6802Y60700D01*
X6813Y60676D01*
X6820Y60654D01*
X6835Y60609D01*
X6839Y60591D01*
X6843Y60572D01*
X6844Y60555D01*
X6846Y60541D01*
X6848Y60530D01*
Y60481D01*
X6844Y60452D01*
X6835Y60396D01*
X6822Y60348D01*
X6817Y60326D01*
X6809Y60305D01*
X6802Y60287D01*
X6794Y60270D01*
X6787Y60257D01*
X6781Y60246D01*
X6776Y60237D01*
X6772Y60230D01*
X6770Y60226D01*
X6769Y60224D01*
X6948D01*
X6965Y60270D01*
X6978Y60320D01*
X6987Y60370D01*
X6994Y60417D01*
X6996Y60437D01*
X6998Y60457D01*
Y60474D01*
X7000Y60489D01*
Y60518D01*
D01*
Y60533D01*
Y60518D01*
X6998Y60563D01*
X6993Y60605D01*
X6985Y60646D01*
X6976Y60685D01*
X6963Y60720D01*
X6950Y60754D01*
X6935Y60783D01*
X6922Y60811D01*
X6907Y60837D01*
X6893Y60859D01*
X6880Y60878D01*
X6867Y60892D01*
X6857Y60905D01*
X6850Y60915D01*
X6844Y60920D01*
X6843Y60922D01*
X6813Y60950D01*
X6780Y60974D01*
X6746Y60994D01*
X6713Y61013D01*
X6680Y61028D01*
X6646Y61041D01*
X6613Y61052D01*
X6583Y61059D01*
X6554Y61067D01*
X6526Y61070D01*
X6502Y61074D01*
X6482Y61078D01*
X6465D01*
X6452Y61079D01*
X7000D01*
D01*
D02*
G37*
G36*
X6981Y59963D02*
X5930D01*
Y59794D01*
X6619D01*
X6657D01*
X6689D01*
X6713Y59796D01*
X6733D01*
X6746Y59798D01*
X6756D01*
X6761Y59800D01*
X6763D01*
Y59796D01*
X6741Y59785D01*
X6720Y59776D01*
X6713Y59772D01*
X6707Y59768D01*
X6704Y59765D01*
X6702D01*
X5930Y59261D01*
Y59070D01*
X6981D01*
Y59963D01*
D02*
G37*
G36*
Y58809D02*
X5930D01*
Y58519D01*
X5932Y58469D01*
X5935Y58422D01*
X5943Y58378D01*
X5952Y58335D01*
X5963Y58298D01*
X5976Y58261D01*
X5989Y58230D01*
X6004Y58200D01*
X6017Y58174D01*
X6030Y58150D01*
X6043Y58132D01*
X6054Y58115D01*
X6063Y58102D01*
X6070Y58093D01*
X6074Y58087D01*
X6076Y58085D01*
X6106Y58058D01*
X6135Y58032D01*
X6167Y58011D01*
X6200Y57993D01*
X6233Y57976D01*
X6265Y57963D01*
X6296Y57952D01*
X6328Y57945D01*
X6357Y57937D01*
X6383Y57933D01*
X6407Y57930D01*
X6428Y57926D01*
X6444D01*
X6457Y57924D01*
X6469D01*
X6515Y57926D01*
X6559Y57930D01*
X6600Y57939D01*
X6637Y57948D01*
X6674Y57963D01*
X6706Y57978D01*
X6737Y57995D01*
X6765Y58015D01*
X6791Y58037D01*
X6815Y58059D01*
X6837Y58083D01*
X6856Y58108D01*
X6874Y58133D01*
X6891Y58161D01*
X6917Y58215D01*
X6939Y58269D01*
X6954Y58322D01*
X6967Y58370D01*
X6974Y58415D01*
X6976Y58433D01*
X6978Y58452D01*
X6980Y58467D01*
Y58480D01*
X6981Y58491D01*
Y58809D01*
D02*
G37*
%LPD*%
G36*
Y59239D02*
X6304D01*
X6269D01*
X6239Y59237D01*
X6215D01*
X6195Y59235D01*
X6180Y59233D01*
X6169D01*
X6163Y59232D01*
X6161D01*
Y59235D01*
X6169Y59239D01*
X6180Y59244D01*
X6200Y59257D01*
X6211Y59263D01*
X6219Y59269D01*
X6224Y59272D01*
X6226Y59274D01*
X6981Y59759D01*
Y59239D01*
D02*
G37*
G36*
X6833Y58489D02*
X6832Y58454D01*
X6830Y58422D01*
X6824Y58391D01*
X6817Y58363D01*
X6809Y58337D01*
X6800Y58311D01*
X6776Y58269D01*
X6748Y58232D01*
X6717Y58200D01*
X6683Y58176D01*
X6650Y58156D01*
X6615Y58139D01*
X6582Y58128D01*
X6550Y58119D01*
X6522Y58113D01*
X6498Y58109D01*
X6482Y58108D01*
X6474D01*
X6469D01*
X6467D01*
X6465D01*
X6432Y58109D01*
X6400Y58111D01*
X6370Y58117D01*
X6343Y58124D01*
X6317Y58132D01*
X6293Y58139D01*
X6270Y58148D01*
X6252Y58158D01*
X6235Y58169D01*
X6220Y58178D01*
X6207Y58185D01*
X6196Y58193D01*
X6189Y58200D01*
X6183Y58206D01*
X6180Y58208D01*
X6178Y58209D01*
X6159Y58230D01*
X6145Y58250D01*
X6132Y58274D01*
X6119Y58296D01*
X6100Y58345D01*
X6089Y58391D01*
X6085Y58413D01*
X6082Y58432D01*
X6080Y58450D01*
X6078Y58465D01*
X6076Y58478D01*
Y58635D01*
X6833D01*
Y58489D01*
D02*
G37*
%LPC*%
G36*
X7000Y56416D02*
X5913D01*
D01*
X6435D01*
X6393Y56414D01*
X6352Y56410D01*
X6313Y56403D01*
X6276Y56393D01*
X6243Y56384D01*
X6211Y56373D01*
X6183Y56360D01*
X6157Y56347D01*
X6133Y56334D01*
X6113Y56321D01*
X6096Y56310D01*
X6082Y56301D01*
X6070Y56291D01*
X6063Y56284D01*
X6057Y56280D01*
X6056Y56279D01*
X6030Y56251D01*
X6009Y56223D01*
X5989Y56193D01*
X5974Y56162D01*
X5959Y56132D01*
X5948Y56101D01*
X5939Y56071D01*
X5932Y56043D01*
X5924Y56016D01*
X5920Y55992D01*
X5917Y55969D01*
X5915Y55949D01*
Y55934D01*
X5913Y55921D01*
Y55912D01*
X5915Y55849D01*
X5922Y55790D01*
X5926Y55764D01*
X5932Y55740D01*
X5937Y55717D01*
X5943Y55697D01*
X5948Y55679D01*
X5954Y55662D01*
X5959Y55649D01*
X5963Y55636D01*
X5967Y55629D01*
X5970Y55621D01*
X5972Y55617D01*
Y55616D01*
X6135D01*
X6111Y55658D01*
X6093Y55703D01*
X6082Y55745D01*
X6072Y55786D01*
X6067Y55821D01*
X6065Y55836D01*
Y55849D01*
X6063Y55858D01*
Y55873D01*
X6065Y55903D01*
X6067Y55930D01*
X6080Y55982D01*
X6096Y56029D01*
X6106Y56047D01*
X6115Y56066D01*
X6124Y56082D01*
X6133Y56095D01*
X6143Y56108D01*
X6150Y56117D01*
X6157Y56125D01*
X6163Y56130D01*
X6165Y56134D01*
X6167Y56136D01*
X6187Y56153D01*
X6209Y56167D01*
X6232Y56182D01*
X6254Y56193D01*
X6300Y56210D01*
X6345Y56221D01*
X6365Y56227D01*
X6383Y56229D01*
X6402Y56230D01*
X6415Y56232D01*
X6428Y56234D01*
X6437D01*
X6443D01*
X6444D01*
X6478Y56232D01*
X6509Y56230D01*
X6539Y56225D01*
X6567Y56217D01*
X6594Y56210D01*
X6619Y56201D01*
X6639Y56191D01*
X6659Y56180D01*
X6678Y56171D01*
X6693Y56162D01*
X6706Y56153D01*
X6717Y56145D01*
X6726Y56138D01*
X6732Y56132D01*
X6735Y56130D01*
X6737Y56129D01*
X6756Y56108D01*
X6774Y56086D01*
X6787Y56064D01*
X6800Y56040D01*
X6811Y56016D01*
X6820Y55993D01*
X6833Y55949D01*
X6837Y55929D01*
X6841Y55910D01*
X6843Y55893D01*
X6844Y55879D01*
X6846Y55867D01*
Y55851D01*
X6844Y55803D01*
X6837Y55760D01*
X6826Y55719D01*
X6815Y55684D01*
X6804Y55656D01*
X6798Y55643D01*
X6793Y55634D01*
X6789Y55627D01*
X6785Y55621D01*
X6783Y55617D01*
Y55616D01*
X6956D01*
X6970Y55654D01*
X6981Y55697D01*
X6989Y55740D01*
X6994Y55780D01*
X6998Y55816D01*
Y55830D01*
X7000Y55843D01*
Y55745D01*
Y55843D01*
D01*
Y55869D01*
X6998Y55912D01*
X6993Y55954D01*
X6985Y55993D01*
X6976Y56030D01*
X6963Y56066D01*
X6950Y56097D01*
X6935Y56127D01*
X6922Y56154D01*
X6907Y56179D01*
X6893Y56201D01*
X6880Y56219D01*
X6867Y56234D01*
X6857Y56245D01*
X6850Y56254D01*
X6844Y56260D01*
X6843Y56262D01*
X6813Y56290D01*
X6780Y56312D01*
X6748Y56332D01*
X6713Y56351D01*
X6680Y56366D01*
X6646Y56379D01*
X6613Y56388D01*
X6582Y56397D01*
X6550Y56403D01*
X6522Y56408D01*
X6498Y56410D01*
X6478Y56414D01*
X6459D01*
X6446Y56416D01*
X7000D01*
D01*
D02*
G37*
G36*
X6981Y55416D02*
X5930D01*
Y54603D01*
D01*
X6224Y54790D01*
X6248Y54806D01*
X6269Y54819D01*
X6276Y54825D01*
X6282Y54829D01*
X6283Y54831D01*
X6285Y54832D01*
X6304Y54845D01*
X6319Y54858D01*
X6328Y54866D01*
X6332Y54869D01*
X6346Y54884D01*
X6359Y54897D01*
X6367Y54906D01*
X6370Y54908D01*
Y54910D01*
X6385Y54927D01*
X6396Y54943D01*
X6402Y54949D01*
X6404Y54955D01*
X6407Y54958D01*
Y54960D01*
X6411D01*
X6422Y54923D01*
X6430Y54906D01*
X6435Y54892D01*
X6441Y54881D01*
X6446Y54871D01*
X6448Y54866D01*
X6450Y54864D01*
X6470Y54834D01*
X6482Y54821D01*
X6491Y54810D01*
X6498Y54801D01*
X6506Y54795D01*
X6509Y54792D01*
X6511Y54790D01*
X6541Y54769D01*
X6567Y54755D01*
X6578Y54749D01*
X6587Y54745D01*
X6593Y54743D01*
X6594D01*
X6630Y54734D01*
X6648Y54731D01*
X6663Y54729D01*
X6678Y54727D01*
X6689D01*
X6696D01*
X6698D01*
X6724Y54729D01*
X6748Y54731D01*
X6769Y54734D01*
X6787Y54740D01*
X6802Y54745D01*
X6813Y54749D01*
X6820Y54751D01*
X6822Y54753D01*
X6841Y54764D01*
X6859Y54775D01*
X6874Y54786D01*
X6887Y54799D01*
X6896Y54808D01*
X6906Y54818D01*
X6909Y54823D01*
X6911Y54825D01*
X6933Y54862D01*
X6943Y54881D01*
X6950Y54897D01*
X6956Y54912D01*
X6959Y54923D01*
X6963Y54931D01*
Y54934D01*
X6974Y54980D01*
X6978Y55005D01*
X6980Y55025D01*
X6981Y55043D01*
Y55416D01*
D02*
G37*
G36*
Y54597D02*
X5930D01*
Y53947D01*
Y54406D01*
X6196Y54316D01*
Y53901D01*
X5930Y53807D01*
Y53614D01*
X6981Y54007D01*
Y54203D01*
X5930Y54597D01*
X6981D01*
D01*
D02*
G37*
G36*
Y53470D02*
X5930D01*
Y52584D01*
D01*
Y53179D01*
X5932Y53129D01*
X5935Y53083D01*
X5943Y53038D01*
X5952Y52996D01*
X5963Y52958D01*
X5976Y52921D01*
X5989Y52890D01*
X6004Y52860D01*
X6017Y52834D01*
X6030Y52810D01*
X6043Y52792D01*
X6054Y52775D01*
X6063Y52762D01*
X6070Y52753D01*
X6074Y52747D01*
X6076Y52746D01*
X6106Y52718D01*
X6135Y52692D01*
X6167Y52671D01*
X6200Y52653D01*
X6233Y52636D01*
X6265Y52623D01*
X6296Y52612D01*
X6328Y52605D01*
X6357Y52597D01*
X6383Y52594D01*
X6407Y52590D01*
X6428Y52586D01*
X6444D01*
X6457Y52584D01*
X6469D01*
X6515Y52586D01*
X6559Y52590D01*
X6600Y52599D01*
X6637Y52609D01*
X6674Y52623D01*
X6706Y52638D01*
X6737Y52655D01*
X6765Y52675D01*
X6791Y52697D01*
X6815Y52720D01*
X6837Y52744D01*
X6856Y52768D01*
X6874Y52794D01*
X6891Y52821D01*
X6917Y52875D01*
X6939Y52929D01*
X6954Y52983D01*
X6967Y53031D01*
X6974Y53075D01*
X6976Y53094D01*
X6978Y53112D01*
X6980Y53127D01*
Y53140D01*
X6981Y53151D01*
Y53470D01*
D02*
G37*
%LPD*%
G36*
X6841Y55095D02*
X6839Y55064D01*
X6833Y55036D01*
X6828Y55012D01*
X6820Y54993D01*
X6811Y54979D01*
X6806Y54968D01*
X6800Y54960D01*
X6798Y54958D01*
X6781Y54942D01*
X6761Y54931D01*
X6743Y54921D01*
X6722Y54916D01*
X6706Y54912D01*
X6693Y54910D01*
X6683D01*
X6680D01*
X6650Y54912D01*
X6637Y54914D01*
X6626Y54918D01*
X6617Y54919D01*
X6609Y54923D01*
X6606Y54925D01*
X6604D01*
X6582Y54936D01*
X6563Y54949D01*
X6556Y54955D01*
X6550Y54960D01*
X6548Y54962D01*
X6546Y54964D01*
X6530Y54982D01*
X6519Y55003D01*
X6515Y55010D01*
X6511Y55018D01*
X6509Y55021D01*
Y55023D01*
X6504Y55049D01*
X6500Y55073D01*
X6498Y55082D01*
Y55242D01*
X6841D01*
Y55095D01*
D02*
G37*
G36*
X6356Y55171D02*
X6354Y55147D01*
X6352Y55129D01*
X6350Y55121D01*
Y55116D01*
X6348Y55114D01*
Y55112D01*
X6341Y55093D01*
X6333Y55079D01*
X6326Y55068D01*
X6322Y55066D01*
Y55064D01*
X6307Y55047D01*
X6295Y55032D01*
X6283Y55023D01*
X6280Y55021D01*
X6278Y55019D01*
X6256Y55003D01*
X6233Y54988D01*
X6224Y54982D01*
X6219Y54979D01*
X6213Y54977D01*
X6211Y54975D01*
X5930Y54806D01*
Y55242D01*
X6356D01*
Y55171D01*
D02*
G37*
G36*
X6759Y54125D02*
X6780Y54119D01*
X6802Y54114D01*
X6811Y54112D01*
X6819D01*
X6824Y54110D01*
X6826D01*
Y54107D01*
X6809Y54105D01*
X6796Y54101D01*
X6785Y54099D01*
X6776Y54097D01*
X6769Y54095D01*
X6763Y54094D01*
X6761D01*
X6759D01*
X6339Y53947D01*
Y54269D01*
X6759Y54125D01*
D02*
G37*
G36*
X6833Y53149D02*
X6832Y53114D01*
X6830Y53083D01*
X6824Y53051D01*
X6817Y53023D01*
X6809Y52997D01*
X6800Y52971D01*
X6776Y52929D01*
X6748Y52892D01*
X6717Y52860D01*
X6683Y52836D01*
X6650Y52816D01*
X6615Y52799D01*
X6582Y52788D01*
X6550Y52779D01*
X6522Y52773D01*
X6498Y52770D01*
X6482Y52768D01*
X6474D01*
X6469D01*
X6467D01*
X6465D01*
X6432Y52770D01*
X6400Y52771D01*
X6370Y52777D01*
X6343Y52784D01*
X6317Y52792D01*
X6293Y52799D01*
X6270Y52808D01*
X6252Y52818D01*
X6235Y52829D01*
X6220Y52838D01*
X6207Y52846D01*
X6196Y52853D01*
X6189Y52860D01*
X6183Y52866D01*
X6180Y52868D01*
X6178Y52870D01*
X6159Y52890D01*
X6145Y52910D01*
X6132Y52934D01*
X6119Y52957D01*
X6100Y53005D01*
X6089Y53051D01*
X6085Y53073D01*
X6082Y53092D01*
X6080Y53110D01*
X6078Y53125D01*
X6076Y53138D01*
Y53295D01*
X6833D01*
Y53149D01*
D02*
G37*
%LPC*%
G36*
X67062Y52275D02*
X67034D01*
X66983Y52271D01*
X66958Y52269D01*
X66936Y52266D01*
X66918Y52262D01*
X66905Y52260D01*
X66896Y52256D01*
X66892D01*
X66866Y52249D01*
X66842Y52242D01*
X66821Y52232D01*
X66803Y52223D01*
X66788Y52216D01*
X66775Y52208D01*
X66768Y52205D01*
X66766Y52203D01*
X66747Y52188D01*
X66729Y52173D01*
X66714Y52158D01*
X66703Y52144D01*
X66692Y52132D01*
X66684Y52121D01*
X66681Y52114D01*
X66679Y52112D01*
X66668Y52092D01*
X66660Y52069D01*
X66653Y52047D01*
X66649Y52029D01*
X66647Y52010D01*
X66646Y51997D01*
Y51962D01*
X66649Y51944D01*
X66651Y51925D01*
X66655Y51910D01*
X66659Y51897D01*
X66660Y51886D01*
X66664Y51881D01*
Y51879D01*
X66681Y51847D01*
X66690Y51834D01*
X66699Y51823D01*
X66707Y51812D01*
X66712Y51805D01*
X66716Y51801D01*
X66718Y51799D01*
X66746Y51775D01*
X66771Y51753D01*
X66783Y51745D01*
X66792Y51740D01*
X66797Y51736D01*
X66799Y51734D01*
X66834Y51712D01*
X66851Y51703D01*
X66866Y51695D01*
X66881Y51688D01*
X66890Y51682D01*
X66897Y51679D01*
X66899Y51677D01*
X66934Y51660D01*
X66951Y51653D01*
X66964Y51647D01*
X66975Y51640D01*
X66984Y51636D01*
X66990Y51634D01*
X66992Y51632D01*
X67023Y51618D01*
X67036Y51610D01*
X67047Y51603D01*
X67055Y51597D01*
X67062Y51592D01*
X67066Y51590D01*
X67068Y51588D01*
X67090Y51571D01*
X67105Y51555D01*
X67114Y51544D01*
X67118Y51540D01*
Y51538D01*
X67129Y51518D01*
X67134Y51495D01*
X67136Y51486D01*
Y51481D01*
Y51475D01*
Y51473D01*
X67134Y51449D01*
X67129Y51429D01*
X67120Y51410D01*
X67110Y51395D01*
X67099Y51382D01*
X67092Y51375D01*
X67084Y51370D01*
X67083Y51368D01*
X67060Y51355D01*
X67034Y51345D01*
X67007Y51340D01*
X66981Y51336D01*
X66957Y51333D01*
X66938Y51331D01*
X66920D01*
X66896Y51333D01*
X66873Y51334D01*
X66864D01*
X66857Y51336D01*
X66849D01*
X66821Y51342D01*
X66799Y51349D01*
X66788Y51351D01*
X66781Y51353D01*
X66777Y51355D01*
X66775D01*
X66749Y51364D01*
X66727Y51375D01*
X66718Y51379D01*
X66710Y51382D01*
X66707Y51384D01*
X66705D01*
X66683Y51399D01*
X66664Y51412D01*
X66657Y51418D01*
X66651Y51421D01*
X66649Y51423D01*
X66647Y51425D01*
Y51245D01*
X66664Y51236D01*
X66683Y51229D01*
X66690Y51225D01*
X66697Y51223D01*
X66701Y51221D01*
X66703D01*
X66731Y51214D01*
X66757Y51208D01*
X66766Y51207D01*
X66773Y51205D01*
X66779Y51203D01*
X66781D01*
X66810Y51197D01*
X66823Y51195D01*
X66836D01*
X66846Y51194D01*
X66853Y51192D01*
X66860D01*
X66886Y51190D01*
X66907Y51188D01*
X66955D01*
X66983Y51190D01*
X67008Y51194D01*
X67031Y51195D01*
X67049Y51199D01*
X67062Y51201D01*
X67071Y51203D01*
X67075D01*
X67101Y51208D01*
X67125Y51216D01*
X67147Y51225D01*
X67166Y51233D01*
X67181Y51240D01*
X67192Y51245D01*
X67199Y51249D01*
X67201Y51251D01*
X67221Y51266D01*
X67238Y51281D01*
X67253Y51295D01*
X67266Y51308D01*
X67275Y51321D01*
X67283Y51331D01*
X67286Y51338D01*
X67288Y51340D01*
X67299Y51362D01*
X67307Y51384D01*
X67312Y51408D01*
X67316Y51429D01*
X67318Y51449D01*
X67320Y51464D01*
Y51499D01*
X67316Y51518D01*
X67312Y51536D01*
X67308Y51553D01*
X67305Y51564D01*
X67301Y51575D01*
X67299Y51581D01*
X67297Y51582D01*
X67281Y51616D01*
X67270Y51629D01*
X67260Y51642D01*
X67253Y51651D01*
X67245Y51660D01*
X67242Y51664D01*
X67240Y51666D01*
X67210Y51694D01*
X67183Y51716D01*
X67171Y51725D01*
X67162Y51731D01*
X67155Y51734D01*
X67153Y51736D01*
X67116Y51758D01*
X67099Y51770D01*
X67084Y51779D01*
X67071Y51786D01*
X67060Y51792D01*
X67053Y51795D01*
X67051Y51797D01*
X67033Y51807D01*
X67014Y51814D01*
X66997Y51821D01*
X66984Y51827D01*
X66973Y51832D01*
X66964Y51836D01*
X66958Y51840D01*
X66957D01*
X66929Y51855D01*
X66916Y51862D01*
X66907Y51868D01*
X66897Y51873D01*
X66892Y51877D01*
X66888Y51881D01*
X66886D01*
X66868Y51897D01*
X66855Y51914D01*
X66847Y51925D01*
X66844Y51927D01*
Y51929D01*
X66834Y51949D01*
X66831Y51969D01*
X66829Y51977D01*
Y51984D01*
Y51988D01*
Y51990D01*
X66833Y52016D01*
X66838Y52036D01*
X66842Y52044D01*
X66844Y52049D01*
X66847Y52051D01*
Y52053D01*
X66864Y52071D01*
X66881Y52086D01*
X66886Y52090D01*
X66892Y52094D01*
X66896Y52097D01*
X66897D01*
X66921Y52108D01*
X66944Y52116D01*
X66953Y52118D01*
X66960Y52119D01*
X66964Y52121D01*
X66966D01*
X66994Y52125D01*
X67020Y52129D01*
X67044D01*
X67095Y52127D01*
X67140Y52119D01*
X67179Y52108D01*
X67212Y52097D01*
X67240Y52084D01*
X67251Y52079D01*
X67258Y52075D01*
X67266Y52069D01*
X67271Y52068D01*
X67273Y52064D01*
X67275D01*
Y52236D01*
X67260Y52244D01*
X67244Y52249D01*
X67205Y52258D01*
X67166Y52266D01*
X67127Y52269D01*
X67090Y52273D01*
X67075D01*
X67062Y52275D01*
D02*
G37*
G36*
X68819Y52256D02*
X68638D01*
X68451Y51482D01*
X68445Y51462D01*
X68442Y51442D01*
X68440Y51427D01*
X68438Y51412D01*
X68436Y51401D01*
X68434Y51394D01*
Y51388D01*
Y51386D01*
X68432D01*
X68431Y51407D01*
X68427Y51423D01*
X68425Y51440D01*
X68421Y51453D01*
X68419Y51466D01*
X68418Y51473D01*
X68416Y51479D01*
Y51481D01*
X68218Y52256D01*
X68036D01*
X67821Y51486D01*
X67816Y51464D01*
X67810Y51444D01*
X67807Y51425D01*
X67805Y51410D01*
X67803Y51399D01*
X67801Y51392D01*
Y51386D01*
Y51384D01*
X67797D01*
X67794Y51423D01*
X67792Y51440D01*
X67788Y51455D01*
X67786Y51468D01*
X67784Y51479D01*
X67782Y51484D01*
Y51486D01*
X67592Y52256D01*
X67399D01*
X67694Y51205D01*
X67895D01*
X68097Y51942D01*
X68105Y51979D01*
X68108Y51995D01*
X68110Y52012D01*
X68112Y52025D01*
X68114Y52034D01*
Y52042D01*
Y52044D01*
X68118D01*
X68121Y52005D01*
X68123Y51986D01*
X68127Y51971D01*
X68129Y51958D01*
X68131Y51949D01*
X68132Y51942D01*
Y51940D01*
X68334Y51205D01*
X68531D01*
X68819Y52256D01*
D02*
G37*
G36*
X69284D02*
X68966D01*
Y51205D01*
X69256D01*
X69306Y51207D01*
X69353Y51210D01*
X69397Y51218D01*
X69440Y51227D01*
X69477Y51238D01*
X69514Y51251D01*
X69545Y51264D01*
X69575Y51279D01*
X69601Y51292D01*
X69625Y51305D01*
X69643Y51318D01*
X69660Y51329D01*
X69673Y51338D01*
X69682Y51345D01*
X69688Y51349D01*
X69690Y51351D01*
X69717Y51381D01*
X69743Y51410D01*
X69764Y51442D01*
X69782Y51475D01*
X69799Y51508D01*
X69812Y51540D01*
X69823Y51571D01*
X69830Y51603D01*
X69838Y51632D01*
X69841Y51658D01*
X69845Y51682D01*
X69849Y51703D01*
Y51720D01*
X69851Y51732D01*
Y51744D01*
X69849Y51790D01*
X69845Y51834D01*
X69836Y51875D01*
X69827Y51912D01*
X69812Y51949D01*
X69797Y51981D01*
X69780Y52012D01*
X69760Y52040D01*
X69738Y52066D01*
X69716Y52090D01*
X69692Y52112D01*
X69667Y52131D01*
X69642Y52149D01*
X69614Y52166D01*
X69560Y52192D01*
X69506Y52214D01*
X69453Y52229D01*
X69405Y52242D01*
X69360Y52249D01*
X69342Y52251D01*
X69323Y52253D01*
X69308Y52255D01*
X69295D01*
X69284Y52256D01*
D02*
G37*
%LPD*%
G36*
X69321Y52106D02*
X69353Y52105D01*
X69384Y52099D01*
X69412Y52092D01*
X69438Y52084D01*
X69464Y52075D01*
X69506Y52051D01*
X69543Y52023D01*
X69575Y51992D01*
X69599Y51958D01*
X69619Y51925D01*
X69636Y51890D01*
X69647Y51857D01*
X69656Y51825D01*
X69662Y51797D01*
X69666Y51773D01*
X69667Y51757D01*
Y51749D01*
Y51744D01*
Y51742D01*
Y51740D01*
X69666Y51707D01*
X69664Y51675D01*
X69658Y51645D01*
X69651Y51618D01*
X69643Y51592D01*
X69636Y51568D01*
X69627Y51545D01*
X69617Y51527D01*
X69606Y51510D01*
X69597Y51495D01*
X69590Y51482D01*
X69582Y51471D01*
X69575Y51464D01*
X69569Y51458D01*
X69567Y51455D01*
X69566Y51453D01*
X69545Y51434D01*
X69525Y51420D01*
X69501Y51407D01*
X69479Y51394D01*
X69430Y51375D01*
X69384Y51364D01*
X69362Y51360D01*
X69343Y51357D01*
X69325Y51355D01*
X69310Y51353D01*
X69297Y51351D01*
X69140D01*
Y52108D01*
X69286D01*
X69321Y52106D01*
D02*
G37*
%LPC*%
G36*
X34288Y38433D02*
X34270D01*
X34247Y38426D01*
X34218Y38418D01*
X34184Y38404D01*
X34144Y38385D01*
X34103Y38355D01*
X34062Y38318D01*
X34022Y38270D01*
X33981Y38211D01*
X33940Y38137D01*
X33925Y38092D01*
X33907Y38048D01*
X33892Y37996D01*
X33877Y37944D01*
X33866Y37885D01*
X33855Y37822D01*
X33847Y37752D01*
X33840Y37681D01*
X33836Y37600D01*
Y37518D01*
Y37515D01*
Y37507D01*
Y37496D01*
Y37481D01*
Y37463D01*
X33840Y37441D01*
X33844Y37385D01*
X33851Y37322D01*
X33859Y37248D01*
X33873Y37170D01*
X33892Y37093D01*
X33914Y37015D01*
X33944Y36937D01*
X33981Y36863D01*
X34025Y36800D01*
X34073Y36744D01*
X34103Y36722D01*
X34133Y36704D01*
X34166Y36689D01*
X34203Y36678D01*
X34240Y36670D01*
X34281Y36667D01*
X34299D01*
X34322Y36674D01*
X34347Y36681D01*
X34381Y36693D01*
X34418Y36711D01*
X34459Y36741D01*
X34499Y36774D01*
X34536Y36822D01*
X34577Y36878D01*
X34614Y36948D01*
X34629Y36989D01*
X34647Y37033D01*
X34662Y37081D01*
X34673Y37133D01*
X34684Y37189D01*
X34696Y37248D01*
X34703Y37315D01*
X34710Y37385D01*
X34714Y37459D01*
Y37537D01*
Y37541D01*
Y37548D01*
Y37559D01*
Y37574D01*
Y37596D01*
X34710Y37618D01*
X34707Y37678D01*
X34703Y37744D01*
X34692Y37822D01*
X34677Y37900D01*
X34662Y37985D01*
X34640Y38070D01*
X34610Y38148D01*
X34577Y38226D01*
X34536Y38292D01*
X34484Y38352D01*
X34459Y38374D01*
X34429Y38396D01*
X34396Y38411D01*
X34362Y38422D01*
X34325Y38429D01*
X34288Y38433D01*
D02*
G37*
G36*
X32014D02*
X31996D01*
X31974Y38426D01*
X31944Y38418D01*
X31911Y38404D01*
X31870Y38385D01*
X31829Y38355D01*
X31788Y38318D01*
X31748Y38270D01*
X31707Y38211D01*
X31666Y38137D01*
X31651Y38092D01*
X31633Y38048D01*
X31618Y37996D01*
X31603Y37944D01*
X31592Y37885D01*
X31581Y37822D01*
X31574Y37752D01*
X31566Y37681D01*
X31563Y37600D01*
Y37518D01*
Y37515D01*
Y37507D01*
Y37496D01*
Y37481D01*
Y37463D01*
X31566Y37441D01*
X31570Y37385D01*
X31577Y37322D01*
X31585Y37248D01*
X31600Y37170D01*
X31618Y37093D01*
X31640Y37015D01*
X31670Y36937D01*
X31707Y36863D01*
X31751Y36800D01*
X31800Y36744D01*
X31829Y36722D01*
X31859Y36704D01*
X31892Y36689D01*
X31929Y36678D01*
X31966Y36670D01*
X32007Y36667D01*
X32025D01*
X32048Y36674D01*
X32074Y36681D01*
X32107Y36693D01*
X32144Y36711D01*
X32185Y36741D01*
X32225Y36774D01*
X32262Y36822D01*
X32303Y36878D01*
X32340Y36948D01*
X32355Y36989D01*
X32374Y37033D01*
X32388Y37081D01*
X32399Y37133D01*
X32411Y37189D01*
X32422Y37248D01*
X32429Y37315D01*
X32437Y37385D01*
X32440Y37459D01*
Y37537D01*
Y37541D01*
Y37548D01*
Y37559D01*
Y37574D01*
Y37596D01*
X32437Y37618D01*
X32433Y37678D01*
X32429Y37744D01*
X32418Y37822D01*
X32403Y37900D01*
X32388Y37985D01*
X32366Y38070D01*
X32337Y38148D01*
X32303Y38226D01*
X32262Y38292D01*
X32211Y38352D01*
X32185Y38374D01*
X32155Y38396D01*
X32122Y38411D01*
X32088Y38422D01*
X32051Y38429D01*
X32014Y38433D01*
D02*
G37*
G36*
X7000Y32283D02*
X5948D01*
Y32109D01*
X6404D01*
Y31613D01*
X5948D01*
Y31439D01*
X7000D01*
Y32283D01*
D02*
G37*
G36*
Y31178D02*
X5948D01*
Y30587D01*
X6095D01*
Y31004D01*
X6406D01*
Y30641D01*
X6554D01*
Y31004D01*
X6852D01*
Y30611D01*
X7000D01*
Y31178D01*
D02*
G37*
G36*
Y30519D02*
X5948D01*
D01*
X7000D01*
Y30124D01*
X5948Y30519D01*
Y30328D01*
X6215Y30237D01*
Y29822D01*
X5948Y29728D01*
Y29535D01*
X7000Y29928D01*
Y29535D01*
D01*
Y30519D01*
D02*
G37*
G36*
Y29495D02*
X5948D01*
Y28717D01*
Y29019D01*
X6852D01*
Y28717D01*
X7000D01*
Y29495D01*
D02*
G37*
%LPD*%
G36*
Y31613D02*
X6557D01*
Y32109D01*
X7000D01*
Y31613D01*
D02*
G37*
G36*
X6778Y30046D02*
X6798Y30041D01*
X6820Y30035D01*
X6830Y30033D01*
X6837D01*
X6843Y30032D01*
X6844D01*
Y30028D01*
X6828Y30026D01*
X6815Y30022D01*
X6804Y30020D01*
X6794Y30019D01*
X6787Y30017D01*
X6781Y30015D01*
X6780D01*
X6778D01*
X6357Y29869D01*
Y30191D01*
X6778Y30046D01*
D02*
G37*
G36*
X6852Y29193D02*
X5948D01*
Y29495D01*
X6852D01*
Y29193D01*
D02*
G37*
%LPC*%
G36*
X6981Y26886D02*
X5930D01*
Y26108D01*
Y26410D01*
X6833D01*
Y26108D01*
X6981D01*
Y26886D01*
D02*
G37*
G36*
Y25953D02*
X5930D01*
Y25108D01*
X6981D01*
Y25282D01*
X6539D01*
Y25779D01*
X6981D01*
Y25953D01*
D02*
G37*
G36*
X7000Y24914D02*
X5913D01*
D01*
X6435D01*
X6393Y24912D01*
X6352Y24908D01*
X6313Y24901D01*
X6276Y24892D01*
X6243Y24882D01*
X6211Y24871D01*
X6183Y24858D01*
X6157Y24845D01*
X6133Y24832D01*
X6113Y24820D01*
X6096Y24808D01*
X6082Y24799D01*
X6070Y24790D01*
X6063Y24782D01*
X6057Y24779D01*
X6056Y24777D01*
X6030Y24749D01*
X6009Y24721D01*
X5989Y24692D01*
X5974Y24660D01*
X5959Y24631D01*
X5948Y24599D01*
X5939Y24570D01*
X5932Y24542D01*
X5924Y24514D01*
X5920Y24490D01*
X5917Y24468D01*
X5915Y24447D01*
Y24433D01*
X5913Y24420D01*
Y24410D01*
X5915Y24347D01*
X5922Y24288D01*
X5926Y24262D01*
X5932Y24238D01*
X5937Y24216D01*
X5943Y24195D01*
X5948Y24177D01*
X5954Y24160D01*
X5959Y24147D01*
X5963Y24134D01*
X5967Y24127D01*
X5970Y24120D01*
X5972Y24116D01*
Y24114D01*
X6135D01*
X6111Y24157D01*
X6093Y24201D01*
X6082Y24244D01*
X6072Y24284D01*
X6067Y24320D01*
X6065Y24334D01*
Y24347D01*
X6063Y24357D01*
Y24371D01*
X6065Y24401D01*
X6067Y24429D01*
X6080Y24481D01*
X6096Y24527D01*
X6106Y24545D01*
X6115Y24564D01*
X6124Y24581D01*
X6133Y24594D01*
X6143Y24607D01*
X6150Y24616D01*
X6157Y24623D01*
X6163Y24629D01*
X6165Y24632D01*
X6167Y24634D01*
X6187Y24651D01*
X6209Y24666D01*
X6232Y24681D01*
X6254Y24692D01*
X6300Y24708D01*
X6345Y24720D01*
X6365Y24725D01*
X6383Y24727D01*
X6402Y24729D01*
X6415Y24731D01*
X6428Y24732D01*
X6437D01*
X6443D01*
X6444D01*
X6478Y24731D01*
X6509Y24729D01*
X6539Y24723D01*
X6567Y24716D01*
X6594Y24708D01*
X6619Y24699D01*
X6639Y24690D01*
X6659Y24679D01*
X6678Y24670D01*
X6693Y24660D01*
X6706Y24651D01*
X6717Y24644D01*
X6726Y24636D01*
X6732Y24631D01*
X6735Y24629D01*
X6737Y24627D01*
X6756Y24607D01*
X6774Y24584D01*
X6787Y24562D01*
X6800Y24538D01*
X6811Y24514D01*
X6820Y24492D01*
X6833Y24447D01*
X6837Y24427D01*
X6841Y24408D01*
X6843Y24392D01*
X6844Y24377D01*
X6846Y24366D01*
Y24349D01*
X6844Y24301D01*
X6837Y24258D01*
X6826Y24218D01*
X6815Y24183D01*
X6804Y24155D01*
X6798Y24142D01*
X6793Y24133D01*
X6789Y24125D01*
X6785Y24120D01*
X6783Y24116D01*
Y24114D01*
X6956D01*
X6970Y24153D01*
X6981Y24195D01*
X6989Y24238D01*
X6994Y24279D01*
X6998Y24314D01*
Y24329D01*
X7000Y24342D01*
Y24368D01*
X6998Y24410D01*
X6993Y24453D01*
X6985Y24492D01*
X6976Y24529D01*
X6963Y24564D01*
X6950Y24595D01*
X6935Y24625D01*
X6922Y24653D01*
X6907Y24677D01*
X6893Y24699D01*
X6880Y24718D01*
X6867Y24732D01*
X6857Y24744D01*
X6850Y24753D01*
X6844Y24758D01*
X6843Y24760D01*
X6813Y24788D01*
X6780Y24810D01*
X6748Y24831D01*
X6713Y24849D01*
X6680Y24864D01*
X6646Y24877D01*
X6613Y24886D01*
X6582Y24895D01*
X6550Y24901D01*
X6522Y24907D01*
X6498Y24908D01*
X6478Y24912D01*
X6459D01*
X6446Y24914D01*
X7000D01*
D01*
D02*
G37*
%LPD*%
G36*
X6833Y26584D02*
X5930D01*
Y26886D01*
X6833D01*
Y26584D01*
D02*
G37*
G36*
X6385Y25282D02*
X5930D01*
Y25779D01*
X6385D01*
Y25282D01*
D02*
G37*
%LPC*%
G36*
X7000Y22079D02*
X5913D01*
D01*
X6441D01*
X6396Y22078D01*
X6356Y22074D01*
X6317Y22066D01*
X6280Y22057D01*
X6246Y22046D01*
X6215Y22033D01*
X6185Y22020D01*
X6159Y22007D01*
X6137Y21994D01*
X6117Y21981D01*
X6098Y21968D01*
X6083Y21957D01*
X6072Y21948D01*
X6065Y21941D01*
X6059Y21937D01*
X6057Y21935D01*
X6032Y21907D01*
X6009Y21878D01*
X5991Y21846D01*
X5974Y21815D01*
X5959Y21783D01*
X5948Y21752D01*
X5939Y21720D01*
X5932Y21691D01*
X5926Y21663D01*
X5920Y21637D01*
X5917Y21615D01*
X5915Y21594D01*
Y21578D01*
X5913Y21567D01*
Y21555D01*
X5915Y21518D01*
X5917Y21481D01*
X5926Y21413D01*
X5933Y21381D01*
X5941Y21352D01*
X5948Y21324D01*
X5958Y21298D01*
X5965Y21274D01*
X5972Y21254D01*
X5980Y21235D01*
X5987Y21218D01*
X5993Y21207D01*
X5996Y21198D01*
X6000Y21193D01*
Y21191D01*
X6500D01*
Y21585D01*
X6354D01*
Y21365D01*
X6104D01*
X6089Y21394D01*
X6080Y21426D01*
X6072Y21457D01*
X6067Y21487D01*
X6063Y21513D01*
X6061Y21533D01*
Y21552D01*
X6063Y21581D01*
X6065Y21609D01*
X6078Y21657D01*
X6095Y21702D01*
X6104Y21720D01*
X6113Y21737D01*
X6122Y21752D01*
X6132Y21767D01*
X6141Y21778D01*
X6148Y21787D01*
X6156Y21794D01*
X6161Y21800D01*
X6163Y21802D01*
X6165Y21804D01*
X6185Y21820D01*
X6207Y21833D01*
X6230Y21846D01*
X6254Y21857D01*
X6300Y21874D01*
X6346Y21885D01*
X6367Y21889D01*
X6387Y21891D01*
X6406Y21892D01*
X6420Y21894D01*
X6433Y21896D01*
X6443D01*
X6448D01*
X6450D01*
X6483Y21894D01*
X6513Y21891D01*
X6543Y21887D01*
X6570Y21879D01*
X6596Y21872D01*
X6619Y21863D01*
X6641Y21852D01*
X6661Y21842D01*
X6678Y21833D01*
X6693Y21822D01*
X6706Y21813D01*
X6717Y21805D01*
X6726Y21798D01*
X6732Y21792D01*
X6735Y21791D01*
X6737Y21789D01*
X6757Y21768D01*
X6774Y21746D01*
X6789Y21722D01*
X6802Y21700D01*
X6813Y21676D01*
X6820Y21654D01*
X6835Y21609D01*
X6839Y21591D01*
X6843Y21572D01*
X6844Y21555D01*
X6846Y21541D01*
X6848Y21530D01*
Y21481D01*
X6844Y21452D01*
X6835Y21396D01*
X6822Y21348D01*
X6817Y21326D01*
X6809Y21305D01*
X6802Y21287D01*
X6794Y21270D01*
X6787Y21257D01*
X6781Y21246D01*
X6776Y21237D01*
X6772Y21230D01*
X6770Y21226D01*
X6769Y21224D01*
X6948D01*
X6965Y21270D01*
X6978Y21320D01*
X6987Y21370D01*
X6994Y21417D01*
X6996Y21437D01*
X6998Y21457D01*
Y21474D01*
X7000Y21489D01*
Y21518D01*
D01*
Y21533D01*
Y21518D01*
X6998Y21563D01*
X6993Y21605D01*
X6985Y21646D01*
X6976Y21685D01*
X6963Y21720D01*
X6950Y21754D01*
X6935Y21783D01*
X6922Y21811D01*
X6907Y21837D01*
X6893Y21859D01*
X6880Y21878D01*
X6867Y21892D01*
X6857Y21905D01*
X6850Y21915D01*
X6844Y21920D01*
X6843Y21922D01*
X6813Y21950D01*
X6780Y21974D01*
X6746Y21994D01*
X6713Y22013D01*
X6680Y22028D01*
X6646Y22041D01*
X6613Y22052D01*
X6583Y22059D01*
X6554Y22066D01*
X6526Y22070D01*
X6502Y22074D01*
X6482Y22078D01*
X6465D01*
X6452Y22079D01*
X7000D01*
D01*
D02*
G37*
G36*
X6981Y20963D02*
X5930D01*
Y20794D01*
X6619D01*
X6657D01*
X6689D01*
X6713Y20796D01*
X6733D01*
X6746Y20798D01*
X6756D01*
X6761Y20800D01*
X6763D01*
Y20796D01*
X6741Y20785D01*
X6720Y20776D01*
X6713Y20772D01*
X6707Y20768D01*
X6704Y20765D01*
X6702D01*
X5930Y20261D01*
Y20070D01*
X6981D01*
Y20963D01*
D02*
G37*
G36*
Y19809D02*
X5930D01*
Y19519D01*
X5932Y19469D01*
X5935Y19422D01*
X5943Y19378D01*
X5952Y19335D01*
X5963Y19298D01*
X5976Y19261D01*
X5989Y19230D01*
X6004Y19200D01*
X6017Y19174D01*
X6030Y19150D01*
X6043Y19132D01*
X6054Y19115D01*
X6063Y19102D01*
X6070Y19093D01*
X6074Y19087D01*
X6076Y19085D01*
X6106Y19058D01*
X6135Y19032D01*
X6167Y19011D01*
X6200Y18993D01*
X6233Y18976D01*
X6265Y18963D01*
X6296Y18952D01*
X6328Y18945D01*
X6357Y18937D01*
X6383Y18933D01*
X6407Y18930D01*
X6428Y18926D01*
X6444D01*
X6457Y18924D01*
X6469D01*
X6515Y18926D01*
X6559Y18930D01*
X6600Y18939D01*
X6637Y18948D01*
X6674Y18963D01*
X6706Y18978D01*
X6737Y18995D01*
X6765Y19015D01*
X6791Y19037D01*
X6815Y19059D01*
X6837Y19083D01*
X6856Y19108D01*
X6874Y19133D01*
X6891Y19161D01*
X6917Y19215D01*
X6939Y19269D01*
X6954Y19322D01*
X6967Y19370D01*
X6974Y19415D01*
X6976Y19433D01*
X6978Y19452D01*
X6980Y19467D01*
Y19480D01*
X6981Y19491D01*
Y19809D01*
D02*
G37*
%LPD*%
G36*
Y20239D02*
X6304D01*
X6269D01*
X6239Y20237D01*
X6215D01*
X6195Y20235D01*
X6180Y20233D01*
X6169D01*
X6163Y20232D01*
X6161D01*
Y20235D01*
X6169Y20239D01*
X6180Y20244D01*
X6200Y20257D01*
X6211Y20263D01*
X6219Y20269D01*
X6224Y20272D01*
X6226Y20274D01*
X6981Y20759D01*
Y20239D01*
D02*
G37*
G36*
X6833Y19489D02*
X6832Y19454D01*
X6830Y19422D01*
X6824Y19391D01*
X6817Y19363D01*
X6809Y19337D01*
X6800Y19311D01*
X6776Y19269D01*
X6748Y19232D01*
X6717Y19200D01*
X6683Y19176D01*
X6650Y19156D01*
X6615Y19139D01*
X6582Y19128D01*
X6550Y19119D01*
X6522Y19113D01*
X6498Y19109D01*
X6482Y19108D01*
X6474D01*
X6469D01*
X6467D01*
X6465D01*
X6432Y19109D01*
X6400Y19111D01*
X6370Y19117D01*
X6343Y19124D01*
X6317Y19132D01*
X6293Y19139D01*
X6270Y19148D01*
X6252Y19158D01*
X6235Y19169D01*
X6220Y19178D01*
X6207Y19185D01*
X6196Y19193D01*
X6189Y19200D01*
X6183Y19206D01*
X6180Y19208D01*
X6178Y19209D01*
X6159Y19230D01*
X6145Y19250D01*
X6132Y19274D01*
X6119Y19296D01*
X6100Y19345D01*
X6089Y19391D01*
X6085Y19413D01*
X6082Y19432D01*
X6080Y19450D01*
X6078Y19465D01*
X6076Y19478D01*
Y19635D01*
X6833D01*
Y19489D01*
D02*
G37*
%LPC*%
G36*
X7000Y17416D02*
X5913D01*
D01*
X6435D01*
X6393Y17414D01*
X6352Y17410D01*
X6313Y17403D01*
X6276Y17393D01*
X6243Y17384D01*
X6211Y17373D01*
X6183Y17360D01*
X6157Y17347D01*
X6133Y17334D01*
X6113Y17321D01*
X6096Y17310D01*
X6082Y17301D01*
X6070Y17291D01*
X6063Y17284D01*
X6057Y17280D01*
X6056Y17279D01*
X6030Y17251D01*
X6009Y17223D01*
X5989Y17193D01*
X5974Y17162D01*
X5959Y17132D01*
X5948Y17101D01*
X5939Y17071D01*
X5932Y17043D01*
X5924Y17016D01*
X5920Y16992D01*
X5917Y16969D01*
X5915Y16949D01*
Y16934D01*
X5913Y16921D01*
Y16912D01*
X5915Y16849D01*
X5922Y16790D01*
X5926Y16764D01*
X5932Y16740D01*
X5937Y16717D01*
X5943Y16697D01*
X5948Y16679D01*
X5954Y16662D01*
X5959Y16649D01*
X5963Y16636D01*
X5967Y16629D01*
X5970Y16621D01*
X5972Y16617D01*
Y16616D01*
X6135D01*
X6111Y16658D01*
X6093Y16703D01*
X6082Y16745D01*
X6072Y16786D01*
X6067Y16821D01*
X6065Y16836D01*
Y16849D01*
X6063Y16858D01*
Y16873D01*
X6065Y16903D01*
X6067Y16930D01*
X6080Y16982D01*
X6096Y17029D01*
X6106Y17047D01*
X6115Y17066D01*
X6124Y17082D01*
X6133Y17095D01*
X6143Y17108D01*
X6150Y17117D01*
X6157Y17125D01*
X6163Y17130D01*
X6165Y17134D01*
X6167Y17136D01*
X6187Y17153D01*
X6209Y17167D01*
X6232Y17182D01*
X6254Y17193D01*
X6300Y17210D01*
X6345Y17221D01*
X6365Y17227D01*
X6383Y17229D01*
X6402Y17230D01*
X6415Y17232D01*
X6428Y17234D01*
X6437D01*
X6443D01*
X6444D01*
X6478Y17232D01*
X6509Y17230D01*
X6539Y17225D01*
X6567Y17217D01*
X6594Y17210D01*
X6619Y17201D01*
X6639Y17191D01*
X6659Y17180D01*
X6678Y17171D01*
X6693Y17162D01*
X6706Y17153D01*
X6717Y17145D01*
X6726Y17138D01*
X6732Y17132D01*
X6735Y17130D01*
X6737Y17129D01*
X6756Y17108D01*
X6774Y17086D01*
X6787Y17064D01*
X6800Y17040D01*
X6811Y17016D01*
X6820Y16993D01*
X6833Y16949D01*
X6837Y16929D01*
X6841Y16910D01*
X6843Y16893D01*
X6844Y16879D01*
X6846Y16867D01*
Y16851D01*
X6844Y16803D01*
X6837Y16760D01*
X6826Y16719D01*
X6815Y16684D01*
X6804Y16656D01*
X6798Y16643D01*
X6793Y16634D01*
X6789Y16627D01*
X6785Y16621D01*
X6783Y16617D01*
Y16616D01*
X6956D01*
X6970Y16654D01*
X6981Y16697D01*
X6989Y16740D01*
X6994Y16780D01*
X6998Y16816D01*
Y16830D01*
X7000Y16843D01*
Y16745D01*
Y16843D01*
D01*
Y16869D01*
X6998Y16912D01*
X6993Y16954D01*
X6985Y16993D01*
X6976Y17030D01*
X6963Y17066D01*
X6950Y17097D01*
X6935Y17127D01*
X6922Y17154D01*
X6907Y17179D01*
X6893Y17201D01*
X6880Y17219D01*
X6867Y17234D01*
X6857Y17245D01*
X6850Y17254D01*
X6844Y17260D01*
X6843Y17262D01*
X6813Y17290D01*
X6780Y17312D01*
X6748Y17332D01*
X6713Y17351D01*
X6680Y17366D01*
X6646Y17378D01*
X6613Y17388D01*
X6582Y17397D01*
X6550Y17403D01*
X6522Y17408D01*
X6498Y17410D01*
X6478Y17414D01*
X6459D01*
X6446Y17416D01*
X7000D01*
D01*
D02*
G37*
G36*
X6981Y16416D02*
X5930D01*
Y15603D01*
D01*
X6224Y15790D01*
X6248Y15806D01*
X6269Y15819D01*
X6276Y15825D01*
X6282Y15829D01*
X6283Y15831D01*
X6285Y15832D01*
X6304Y15845D01*
X6319Y15858D01*
X6328Y15866D01*
X6332Y15869D01*
X6346Y15884D01*
X6359Y15897D01*
X6367Y15906D01*
X6370Y15908D01*
Y15910D01*
X6385Y15927D01*
X6396Y15943D01*
X6402Y15949D01*
X6404Y15955D01*
X6407Y15958D01*
Y15960D01*
X6411D01*
X6422Y15923D01*
X6430Y15906D01*
X6435Y15892D01*
X6441Y15881D01*
X6446Y15871D01*
X6448Y15866D01*
X6450Y15864D01*
X6470Y15834D01*
X6482Y15821D01*
X6491Y15810D01*
X6498Y15801D01*
X6506Y15795D01*
X6509Y15792D01*
X6511Y15790D01*
X6541Y15769D01*
X6567Y15755D01*
X6578Y15749D01*
X6587Y15745D01*
X6593Y15743D01*
X6594D01*
X6630Y15734D01*
X6648Y15731D01*
X6663Y15729D01*
X6678Y15727D01*
X6689D01*
X6696D01*
X6698D01*
X6724Y15729D01*
X6748Y15731D01*
X6769Y15734D01*
X6787Y15740D01*
X6802Y15745D01*
X6813Y15749D01*
X6820Y15751D01*
X6822Y15753D01*
X6841Y15764D01*
X6859Y15775D01*
X6874Y15786D01*
X6887Y15799D01*
X6896Y15808D01*
X6906Y15818D01*
X6909Y15823D01*
X6911Y15825D01*
X6933Y15862D01*
X6943Y15881D01*
X6950Y15897D01*
X6956Y15912D01*
X6959Y15923D01*
X6963Y15931D01*
Y15934D01*
X6974Y15981D01*
X6978Y16005D01*
X6980Y16025D01*
X6981Y16043D01*
Y16416D01*
D02*
G37*
G36*
Y15597D02*
X5930D01*
Y14947D01*
Y15406D01*
X6196Y15316D01*
Y14901D01*
X5930Y14807D01*
Y14614D01*
X6981Y15007D01*
Y15203D01*
X5930Y15597D01*
X6981D01*
D01*
D02*
G37*
G36*
Y14470D02*
X5930D01*
Y13584D01*
D01*
Y14179D01*
X5932Y14129D01*
X5935Y14083D01*
X5943Y14038D01*
X5952Y13996D01*
X5963Y13958D01*
X5976Y13921D01*
X5989Y13890D01*
X6004Y13860D01*
X6017Y13834D01*
X6030Y13810D01*
X6043Y13792D01*
X6054Y13775D01*
X6063Y13762D01*
X6070Y13753D01*
X6074Y13747D01*
X6076Y13746D01*
X6106Y13718D01*
X6135Y13692D01*
X6167Y13671D01*
X6200Y13653D01*
X6233Y13636D01*
X6265Y13623D01*
X6296Y13612D01*
X6328Y13605D01*
X6357Y13597D01*
X6383Y13594D01*
X6407Y13590D01*
X6428Y13586D01*
X6444D01*
X6457Y13584D01*
X6469D01*
X6515Y13586D01*
X6559Y13590D01*
X6600Y13599D01*
X6637Y13609D01*
X6674Y13623D01*
X6706Y13638D01*
X6737Y13655D01*
X6765Y13675D01*
X6791Y13697D01*
X6815Y13720D01*
X6837Y13744D01*
X6856Y13768D01*
X6874Y13794D01*
X6891Y13821D01*
X6917Y13875D01*
X6939Y13929D01*
X6954Y13983D01*
X6967Y14031D01*
X6974Y14075D01*
X6976Y14094D01*
X6978Y14112D01*
X6980Y14127D01*
Y14140D01*
X6981Y14151D01*
Y14470D01*
D02*
G37*
%LPD*%
G36*
X6841Y16095D02*
X6839Y16064D01*
X6833Y16036D01*
X6828Y16012D01*
X6820Y15993D01*
X6811Y15979D01*
X6806Y15968D01*
X6800Y15960D01*
X6798Y15958D01*
X6781Y15942D01*
X6761Y15931D01*
X6743Y15921D01*
X6722Y15916D01*
X6706Y15912D01*
X6693Y15910D01*
X6683D01*
X6680D01*
X6650Y15912D01*
X6637Y15914D01*
X6626Y15918D01*
X6617Y15919D01*
X6609Y15923D01*
X6606Y15925D01*
X6604D01*
X6582Y15936D01*
X6563Y15949D01*
X6556Y15955D01*
X6550Y15960D01*
X6548Y15962D01*
X6546Y15964D01*
X6530Y15982D01*
X6519Y16003D01*
X6515Y16010D01*
X6511Y16018D01*
X6509Y16021D01*
Y16023D01*
X6504Y16049D01*
X6500Y16073D01*
X6498Y16082D01*
Y16242D01*
X6841D01*
Y16095D01*
D02*
G37*
G36*
X6356Y16171D02*
X6354Y16147D01*
X6352Y16129D01*
X6350Y16121D01*
Y16116D01*
X6348Y16114D01*
Y16112D01*
X6341Y16093D01*
X6333Y16079D01*
X6326Y16068D01*
X6322Y16066D01*
Y16064D01*
X6307Y16047D01*
X6295Y16032D01*
X6283Y16023D01*
X6280Y16021D01*
X6278Y16019D01*
X6256Y16003D01*
X6233Y15988D01*
X6224Y15982D01*
X6219Y15979D01*
X6213Y15977D01*
X6211Y15975D01*
X5930Y15806D01*
Y16242D01*
X6356D01*
Y16171D01*
D02*
G37*
G36*
X6759Y15125D02*
X6780Y15119D01*
X6802Y15114D01*
X6811Y15112D01*
X6819D01*
X6824Y15110D01*
X6826D01*
Y15107D01*
X6809Y15105D01*
X6796Y15101D01*
X6785Y15099D01*
X6776Y15097D01*
X6769Y15095D01*
X6763Y15094D01*
X6761D01*
X6759D01*
X6339Y14947D01*
Y15269D01*
X6759Y15125D01*
D02*
G37*
G36*
X6833Y14149D02*
X6832Y14114D01*
X6830Y14083D01*
X6824Y14051D01*
X6817Y14023D01*
X6809Y13997D01*
X6800Y13971D01*
X6776Y13929D01*
X6748Y13892D01*
X6717Y13860D01*
X6683Y13836D01*
X6650Y13816D01*
X6615Y13799D01*
X6582Y13788D01*
X6550Y13779D01*
X6522Y13773D01*
X6498Y13770D01*
X6482Y13768D01*
X6474D01*
X6469D01*
X6467D01*
X6465D01*
X6432Y13770D01*
X6400Y13771D01*
X6370Y13777D01*
X6343Y13784D01*
X6317Y13792D01*
X6293Y13799D01*
X6270Y13809D01*
X6252Y13818D01*
X6235Y13829D01*
X6220Y13838D01*
X6207Y13846D01*
X6196Y13853D01*
X6189Y13860D01*
X6183Y13866D01*
X6180Y13868D01*
X6178Y13870D01*
X6159Y13890D01*
X6145Y13910D01*
X6132Y13934D01*
X6119Y13957D01*
X6100Y14005D01*
X6089Y14051D01*
X6085Y14073D01*
X6082Y14092D01*
X6080Y14110D01*
X6078Y14125D01*
X6076Y14138D01*
Y14295D01*
X6833D01*
Y14149D01*
D02*
G37*
%LPC*%
G36*
X67062Y13275D02*
X67034D01*
X66983Y13271D01*
X66958Y13269D01*
X66936Y13266D01*
X66918Y13262D01*
X66905Y13260D01*
X66896Y13256D01*
X66892D01*
X66866Y13249D01*
X66842Y13242D01*
X66821Y13232D01*
X66803Y13223D01*
X66788Y13216D01*
X66775Y13208D01*
X66768Y13205D01*
X66766Y13203D01*
X66747Y13188D01*
X66729Y13173D01*
X66714Y13158D01*
X66703Y13144D01*
X66692Y13132D01*
X66684Y13121D01*
X66681Y13114D01*
X66679Y13112D01*
X66668Y13092D01*
X66660Y13069D01*
X66653Y13047D01*
X66649Y13029D01*
X66647Y13010D01*
X66646Y12997D01*
Y12962D01*
X66649Y12944D01*
X66651Y12925D01*
X66655Y12910D01*
X66659Y12897D01*
X66660Y12886D01*
X66664Y12881D01*
Y12879D01*
X66681Y12847D01*
X66690Y12834D01*
X66699Y12823D01*
X66707Y12812D01*
X66712Y12805D01*
X66716Y12801D01*
X66718Y12799D01*
X66746Y12775D01*
X66771Y12753D01*
X66783Y12745D01*
X66792Y12740D01*
X66797Y12736D01*
X66799Y12734D01*
X66834Y12712D01*
X66851Y12703D01*
X66866Y12695D01*
X66881Y12688D01*
X66890Y12682D01*
X66897Y12679D01*
X66899Y12677D01*
X66934Y12660D01*
X66951Y12653D01*
X66964Y12647D01*
X66975Y12640D01*
X66984Y12636D01*
X66990Y12634D01*
X66992Y12632D01*
X67023Y12618D01*
X67036Y12610D01*
X67047Y12603D01*
X67055Y12597D01*
X67062Y12592D01*
X67066Y12590D01*
X67068Y12588D01*
X67090Y12571D01*
X67105Y12555D01*
X67114Y12544D01*
X67118Y12540D01*
Y12538D01*
X67129Y12518D01*
X67134Y12495D01*
X67136Y12486D01*
Y12481D01*
Y12475D01*
Y12473D01*
X67134Y12449D01*
X67129Y12429D01*
X67120Y12410D01*
X67110Y12395D01*
X67099Y12382D01*
X67092Y12375D01*
X67084Y12370D01*
X67083Y12368D01*
X67060Y12355D01*
X67034Y12345D01*
X67007Y12340D01*
X66981Y12336D01*
X66957Y12333D01*
X66938Y12331D01*
X66920D01*
X66896Y12333D01*
X66873Y12334D01*
X66864D01*
X66857Y12336D01*
X66849D01*
X66821Y12342D01*
X66799Y12349D01*
X66788Y12351D01*
X66781Y12353D01*
X66777Y12355D01*
X66775D01*
X66749Y12364D01*
X66727Y12375D01*
X66718Y12379D01*
X66710Y12382D01*
X66707Y12384D01*
X66705D01*
X66683Y12399D01*
X66664Y12412D01*
X66657Y12418D01*
X66651Y12421D01*
X66649Y12423D01*
X66647Y12425D01*
Y12245D01*
X66664Y12236D01*
X66683Y12229D01*
X66690Y12225D01*
X66697Y12223D01*
X66701Y12221D01*
X66703D01*
X66731Y12214D01*
X66757Y12208D01*
X66766Y12207D01*
X66773Y12205D01*
X66779Y12203D01*
X66781D01*
X66810Y12197D01*
X66823Y12195D01*
X66836D01*
X66846Y12194D01*
X66853Y12192D01*
X66860D01*
X66886Y12190D01*
X66907Y12188D01*
X66955D01*
X66983Y12190D01*
X67008Y12194D01*
X67031Y12195D01*
X67049Y12199D01*
X67062Y12201D01*
X67071Y12203D01*
X67075D01*
X67101Y12208D01*
X67125Y12216D01*
X67147Y12225D01*
X67166Y12233D01*
X67181Y12240D01*
X67192Y12245D01*
X67199Y12249D01*
X67201Y12251D01*
X67221Y12266D01*
X67238Y12281D01*
X67253Y12295D01*
X67266Y12308D01*
X67275Y12321D01*
X67283Y12331D01*
X67286Y12338D01*
X67288Y12340D01*
X67299Y12362D01*
X67307Y12384D01*
X67312Y12408D01*
X67316Y12429D01*
X67318Y12449D01*
X67320Y12464D01*
Y12499D01*
X67316Y12518D01*
X67312Y12536D01*
X67308Y12553D01*
X67305Y12564D01*
X67301Y12575D01*
X67299Y12581D01*
X67297Y12582D01*
X67281Y12616D01*
X67270Y12629D01*
X67260Y12642D01*
X67253Y12651D01*
X67245Y12660D01*
X67242Y12664D01*
X67240Y12666D01*
X67210Y12694D01*
X67183Y12716D01*
X67171Y12725D01*
X67162Y12731D01*
X67155Y12734D01*
X67153Y12736D01*
X67116Y12758D01*
X67099Y12769D01*
X67084Y12779D01*
X67071Y12786D01*
X67060Y12792D01*
X67053Y12795D01*
X67051Y12797D01*
X67033Y12807D01*
X67014Y12814D01*
X66997Y12821D01*
X66984Y12827D01*
X66973Y12832D01*
X66964Y12836D01*
X66958Y12840D01*
X66957D01*
X66929Y12855D01*
X66916Y12862D01*
X66907Y12868D01*
X66897Y12873D01*
X66892Y12877D01*
X66888Y12881D01*
X66886D01*
X66868Y12897D01*
X66855Y12914D01*
X66847Y12925D01*
X66844Y12927D01*
Y12929D01*
X66834Y12949D01*
X66831Y12969D01*
X66829Y12977D01*
Y12984D01*
Y12988D01*
Y12990D01*
X66833Y13016D01*
X66838Y13036D01*
X66842Y13044D01*
X66844Y13049D01*
X66847Y13051D01*
Y13053D01*
X66864Y13071D01*
X66881Y13086D01*
X66886Y13090D01*
X66892Y13094D01*
X66896Y13097D01*
X66897D01*
X66921Y13108D01*
X66944Y13116D01*
X66953Y13118D01*
X66960Y13119D01*
X66964Y13121D01*
X66966D01*
X66994Y13125D01*
X67020Y13129D01*
X67044D01*
X67095Y13127D01*
X67140Y13119D01*
X67179Y13108D01*
X67212Y13097D01*
X67240Y13084D01*
X67251Y13079D01*
X67258Y13075D01*
X67266Y13069D01*
X67271Y13068D01*
X67273Y13064D01*
X67275D01*
Y13236D01*
X67260Y13244D01*
X67244Y13249D01*
X67205Y13258D01*
X67166Y13266D01*
X67127Y13269D01*
X67090Y13273D01*
X67075D01*
X67062Y13275D01*
D02*
G37*
G36*
X68819Y13256D02*
X68638D01*
X68451Y12482D01*
X68445Y12462D01*
X68442Y12442D01*
X68440Y12427D01*
X68438Y12412D01*
X68436Y12401D01*
X68434Y12394D01*
Y12388D01*
Y12386D01*
X68432D01*
X68431Y12407D01*
X68427Y12423D01*
X68425Y12440D01*
X68421Y12453D01*
X68419Y12466D01*
X68418Y12473D01*
X68416Y12479D01*
Y12481D01*
X68218Y13256D01*
X68036D01*
X67821Y12486D01*
X67816Y12464D01*
X67810Y12444D01*
X67807Y12425D01*
X67805Y12410D01*
X67803Y12399D01*
X67801Y12392D01*
Y12386D01*
Y12384D01*
X67797D01*
X67794Y12423D01*
X67792Y12440D01*
X67788Y12455D01*
X67786Y12468D01*
X67784Y12479D01*
X67782Y12484D01*
Y12486D01*
X67592Y13256D01*
X67399D01*
X67694Y12205D01*
X67895D01*
X68097Y12942D01*
X68105Y12979D01*
X68108Y12995D01*
X68110Y13012D01*
X68112Y13025D01*
X68114Y13034D01*
Y13042D01*
Y13044D01*
X68118D01*
X68121Y13005D01*
X68123Y12986D01*
X68127Y12971D01*
X68129Y12958D01*
X68131Y12949D01*
X68132Y12942D01*
Y12940D01*
X68334Y12205D01*
X68531D01*
X68819Y13256D01*
D02*
G37*
G36*
X69284D02*
X68966D01*
Y12205D01*
X69256D01*
X69306Y12207D01*
X69353Y12210D01*
X69397Y12218D01*
X69440Y12227D01*
X69477Y12238D01*
X69514Y12251D01*
X69545Y12264D01*
X69575Y12279D01*
X69601Y12292D01*
X69625Y12305D01*
X69643Y12318D01*
X69660Y12329D01*
X69673Y12338D01*
X69682Y12345D01*
X69688Y12349D01*
X69690Y12351D01*
X69717Y12381D01*
X69743Y12410D01*
X69764Y12442D01*
X69782Y12475D01*
X69799Y12508D01*
X69812Y12540D01*
X69823Y12571D01*
X69830Y12603D01*
X69838Y12632D01*
X69841Y12658D01*
X69845Y12682D01*
X69849Y12703D01*
Y12719D01*
X69851Y12732D01*
Y12744D01*
X69849Y12790D01*
X69845Y12834D01*
X69836Y12875D01*
X69827Y12912D01*
X69812Y12949D01*
X69797Y12981D01*
X69780Y13012D01*
X69760Y13040D01*
X69738Y13066D01*
X69716Y13090D01*
X69692Y13112D01*
X69667Y13131D01*
X69642Y13149D01*
X69614Y13166D01*
X69560Y13192D01*
X69506Y13214D01*
X69453Y13229D01*
X69405Y13242D01*
X69360Y13249D01*
X69342Y13251D01*
X69323Y13253D01*
X69308Y13255D01*
X69295D01*
X69284Y13256D01*
D02*
G37*
%LPD*%
G36*
X69321Y13106D02*
X69353Y13105D01*
X69384Y13099D01*
X69412Y13092D01*
X69438Y13084D01*
X69464Y13075D01*
X69506Y13051D01*
X69543Y13023D01*
X69575Y12992D01*
X69599Y12958D01*
X69619Y12925D01*
X69636Y12890D01*
X69647Y12857D01*
X69656Y12825D01*
X69662Y12797D01*
X69666Y12773D01*
X69667Y12757D01*
Y12749D01*
Y12744D01*
Y12742D01*
Y12740D01*
X69666Y12707D01*
X69664Y12675D01*
X69658Y12645D01*
X69651Y12618D01*
X69643Y12592D01*
X69636Y12568D01*
X69627Y12545D01*
X69617Y12527D01*
X69606Y12510D01*
X69597Y12495D01*
X69590Y12482D01*
X69582Y12471D01*
X69575Y12464D01*
X69569Y12458D01*
X69567Y12455D01*
X69566Y12453D01*
X69545Y12434D01*
X69525Y12420D01*
X69501Y12407D01*
X69479Y12394D01*
X69430Y12375D01*
X69384Y12364D01*
X69362Y12360D01*
X69343Y12357D01*
X69325Y12355D01*
X69310Y12353D01*
X69297Y12351D01*
X69140D01*
Y13108D01*
X69286D01*
X69321Y13106D01*
D02*
G37*
D48*
X76010Y13730D02*
Y16270D01*
X65850Y13730D02*
X76010D01*
X65850Y16270D02*
X76010D01*
X65850Y13730D02*
Y16270D01*
X76010Y52730D02*
Y55270D01*
X65850Y52730D02*
X76010D01*
X65850Y55270D02*
X76010D01*
X65850Y52730D02*
Y55270D01*
D50*
X61150Y29750D02*
X61550D01*
Y29350D02*
Y29750D01*
X21300Y16700D02*
Y17100D01*
X21700D01*
X68150Y24450D02*
X68550D01*
Y24050D02*
Y24450D01*
X66200Y27800D02*
X66600D01*
X66200D02*
Y28200D01*
X53300Y37000D02*
Y37400D01*
X53700D01*
X61150Y68750D02*
X61550D01*
Y68350D02*
Y68750D01*
X21300Y55700D02*
Y56100D01*
X21700D01*
X68150Y63450D02*
X68550D01*
Y63050D02*
Y63450D01*
X66200Y66800D02*
X66600D01*
X66200D02*
Y67200D01*
X53300Y76000D02*
Y76400D01*
X53700D01*
D87*
X54736Y19875D02*
D03*
Y58875D02*
D03*
D88*
X70688Y30000D02*
D03*
Y69000D02*
D03*
D89*
X16838Y11400D02*
D03*
X16838Y9300D02*
D03*
X52838Y33200D02*
D03*
X16838Y50400D02*
D03*
X16838Y48300D02*
D03*
X52838Y72200D02*
D03*
D90*
X70500Y23563D02*
D03*
X70500Y22438D02*
D03*
X70500Y62563D02*
D03*
X70500Y61438D02*
D03*
D91*
X66150Y35037D02*
D03*
Y74038D02*
D03*
D92*
X68900Y37000D02*
D03*
Y8400D02*
D03*
X12900Y37000D02*
D03*
Y9000D02*
D03*
X68900Y76000D02*
D03*
Y47400D02*
D03*
X12900Y76000D02*
D03*
Y48000D02*
D03*
D93*
X56101Y29000D02*
D03*
Y68000D02*
D03*
M02*
