G04*
G04 #@! TF.GenerationSoftware,Altium Limited,Altium Designer,21.3.2 (30)*
G04*
G04 Layer_Color=13875686*
%FSLAX43Y43*%
%MOMM*%
G71*
G04*
G04 #@! TF.SameCoordinates,034B25BC-4B64-4F1D-819B-79BBDF65C54F*
G04*
G04*
G04 #@! TF.FilePolarity,Positive*
G04*
G01*
G75*
%ADD51C,0.500*%
G36*
X38497Y78777D02*
X38556Y78762D01*
X38593Y78748D01*
X38600Y78740D01*
X38608D01*
X38667Y78703D01*
X38719Y78666D01*
X38756Y78637D01*
X38763Y78622D01*
X38771D01*
X38823Y78570D01*
X38860Y78518D01*
X38889Y78481D01*
X38897Y78474D01*
Y78466D01*
X38919Y78407D01*
X38934Y78355D01*
X38941Y78318D01*
Y78311D01*
Y78303D01*
Y78274D01*
X38934Y78251D01*
X38926Y78214D01*
X38911Y78192D01*
Y78177D01*
X38897Y78133D01*
X38889Y78103D01*
X38882Y78096D01*
Y78088D01*
Y75763D01*
X38941Y75511D01*
X38949D01*
X38956Y75504D01*
X38971D01*
X39045Y75518D01*
X39111Y75541D01*
X39156Y75563D01*
X39163Y75578D01*
X39171D01*
X39237Y75644D01*
X39297Y75704D01*
X39334Y75755D01*
X39341Y75763D01*
X39348Y75770D01*
X39408Y75852D01*
X39452Y75926D01*
X39467Y75955D01*
X39482Y75978D01*
X39489Y75992D01*
Y76000D01*
X39526Y76081D01*
X39548Y76148D01*
X39563Y76185D01*
X39571Y76200D01*
X40956Y77585D01*
X40978Y77629D01*
X41008Y77666D01*
X41067Y77755D01*
X41096Y77792D01*
X41126Y77822D01*
X41141Y77837D01*
X41148Y77844D01*
X41259Y77963D01*
X41311Y78014D01*
X41356Y78066D01*
X41400Y78103D01*
X41430Y78133D01*
X41452Y78155D01*
X41459Y78163D01*
X41585Y78274D01*
X41645Y78325D01*
X41696Y78363D01*
X41741Y78400D01*
X41778Y78429D01*
X41800Y78444D01*
X41807Y78451D01*
X41933Y78562D01*
X41993Y78614D01*
X42044Y78666D01*
X42089Y78711D01*
X42119Y78748D01*
X42141Y78770D01*
X42148Y78777D01*
X42222Y78755D01*
X42282Y78718D01*
X42341Y78681D01*
X42385Y78644D01*
X42422Y78607D01*
X42452Y78577D01*
X42467Y78555D01*
X42474Y78548D01*
X42563Y78414D01*
X42607Y78348D01*
X42637Y78281D01*
X42667Y78229D01*
X42689Y78185D01*
X42704Y78155D01*
X42711Y78148D01*
Y78133D01*
X42718Y78126D01*
Y78118D01*
Y78096D01*
Y78088D01*
X42711Y78029D01*
X42704Y77977D01*
X42696Y77940D01*
X42689Y77926D01*
X42659Y77874D01*
X42622Y77822D01*
X42593Y77785D01*
X42585Y77777D01*
Y77770D01*
Y77726D01*
Y77681D01*
Y77577D01*
X42593Y77533D01*
Y77496D01*
Y77466D01*
Y77459D01*
Y77296D01*
Y77214D01*
Y77140D01*
Y77074D01*
Y77022D01*
Y76992D01*
Y76977D01*
Y76422D01*
Y75866D01*
Y75770D01*
Y75681D01*
Y75600D01*
Y75526D01*
Y75467D01*
Y75422D01*
Y75392D01*
Y75385D01*
Y75311D01*
X42585Y75244D01*
Y75192D01*
Y75148D01*
Y75118D01*
Y75096D01*
Y75081D01*
Y75074D01*
Y75052D01*
Y75015D01*
X42578Y74948D01*
Y74918D01*
Y74889D01*
Y74874D01*
Y74867D01*
X42570Y74763D01*
Y74659D01*
X42563Y74622D01*
Y74593D01*
Y74570D01*
Y74563D01*
X42556Y74452D01*
X42548Y74356D01*
Y74318D01*
X42541Y74289D01*
Y74274D01*
Y74267D01*
X42533Y74215D01*
Y74178D01*
X42526Y74111D01*
Y74081D01*
Y74067D01*
X42333D01*
X42022Y74378D01*
Y74385D01*
Y74393D01*
X42015Y74430D01*
Y74459D01*
Y74467D01*
Y74474D01*
X42007Y74555D01*
Y74644D01*
X42000Y74681D01*
Y74711D01*
Y74726D01*
Y74733D01*
X41993Y74859D01*
Y74918D01*
Y74970D01*
Y75022D01*
Y75059D01*
Y75081D01*
Y75089D01*
X41985Y75237D01*
Y75304D01*
Y75363D01*
X41978Y75415D01*
Y75452D01*
Y75481D01*
Y75489D01*
X41970Y75637D01*
Y75704D01*
Y75763D01*
Y75815D01*
Y75852D01*
Y75874D01*
Y75881D01*
X41963Y76007D01*
Y76066D01*
Y76111D01*
X41956Y76148D01*
Y76178D01*
Y76192D01*
Y76200D01*
Y76326D01*
Y76548D01*
Y76770D01*
Y76896D01*
Y76911D01*
Y76926D01*
Y76940D01*
Y76948D01*
X41948Y76985D01*
X41941Y77022D01*
X41933Y77044D01*
Y77052D01*
X41919Y77089D01*
X41911Y77118D01*
X41896Y77140D01*
Y77148D01*
X41874Y77177D01*
X41852Y77192D01*
X41837Y77207D01*
X41830D01*
X41682Y77074D01*
X41541Y76933D01*
X41415Y76807D01*
X41304Y76689D01*
X41208Y76592D01*
X41133Y76511D01*
X41111Y76481D01*
X41089Y76459D01*
X41082Y76452D01*
X41074Y76444D01*
X40941Y76296D01*
X40808Y76155D01*
X40689Y76022D01*
X40585Y75896D01*
X40489Y75792D01*
X40422Y75711D01*
X40400Y75681D01*
X40378Y75659D01*
X40371Y75652D01*
X40363Y75644D01*
X40230Y75496D01*
X40104Y75348D01*
X39978Y75215D01*
X39874Y75096D01*
X39785Y74992D01*
X39711Y74911D01*
X39689Y74881D01*
X39667Y74859D01*
X39660Y74852D01*
X39652Y74844D01*
X39511Y74696D01*
X39378Y74555D01*
X39252Y74422D01*
X39134Y74304D01*
X39030Y74207D01*
X38949Y74133D01*
X38919Y74104D01*
X38897Y74081D01*
X38889Y74074D01*
X38882Y74067D01*
X38837Y74037D01*
X38808Y74015D01*
X38786Y74007D01*
X38652D01*
X38563Y74015D01*
X38489Y74044D01*
X38445Y74067D01*
X38437Y74074D01*
X38430D01*
X38371Y74133D01*
X38326Y74193D01*
X38297Y74237D01*
X38289Y74244D01*
Y74252D01*
X38252Y74333D01*
X38223Y74415D01*
X38215Y74444D01*
Y74467D01*
X38208Y74481D01*
Y74489D01*
X38193Y74578D01*
X38186Y74652D01*
Y74681D01*
Y74704D01*
Y74711D01*
Y74718D01*
Y74755D01*
Y74815D01*
Y74889D01*
Y75037D01*
X38193Y75096D01*
Y75148D01*
Y75185D01*
Y75200D01*
Y75437D01*
X38200Y75548D01*
Y75652D01*
Y75748D01*
X38208Y75815D01*
Y75844D01*
Y75866D01*
Y75874D01*
Y75881D01*
X38215Y76163D01*
Y76296D01*
Y76422D01*
X38223Y76526D01*
Y76600D01*
Y76637D01*
Y76659D01*
Y76666D01*
Y76674D01*
Y76829D01*
X38230Y76977D01*
Y77111D01*
Y77229D01*
X38237Y77326D01*
Y77400D01*
Y77429D01*
Y77451D01*
Y77459D01*
Y77466D01*
Y77607D01*
X38245Y77733D01*
Y77844D01*
Y77948D01*
X38252Y78029D01*
Y78088D01*
Y78126D01*
Y78140D01*
Y78244D01*
Y78340D01*
Y78414D01*
Y78481D01*
Y78533D01*
Y78562D01*
Y78585D01*
Y78592D01*
X38275Y78637D01*
X38297Y78681D01*
X38312Y78711D01*
X38319Y78718D01*
X38356Y78755D01*
X38393Y78777D01*
X38423Y78785D01*
X38437D01*
X38497Y78777D01*
D02*
G37*
G36*
X50925Y78874D02*
X50992D01*
X51051Y78866D01*
X51095D01*
X51132Y78859D01*
X51140D01*
X51303Y78837D01*
X51377Y78814D01*
X51444Y78799D01*
X51495Y78785D01*
X51532Y78770D01*
X51562Y78762D01*
X51569Y78755D01*
X51636Y78718D01*
X51703Y78674D01*
X51755Y78629D01*
X51799Y78585D01*
X51836Y78540D01*
X51866Y78503D01*
X51881Y78481D01*
X51888Y78474D01*
Y78422D01*
Y78363D01*
Y78244D01*
X51895Y78185D01*
Y78140D01*
Y78111D01*
Y78096D01*
Y78000D01*
X51903Y77896D01*
Y77800D01*
Y77711D01*
X51910Y77629D01*
Y77570D01*
Y77526D01*
Y77518D01*
Y77511D01*
X51918Y77266D01*
Y77148D01*
Y77044D01*
X51925Y76955D01*
Y76881D01*
Y76837D01*
Y76829D01*
Y76822D01*
Y76689D01*
X51932Y76563D01*
Y76452D01*
Y76348D01*
X51940Y76259D01*
Y76200D01*
Y76155D01*
Y76148D01*
Y76141D01*
Y76022D01*
Y75911D01*
Y75815D01*
Y75726D01*
X51947Y75652D01*
Y75600D01*
Y75570D01*
Y75555D01*
Y75467D01*
Y75385D01*
Y75318D01*
Y75267D01*
Y75222D01*
Y75192D01*
Y75178D01*
Y75170D01*
Y74667D01*
Y74600D01*
Y74541D01*
X51955Y74504D01*
Y74496D01*
Y74489D01*
Y74437D01*
Y74393D01*
Y74363D01*
Y74348D01*
Y74304D01*
X51947Y74259D01*
X51940Y74230D01*
Y74215D01*
X51925Y74163D01*
X51910Y74119D01*
X51895Y74089D01*
X51888Y74074D01*
X51873Y74044D01*
X51858Y74037D01*
Y74030D01*
X51836Y74015D01*
X51829Y74007D01*
X49118D01*
X49081Y74015D01*
X49036Y74030D01*
X49007Y74037D01*
X48999Y74044D01*
X48947Y74081D01*
X48910Y74111D01*
X48881Y74141D01*
X48873Y74148D01*
X48836Y74193D01*
X48799Y74237D01*
X48785Y74267D01*
X48777Y74274D01*
X48748Y74318D01*
X48740Y74356D01*
X48733Y74385D01*
Y74393D01*
Y74415D01*
X48740Y74430D01*
X48748Y74444D01*
Y74459D01*
X48792Y74467D01*
X48844D01*
X48947Y74474D01*
X48999Y74481D01*
X49073D01*
X49244Y74489D01*
X49562D01*
X49762Y74496D01*
X49859D01*
X49947Y74504D01*
X50021D01*
X50073Y74511D01*
X50125D01*
X50229Y74518D01*
X50333Y74526D01*
X50421Y74541D01*
X50495Y74548D01*
X50562Y74555D01*
X50607D01*
X50644Y74563D01*
X50651D01*
X50732Y74578D01*
X50814Y74585D01*
X50881Y74600D01*
X50932Y74615D01*
X50984Y74630D01*
X51014Y74637D01*
X51036Y74644D01*
X51044D01*
X51095Y74667D01*
X51132Y74689D01*
X51155Y74718D01*
X51169Y74741D01*
X51192Y74770D01*
Y74785D01*
Y76274D01*
X51184Y76318D01*
X51169Y76348D01*
X51125Y76400D01*
X51088Y76429D01*
X51073Y76437D01*
X51066D01*
X50955Y76466D01*
X50851Y76481D01*
X50807D01*
X50770Y76489D01*
X50740D01*
X50592Y76496D01*
X50518Y76503D01*
X50310D01*
X50221Y76511D01*
X50140D01*
X50073Y76518D01*
X50007Y76526D01*
X49955Y76533D01*
X49918D01*
X49888Y76540D01*
X49881D01*
X49747Y76578D01*
X49696Y76592D01*
X49644Y76615D01*
X49607Y76629D01*
X49577Y76644D01*
X49562Y76659D01*
X49555D01*
X49510Y76696D01*
X49481Y76740D01*
X49451Y76785D01*
X49436Y76829D01*
X49429Y76866D01*
X49422Y76896D01*
Y76918D01*
Y76926D01*
X49429Y76977D01*
X49444Y77007D01*
X49466Y77022D01*
X49473Y77029D01*
X49518Y77044D01*
X49570Y77052D01*
X51066D01*
X51073Y77059D01*
X51081Y77066D01*
X51088Y77074D01*
X51095D01*
X51125Y77111D01*
X51132Y77118D01*
X51140Y77140D01*
X51155Y77163D01*
X51162Y77177D01*
X51169Y77185D01*
X51184Y77214D01*
X51192Y77229D01*
Y77244D01*
Y78288D01*
X50125Y78251D01*
X49910D01*
X49866Y78259D01*
X49821D01*
X49755Y78274D01*
X49688Y78281D01*
X49636Y78288D01*
X49621D01*
X49540Y78303D01*
X49473Y78311D01*
X49444D01*
X49422Y78318D01*
X49407D01*
X49333Y78333D01*
X49281Y78340D01*
X49251Y78348D01*
X49244D01*
X49207Y78363D01*
X49162Y78377D01*
X49133Y78392D01*
X49125Y78400D01*
X49073Y78429D01*
X49029Y78459D01*
X48999Y78481D01*
X48992Y78488D01*
X48955Y78533D01*
X48918Y78570D01*
X48903Y78600D01*
X48896Y78607D01*
X48873Y78659D01*
X48866Y78696D01*
X48859Y78725D01*
Y78740D01*
Y78762D01*
X48866Y78777D01*
Y78792D01*
Y78799D01*
X48947Y78807D01*
X49029Y78814D01*
X49096Y78822D01*
X49155D01*
X49207Y78829D01*
X49273D01*
X49399Y78837D01*
X49459Y78844D01*
X49503D01*
X49547Y78851D01*
X49607D01*
X49718Y78859D01*
X49910D01*
X50029Y78866D01*
X50466D01*
X50533Y78874D01*
X50673D01*
X50844Y78881D01*
X50925Y78874D01*
D02*
G37*
G36*
X35082Y78829D02*
X35164Y78822D01*
X35230Y78807D01*
X35290Y78785D01*
X35334Y78762D01*
X35364Y78748D01*
X35386Y78740D01*
X35393Y78733D01*
X35490Y78651D01*
X35564Y78562D01*
X35586Y78525D01*
X35608Y78503D01*
X35616Y78481D01*
X35623Y78474D01*
X35682Y78363D01*
X35727Y78251D01*
X35741Y78207D01*
X35756Y78170D01*
X35764Y78148D01*
Y78140D01*
X35801Y78007D01*
X35823Y77948D01*
X35845Y77896D01*
X35860Y77851D01*
X35867Y77814D01*
X35882Y77792D01*
Y77785D01*
X35978Y77540D01*
X36023Y77429D01*
X36067Y77333D01*
X36104Y77244D01*
X36134Y77177D01*
X36156Y77133D01*
X36164Y77126D01*
Y77118D01*
X36223Y76992D01*
X36282Y76874D01*
X36341Y76755D01*
X36393Y76659D01*
X36438Y76570D01*
X36467Y76503D01*
X36490Y76459D01*
X36497Y76452D01*
Y76444D01*
X36564Y76318D01*
X36623Y76200D01*
X36675Y76081D01*
X36727Y75985D01*
X36771Y75896D01*
X36801Y75829D01*
X36823Y75785D01*
X36830Y75778D01*
Y75770D01*
X36889Y75644D01*
X36949Y75526D01*
X37001Y75407D01*
X37045Y75311D01*
X37082Y75222D01*
X37112Y75163D01*
X37126Y75118D01*
X37134Y75111D01*
Y75104D01*
X37171Y75030D01*
X37208Y74963D01*
X37223Y74933D01*
X37230Y74918D01*
X37245Y74904D01*
Y74896D01*
X37289Y74815D01*
X37334Y74733D01*
X37349Y74704D01*
X37363Y74681D01*
X37371Y74667D01*
Y74659D01*
X37415Y74570D01*
X37445Y74496D01*
X37460Y74459D01*
X37467Y74437D01*
X37475Y74422D01*
Y74415D01*
X37497Y74326D01*
X37512Y74259D01*
X37519Y74230D01*
Y74207D01*
Y74193D01*
Y74185D01*
Y74133D01*
X37512Y74096D01*
X37504Y74067D01*
Y74059D01*
X37497Y74044D01*
X37482Y74030D01*
X37438Y74015D01*
X37401Y74007D01*
X37386D01*
X37304Y74015D01*
X37238Y74022D01*
X37178Y74037D01*
X37126Y74052D01*
X37089Y74067D01*
X37060Y74074D01*
X37045Y74089D01*
X37038D01*
X36956Y74156D01*
X36897Y74230D01*
X36875Y74259D01*
X36860Y74281D01*
X36845Y74296D01*
Y74304D01*
X36801Y74407D01*
X36771Y74504D01*
X36756Y74541D01*
X36749Y74570D01*
X36741Y74593D01*
Y74600D01*
X36712Y74718D01*
X36697Y74778D01*
X36689Y74822D01*
X36675Y74867D01*
X36667Y74896D01*
X36660Y74918D01*
Y74926D01*
X36638Y74985D01*
X36615Y75037D01*
X36608Y75067D01*
X36601Y75081D01*
X36578Y75141D01*
X36556Y75192D01*
X36549Y75222D01*
X36541Y75237D01*
X36512Y75296D01*
X36475Y75370D01*
X36401Y75518D01*
X36371Y75585D01*
X36341Y75644D01*
X36327Y75681D01*
X36319Y75696D01*
X36267Y75822D01*
X36238Y75874D01*
X36215Y75926D01*
X36201Y75970D01*
X36186Y76007D01*
X36171Y76029D01*
Y76037D01*
X36112Y76178D01*
X36082Y76244D01*
X36053Y76303D01*
X36030Y76363D01*
X36015Y76400D01*
X36008Y76429D01*
X36001Y76437D01*
X35504Y77496D01*
X35312Y77674D01*
X35282Y77644D01*
X35253Y77607D01*
X35230Y77585D01*
X35223Y77570D01*
X35179Y77518D01*
X35141Y77459D01*
X35112Y77414D01*
X35104Y77407D01*
Y77400D01*
X35060Y77326D01*
X35023Y77252D01*
X35008Y77222D01*
X34993Y77200D01*
X34986Y77185D01*
Y77177D01*
X34942Y77089D01*
X34904Y77015D01*
X34890Y76985D01*
X34875Y76963D01*
X34867Y76948D01*
Y76940D01*
X34816Y76822D01*
X34793Y76770D01*
X34771Y76718D01*
X34756Y76681D01*
X34742Y76652D01*
X34734Y76629D01*
Y76622D01*
X34690Y76503D01*
X34645Y76407D01*
X34630Y76363D01*
X34616Y76333D01*
X34601Y76311D01*
Y76303D01*
X34579Y76237D01*
X34549Y76163D01*
X34534Y76133D01*
X34527Y76103D01*
X34519Y76089D01*
Y76081D01*
X34475Y75970D01*
X34423Y75859D01*
X34408Y75815D01*
X34393Y75778D01*
X34379Y75748D01*
Y75741D01*
X34349Y75666D01*
X34327Y75607D01*
X34297Y75548D01*
X34282Y75496D01*
X34268Y75459D01*
X34253Y75429D01*
X34245Y75415D01*
Y75407D01*
X34208Y75318D01*
X34179Y75252D01*
X34164Y75215D01*
X34156Y75200D01*
X34134Y75148D01*
X34112Y75104D01*
X34105Y75067D01*
X34097Y75059D01*
Y75052D01*
X34075Y74992D01*
X34053Y74941D01*
X34045Y74904D01*
X34038Y74896D01*
Y74889D01*
X34016Y74822D01*
X34001Y74770D01*
X33986Y74733D01*
Y74726D01*
Y74718D01*
X33964Y74659D01*
X33949Y74607D01*
X33934Y74570D01*
Y74563D01*
Y74555D01*
X33897Y74444D01*
X33882Y74393D01*
X33868Y74348D01*
X33853Y74311D01*
X33845Y74281D01*
X33838Y74267D01*
Y74259D01*
X33801Y74170D01*
X33771Y74111D01*
X33749Y74081D01*
X33742Y74067D01*
X33690D01*
X33668Y74059D01*
X33556D01*
X33468Y74067D01*
X33394Y74081D01*
X33327Y74096D01*
X33275Y74126D01*
X33231Y74148D01*
X33201Y74163D01*
X33186Y74178D01*
X33179Y74185D01*
X33134Y74237D01*
X33105Y74296D01*
X33075Y74356D01*
X33060Y74415D01*
X33053Y74467D01*
X33045Y74511D01*
Y74541D01*
Y74548D01*
Y74585D01*
X33053Y74630D01*
X33068Y74726D01*
X33075Y74770D01*
X33082Y74807D01*
X33090Y74830D01*
Y74837D01*
X33119Y74985D01*
X33142Y75052D01*
X33157Y75118D01*
X33171Y75170D01*
X33179Y75207D01*
X33194Y75237D01*
Y75244D01*
X33238Y75392D01*
X33260Y75459D01*
X33282Y75518D01*
X33305Y75563D01*
X33319Y75600D01*
X33327Y75622D01*
X33334Y75629D01*
X33364Y75689D01*
X33386Y75733D01*
X33416Y75770D01*
X33438Y75792D01*
X33460Y75815D01*
X33475Y75822D01*
X33482Y75829D01*
X33490D01*
X33497Y75866D01*
X33512Y75904D01*
X33519Y75933D01*
X33527Y75948D01*
X33542Y76015D01*
X33564Y76074D01*
X33571Y76118D01*
X33579Y76126D01*
Y76133D01*
X33601Y76207D01*
X33616Y76266D01*
X33631Y76303D01*
X33638Y76318D01*
X33660Y76378D01*
X33668Y76415D01*
X33682Y76437D01*
Y76444D01*
X33697Y76466D01*
X33712Y76503D01*
X33734Y76533D01*
X33742Y76548D01*
X33779Y76622D01*
X33808Y76681D01*
X33838Y76733D01*
X33845Y76740D01*
Y76748D01*
X33882Y76822D01*
X33912Y76881D01*
X33934Y76918D01*
X33942Y76933D01*
X33971Y76992D01*
X33986Y77029D01*
X33993Y77044D01*
Y77052D01*
X34031Y77133D01*
X34075Y77222D01*
X34090Y77259D01*
X34097Y77289D01*
X34112Y77311D01*
Y77318D01*
X34156Y77451D01*
X34179Y77511D01*
X34201Y77570D01*
X34216Y77622D01*
X34230Y77659D01*
X34245Y77681D01*
Y77689D01*
X34305Y77837D01*
X34327Y77903D01*
X34356Y77970D01*
X34379Y78022D01*
X34393Y78059D01*
X34401Y78088D01*
X34408Y78096D01*
X34475Y78244D01*
X34505Y78303D01*
X34534Y78363D01*
X34556Y78407D01*
X34579Y78437D01*
X34586Y78459D01*
X34593Y78466D01*
X34660Y78577D01*
X34690Y78622D01*
X34719Y78659D01*
X34749Y78688D01*
X34771Y78718D01*
X34779Y78725D01*
X34786Y78733D01*
X34823Y78770D01*
X34860Y78792D01*
X34927Y78822D01*
X34979Y78837D01*
X34993D01*
X35082Y78829D01*
D02*
G37*
G36*
X47399Y78807D02*
X47437Y78799D01*
X47459D01*
X47474Y78792D01*
X47481D01*
X47577Y78770D01*
X47659Y78748D01*
X47688Y78733D01*
X47711Y78725D01*
X47725Y78718D01*
X47733D01*
X47814Y78674D01*
X47881Y78629D01*
X47925Y78592D01*
X47933Y78585D01*
X47940Y78577D01*
X47970Y78548D01*
X47985Y78511D01*
X48014Y78444D01*
Y78414D01*
X48022Y78392D01*
Y78377D01*
Y78370D01*
Y78348D01*
Y78340D01*
Y78333D01*
X48014Y78311D01*
Y78303D01*
X47977Y78296D01*
X47962Y78288D01*
X47955D01*
X47918Y78281D01*
X47888Y78274D01*
X47866Y78266D01*
X47859D01*
X47822Y78259D01*
X47792D01*
X47770Y78251D01*
X47762D01*
X47733Y78244D01*
X46570D01*
X46511Y78237D01*
X46459Y78229D01*
X46414Y78222D01*
X46377Y78214D01*
X46355Y78200D01*
X46333Y78192D01*
X46318Y78185D01*
X46266Y78140D01*
X46229Y78096D01*
X46214Y78059D01*
X46207Y78051D01*
Y78044D01*
X46192Y77977D01*
X46185Y77911D01*
Y77888D01*
Y77866D01*
Y77851D01*
Y77844D01*
X46192Y77755D01*
Y77666D01*
Y77629D01*
Y77600D01*
Y77585D01*
Y77577D01*
Y77296D01*
X46200Y77022D01*
X46207Y76763D01*
Y76644D01*
Y76533D01*
X46214Y76429D01*
Y76340D01*
X46222Y76259D01*
Y76192D01*
X46229Y76133D01*
Y76096D01*
Y76066D01*
Y76059D01*
X46237Y75778D01*
X46244Y75511D01*
X46251Y75252D01*
Y75133D01*
Y75022D01*
X46259Y74918D01*
Y74830D01*
Y74748D01*
Y74681D01*
Y74622D01*
Y74585D01*
Y74555D01*
Y74548D01*
Y74133D01*
X46244Y74096D01*
X46222Y74074D01*
X46185Y74037D01*
X46155Y74022D01*
X46140Y74015D01*
X46074Y74007D01*
X46022Y74000D01*
X45903D01*
X45844Y74015D01*
X45800Y74022D01*
X45755Y74037D01*
X45726Y74052D01*
X45703Y74059D01*
X45689Y74074D01*
X45681D01*
X45614Y74133D01*
X45563Y74200D01*
X45548Y74230D01*
X45533Y74252D01*
X45526Y74267D01*
Y74274D01*
X45496Y74370D01*
X45474Y74459D01*
X45466Y74496D01*
X45459Y74526D01*
Y74541D01*
Y74548D01*
X45452Y74659D01*
X45444Y74748D01*
X45437Y74785D01*
Y74815D01*
Y74830D01*
Y74837D01*
X45377Y76570D01*
Y76607D01*
Y76652D01*
Y76681D01*
Y76696D01*
Y76763D01*
Y76829D01*
Y76874D01*
Y76881D01*
Y76889D01*
X45370Y76970D01*
Y77052D01*
Y77081D01*
Y77103D01*
Y77118D01*
Y77126D01*
Y77222D01*
Y77296D01*
Y77333D01*
Y77355D01*
Y77370D01*
Y77377D01*
Y77474D01*
Y77563D01*
Y77644D01*
Y77718D01*
X45377Y77777D01*
Y77822D01*
Y77851D01*
Y77859D01*
Y77940D01*
Y78007D01*
Y78059D01*
Y78103D01*
Y78140D01*
Y78163D01*
Y78170D01*
Y78177D01*
X45311Y78274D01*
X43489D01*
X43481Y78281D01*
X43467Y78288D01*
X43459Y78296D01*
X43452Y78303D01*
X43400Y78355D01*
X43385Y78377D01*
X43378Y78385D01*
X43348Y78422D01*
X43318Y78451D01*
X43304Y78474D01*
X43296Y78481D01*
X43274Y78518D01*
X43259Y78540D01*
X43244Y78555D01*
Y78562D01*
Y78577D01*
Y78592D01*
X43237Y78622D01*
Y78629D01*
X43244Y78659D01*
X43252Y78681D01*
X43267Y78696D01*
X43274Y78703D01*
X43333Y78748D01*
X43355Y78755D01*
X43363Y78762D01*
X43400Y78785D01*
X43437Y78792D01*
X43467Y78799D01*
X43474D01*
X43511Y78807D01*
X43533Y78814D01*
X47333D01*
X47399Y78807D01*
D02*
G37*
G36*
X38497Y39777D02*
X38556Y39762D01*
X38593Y39748D01*
X38600Y39740D01*
X38608D01*
X38667Y39703D01*
X38719Y39666D01*
X38756Y39637D01*
X38763Y39622D01*
X38771D01*
X38823Y39570D01*
X38860Y39518D01*
X38889Y39481D01*
X38897Y39474D01*
Y39466D01*
X38919Y39407D01*
X38934Y39355D01*
X38941Y39318D01*
Y39311D01*
Y39303D01*
Y39274D01*
X38934Y39251D01*
X38926Y39214D01*
X38911Y39192D01*
Y39177D01*
X38897Y39133D01*
X38889Y39103D01*
X38882Y39096D01*
Y39088D01*
Y36763D01*
X38941Y36511D01*
X38949D01*
X38956Y36504D01*
X38971D01*
X39045Y36518D01*
X39111Y36541D01*
X39156Y36563D01*
X39163Y36578D01*
X39171D01*
X39237Y36644D01*
X39297Y36704D01*
X39334Y36755D01*
X39341Y36763D01*
X39348Y36770D01*
X39408Y36852D01*
X39452Y36926D01*
X39467Y36955D01*
X39482Y36978D01*
X39489Y36992D01*
Y37000D01*
X39526Y37081D01*
X39548Y37148D01*
X39563Y37185D01*
X39571Y37200D01*
X40956Y38585D01*
X40978Y38629D01*
X41008Y38666D01*
X41067Y38755D01*
X41096Y38792D01*
X41126Y38822D01*
X41141Y38837D01*
X41148Y38844D01*
X41259Y38963D01*
X41311Y39014D01*
X41356Y39066D01*
X41400Y39103D01*
X41430Y39133D01*
X41452Y39155D01*
X41459Y39163D01*
X41585Y39274D01*
X41645Y39325D01*
X41696Y39363D01*
X41741Y39400D01*
X41778Y39429D01*
X41800Y39444D01*
X41807Y39451D01*
X41933Y39562D01*
X41993Y39614D01*
X42044Y39666D01*
X42089Y39711D01*
X42119Y39748D01*
X42141Y39770D01*
X42148Y39777D01*
X42222Y39755D01*
X42282Y39718D01*
X42341Y39681D01*
X42385Y39644D01*
X42422Y39607D01*
X42452Y39577D01*
X42467Y39555D01*
X42474Y39548D01*
X42563Y39414D01*
X42607Y39348D01*
X42637Y39281D01*
X42667Y39229D01*
X42689Y39185D01*
X42704Y39155D01*
X42711Y39148D01*
Y39133D01*
X42718Y39125D01*
Y39118D01*
Y39096D01*
Y39088D01*
X42711Y39029D01*
X42704Y38977D01*
X42696Y38940D01*
X42689Y38926D01*
X42659Y38874D01*
X42622Y38822D01*
X42593Y38785D01*
X42585Y38777D01*
Y38770D01*
Y38726D01*
Y38681D01*
Y38577D01*
X42593Y38533D01*
Y38496D01*
Y38466D01*
Y38459D01*
Y38296D01*
Y38214D01*
Y38140D01*
Y38074D01*
Y38022D01*
Y37992D01*
Y37977D01*
Y37422D01*
Y36866D01*
Y36770D01*
Y36681D01*
Y36600D01*
Y36526D01*
Y36467D01*
Y36422D01*
Y36392D01*
Y36385D01*
Y36311D01*
X42585Y36244D01*
Y36192D01*
Y36148D01*
Y36118D01*
Y36096D01*
Y36081D01*
Y36074D01*
Y36052D01*
Y36015D01*
X42578Y35948D01*
Y35918D01*
Y35889D01*
Y35874D01*
Y35867D01*
X42570Y35763D01*
Y35659D01*
X42563Y35622D01*
Y35593D01*
Y35570D01*
Y35563D01*
X42556Y35452D01*
X42548Y35356D01*
Y35318D01*
X42541Y35289D01*
Y35274D01*
Y35267D01*
X42533Y35215D01*
Y35178D01*
X42526Y35111D01*
Y35081D01*
Y35067D01*
X42333D01*
X42022Y35378D01*
Y35385D01*
Y35393D01*
X42015Y35430D01*
Y35459D01*
Y35467D01*
Y35474D01*
X42007Y35556D01*
Y35644D01*
X42000Y35681D01*
Y35711D01*
Y35726D01*
Y35733D01*
X41993Y35859D01*
Y35918D01*
Y35970D01*
Y36022D01*
Y36059D01*
Y36081D01*
Y36089D01*
X41985Y36237D01*
Y36304D01*
Y36363D01*
X41978Y36415D01*
Y36452D01*
Y36481D01*
Y36489D01*
X41970Y36637D01*
Y36704D01*
Y36763D01*
Y36815D01*
Y36852D01*
Y36874D01*
Y36881D01*
X41963Y37007D01*
Y37066D01*
Y37111D01*
X41956Y37148D01*
Y37178D01*
Y37192D01*
Y37200D01*
Y37326D01*
Y37548D01*
Y37770D01*
Y37896D01*
Y37911D01*
Y37926D01*
Y37940D01*
Y37948D01*
X41948Y37985D01*
X41941Y38022D01*
X41933Y38044D01*
Y38052D01*
X41919Y38089D01*
X41911Y38118D01*
X41896Y38140D01*
Y38148D01*
X41874Y38177D01*
X41852Y38192D01*
X41837Y38207D01*
X41830D01*
X41682Y38074D01*
X41541Y37933D01*
X41415Y37807D01*
X41304Y37689D01*
X41208Y37592D01*
X41133Y37511D01*
X41111Y37481D01*
X41089Y37459D01*
X41082Y37452D01*
X41074Y37444D01*
X40941Y37296D01*
X40808Y37155D01*
X40689Y37022D01*
X40585Y36896D01*
X40489Y36792D01*
X40422Y36711D01*
X40400Y36681D01*
X40378Y36659D01*
X40371Y36652D01*
X40363Y36644D01*
X40230Y36496D01*
X40104Y36348D01*
X39978Y36215D01*
X39874Y36096D01*
X39785Y35992D01*
X39711Y35911D01*
X39689Y35881D01*
X39667Y35859D01*
X39660Y35852D01*
X39652Y35844D01*
X39511Y35696D01*
X39378Y35556D01*
X39252Y35422D01*
X39134Y35304D01*
X39030Y35207D01*
X38949Y35133D01*
X38919Y35104D01*
X38897Y35081D01*
X38889Y35074D01*
X38882Y35067D01*
X38837Y35037D01*
X38808Y35015D01*
X38786Y35007D01*
X38652D01*
X38563Y35015D01*
X38489Y35044D01*
X38445Y35067D01*
X38437Y35074D01*
X38430D01*
X38371Y35133D01*
X38326Y35193D01*
X38297Y35237D01*
X38289Y35244D01*
Y35252D01*
X38252Y35333D01*
X38223Y35415D01*
X38215Y35444D01*
Y35467D01*
X38208Y35481D01*
Y35489D01*
X38193Y35578D01*
X38186Y35652D01*
Y35681D01*
Y35704D01*
Y35711D01*
Y35718D01*
Y35755D01*
Y35815D01*
Y35889D01*
Y36037D01*
X38193Y36096D01*
Y36148D01*
Y36185D01*
Y36200D01*
Y36437D01*
X38200Y36548D01*
Y36652D01*
Y36748D01*
X38208Y36815D01*
Y36844D01*
Y36866D01*
Y36874D01*
Y36881D01*
X38215Y37163D01*
Y37296D01*
Y37422D01*
X38223Y37526D01*
Y37600D01*
Y37637D01*
Y37659D01*
Y37666D01*
Y37674D01*
Y37829D01*
X38230Y37977D01*
Y38111D01*
Y38229D01*
X38237Y38326D01*
Y38400D01*
Y38429D01*
Y38451D01*
Y38459D01*
Y38466D01*
Y38607D01*
X38245Y38733D01*
Y38844D01*
Y38948D01*
X38252Y39029D01*
Y39088D01*
Y39125D01*
Y39140D01*
Y39244D01*
Y39340D01*
Y39414D01*
Y39481D01*
Y39533D01*
Y39562D01*
Y39585D01*
Y39592D01*
X38275Y39637D01*
X38297Y39681D01*
X38312Y39711D01*
X38319Y39718D01*
X38356Y39755D01*
X38393Y39777D01*
X38423Y39785D01*
X38437D01*
X38497Y39777D01*
D02*
G37*
G36*
X50925Y39874D02*
X50992D01*
X51051Y39866D01*
X51095D01*
X51132Y39859D01*
X51140D01*
X51303Y39837D01*
X51377Y39814D01*
X51444Y39799D01*
X51495Y39785D01*
X51532Y39770D01*
X51562Y39762D01*
X51569Y39755D01*
X51636Y39718D01*
X51703Y39674D01*
X51755Y39629D01*
X51799Y39585D01*
X51836Y39540D01*
X51866Y39503D01*
X51881Y39481D01*
X51888Y39474D01*
Y39422D01*
Y39363D01*
Y39244D01*
X51895Y39185D01*
Y39140D01*
Y39111D01*
Y39096D01*
Y39000D01*
X51903Y38896D01*
Y38800D01*
Y38711D01*
X51910Y38629D01*
Y38570D01*
Y38526D01*
Y38518D01*
Y38511D01*
X51918Y38266D01*
Y38148D01*
Y38044D01*
X51925Y37955D01*
Y37881D01*
Y37837D01*
Y37829D01*
Y37822D01*
Y37689D01*
X51932Y37563D01*
Y37452D01*
Y37348D01*
X51940Y37259D01*
Y37200D01*
Y37155D01*
Y37148D01*
Y37141D01*
Y37022D01*
Y36911D01*
Y36815D01*
Y36726D01*
X51947Y36652D01*
Y36600D01*
Y36570D01*
Y36555D01*
Y36467D01*
Y36385D01*
Y36318D01*
Y36267D01*
Y36222D01*
Y36192D01*
Y36178D01*
Y36170D01*
Y35667D01*
Y35600D01*
Y35541D01*
X51955Y35504D01*
Y35496D01*
Y35489D01*
Y35437D01*
Y35393D01*
Y35363D01*
Y35348D01*
Y35304D01*
X51947Y35259D01*
X51940Y35230D01*
Y35215D01*
X51925Y35163D01*
X51910Y35118D01*
X51895Y35089D01*
X51888Y35074D01*
X51873Y35044D01*
X51858Y35037D01*
Y35030D01*
X51836Y35015D01*
X51829Y35007D01*
X49118D01*
X49081Y35015D01*
X49036Y35030D01*
X49007Y35037D01*
X48999Y35044D01*
X48947Y35081D01*
X48910Y35111D01*
X48881Y35141D01*
X48873Y35148D01*
X48836Y35193D01*
X48799Y35237D01*
X48785Y35267D01*
X48777Y35274D01*
X48748Y35318D01*
X48740Y35356D01*
X48733Y35385D01*
Y35393D01*
Y35415D01*
X48740Y35430D01*
X48748Y35444D01*
Y35459D01*
X48792Y35467D01*
X48844D01*
X48947Y35474D01*
X48999Y35481D01*
X49073D01*
X49244Y35489D01*
X49562D01*
X49762Y35496D01*
X49859D01*
X49947Y35504D01*
X50021D01*
X50073Y35511D01*
X50125D01*
X50229Y35518D01*
X50333Y35526D01*
X50421Y35541D01*
X50495Y35548D01*
X50562Y35556D01*
X50607D01*
X50644Y35563D01*
X50651D01*
X50732Y35578D01*
X50814Y35585D01*
X50881Y35600D01*
X50932Y35615D01*
X50984Y35630D01*
X51014Y35637D01*
X51036Y35644D01*
X51044D01*
X51095Y35667D01*
X51132Y35689D01*
X51155Y35718D01*
X51169Y35741D01*
X51192Y35770D01*
Y35785D01*
Y37274D01*
X51184Y37318D01*
X51169Y37348D01*
X51125Y37400D01*
X51088Y37429D01*
X51073Y37437D01*
X51066D01*
X50955Y37466D01*
X50851Y37481D01*
X50807D01*
X50770Y37489D01*
X50740D01*
X50592Y37496D01*
X50518Y37503D01*
X50310D01*
X50221Y37511D01*
X50140D01*
X50073Y37518D01*
X50007Y37526D01*
X49955Y37533D01*
X49918D01*
X49888Y37540D01*
X49881D01*
X49747Y37578D01*
X49696Y37592D01*
X49644Y37615D01*
X49607Y37629D01*
X49577Y37644D01*
X49562Y37659D01*
X49555D01*
X49510Y37696D01*
X49481Y37740D01*
X49451Y37785D01*
X49436Y37829D01*
X49429Y37866D01*
X49422Y37896D01*
Y37918D01*
Y37926D01*
X49429Y37977D01*
X49444Y38007D01*
X49466Y38022D01*
X49473Y38029D01*
X49518Y38044D01*
X49570Y38052D01*
X51066D01*
X51073Y38059D01*
X51081Y38066D01*
X51088Y38074D01*
X51095D01*
X51125Y38111D01*
X51132Y38118D01*
X51140Y38140D01*
X51155Y38163D01*
X51162Y38177D01*
X51169Y38185D01*
X51184Y38214D01*
X51192Y38229D01*
Y38244D01*
Y39288D01*
X50125Y39251D01*
X49910D01*
X49866Y39259D01*
X49821D01*
X49755Y39274D01*
X49688Y39281D01*
X49636Y39288D01*
X49621D01*
X49540Y39303D01*
X49473Y39311D01*
X49444D01*
X49422Y39318D01*
X49407D01*
X49333Y39333D01*
X49281Y39340D01*
X49251Y39348D01*
X49244D01*
X49207Y39363D01*
X49162Y39377D01*
X49133Y39392D01*
X49125Y39400D01*
X49073Y39429D01*
X49029Y39459D01*
X48999Y39481D01*
X48992Y39488D01*
X48955Y39533D01*
X48918Y39570D01*
X48903Y39600D01*
X48896Y39607D01*
X48873Y39659D01*
X48866Y39696D01*
X48859Y39725D01*
Y39740D01*
Y39762D01*
X48866Y39777D01*
Y39792D01*
Y39799D01*
X48947Y39807D01*
X49029Y39814D01*
X49096Y39822D01*
X49155D01*
X49207Y39829D01*
X49273D01*
X49399Y39837D01*
X49459Y39844D01*
X49503D01*
X49547Y39851D01*
X49607D01*
X49718Y39859D01*
X49910D01*
X50029Y39866D01*
X50466D01*
X50533Y39874D01*
X50673D01*
X50844Y39881D01*
X50925Y39874D01*
D02*
G37*
G36*
X35082Y39829D02*
X35164Y39822D01*
X35230Y39807D01*
X35290Y39785D01*
X35334Y39762D01*
X35364Y39748D01*
X35386Y39740D01*
X35393Y39733D01*
X35490Y39651D01*
X35564Y39562D01*
X35586Y39525D01*
X35608Y39503D01*
X35616Y39481D01*
X35623Y39474D01*
X35682Y39363D01*
X35727Y39251D01*
X35741Y39207D01*
X35756Y39170D01*
X35764Y39148D01*
Y39140D01*
X35801Y39007D01*
X35823Y38948D01*
X35845Y38896D01*
X35860Y38851D01*
X35867Y38814D01*
X35882Y38792D01*
Y38785D01*
X35978Y38540D01*
X36023Y38429D01*
X36067Y38333D01*
X36104Y38244D01*
X36134Y38177D01*
X36156Y38133D01*
X36164Y38126D01*
Y38118D01*
X36223Y37992D01*
X36282Y37874D01*
X36341Y37755D01*
X36393Y37659D01*
X36438Y37570D01*
X36467Y37503D01*
X36490Y37459D01*
X36497Y37452D01*
Y37444D01*
X36564Y37318D01*
X36623Y37200D01*
X36675Y37081D01*
X36727Y36985D01*
X36771Y36896D01*
X36801Y36829D01*
X36823Y36785D01*
X36830Y36778D01*
Y36770D01*
X36889Y36644D01*
X36949Y36526D01*
X37001Y36407D01*
X37045Y36311D01*
X37082Y36222D01*
X37112Y36163D01*
X37126Y36118D01*
X37134Y36111D01*
Y36104D01*
X37171Y36030D01*
X37208Y35963D01*
X37223Y35933D01*
X37230Y35918D01*
X37245Y35904D01*
Y35896D01*
X37289Y35815D01*
X37334Y35733D01*
X37349Y35704D01*
X37363Y35681D01*
X37371Y35667D01*
Y35659D01*
X37415Y35570D01*
X37445Y35496D01*
X37460Y35459D01*
X37467Y35437D01*
X37475Y35422D01*
Y35415D01*
X37497Y35326D01*
X37512Y35259D01*
X37519Y35230D01*
Y35207D01*
Y35193D01*
Y35185D01*
Y35133D01*
X37512Y35096D01*
X37504Y35067D01*
Y35059D01*
X37497Y35044D01*
X37482Y35030D01*
X37438Y35015D01*
X37401Y35007D01*
X37386D01*
X37304Y35015D01*
X37238Y35022D01*
X37178Y35037D01*
X37126Y35052D01*
X37089Y35067D01*
X37060Y35074D01*
X37045Y35089D01*
X37038D01*
X36956Y35156D01*
X36897Y35230D01*
X36875Y35259D01*
X36860Y35281D01*
X36845Y35296D01*
Y35304D01*
X36801Y35407D01*
X36771Y35504D01*
X36756Y35541D01*
X36749Y35570D01*
X36741Y35593D01*
Y35600D01*
X36712Y35718D01*
X36697Y35778D01*
X36689Y35822D01*
X36675Y35867D01*
X36667Y35896D01*
X36660Y35918D01*
Y35926D01*
X36638Y35985D01*
X36615Y36037D01*
X36608Y36067D01*
X36601Y36081D01*
X36578Y36141D01*
X36556Y36192D01*
X36549Y36222D01*
X36541Y36237D01*
X36512Y36296D01*
X36475Y36370D01*
X36401Y36518D01*
X36371Y36585D01*
X36341Y36644D01*
X36327Y36681D01*
X36319Y36696D01*
X36267Y36822D01*
X36238Y36874D01*
X36215Y36926D01*
X36201Y36970D01*
X36186Y37007D01*
X36171Y37029D01*
Y37037D01*
X36112Y37178D01*
X36082Y37244D01*
X36053Y37303D01*
X36030Y37363D01*
X36015Y37400D01*
X36008Y37429D01*
X36001Y37437D01*
X35504Y38496D01*
X35312Y38674D01*
X35282Y38644D01*
X35253Y38607D01*
X35230Y38585D01*
X35223Y38570D01*
X35179Y38518D01*
X35141Y38459D01*
X35112Y38414D01*
X35104Y38407D01*
Y38400D01*
X35060Y38326D01*
X35023Y38252D01*
X35008Y38222D01*
X34993Y38200D01*
X34986Y38185D01*
Y38177D01*
X34942Y38089D01*
X34904Y38014D01*
X34890Y37985D01*
X34875Y37963D01*
X34867Y37948D01*
Y37940D01*
X34816Y37822D01*
X34793Y37770D01*
X34771Y37718D01*
X34756Y37681D01*
X34742Y37652D01*
X34734Y37629D01*
Y37622D01*
X34690Y37503D01*
X34645Y37407D01*
X34630Y37363D01*
X34616Y37333D01*
X34601Y37311D01*
Y37303D01*
X34579Y37237D01*
X34549Y37163D01*
X34534Y37133D01*
X34527Y37103D01*
X34519Y37089D01*
Y37081D01*
X34475Y36970D01*
X34423Y36859D01*
X34408Y36815D01*
X34393Y36778D01*
X34379Y36748D01*
Y36741D01*
X34349Y36666D01*
X34327Y36607D01*
X34297Y36548D01*
X34282Y36496D01*
X34268Y36459D01*
X34253Y36429D01*
X34245Y36415D01*
Y36407D01*
X34208Y36318D01*
X34179Y36252D01*
X34164Y36215D01*
X34156Y36200D01*
X34134Y36148D01*
X34112Y36104D01*
X34105Y36067D01*
X34097Y36059D01*
Y36052D01*
X34075Y35992D01*
X34053Y35941D01*
X34045Y35904D01*
X34038Y35896D01*
Y35889D01*
X34016Y35822D01*
X34001Y35770D01*
X33986Y35733D01*
Y35726D01*
Y35718D01*
X33964Y35659D01*
X33949Y35607D01*
X33934Y35570D01*
Y35563D01*
Y35556D01*
X33897Y35444D01*
X33882Y35393D01*
X33868Y35348D01*
X33853Y35311D01*
X33845Y35281D01*
X33838Y35267D01*
Y35259D01*
X33801Y35170D01*
X33771Y35111D01*
X33749Y35081D01*
X33742Y35067D01*
X33690D01*
X33668Y35059D01*
X33556D01*
X33468Y35067D01*
X33394Y35081D01*
X33327Y35096D01*
X33275Y35126D01*
X33231Y35148D01*
X33201Y35163D01*
X33186Y35178D01*
X33179Y35185D01*
X33134Y35237D01*
X33105Y35296D01*
X33075Y35356D01*
X33060Y35415D01*
X33053Y35467D01*
X33045Y35511D01*
Y35541D01*
Y35548D01*
Y35585D01*
X33053Y35630D01*
X33068Y35726D01*
X33075Y35770D01*
X33082Y35807D01*
X33090Y35830D01*
Y35837D01*
X33119Y35985D01*
X33142Y36052D01*
X33157Y36118D01*
X33171Y36170D01*
X33179Y36207D01*
X33194Y36237D01*
Y36244D01*
X33238Y36392D01*
X33260Y36459D01*
X33282Y36518D01*
X33305Y36563D01*
X33319Y36600D01*
X33327Y36622D01*
X33334Y36629D01*
X33364Y36689D01*
X33386Y36733D01*
X33416Y36770D01*
X33438Y36792D01*
X33460Y36815D01*
X33475Y36822D01*
X33482Y36829D01*
X33490D01*
X33497Y36866D01*
X33512Y36904D01*
X33519Y36933D01*
X33527Y36948D01*
X33542Y37015D01*
X33564Y37074D01*
X33571Y37118D01*
X33579Y37126D01*
Y37133D01*
X33601Y37207D01*
X33616Y37266D01*
X33631Y37303D01*
X33638Y37318D01*
X33660Y37378D01*
X33668Y37415D01*
X33682Y37437D01*
Y37444D01*
X33697Y37466D01*
X33712Y37503D01*
X33734Y37533D01*
X33742Y37548D01*
X33779Y37622D01*
X33808Y37681D01*
X33838Y37733D01*
X33845Y37740D01*
Y37748D01*
X33882Y37822D01*
X33912Y37881D01*
X33934Y37918D01*
X33942Y37933D01*
X33971Y37992D01*
X33986Y38029D01*
X33993Y38044D01*
Y38052D01*
X34031Y38133D01*
X34075Y38222D01*
X34090Y38259D01*
X34097Y38289D01*
X34112Y38311D01*
Y38318D01*
X34156Y38451D01*
X34179Y38511D01*
X34201Y38570D01*
X34216Y38622D01*
X34230Y38659D01*
X34245Y38681D01*
Y38689D01*
X34305Y38837D01*
X34327Y38903D01*
X34356Y38970D01*
X34379Y39022D01*
X34393Y39059D01*
X34401Y39088D01*
X34408Y39096D01*
X34475Y39244D01*
X34505Y39303D01*
X34534Y39363D01*
X34556Y39407D01*
X34579Y39437D01*
X34586Y39459D01*
X34593Y39466D01*
X34660Y39577D01*
X34690Y39622D01*
X34719Y39659D01*
X34749Y39688D01*
X34771Y39718D01*
X34779Y39725D01*
X34786Y39733D01*
X34823Y39770D01*
X34860Y39792D01*
X34927Y39822D01*
X34979Y39837D01*
X34993D01*
X35082Y39829D01*
D02*
G37*
G36*
X47399Y39807D02*
X47437Y39799D01*
X47459D01*
X47474Y39792D01*
X47481D01*
X47577Y39770D01*
X47659Y39748D01*
X47688Y39733D01*
X47711Y39725D01*
X47725Y39718D01*
X47733D01*
X47814Y39674D01*
X47881Y39629D01*
X47925Y39592D01*
X47933Y39585D01*
X47940Y39577D01*
X47970Y39548D01*
X47985Y39511D01*
X48014Y39444D01*
Y39414D01*
X48022Y39392D01*
Y39377D01*
Y39370D01*
Y39348D01*
Y39340D01*
Y39333D01*
X48014Y39311D01*
Y39303D01*
X47977Y39296D01*
X47962Y39288D01*
X47955D01*
X47918Y39281D01*
X47888Y39274D01*
X47866Y39266D01*
X47859D01*
X47822Y39259D01*
X47792D01*
X47770Y39251D01*
X47762D01*
X47733Y39244D01*
X46570D01*
X46511Y39237D01*
X46459Y39229D01*
X46414Y39222D01*
X46377Y39214D01*
X46355Y39200D01*
X46333Y39192D01*
X46318Y39185D01*
X46266Y39140D01*
X46229Y39096D01*
X46214Y39059D01*
X46207Y39051D01*
Y39044D01*
X46192Y38977D01*
X46185Y38911D01*
Y38888D01*
Y38866D01*
Y38851D01*
Y38844D01*
X46192Y38755D01*
Y38666D01*
Y38629D01*
Y38600D01*
Y38585D01*
Y38577D01*
Y38296D01*
X46200Y38022D01*
X46207Y37763D01*
Y37644D01*
Y37533D01*
X46214Y37429D01*
Y37340D01*
X46222Y37259D01*
Y37192D01*
X46229Y37133D01*
Y37096D01*
Y37066D01*
Y37059D01*
X46237Y36778D01*
X46244Y36511D01*
X46251Y36252D01*
Y36133D01*
Y36022D01*
X46259Y35918D01*
Y35830D01*
Y35748D01*
Y35681D01*
Y35622D01*
Y35585D01*
Y35556D01*
Y35548D01*
Y35133D01*
X46244Y35096D01*
X46222Y35074D01*
X46185Y35037D01*
X46155Y35022D01*
X46140Y35015D01*
X46074Y35007D01*
X46022Y35000D01*
X45903D01*
X45844Y35015D01*
X45800Y35022D01*
X45755Y35037D01*
X45726Y35052D01*
X45703Y35059D01*
X45689Y35074D01*
X45681D01*
X45614Y35133D01*
X45563Y35200D01*
X45548Y35230D01*
X45533Y35252D01*
X45526Y35267D01*
Y35274D01*
X45496Y35370D01*
X45474Y35459D01*
X45466Y35496D01*
X45459Y35526D01*
Y35541D01*
Y35548D01*
X45452Y35659D01*
X45444Y35748D01*
X45437Y35785D01*
Y35815D01*
Y35830D01*
Y35837D01*
X45377Y37570D01*
Y37607D01*
Y37652D01*
Y37681D01*
Y37696D01*
Y37763D01*
Y37829D01*
Y37874D01*
Y37881D01*
Y37889D01*
X45370Y37970D01*
Y38052D01*
Y38081D01*
Y38103D01*
Y38118D01*
Y38126D01*
Y38222D01*
Y38296D01*
Y38333D01*
Y38355D01*
Y38370D01*
Y38377D01*
Y38474D01*
Y38563D01*
Y38644D01*
Y38718D01*
X45377Y38777D01*
Y38822D01*
Y38851D01*
Y38859D01*
Y38940D01*
Y39007D01*
Y39059D01*
Y39103D01*
Y39140D01*
Y39163D01*
Y39170D01*
Y39177D01*
X45311Y39274D01*
X43489D01*
X43481Y39281D01*
X43467Y39288D01*
X43459Y39296D01*
X43452Y39303D01*
X43400Y39355D01*
X43385Y39377D01*
X43378Y39385D01*
X43348Y39422D01*
X43318Y39451D01*
X43304Y39474D01*
X43296Y39481D01*
X43274Y39518D01*
X43259Y39540D01*
X43244Y39555D01*
Y39562D01*
Y39577D01*
Y39592D01*
X43237Y39622D01*
Y39629D01*
X43244Y39659D01*
X43252Y39681D01*
X43267Y39696D01*
X43274Y39703D01*
X43333Y39748D01*
X43355Y39755D01*
X43363Y39762D01*
X43400Y39785D01*
X43437Y39792D01*
X43467Y39799D01*
X43474D01*
X43511Y39807D01*
X43533Y39814D01*
X47333D01*
X47399Y39807D01*
D02*
G37*
D51*
X63750Y31250D02*
Y34750D01*
X60250D02*
X63750D01*
X21250Y31250D02*
Y34750D01*
X24750D01*
X63750Y70250D02*
Y73750D01*
X60250D02*
X63750D01*
X21250Y70250D02*
Y73750D01*
X24750D01*
M02*
