G04*
G04 #@! TF.GenerationSoftware,Altium Limited,Altium Designer,21.3.2 (30)*
G04*
G04 Layer_Color=128*
%FSLAX43Y43*%
%MOMM*%
G71*
G04*
G04 #@! TF.SameCoordinates,034B25BC-4B64-4F1D-819B-79BBDF65C54F*
G04*
G04*
G04 #@! TF.FilePolarity,Positive*
G04*
G01*
G75*
%ADD103C,0.051*%
D103*
X3500Y51500D02*
X4500D01*
X4000Y51000D02*
Y52000D01*
X3500Y50250D02*
X4500D01*
X4000Y49750D02*
Y50750D01*
X3500Y52750D02*
X4500D01*
X4000Y52250D02*
Y53250D01*
X3500Y54000D02*
X4500D01*
X4000Y53500D02*
Y54500D01*
X3500Y70000D02*
X4500D01*
X4000Y69500D02*
Y70500D01*
X3500Y71250D02*
X4500D01*
X4000Y70750D02*
Y71750D01*
X3500Y73750D02*
X4500D01*
X4000Y73250D02*
Y74250D01*
X3500Y72500D02*
X4500D01*
X4000Y72000D02*
Y73000D01*
X80500Y12500D02*
X81500D01*
X81000Y12000D02*
Y13000D01*
X80500Y11250D02*
X81500D01*
X81000Y10750D02*
Y11750D01*
X80500Y13750D02*
X81500D01*
X81000Y13250D02*
Y14250D01*
X80500Y15000D02*
X81500D01*
X81000Y14500D02*
Y15500D01*
X80500Y31000D02*
X81500D01*
X81000Y30500D02*
Y31500D01*
X80500Y32250D02*
X81500D01*
X81000Y31750D02*
Y32750D01*
X80500Y34750D02*
X81500D01*
X81000Y34250D02*
Y35250D01*
X80500Y33500D02*
X81500D01*
X81000Y33000D02*
Y34000D01*
X80500Y51500D02*
X81500D01*
X81000Y51000D02*
Y52000D01*
X80500Y50250D02*
X81500D01*
X81000Y49750D02*
Y50750D01*
X80500Y52750D02*
X81500D01*
X81000Y52250D02*
Y53250D01*
X80500Y54000D02*
X81500D01*
X81000Y53500D02*
Y54500D01*
X80500Y70000D02*
X81500D01*
X81000Y69500D02*
Y70500D01*
X80500Y71250D02*
X81500D01*
X81000Y70750D02*
Y71750D01*
X80500Y73750D02*
X81500D01*
X81000Y73250D02*
Y74250D01*
X80500Y72500D02*
X81500D01*
X81000Y72000D02*
Y73000D01*
X3500Y33500D02*
X4500D01*
X4000Y33000D02*
Y34000D01*
X3500Y34750D02*
X4500D01*
X4000Y34250D02*
Y35250D01*
X3500Y32250D02*
X4500D01*
X4000Y31750D02*
Y32750D01*
X3500Y31000D02*
X4500D01*
X4000Y30500D02*
Y31500D01*
X3500Y15000D02*
X4500D01*
X4000Y14500D02*
Y15500D01*
X3500Y13750D02*
X4500D01*
X4000Y13250D02*
Y14250D01*
X3500Y11250D02*
X4500D01*
X4000Y10750D02*
Y11750D01*
X3500Y12500D02*
X4500D01*
X4000Y12000D02*
Y13000D01*
X81000Y82500D02*
X84000D01*
X82500Y81000D02*
Y84000D01*
X81000Y2500D02*
X84000D01*
X82500Y1000D02*
Y4000D01*
X1000Y2500D02*
X4000D01*
X2500Y1000D02*
Y4000D01*
X1000Y82500D02*
X4000D01*
X2500Y81000D02*
Y84000D01*
X74075Y18700D02*
X74725D01*
X74400Y18375D02*
Y19025D01*
X74575Y20110D02*
X75225D01*
X74900Y19785D02*
Y20435D01*
X74575Y25890D02*
X75225D01*
X74900Y25565D02*
Y26215D01*
X74075Y27300D02*
X74725D01*
X74400Y26975D02*
Y27625D01*
X78225Y27300D02*
X78875D01*
X78550Y26975D02*
Y27625D01*
X78225Y18700D02*
X78875D01*
X78550Y18375D02*
Y19025D01*
X6900Y9000D02*
X10100D01*
X8500Y7400D02*
Y10600D01*
X6900Y37000D02*
X10100D01*
X8500Y35400D02*
Y38600D01*
X74900Y9000D02*
X78100D01*
X76500Y7400D02*
Y10600D01*
X66670Y15000D02*
X67570D01*
X67120Y14550D02*
Y15450D01*
X69210Y15000D02*
X70110D01*
X69660Y14550D02*
Y15450D01*
X71750Y15000D02*
X72650D01*
X72200Y14550D02*
Y15450D01*
X74290Y15000D02*
X75190D01*
X74740Y14550D02*
Y15450D01*
X74900Y37000D02*
X78100D01*
X76500Y35400D02*
Y38600D01*
X53900Y25500D02*
X54100D01*
X54000Y25400D02*
Y25600D01*
X52400Y27000D02*
X52600D01*
X52500Y26900D02*
Y27100D01*
X57100Y31500D02*
X57300D01*
X57200Y31400D02*
Y31600D01*
X62900Y27700D02*
X63100D01*
X63000Y27600D02*
Y27800D01*
X62500Y27700D02*
X62700D01*
X62600Y27600D02*
Y27800D01*
X62100Y27700D02*
X62300D01*
X62200Y27600D02*
Y27800D01*
X62900Y27300D02*
X63100D01*
X63000Y27200D02*
Y27400D01*
X62100Y27300D02*
X62300D01*
X62200Y27200D02*
Y27400D01*
X62500Y27300D02*
X62700D01*
X62600Y27200D02*
Y27400D01*
X62900Y26900D02*
X63100D01*
X63000Y26800D02*
Y27000D01*
X62500Y26900D02*
X62700D01*
X62600Y26800D02*
Y27000D01*
X62100Y26900D02*
X62300D01*
X62200Y26800D02*
Y27000D01*
X63200Y25300D02*
X63400D01*
X63300Y25200D02*
Y25400D01*
X63600Y24900D02*
X63800D01*
X63700Y24800D02*
Y25000D01*
X64000Y25300D02*
X64200D01*
X64100Y25200D02*
Y25400D01*
X64000Y24900D02*
X64200D01*
X64100Y24800D02*
Y25000D01*
X63200Y24900D02*
X63400D01*
X63300Y24800D02*
Y25000D01*
X63600Y25300D02*
X63800D01*
X63700Y25200D02*
Y25400D01*
X62100Y17800D02*
X62300D01*
X62200Y17700D02*
Y17900D01*
X62700Y17800D02*
X62900D01*
X62800Y17700D02*
Y17900D01*
X63300Y17800D02*
X63500D01*
X63400Y17700D02*
Y17900D01*
Y10800D02*
X63600D01*
X63500Y10700D02*
Y10900D01*
X64900Y10800D02*
X65100D01*
X65000Y10700D02*
Y10900D01*
X64900Y13600D02*
X65100D01*
X65000Y13500D02*
Y13700D01*
X64900Y13000D02*
X65100D01*
X65000Y12900D02*
Y13100D01*
X64900Y12400D02*
X65100D01*
X65000Y12300D02*
Y12500D01*
X63400Y12600D02*
X63600D01*
X63500Y12500D02*
Y12700D01*
X63400Y12000D02*
X63600D01*
X63500Y11900D02*
Y12100D01*
X63400Y11400D02*
X63600D01*
X63500Y11300D02*
Y11500D01*
X63400Y14400D02*
X63600D01*
X63500Y14300D02*
Y14500D01*
X63400Y13800D02*
X63600D01*
X63500Y13700D02*
Y13900D01*
X63400Y13200D02*
X63600D01*
X63500Y13100D02*
Y13300D01*
X59300Y14900D02*
X59500D01*
X59400Y14800D02*
Y15000D01*
X58500Y13900D02*
X58700D01*
X58600Y13800D02*
Y14000D01*
X59100Y13700D02*
X59300D01*
X59200Y13600D02*
Y13800D01*
X58000Y14200D02*
X58200D01*
X58100Y14100D02*
Y14300D01*
X64900Y16200D02*
X65100D01*
X65000Y16100D02*
Y16300D01*
X64900Y15600D02*
X65100D01*
X65000Y15500D02*
Y15700D01*
X64900Y15000D02*
X65100D01*
X65000Y14900D02*
Y15100D01*
X63400Y15000D02*
X63600D01*
X63500Y14900D02*
Y15100D01*
X63400Y15600D02*
X63600D01*
X63500Y15500D02*
Y15700D01*
X63400Y16200D02*
X63600D01*
X63500Y16100D02*
Y16300D01*
X62500Y16200D02*
X62700D01*
X62600Y16100D02*
Y16300D01*
X61900Y16200D02*
X62100D01*
X62000Y16100D02*
Y16300D01*
X61300Y16200D02*
X61500D01*
X61400Y16100D02*
Y16300D01*
X31700Y11100D02*
X31900D01*
X31800Y11000D02*
Y11200D01*
X60100Y10700D02*
X60300D01*
X60200Y10600D02*
Y10800D01*
X37100Y15600D02*
X37300D01*
X37200Y15500D02*
Y15700D01*
X31700Y8900D02*
X31900D01*
X31800Y8800D02*
Y9000D01*
X62900Y31100D02*
X63100D01*
X63000Y31000D02*
Y31200D01*
X61600Y20700D02*
X61800D01*
X61700Y20600D02*
Y20800D01*
X64500Y22100D02*
X64700D01*
X64600Y22000D02*
Y22200D01*
X66000Y17000D02*
X66200D01*
X66100Y16900D02*
Y17100D01*
X65600Y21800D02*
X65800D01*
X65700Y21700D02*
Y21900D01*
X61800Y24000D02*
X62000D01*
X61900Y23900D02*
Y24100D01*
X23300Y15200D02*
X23500D01*
X23400Y15100D02*
Y15300D01*
X20600Y27000D02*
X20800D01*
X20700Y26900D02*
Y27100D01*
X67700Y29600D02*
X67900D01*
X67800Y29500D02*
Y29700D01*
X52700Y37800D02*
X52900D01*
X52800Y37700D02*
Y37900D01*
X38500Y36000D02*
X38700D01*
X38600Y35900D02*
Y36100D01*
X65500Y11700D02*
X65700D01*
X65600Y11600D02*
Y11800D01*
X52200Y21300D02*
X52400D01*
X52300Y21200D02*
Y21400D01*
X66000Y24200D02*
X66200D01*
X66100Y24100D02*
Y24300D01*
X60100Y20300D02*
X60300D01*
X60200Y20200D02*
Y20400D01*
X65242Y22922D02*
X65442D01*
X65342Y22822D02*
Y23022D01*
X7600Y19600D02*
X7800D01*
X7700Y19500D02*
Y19700D01*
X7600Y20000D02*
X7800D01*
X7700Y19900D02*
Y20100D01*
X7600Y19200D02*
X7800D01*
X7700Y19100D02*
Y19300D01*
X7600Y18800D02*
X7800D01*
X7700Y18700D02*
Y18900D01*
X7600Y21200D02*
X7800D01*
X7700Y21100D02*
Y21300D01*
X7600Y21600D02*
X7800D01*
X7700Y21500D02*
Y21700D01*
X7600Y20800D02*
X7800D01*
X7700Y20700D02*
Y20900D01*
X7600Y20400D02*
X7800D01*
X7700Y20300D02*
Y20500D01*
X7600Y22000D02*
X7800D01*
X7700Y21900D02*
Y22100D01*
X46400Y30200D02*
X46600D01*
X46500Y30100D02*
Y30300D01*
X56800Y28600D02*
X57000D01*
X56900Y28500D02*
Y28700D01*
X72700Y8800D02*
X72900D01*
X72800Y8700D02*
Y8900D01*
X71200Y7500D02*
X71400D01*
X71300Y7400D02*
Y7600D01*
X34800Y35300D02*
X35000D01*
X34900Y35200D02*
Y35400D01*
X59400Y36300D02*
X59600D01*
X59500Y36200D02*
Y36400D01*
X70400Y8400D02*
X70600D01*
X70500Y8300D02*
Y8500D01*
X15800Y9400D02*
X16000D01*
X15900Y9300D02*
Y9500D01*
X15800Y8600D02*
X16000D01*
X15900Y8500D02*
Y8700D01*
X14400Y9000D02*
X14600D01*
X14500Y8900D02*
Y9100D01*
X15800Y37400D02*
X16000D01*
X15900Y37300D02*
Y37500D01*
X15800Y36600D02*
X16000D01*
X15900Y36500D02*
Y36700D01*
X14400Y37000D02*
X14600D01*
X14500Y36900D02*
Y37100D01*
X70400Y37000D02*
X70600D01*
X70500Y36900D02*
Y37100D01*
X71800Y36600D02*
X72000D01*
X71900Y36500D02*
Y36700D01*
X71800Y37400D02*
X72000D01*
X71900Y37300D02*
Y37500D01*
X57200Y13000D02*
X57400D01*
X57300Y12900D02*
Y13100D01*
X55858Y18600D02*
X56163D01*
X56011Y18448D02*
Y18753D01*
X56958Y18600D02*
X57263D01*
X57111Y18448D02*
Y18753D01*
X58058Y18600D02*
X58363D01*
X58211Y18448D02*
Y18753D01*
X55858Y17500D02*
X56163D01*
X56011Y17348D02*
Y17653D01*
X56958Y17500D02*
X57263D01*
X57111Y17348D02*
Y17653D01*
X58058Y17500D02*
X58363D01*
X58211Y17348D02*
Y17653D01*
X55858Y16400D02*
X56163D01*
X56011Y16248D02*
Y16553D01*
X56958Y16400D02*
X57263D01*
X57111Y16248D02*
Y16553D01*
X58058Y16400D02*
X58363D01*
X58211Y16248D02*
Y16553D01*
X57879Y21000D02*
X58079D01*
X57979Y20900D02*
Y21100D01*
X57400Y20700D02*
X57600D01*
X57500Y20600D02*
Y20800D01*
X56700Y14200D02*
X56900D01*
X56800Y14100D02*
Y14300D01*
X57200Y13700D02*
X57400D01*
X57300Y13600D02*
Y13800D01*
X60300Y17700D02*
X60500D01*
X60400Y17600D02*
Y17800D01*
X56782Y20675D02*
X56982D01*
X56882Y20575D02*
Y20775D01*
X54500Y15300D02*
X54700D01*
X54600Y15200D02*
Y15400D01*
X54100Y16100D02*
X54300D01*
X54200Y16000D02*
Y16200D01*
X60900Y12500D02*
X61100D01*
X61000Y12400D02*
Y12600D01*
X19800Y12500D02*
X20000D01*
X19900Y12400D02*
Y12600D01*
X56100Y12900D02*
X56300D01*
X56200Y12800D02*
Y13000D01*
X52975Y14945D02*
X53175D01*
X53075Y14845D02*
Y15045D01*
X52900Y14400D02*
X53100D01*
X53000Y14300D02*
Y14500D01*
X64300Y20700D02*
X64500D01*
X64400Y20600D02*
Y20800D01*
X64000Y18100D02*
X64200D01*
X64100Y18000D02*
Y18200D01*
X72200Y22700D02*
X72400D01*
X72300Y22600D02*
Y22800D01*
X72200Y23400D02*
X72400D01*
X72300Y23300D02*
Y23500D01*
X65100Y20600D02*
X65300D01*
X65200Y20500D02*
Y20700D01*
X55400Y14200D02*
X55600D01*
X55500Y14100D02*
Y14300D01*
X65100Y18600D02*
X65300D01*
X65200Y18500D02*
Y18700D01*
X56100Y14200D02*
X56300D01*
X56200Y14100D02*
Y14300D01*
X58500Y21600D02*
X58700D01*
X58600Y21500D02*
Y21700D01*
X53400Y23300D02*
X53600D01*
X53500Y23200D02*
Y23400D01*
X52100Y23670D02*
X52300D01*
X52200Y23570D02*
Y23770D01*
X54500Y21300D02*
X54700D01*
X54600Y21200D02*
Y21400D01*
X55675Y30825D02*
X55875D01*
X55775Y30725D02*
Y30925D01*
X55175Y30525D02*
X55375D01*
X55275Y30425D02*
Y30625D01*
X54300Y30400D02*
X54500D01*
X54400Y30300D02*
Y30500D01*
X53400Y13200D02*
X53600D01*
X53500Y13100D02*
Y13300D01*
X58100Y13000D02*
X58300D01*
X58200Y12900D02*
Y13100D01*
X59000Y13000D02*
X59200D01*
X59100Y12900D02*
Y13100D01*
X57200Y22900D02*
X57400D01*
X57300Y22800D02*
Y23000D01*
X55000Y32500D02*
X55200D01*
X55100Y32400D02*
Y32600D01*
X56800Y28000D02*
X57000D01*
X56900Y27900D02*
Y28100D01*
X55000Y29800D02*
X55200D01*
X55100Y29700D02*
Y29900D01*
X53800Y29800D02*
X54000D01*
X53900Y29700D02*
Y29900D01*
X58500Y30100D02*
X58700D01*
X58600Y30000D02*
Y30200D01*
X58500Y30500D02*
X58700D01*
X58600Y30400D02*
Y30600D01*
X53000Y26300D02*
X53200D01*
X53100Y26200D02*
Y26400D01*
X38900Y35500D02*
X39100D01*
X39000Y35400D02*
Y35600D01*
X28000Y11600D02*
X28200D01*
X28100Y11500D02*
Y11700D01*
X41000Y33100D02*
X41200D01*
X41100Y33000D02*
Y33200D01*
X41000Y30400D02*
X41200D01*
X41100Y30300D02*
Y30500D01*
X47600Y33100D02*
X47800D01*
X47700Y33000D02*
Y33200D01*
X43100Y31000D02*
X43300D01*
X43200Y30900D02*
Y31100D01*
X42600Y33200D02*
X42800D01*
X42700Y33100D02*
Y33300D01*
X71400Y34000D02*
X71600D01*
X71500Y33900D02*
Y34100D01*
X71400Y33600D02*
X71600D01*
X71500Y33500D02*
Y33700D01*
X69800Y34000D02*
X70000D01*
X69900Y33900D02*
Y34100D01*
X69800Y33600D02*
X70000D01*
X69900Y33500D02*
Y33700D01*
X71800Y33200D02*
X72000D01*
X71900Y33100D02*
Y33300D01*
X71400Y33200D02*
X71600D01*
X71500Y33100D02*
Y33300D01*
X72600Y33200D02*
X72800D01*
X72700Y33100D02*
Y33300D01*
X72200Y33200D02*
X72400D01*
X72300Y33100D02*
Y33300D01*
X70200Y33200D02*
X70400D01*
X70300Y33100D02*
Y33300D01*
X69800Y33200D02*
X70000D01*
X69900Y33100D02*
Y33300D01*
X71000Y33200D02*
X71200D01*
X71100Y33100D02*
Y33300D01*
X70600Y33200D02*
X70800D01*
X70700Y33100D02*
Y33300D01*
X64300Y27800D02*
X64500D01*
X64400Y27700D02*
Y27900D01*
X64300Y28200D02*
X64500D01*
X64400Y28100D02*
Y28300D01*
X64300Y27000D02*
X64500D01*
X64400Y26900D02*
Y27100D01*
X64300Y27400D02*
X64500D01*
X64400Y27300D02*
Y27500D01*
X63900Y27800D02*
X64100D01*
X64000Y27700D02*
Y27900D01*
X63900Y28200D02*
X64100D01*
X64000Y28100D02*
Y28300D01*
X63900Y27000D02*
X64100D01*
X64000Y26900D02*
Y27100D01*
X63900Y27400D02*
X64100D01*
X64000Y27300D02*
Y27500D01*
X69300Y31100D02*
X69500D01*
X69400Y31000D02*
Y31200D01*
X66400Y27600D02*
X66600D01*
X66500Y27500D02*
Y27700D01*
X65200Y27600D02*
X65400D01*
X65300Y27500D02*
Y27700D01*
X68600Y25600D02*
X68800D01*
X68700Y25500D02*
Y25700D01*
X67000Y24800D02*
X67200D01*
X67100Y24700D02*
Y24900D01*
X53400Y10400D02*
X53600D01*
X53500Y10300D02*
Y10500D01*
X54806Y10381D02*
X55006D01*
X54906Y10281D02*
Y10481D01*
X56100Y10400D02*
X56300D01*
X56200Y10300D02*
Y10500D01*
X57200Y11370D02*
X57400D01*
X57300Y11270D02*
Y11470D01*
X59000Y11370D02*
X59200D01*
X59100Y11270D02*
Y11470D01*
X58100Y11370D02*
X58300D01*
X58200Y11270D02*
Y11470D01*
X62330Y18500D02*
X62530D01*
X62430Y18400D02*
Y18600D01*
X61500Y17760D02*
X61700D01*
X61600Y17660D02*
Y17860D01*
X60700Y22930D02*
X60900D01*
X60800Y22830D02*
Y23030D01*
X53100Y22830D02*
X53300D01*
X53200Y22730D02*
Y22930D01*
X48545Y17400D02*
X48745D01*
X48645Y17300D02*
Y17500D01*
X48545Y20200D02*
X48745D01*
X48645Y20100D02*
Y20300D01*
X58100Y22900D02*
X58300D01*
X58200Y22800D02*
Y23000D01*
X55000Y35800D02*
X55200D01*
X55100Y35700D02*
Y35900D01*
X36400Y30700D02*
X36600D01*
X36500Y30600D02*
Y30800D01*
X45600D02*
X45800D01*
X45700Y30700D02*
Y30900D01*
X44900Y33100D02*
X45100D01*
X45000Y33000D02*
Y33200D01*
X48300Y30900D02*
X48500D01*
X48400Y30800D02*
Y31000D01*
X47100Y30900D02*
X47300D01*
X47200Y30800D02*
Y31000D01*
Y35400D02*
X47400D01*
X47300Y35300D02*
Y35500D01*
X46100Y36300D02*
X46300D01*
X46200Y36200D02*
Y36400D01*
X31300Y21800D02*
X31500D01*
X31400Y21700D02*
Y21900D01*
X31300Y22200D02*
X31500D01*
X31400Y22100D02*
Y22300D01*
X31300Y21000D02*
X31500D01*
X31400Y20900D02*
Y21100D01*
X31300Y21400D02*
X31500D01*
X31400Y21300D02*
Y21500D01*
X31300Y23000D02*
X31500D01*
X31400Y22900D02*
Y23100D01*
X31300Y22600D02*
X31500D01*
X31400Y22500D02*
Y22700D01*
X31300Y23400D02*
X31500D01*
X31400Y23300D02*
Y23500D01*
X29700Y24600D02*
X29900D01*
X29800Y24500D02*
Y24700D01*
X30100Y24600D02*
X30300D01*
X30200Y24500D02*
Y24700D01*
X28900Y24600D02*
X29100D01*
X29000Y24500D02*
Y24700D01*
X29300Y24600D02*
X29500D01*
X29400Y24500D02*
Y24700D01*
X29700Y25000D02*
X29900D01*
X29800Y24900D02*
Y25100D01*
X30100Y25000D02*
X30300D01*
X30200Y24900D02*
Y25100D01*
X28900Y25000D02*
X29100D01*
X29000Y24900D02*
Y25100D01*
X29300Y25000D02*
X29500D01*
X29400Y24900D02*
Y25100D01*
X30900Y24600D02*
X31100D01*
X31000Y24500D02*
Y24700D01*
X30500Y24600D02*
X30700D01*
X30600Y24500D02*
Y24700D01*
X31300Y24600D02*
X31500D01*
X31400Y24500D02*
Y24700D01*
X30900Y25000D02*
X31100D01*
X31000Y24900D02*
Y25100D01*
X30500Y25000D02*
X30700D01*
X30600Y24900D02*
Y25100D01*
X31300Y25000D02*
X31500D01*
X31400Y24900D02*
Y25100D01*
X29700Y23800D02*
X29900D01*
X29800Y23700D02*
Y23900D01*
X30100Y23800D02*
X30300D01*
X30200Y23700D02*
Y23900D01*
X28900Y23800D02*
X29100D01*
X29000Y23700D02*
Y23900D01*
X29300Y23800D02*
X29500D01*
X29400Y23700D02*
Y23900D01*
X29700Y24200D02*
X29900D01*
X29800Y24100D02*
Y24300D01*
X30100Y24200D02*
X30300D01*
X30200Y24100D02*
Y24300D01*
X28900Y24200D02*
X29100D01*
X29000Y24100D02*
Y24300D01*
X29300Y24200D02*
X29500D01*
X29400Y24100D02*
Y24300D01*
X30900Y23800D02*
X31100D01*
X31000Y23700D02*
Y23900D01*
X30500Y23800D02*
X30700D01*
X30600Y23700D02*
Y23900D01*
X31300Y23800D02*
X31500D01*
X31400Y23700D02*
Y23900D01*
X30900Y24200D02*
X31100D01*
X31000Y24100D02*
Y24300D01*
X30500Y24200D02*
X30700D01*
X30600Y24100D02*
Y24300D01*
X31300Y24200D02*
X31500D01*
X31400Y24100D02*
Y24300D01*
X30500Y22600D02*
X30700D01*
X30600Y22500D02*
Y22700D01*
X30500Y22200D02*
X30700D01*
X30600Y22100D02*
Y22300D01*
X30500Y23400D02*
X30700D01*
X30600Y23300D02*
Y23500D01*
X30500Y23000D02*
X30700D01*
X30600Y22900D02*
Y23100D01*
X30900Y22600D02*
X31100D01*
X31000Y22500D02*
Y22700D01*
X30900Y22200D02*
X31100D01*
X31000Y22100D02*
Y22300D01*
X30900Y23400D02*
X31100D01*
X31000Y23300D02*
Y23500D01*
X30900Y23000D02*
X31100D01*
X31000Y22900D02*
Y23100D01*
X30500Y21400D02*
X30700D01*
X30600Y21300D02*
Y21500D01*
X30500Y21800D02*
X30700D01*
X30600Y21700D02*
Y21900D01*
X30500Y21000D02*
X30700D01*
X30600Y20900D02*
Y21100D01*
X30900Y21400D02*
X31100D01*
X31000Y21300D02*
Y21500D01*
X30900Y21800D02*
X31100D01*
X31000Y21700D02*
Y21900D01*
X30900Y21000D02*
X31100D01*
X31000Y20900D02*
Y21100D01*
X29700Y22600D02*
X29900D01*
X29800Y22500D02*
Y22700D01*
X29700Y22200D02*
X29900D01*
X29800Y22100D02*
Y22300D01*
X29700Y23400D02*
X29900D01*
X29800Y23300D02*
Y23500D01*
X29700Y23000D02*
X29900D01*
X29800Y22900D02*
Y23100D01*
X30100Y22600D02*
X30300D01*
X30200Y22500D02*
Y22700D01*
X30100Y22200D02*
X30300D01*
X30200Y22100D02*
Y22300D01*
X30100Y23400D02*
X30300D01*
X30200Y23300D02*
Y23500D01*
X30100Y23000D02*
X30300D01*
X30200Y22900D02*
Y23100D01*
X29700Y21400D02*
X29900D01*
X29800Y21300D02*
Y21500D01*
X29700Y21800D02*
X29900D01*
X29800Y21700D02*
Y21900D01*
X29700Y21000D02*
X29900D01*
X29800Y20900D02*
Y21100D01*
X30100Y21400D02*
X30300D01*
X30200Y21300D02*
Y21500D01*
X30100Y21800D02*
X30300D01*
X30200Y21700D02*
Y21900D01*
X30100Y21000D02*
X30300D01*
X30200Y20900D02*
Y21100D01*
X28900Y22600D02*
X29100D01*
X29000Y22500D02*
Y22700D01*
X28900Y22200D02*
X29100D01*
X29000Y22100D02*
Y22300D01*
X28900Y23400D02*
X29100D01*
X29000Y23300D02*
Y23500D01*
X28900Y23000D02*
X29100D01*
X29000Y22900D02*
Y23100D01*
X29300Y22600D02*
X29500D01*
X29400Y22500D02*
Y22700D01*
X29300Y22200D02*
X29500D01*
X29400Y22100D02*
Y22300D01*
X29300Y23400D02*
X29500D01*
X29400Y23300D02*
Y23500D01*
X29300Y23000D02*
X29500D01*
X29400Y22900D02*
Y23100D01*
X28900Y21400D02*
X29100D01*
X29000Y21300D02*
Y21500D01*
X28900Y21800D02*
X29100D01*
X29000Y21700D02*
Y21900D01*
X28900Y21000D02*
X29100D01*
X29000Y20900D02*
Y21100D01*
X29300Y21400D02*
X29500D01*
X29400Y21300D02*
Y21500D01*
X29300Y21800D02*
X29500D01*
X29400Y21700D02*
Y21900D01*
X29300Y21000D02*
X29500D01*
X29400Y20900D02*
Y21100D01*
X72200Y26000D02*
X72400D01*
X72300Y25900D02*
Y26100D01*
X72200Y25600D02*
X72400D01*
X72300Y25500D02*
Y25700D01*
X72200Y26800D02*
X72400D01*
X72300Y26700D02*
Y26900D01*
X72200Y26400D02*
X72400D01*
X72300Y26300D02*
Y26500D01*
X72200Y27600D02*
X72400D01*
X72300Y27500D02*
Y27700D01*
X72200Y27200D02*
X72400D01*
X72300Y27100D02*
Y27300D01*
X72200Y28400D02*
X72400D01*
X72300Y28300D02*
Y28500D01*
X72200Y28000D02*
X72400D01*
X72300Y27900D02*
Y28100D01*
X71800Y26000D02*
X72000D01*
X71900Y25900D02*
Y26100D01*
X71800Y25600D02*
X72000D01*
X71900Y25500D02*
Y25700D01*
X71800Y26800D02*
X72000D01*
X71900Y26700D02*
Y26900D01*
X71800Y26400D02*
X72000D01*
X71900Y26300D02*
Y26500D01*
X71400Y26000D02*
X71600D01*
X71500Y25900D02*
Y26100D01*
X71400Y25600D02*
X71600D01*
X71500Y25500D02*
Y25700D01*
X71400Y26800D02*
X71600D01*
X71500Y26700D02*
Y26900D01*
X71400Y26400D02*
X71600D01*
X71500Y26300D02*
Y26500D01*
X71800Y27600D02*
X72000D01*
X71900Y27500D02*
Y27700D01*
X71800Y27200D02*
X72000D01*
X71900Y27100D02*
Y27300D01*
X71800Y28400D02*
X72000D01*
X71900Y28300D02*
Y28500D01*
X71800Y28000D02*
X72000D01*
X71900Y27900D02*
Y28100D01*
X71400Y27600D02*
X71600D01*
X71500Y27500D02*
Y27700D01*
X71400Y27200D02*
X71600D01*
X71500Y27100D02*
Y27300D01*
X71400Y28400D02*
X71600D01*
X71500Y28300D02*
Y28500D01*
X71400Y28000D02*
X71600D01*
X71500Y27900D02*
Y28100D01*
X70400Y28000D02*
X70600D01*
X70500Y27900D02*
Y28100D01*
X70800Y29100D02*
X71000D01*
X70900Y29000D02*
Y29200D01*
X70800Y29900D02*
X71000D01*
X70900Y29800D02*
Y30000D01*
X70800Y29500D02*
X71000D01*
X70900Y29400D02*
Y29600D01*
X70400Y29100D02*
X70600D01*
X70500Y29000D02*
Y29200D01*
X70400Y29900D02*
X70600D01*
X70500Y29800D02*
Y30000D01*
X70400Y29500D02*
X70600D01*
X70500Y29400D02*
Y29600D01*
X71600Y31500D02*
X71800D01*
X71700Y31400D02*
Y31600D01*
X71200Y31500D02*
X71400D01*
X71300Y31400D02*
Y31600D01*
X72000Y31500D02*
X72200D01*
X72100Y31400D02*
Y31600D01*
X70800Y31100D02*
X71000D01*
X70900Y31000D02*
Y31200D01*
X70800Y31500D02*
X71000D01*
X70900Y31400D02*
Y31600D01*
X70800Y30300D02*
X71000D01*
X70900Y30200D02*
Y30400D01*
X70800Y30700D02*
X71000D01*
X70900Y30600D02*
Y30800D01*
X70400Y31100D02*
X70600D01*
X70500Y31000D02*
Y31200D01*
X70400Y31500D02*
X70600D01*
X70500Y31400D02*
Y31600D01*
X70400Y30300D02*
X70600D01*
X70500Y30200D02*
Y30400D01*
X70400Y30700D02*
X70600D01*
X70500Y30600D02*
Y30800D01*
X72800Y28000D02*
X73000D01*
X72900Y27900D02*
Y28100D01*
X72800Y28800D02*
X73000D01*
X72900Y28700D02*
Y28900D01*
X73200Y30400D02*
X73400D01*
X73300Y30300D02*
Y30500D01*
X73600Y29600D02*
X73800D01*
X73700Y29500D02*
Y29700D01*
X72800Y28400D02*
X73000D01*
X72900Y28300D02*
Y28500D01*
X73600Y29200D02*
X73800D01*
X73700Y29100D02*
Y29300D01*
X73200Y29200D02*
X73400D01*
X73300Y29100D02*
Y29300D01*
X72800Y29600D02*
X73000D01*
X72900Y29500D02*
Y29700D01*
X73200Y30000D02*
X73400D01*
X73300Y29900D02*
Y30100D01*
X73600Y30400D02*
X73800D01*
X73700Y30300D02*
Y30500D01*
X73600Y30000D02*
X73800D01*
X73700Y29900D02*
Y30100D01*
X72800Y27200D02*
X73000D01*
X72900Y27100D02*
Y27300D01*
X73200Y29600D02*
X73400D01*
X73300Y29500D02*
Y29700D01*
X72800Y30400D02*
X73000D01*
X72900Y30300D02*
Y30500D01*
X72800Y29200D02*
X73000D01*
X72900Y29100D02*
Y29300D01*
X72800Y26800D02*
X73000D01*
X72900Y26700D02*
Y26900D01*
X72800Y30000D02*
X73000D01*
X72900Y29900D02*
Y30100D01*
X72800Y27600D02*
X73000D01*
X72900Y27500D02*
Y27700D01*
X18400Y9300D02*
X18600D01*
X18500Y9200D02*
Y9400D01*
X21800Y11300D02*
X22000D01*
X21900Y11200D02*
Y11400D01*
X31800Y14900D02*
X32000D01*
X31900Y14800D02*
Y15000D01*
X21300Y12900D02*
X21500D01*
X21400Y12800D02*
Y13000D01*
X19500Y16900D02*
X19700D01*
X19600Y16800D02*
Y17000D01*
X27600Y14300D02*
X27800D01*
X27700Y14200D02*
Y14400D01*
X28000Y12500D02*
X28200D01*
X28100Y12400D02*
Y12600D01*
X30900Y14900D02*
X31100D01*
X31000Y14800D02*
Y15000D01*
X28200Y16600D02*
X28400D01*
X28300Y16500D02*
Y16700D01*
X6800Y22000D02*
X7000D01*
X6900Y21900D02*
Y22100D01*
X7200Y22000D02*
X7400D01*
X7300Y21900D02*
Y22100D01*
X6400Y22000D02*
X6600D01*
X6500Y21900D02*
Y22100D01*
X7200Y20400D02*
X7400D01*
X7300Y20300D02*
Y20500D01*
X7200Y20800D02*
X7400D01*
X7300Y20700D02*
Y20900D01*
X7200Y21600D02*
X7400D01*
X7300Y21500D02*
Y21700D01*
X7200Y21200D02*
X7400D01*
X7300Y21100D02*
Y21300D01*
X6800Y20400D02*
X7000D01*
X6900Y20300D02*
Y20500D01*
X6800Y20800D02*
X7000D01*
X6900Y20700D02*
Y20900D01*
X6800Y21600D02*
X7000D01*
X6900Y21500D02*
Y21700D01*
X6800Y21200D02*
X7000D01*
X6900Y21100D02*
Y21300D01*
X6400Y20400D02*
X6600D01*
X6500Y20300D02*
Y20500D01*
X6400Y20800D02*
X6600D01*
X6500Y20700D02*
Y20900D01*
X6400Y21600D02*
X6600D01*
X6500Y21500D02*
Y21700D01*
X6400Y21200D02*
X6600D01*
X6500Y21100D02*
Y21300D01*
X7200Y18800D02*
X7400D01*
X7300Y18700D02*
Y18900D01*
X7200Y19200D02*
X7400D01*
X7300Y19100D02*
Y19300D01*
X7200Y20000D02*
X7400D01*
X7300Y19900D02*
Y20100D01*
X7200Y19600D02*
X7400D01*
X7300Y19500D02*
Y19700D01*
X6800Y18800D02*
X7000D01*
X6900Y18700D02*
Y18900D01*
X6800Y19200D02*
X7000D01*
X6900Y19100D02*
Y19300D01*
X6800Y20000D02*
X7000D01*
X6900Y19900D02*
Y20100D01*
X6800Y19600D02*
X7000D01*
X6900Y19500D02*
Y19700D01*
X6400Y18800D02*
X6600D01*
X6500Y18700D02*
Y18900D01*
X6400Y19200D02*
X6600D01*
X6500Y19100D02*
Y19300D01*
X6400Y20000D02*
X6600D01*
X6500Y19900D02*
Y20100D01*
X6400Y19600D02*
X6600D01*
X6500Y19500D02*
Y19700D01*
X70400Y27200D02*
X70600D01*
X70500Y27100D02*
Y27300D01*
X70400Y27600D02*
X70600D01*
X70500Y27500D02*
Y27700D01*
X70800Y28000D02*
X71000D01*
X70900Y27900D02*
Y28100D01*
X70800Y27200D02*
X71000D01*
X70900Y27100D02*
Y27300D01*
X70800Y27600D02*
X71000D01*
X70900Y27500D02*
Y27700D01*
X70000Y25400D02*
X70200D01*
X70100Y25300D02*
Y25500D01*
X70400Y25400D02*
X70600D01*
X70500Y25300D02*
Y25500D01*
X70400Y26200D02*
X70600D01*
X70500Y26100D02*
Y26300D01*
X70400Y25800D02*
X70600D01*
X70500Y25700D02*
Y25900D01*
X70800Y25400D02*
X71000D01*
X70900Y25300D02*
Y25500D01*
X70800Y26200D02*
X71000D01*
X70900Y26100D02*
Y26300D01*
X70800Y25800D02*
X71000D01*
X70900Y25700D02*
Y25900D01*
X72600Y19100D02*
X72800D01*
X72700Y19000D02*
Y19200D01*
X72600Y18700D02*
X72800D01*
X72700Y18600D02*
Y18800D01*
X71000Y18700D02*
X71200D01*
X71100Y18600D02*
Y18800D01*
X70600Y18700D02*
X70800D01*
X70700Y18600D02*
Y18800D01*
X71400Y18700D02*
X71600D01*
X71500Y18600D02*
Y18800D01*
X72200Y18700D02*
X72400D01*
X72300Y18600D02*
Y18800D01*
X71800Y18700D02*
X72000D01*
X71900Y18600D02*
Y18800D01*
X71000Y19900D02*
X71200D01*
X71100Y19800D02*
Y20000D01*
X70600Y19900D02*
X70800D01*
X70700Y19800D02*
Y20000D01*
X71400Y19900D02*
X71600D01*
X71500Y19800D02*
Y20000D01*
X71400Y19100D02*
X71600D01*
X71500Y19000D02*
Y19200D01*
X71400Y19500D02*
X71600D01*
X71500Y19400D02*
Y19600D01*
X71800Y19900D02*
X72000D01*
X71900Y19800D02*
Y20000D01*
X71800Y19100D02*
X72000D01*
X71900Y19000D02*
Y19200D01*
X71800Y19500D02*
X72000D01*
X71900Y19400D02*
Y19600D01*
X72200Y19900D02*
X72400D01*
X72300Y19800D02*
Y20000D01*
X72200Y19100D02*
X72400D01*
X72300Y19000D02*
Y19200D01*
X72200Y19500D02*
X72400D01*
X72300Y19400D02*
Y19600D01*
X73200Y28800D02*
X73400D01*
X73300Y28700D02*
Y28900D01*
X73200Y28400D02*
X73400D01*
X73300Y28300D02*
Y28500D01*
X69700Y23400D02*
X69900D01*
X69800Y23300D02*
Y23500D01*
X67000Y23000D02*
X67200D01*
X67100Y22900D02*
Y23100D01*
X67000Y23500D02*
X67200D01*
X67100Y23400D02*
Y23600D01*
X67000Y22500D02*
X67200D01*
X67100Y22400D02*
Y22600D01*
X67500Y23000D02*
X67700D01*
X67600Y22900D02*
Y23100D01*
X66500Y23000D02*
X66700D01*
X66600Y22900D02*
Y23100D01*
X20700Y24700D02*
X20900D01*
X20800Y24600D02*
Y24800D01*
X54600Y27600D02*
X54800D01*
X54700Y27500D02*
Y27700D01*
X54600Y28100D02*
X54800D01*
X54700Y28000D02*
Y28200D01*
X55100Y28100D02*
X55300D01*
X55200Y28000D02*
Y28200D01*
X55100Y27600D02*
X55300D01*
X55200Y27500D02*
Y27700D01*
X55100Y27100D02*
X55300D01*
X55200Y27000D02*
Y27200D01*
X54600Y27100D02*
X54800D01*
X54700Y27000D02*
Y27200D01*
X54100Y27100D02*
X54300D01*
X54200Y27000D02*
Y27200D01*
X54100Y27600D02*
X54300D01*
X54200Y27500D02*
Y27700D01*
X54100Y28100D02*
X54300D01*
X54200Y28000D02*
Y28200D01*
X74075Y57700D02*
X74725D01*
X74400Y57375D02*
Y58025D01*
X74575Y59110D02*
X75225D01*
X74900Y58785D02*
Y59435D01*
X74575Y64890D02*
X75225D01*
X74900Y64565D02*
Y65215D01*
X74075Y66300D02*
X74725D01*
X74400Y65975D02*
Y66625D01*
X78225Y66300D02*
X78875D01*
X78550Y65975D02*
Y66625D01*
X78225Y57700D02*
X78875D01*
X78550Y57375D02*
Y58025D01*
X6900Y48000D02*
X10100D01*
X8500Y46400D02*
Y49600D01*
X6900Y76000D02*
X10100D01*
X8500Y74400D02*
Y77600D01*
X74900Y48000D02*
X78100D01*
X76500Y46400D02*
Y49600D01*
X66670Y54000D02*
X67570D01*
X67120Y53550D02*
Y54450D01*
X69210Y54000D02*
X70110D01*
X69660Y53550D02*
Y54450D01*
X71750Y54000D02*
X72650D01*
X72200Y53550D02*
Y54450D01*
X74290Y54000D02*
X75190D01*
X74740Y53550D02*
Y54450D01*
X74900Y76000D02*
X78100D01*
X76500Y74400D02*
Y77600D01*
X53900Y64500D02*
X54100D01*
X54000Y64400D02*
Y64600D01*
X52400Y66000D02*
X52600D01*
X52500Y65900D02*
Y66100D01*
X57100Y70500D02*
X57300D01*
X57200Y70400D02*
Y70600D01*
X62900Y66700D02*
X63100D01*
X63000Y66600D02*
Y66800D01*
X62500Y66700D02*
X62700D01*
X62600Y66600D02*
Y66800D01*
X62100Y66700D02*
X62300D01*
X62200Y66600D02*
Y66800D01*
X62900Y66300D02*
X63100D01*
X63000Y66200D02*
Y66400D01*
X62100Y66300D02*
X62300D01*
X62200Y66200D02*
Y66400D01*
X62500Y66300D02*
X62700D01*
X62600Y66200D02*
Y66400D01*
X62900Y65900D02*
X63100D01*
X63000Y65800D02*
Y66000D01*
X62500Y65900D02*
X62700D01*
X62600Y65800D02*
Y66000D01*
X62100Y65900D02*
X62300D01*
X62200Y65800D02*
Y66000D01*
X63200Y64300D02*
X63400D01*
X63300Y64200D02*
Y64400D01*
X63600Y63900D02*
X63800D01*
X63700Y63800D02*
Y64000D01*
X64000Y64300D02*
X64200D01*
X64100Y64200D02*
Y64400D01*
X64000Y63900D02*
X64200D01*
X64100Y63800D02*
Y64000D01*
X63200Y63900D02*
X63400D01*
X63300Y63800D02*
Y64000D01*
X63600Y64300D02*
X63800D01*
X63700Y64200D02*
Y64400D01*
X62100Y56800D02*
X62300D01*
X62200Y56700D02*
Y56900D01*
X62700Y56800D02*
X62900D01*
X62800Y56700D02*
Y56900D01*
X63300Y56800D02*
X63500D01*
X63400Y56700D02*
Y56900D01*
Y49800D02*
X63600D01*
X63500Y49700D02*
Y49900D01*
X64900Y49800D02*
X65100D01*
X65000Y49700D02*
Y49900D01*
X64900Y52600D02*
X65100D01*
X65000Y52500D02*
Y52700D01*
X64900Y52000D02*
X65100D01*
X65000Y51900D02*
Y52100D01*
X64900Y51400D02*
X65100D01*
X65000Y51300D02*
Y51500D01*
X63400Y51600D02*
X63600D01*
X63500Y51500D02*
Y51700D01*
X63400Y51000D02*
X63600D01*
X63500Y50900D02*
Y51100D01*
X63400Y50400D02*
X63600D01*
X63500Y50300D02*
Y50500D01*
X63400Y53400D02*
X63600D01*
X63500Y53300D02*
Y53500D01*
X63400Y52800D02*
X63600D01*
X63500Y52700D02*
Y52900D01*
X63400Y52200D02*
X63600D01*
X63500Y52100D02*
Y52300D01*
X59300Y53900D02*
X59500D01*
X59400Y53800D02*
Y54000D01*
X58500Y52900D02*
X58700D01*
X58600Y52800D02*
Y53000D01*
X59100Y52700D02*
X59300D01*
X59200Y52600D02*
Y52800D01*
X58000Y53200D02*
X58200D01*
X58100Y53100D02*
Y53300D01*
X64900Y55200D02*
X65100D01*
X65000Y55100D02*
Y55300D01*
X64900Y54600D02*
X65100D01*
X65000Y54500D02*
Y54700D01*
X64900Y54000D02*
X65100D01*
X65000Y53900D02*
Y54100D01*
X63400Y54000D02*
X63600D01*
X63500Y53900D02*
Y54100D01*
X63400Y54600D02*
X63600D01*
X63500Y54500D02*
Y54700D01*
X63400Y55200D02*
X63600D01*
X63500Y55100D02*
Y55300D01*
X62500Y55200D02*
X62700D01*
X62600Y55100D02*
Y55300D01*
X61900Y55200D02*
X62100D01*
X62000Y55100D02*
Y55300D01*
X61300Y55200D02*
X61500D01*
X61400Y55100D02*
Y55300D01*
X31700Y50100D02*
X31900D01*
X31800Y50000D02*
Y50200D01*
X60100Y49700D02*
X60300D01*
X60200Y49600D02*
Y49800D01*
X37100Y54600D02*
X37300D01*
X37200Y54500D02*
Y54700D01*
X31700Y47900D02*
X31900D01*
X31800Y47800D02*
Y48000D01*
X62900Y70100D02*
X63100D01*
X63000Y70000D02*
Y70200D01*
X61600Y59700D02*
X61800D01*
X61700Y59600D02*
Y59800D01*
X64500Y61100D02*
X64700D01*
X64600Y61000D02*
Y61200D01*
X66000Y56000D02*
X66200D01*
X66100Y55900D02*
Y56100D01*
X65600Y60800D02*
X65800D01*
X65700Y60700D02*
Y60900D01*
X61800Y63000D02*
X62000D01*
X61900Y62900D02*
Y63100D01*
X23300Y54200D02*
X23500D01*
X23400Y54100D02*
Y54300D01*
X20600Y66000D02*
X20800D01*
X20700Y65900D02*
Y66100D01*
X67700Y68600D02*
X67900D01*
X67800Y68500D02*
Y68700D01*
X52700Y76800D02*
X52900D01*
X52800Y76700D02*
Y76900D01*
X38500Y75000D02*
X38700D01*
X38600Y74900D02*
Y75100D01*
X65500Y50700D02*
X65700D01*
X65600Y50600D02*
Y50800D01*
X52200Y60300D02*
X52400D01*
X52300Y60200D02*
Y60400D01*
X66000Y63200D02*
X66200D01*
X66100Y63100D02*
Y63300D01*
X60100Y59300D02*
X60300D01*
X60200Y59200D02*
Y59400D01*
X65242Y61922D02*
X65442D01*
X65342Y61822D02*
Y62022D01*
X7600Y58600D02*
X7800D01*
X7700Y58500D02*
Y58700D01*
X7600Y59000D02*
X7800D01*
X7700Y58900D02*
Y59100D01*
X7600Y58200D02*
X7800D01*
X7700Y58100D02*
Y58300D01*
X7600Y57800D02*
X7800D01*
X7700Y57700D02*
Y57900D01*
X7600Y60200D02*
X7800D01*
X7700Y60100D02*
Y60300D01*
X7600Y60600D02*
X7800D01*
X7700Y60500D02*
Y60700D01*
X7600Y59800D02*
X7800D01*
X7700Y59700D02*
Y59900D01*
X7600Y59400D02*
X7800D01*
X7700Y59300D02*
Y59500D01*
X7600Y61000D02*
X7800D01*
X7700Y60900D02*
Y61100D01*
X46400Y69200D02*
X46600D01*
X46500Y69100D02*
Y69300D01*
X56800Y67600D02*
X57000D01*
X56900Y67500D02*
Y67700D01*
X72700Y47800D02*
X72900D01*
X72800Y47700D02*
Y47900D01*
X71200Y46500D02*
X71400D01*
X71300Y46400D02*
Y46600D01*
X34800Y74300D02*
X35000D01*
X34900Y74200D02*
Y74400D01*
X59400Y75300D02*
X59600D01*
X59500Y75200D02*
Y75400D01*
X70400Y47400D02*
X70600D01*
X70500Y47300D02*
Y47500D01*
X15800Y48400D02*
X16000D01*
X15900Y48300D02*
Y48500D01*
X15800Y47600D02*
X16000D01*
X15900Y47500D02*
Y47700D01*
X14400Y48000D02*
X14600D01*
X14500Y47900D02*
Y48100D01*
X15800Y76400D02*
X16000D01*
X15900Y76300D02*
Y76500D01*
X15800Y75600D02*
X16000D01*
X15900Y75500D02*
Y75700D01*
X14400Y76000D02*
X14600D01*
X14500Y75900D02*
Y76100D01*
X70400Y76000D02*
X70600D01*
X70500Y75900D02*
Y76100D01*
X71800Y75600D02*
X72000D01*
X71900Y75500D02*
Y75700D01*
X71800Y76400D02*
X72000D01*
X71900Y76300D02*
Y76500D01*
X57200Y52000D02*
X57400D01*
X57300Y51900D02*
Y52100D01*
X55858Y57600D02*
X56163D01*
X56011Y57448D02*
Y57753D01*
X56958Y57600D02*
X57263D01*
X57111Y57448D02*
Y57753D01*
X58058Y57600D02*
X58363D01*
X58211Y57448D02*
Y57753D01*
X55858Y56500D02*
X56163D01*
X56011Y56348D02*
Y56653D01*
X56958Y56500D02*
X57263D01*
X57111Y56348D02*
Y56653D01*
X58058Y56500D02*
X58363D01*
X58211Y56348D02*
Y56653D01*
X55858Y55400D02*
X56163D01*
X56011Y55248D02*
Y55553D01*
X56958Y55400D02*
X57263D01*
X57111Y55248D02*
Y55553D01*
X58058Y55400D02*
X58363D01*
X58211Y55248D02*
Y55553D01*
X57879Y60000D02*
X58079D01*
X57979Y59900D02*
Y60100D01*
X57400Y59700D02*
X57600D01*
X57500Y59600D02*
Y59800D01*
X56700Y53200D02*
X56900D01*
X56800Y53100D02*
Y53300D01*
X57200Y52700D02*
X57400D01*
X57300Y52600D02*
Y52800D01*
X60300Y56700D02*
X60500D01*
X60400Y56600D02*
Y56800D01*
X56782Y59675D02*
X56982D01*
X56882Y59575D02*
Y59775D01*
X54500Y54300D02*
X54700D01*
X54600Y54200D02*
Y54400D01*
X54100Y55100D02*
X54300D01*
X54200Y55000D02*
Y55200D01*
X60900Y51500D02*
X61100D01*
X61000Y51400D02*
Y51600D01*
X19800Y51500D02*
X20000D01*
X19900Y51400D02*
Y51600D01*
X56100Y51900D02*
X56300D01*
X56200Y51800D02*
Y52000D01*
X52975Y53945D02*
X53175D01*
X53075Y53845D02*
Y54045D01*
X52900Y53400D02*
X53100D01*
X53000Y53300D02*
Y53500D01*
X64300Y59700D02*
X64500D01*
X64400Y59600D02*
Y59800D01*
X64000Y57100D02*
X64200D01*
X64100Y57000D02*
Y57200D01*
X72200Y61700D02*
X72400D01*
X72300Y61600D02*
Y61800D01*
X72200Y62400D02*
X72400D01*
X72300Y62300D02*
Y62500D01*
X65100Y59600D02*
X65300D01*
X65200Y59500D02*
Y59700D01*
X55400Y53200D02*
X55600D01*
X55500Y53100D02*
Y53300D01*
X65100Y57600D02*
X65300D01*
X65200Y57500D02*
Y57700D01*
X56100Y53200D02*
X56300D01*
X56200Y53100D02*
Y53300D01*
X58500Y60600D02*
X58700D01*
X58600Y60500D02*
Y60700D01*
X53400Y62300D02*
X53600D01*
X53500Y62200D02*
Y62400D01*
X52100Y62670D02*
X52300D01*
X52200Y62570D02*
Y62770D01*
X54500Y60300D02*
X54700D01*
X54600Y60200D02*
Y60400D01*
X55675Y69825D02*
X55875D01*
X55775Y69725D02*
Y69925D01*
X55175Y69525D02*
X55375D01*
X55275Y69425D02*
Y69625D01*
X54300Y69400D02*
X54500D01*
X54400Y69300D02*
Y69500D01*
X53400Y52200D02*
X53600D01*
X53500Y52100D02*
Y52300D01*
X58100Y52000D02*
X58300D01*
X58200Y51900D02*
Y52100D01*
X59000Y52000D02*
X59200D01*
X59100Y51900D02*
Y52100D01*
X57200Y61900D02*
X57400D01*
X57300Y61800D02*
Y62000D01*
X55000Y71500D02*
X55200D01*
X55100Y71400D02*
Y71600D01*
X56800Y67000D02*
X57000D01*
X56900Y66900D02*
Y67100D01*
X55000Y68800D02*
X55200D01*
X55100Y68700D02*
Y68900D01*
X53800Y68800D02*
X54000D01*
X53900Y68700D02*
Y68900D01*
X58500Y69100D02*
X58700D01*
X58600Y69000D02*
Y69200D01*
X58500Y69500D02*
X58700D01*
X58600Y69400D02*
Y69600D01*
X53000Y65300D02*
X53200D01*
X53100Y65200D02*
Y65400D01*
X38900Y74500D02*
X39100D01*
X39000Y74400D02*
Y74600D01*
X28000Y50600D02*
X28200D01*
X28100Y50500D02*
Y50700D01*
X41000Y72100D02*
X41200D01*
X41100Y72000D02*
Y72200D01*
X41000Y69400D02*
X41200D01*
X41100Y69300D02*
Y69500D01*
X47600Y72100D02*
X47800D01*
X47700Y72000D02*
Y72200D01*
X43100Y70000D02*
X43300D01*
X43200Y69900D02*
Y70100D01*
X42600Y72200D02*
X42800D01*
X42700Y72100D02*
Y72300D01*
X71400Y73000D02*
X71600D01*
X71500Y72900D02*
Y73100D01*
X71400Y72600D02*
X71600D01*
X71500Y72500D02*
Y72700D01*
X69800Y73000D02*
X70000D01*
X69900Y72900D02*
Y73100D01*
X69800Y72600D02*
X70000D01*
X69900Y72500D02*
Y72700D01*
X71800Y72200D02*
X72000D01*
X71900Y72100D02*
Y72300D01*
X71400Y72200D02*
X71600D01*
X71500Y72100D02*
Y72300D01*
X72600Y72200D02*
X72800D01*
X72700Y72100D02*
Y72300D01*
X72200Y72200D02*
X72400D01*
X72300Y72100D02*
Y72300D01*
X70200Y72200D02*
X70400D01*
X70300Y72100D02*
Y72300D01*
X69800Y72200D02*
X70000D01*
X69900Y72100D02*
Y72300D01*
X71000Y72200D02*
X71200D01*
X71100Y72100D02*
Y72300D01*
X70600Y72200D02*
X70800D01*
X70700Y72100D02*
Y72300D01*
X64300Y66800D02*
X64500D01*
X64400Y66700D02*
Y66900D01*
X64300Y67200D02*
X64500D01*
X64400Y67100D02*
Y67300D01*
X64300Y66000D02*
X64500D01*
X64400Y65900D02*
Y66100D01*
X64300Y66400D02*
X64500D01*
X64400Y66300D02*
Y66500D01*
X63900Y66800D02*
X64100D01*
X64000Y66700D02*
Y66900D01*
X63900Y67200D02*
X64100D01*
X64000Y67100D02*
Y67300D01*
X63900Y66000D02*
X64100D01*
X64000Y65900D02*
Y66100D01*
X63900Y66400D02*
X64100D01*
X64000Y66300D02*
Y66500D01*
X69300Y70100D02*
X69500D01*
X69400Y70000D02*
Y70200D01*
X66400Y66600D02*
X66600D01*
X66500Y66500D02*
Y66700D01*
X65200Y66600D02*
X65400D01*
X65300Y66500D02*
Y66700D01*
X68600Y64600D02*
X68800D01*
X68700Y64500D02*
Y64700D01*
X67000Y63800D02*
X67200D01*
X67100Y63700D02*
Y63900D01*
X53400Y49400D02*
X53600D01*
X53500Y49300D02*
Y49500D01*
X54806Y49381D02*
X55006D01*
X54906Y49281D02*
Y49481D01*
X56100Y49400D02*
X56300D01*
X56200Y49300D02*
Y49500D01*
X57200Y50370D02*
X57400D01*
X57300Y50270D02*
Y50470D01*
X59000Y50370D02*
X59200D01*
X59100Y50270D02*
Y50470D01*
X58100Y50370D02*
X58300D01*
X58200Y50270D02*
Y50470D01*
X62330Y57500D02*
X62530D01*
X62430Y57400D02*
Y57600D01*
X61500Y56760D02*
X61700D01*
X61600Y56660D02*
Y56860D01*
X60700Y61930D02*
X60900D01*
X60800Y61830D02*
Y62030D01*
X53100Y61830D02*
X53300D01*
X53200Y61730D02*
Y61930D01*
X48545Y56400D02*
X48745D01*
X48645Y56300D02*
Y56500D01*
X48545Y59200D02*
X48745D01*
X48645Y59100D02*
Y59300D01*
X58100Y61900D02*
X58300D01*
X58200Y61800D02*
Y62000D01*
X55000Y74800D02*
X55200D01*
X55100Y74700D02*
Y74900D01*
X36400Y69700D02*
X36600D01*
X36500Y69600D02*
Y69800D01*
X45600D02*
X45800D01*
X45700Y69700D02*
Y69900D01*
X44900Y72100D02*
X45100D01*
X45000Y72000D02*
Y72200D01*
X48300Y69900D02*
X48500D01*
X48400Y69800D02*
Y70000D01*
X47100Y69900D02*
X47300D01*
X47200Y69800D02*
Y70000D01*
Y74400D02*
X47400D01*
X47300Y74300D02*
Y74500D01*
X46100Y75300D02*
X46300D01*
X46200Y75200D02*
Y75400D01*
X31300Y60800D02*
X31500D01*
X31400Y60700D02*
Y60900D01*
X31300Y61200D02*
X31500D01*
X31400Y61100D02*
Y61300D01*
X31300Y60000D02*
X31500D01*
X31400Y59900D02*
Y60100D01*
X31300Y60400D02*
X31500D01*
X31400Y60300D02*
Y60500D01*
X31300Y62000D02*
X31500D01*
X31400Y61900D02*
Y62100D01*
X31300Y61600D02*
X31500D01*
X31400Y61500D02*
Y61700D01*
X31300Y62400D02*
X31500D01*
X31400Y62300D02*
Y62500D01*
X29700Y63600D02*
X29900D01*
X29800Y63500D02*
Y63700D01*
X30100Y63600D02*
X30300D01*
X30200Y63500D02*
Y63700D01*
X28900Y63600D02*
X29100D01*
X29000Y63500D02*
Y63700D01*
X29300Y63600D02*
X29500D01*
X29400Y63500D02*
Y63700D01*
X29700Y64000D02*
X29900D01*
X29800Y63900D02*
Y64100D01*
X30100Y64000D02*
X30300D01*
X30200Y63900D02*
Y64100D01*
X28900Y64000D02*
X29100D01*
X29000Y63900D02*
Y64100D01*
X29300Y64000D02*
X29500D01*
X29400Y63900D02*
Y64100D01*
X30900Y63600D02*
X31100D01*
X31000Y63500D02*
Y63700D01*
X30500Y63600D02*
X30700D01*
X30600Y63500D02*
Y63700D01*
X31300Y63600D02*
X31500D01*
X31400Y63500D02*
Y63700D01*
X30900Y64000D02*
X31100D01*
X31000Y63900D02*
Y64100D01*
X30500Y64000D02*
X30700D01*
X30600Y63900D02*
Y64100D01*
X31300Y64000D02*
X31500D01*
X31400Y63900D02*
Y64100D01*
X29700Y62800D02*
X29900D01*
X29800Y62700D02*
Y62900D01*
X30100Y62800D02*
X30300D01*
X30200Y62700D02*
Y62900D01*
X28900Y62800D02*
X29100D01*
X29000Y62700D02*
Y62900D01*
X29300Y62800D02*
X29500D01*
X29400Y62700D02*
Y62900D01*
X29700Y63200D02*
X29900D01*
X29800Y63100D02*
Y63300D01*
X30100Y63200D02*
X30300D01*
X30200Y63100D02*
Y63300D01*
X28900Y63200D02*
X29100D01*
X29000Y63100D02*
Y63300D01*
X29300Y63200D02*
X29500D01*
X29400Y63100D02*
Y63300D01*
X30900Y62800D02*
X31100D01*
X31000Y62700D02*
Y62900D01*
X30500Y62800D02*
X30700D01*
X30600Y62700D02*
Y62900D01*
X31300Y62800D02*
X31500D01*
X31400Y62700D02*
Y62900D01*
X30900Y63200D02*
X31100D01*
X31000Y63100D02*
Y63300D01*
X30500Y63200D02*
X30700D01*
X30600Y63100D02*
Y63300D01*
X31300Y63200D02*
X31500D01*
X31400Y63100D02*
Y63300D01*
X30500Y61600D02*
X30700D01*
X30600Y61500D02*
Y61700D01*
X30500Y61200D02*
X30700D01*
X30600Y61100D02*
Y61300D01*
X30500Y62400D02*
X30700D01*
X30600Y62300D02*
Y62500D01*
X30500Y62000D02*
X30700D01*
X30600Y61900D02*
Y62100D01*
X30900Y61600D02*
X31100D01*
X31000Y61500D02*
Y61700D01*
X30900Y61200D02*
X31100D01*
X31000Y61100D02*
Y61300D01*
X30900Y62400D02*
X31100D01*
X31000Y62300D02*
Y62500D01*
X30900Y62000D02*
X31100D01*
X31000Y61900D02*
Y62100D01*
X30500Y60400D02*
X30700D01*
X30600Y60300D02*
Y60500D01*
X30500Y60800D02*
X30700D01*
X30600Y60700D02*
Y60900D01*
X30500Y60000D02*
X30700D01*
X30600Y59900D02*
Y60100D01*
X30900Y60400D02*
X31100D01*
X31000Y60300D02*
Y60500D01*
X30900Y60800D02*
X31100D01*
X31000Y60700D02*
Y60900D01*
X30900Y60000D02*
X31100D01*
X31000Y59900D02*
Y60100D01*
X29700Y61600D02*
X29900D01*
X29800Y61500D02*
Y61700D01*
X29700Y61200D02*
X29900D01*
X29800Y61100D02*
Y61300D01*
X29700Y62400D02*
X29900D01*
X29800Y62300D02*
Y62500D01*
X29700Y62000D02*
X29900D01*
X29800Y61900D02*
Y62100D01*
X30100Y61600D02*
X30300D01*
X30200Y61500D02*
Y61700D01*
X30100Y61200D02*
X30300D01*
X30200Y61100D02*
Y61300D01*
X30100Y62400D02*
X30300D01*
X30200Y62300D02*
Y62500D01*
X30100Y62000D02*
X30300D01*
X30200Y61900D02*
Y62100D01*
X29700Y60400D02*
X29900D01*
X29800Y60300D02*
Y60500D01*
X29700Y60800D02*
X29900D01*
X29800Y60700D02*
Y60900D01*
X29700Y60000D02*
X29900D01*
X29800Y59900D02*
Y60100D01*
X30100Y60400D02*
X30300D01*
X30200Y60300D02*
Y60500D01*
X30100Y60800D02*
X30300D01*
X30200Y60700D02*
Y60900D01*
X30100Y60000D02*
X30300D01*
X30200Y59900D02*
Y60100D01*
X28900Y61600D02*
X29100D01*
X29000Y61500D02*
Y61700D01*
X28900Y61200D02*
X29100D01*
X29000Y61100D02*
Y61300D01*
X28900Y62400D02*
X29100D01*
X29000Y62300D02*
Y62500D01*
X28900Y62000D02*
X29100D01*
X29000Y61900D02*
Y62100D01*
X29300Y61600D02*
X29500D01*
X29400Y61500D02*
Y61700D01*
X29300Y61200D02*
X29500D01*
X29400Y61100D02*
Y61300D01*
X29300Y62400D02*
X29500D01*
X29400Y62300D02*
Y62500D01*
X29300Y62000D02*
X29500D01*
X29400Y61900D02*
Y62100D01*
X28900Y60400D02*
X29100D01*
X29000Y60300D02*
Y60500D01*
X28900Y60800D02*
X29100D01*
X29000Y60700D02*
Y60900D01*
X28900Y60000D02*
X29100D01*
X29000Y59900D02*
Y60100D01*
X29300Y60400D02*
X29500D01*
X29400Y60300D02*
Y60500D01*
X29300Y60800D02*
X29500D01*
X29400Y60700D02*
Y60900D01*
X29300Y60000D02*
X29500D01*
X29400Y59900D02*
Y60100D01*
X72200Y65000D02*
X72400D01*
X72300Y64900D02*
Y65100D01*
X72200Y64600D02*
X72400D01*
X72300Y64500D02*
Y64700D01*
X72200Y65800D02*
X72400D01*
X72300Y65700D02*
Y65900D01*
X72200Y65400D02*
X72400D01*
X72300Y65300D02*
Y65500D01*
X72200Y66600D02*
X72400D01*
X72300Y66500D02*
Y66700D01*
X72200Y66200D02*
X72400D01*
X72300Y66100D02*
Y66300D01*
X72200Y67400D02*
X72400D01*
X72300Y67300D02*
Y67500D01*
X72200Y67000D02*
X72400D01*
X72300Y66900D02*
Y67100D01*
X71800Y65000D02*
X72000D01*
X71900Y64900D02*
Y65100D01*
X71800Y64600D02*
X72000D01*
X71900Y64500D02*
Y64700D01*
X71800Y65800D02*
X72000D01*
X71900Y65700D02*
Y65900D01*
X71800Y65400D02*
X72000D01*
X71900Y65300D02*
Y65500D01*
X71400Y65000D02*
X71600D01*
X71500Y64900D02*
Y65100D01*
X71400Y64600D02*
X71600D01*
X71500Y64500D02*
Y64700D01*
X71400Y65800D02*
X71600D01*
X71500Y65700D02*
Y65900D01*
X71400Y65400D02*
X71600D01*
X71500Y65300D02*
Y65500D01*
X71800Y66600D02*
X72000D01*
X71900Y66500D02*
Y66700D01*
X71800Y66200D02*
X72000D01*
X71900Y66100D02*
Y66300D01*
X71800Y67400D02*
X72000D01*
X71900Y67300D02*
Y67500D01*
X71800Y67000D02*
X72000D01*
X71900Y66900D02*
Y67100D01*
X71400Y66600D02*
X71600D01*
X71500Y66500D02*
Y66700D01*
X71400Y66200D02*
X71600D01*
X71500Y66100D02*
Y66300D01*
X71400Y67400D02*
X71600D01*
X71500Y67300D02*
Y67500D01*
X71400Y67000D02*
X71600D01*
X71500Y66900D02*
Y67100D01*
X70400Y67000D02*
X70600D01*
X70500Y66900D02*
Y67100D01*
X70800Y68100D02*
X71000D01*
X70900Y68000D02*
Y68200D01*
X70800Y68900D02*
X71000D01*
X70900Y68800D02*
Y69000D01*
X70800Y68500D02*
X71000D01*
X70900Y68400D02*
Y68600D01*
X70400Y68100D02*
X70600D01*
X70500Y68000D02*
Y68200D01*
X70400Y68900D02*
X70600D01*
X70500Y68800D02*
Y69000D01*
X70400Y68500D02*
X70600D01*
X70500Y68400D02*
Y68600D01*
X71600Y70500D02*
X71800D01*
X71700Y70400D02*
Y70600D01*
X71200Y70500D02*
X71400D01*
X71300Y70400D02*
Y70600D01*
X72000Y70500D02*
X72200D01*
X72100Y70400D02*
Y70600D01*
X70800Y70100D02*
X71000D01*
X70900Y70000D02*
Y70200D01*
X70800Y70500D02*
X71000D01*
X70900Y70400D02*
Y70600D01*
X70800Y69300D02*
X71000D01*
X70900Y69200D02*
Y69400D01*
X70800Y69700D02*
X71000D01*
X70900Y69600D02*
Y69800D01*
X70400Y70100D02*
X70600D01*
X70500Y70000D02*
Y70200D01*
X70400Y70500D02*
X70600D01*
X70500Y70400D02*
Y70600D01*
X70400Y69300D02*
X70600D01*
X70500Y69200D02*
Y69400D01*
X70400Y69700D02*
X70600D01*
X70500Y69600D02*
Y69800D01*
X72800Y67000D02*
X73000D01*
X72900Y66900D02*
Y67100D01*
X72800Y67800D02*
X73000D01*
X72900Y67700D02*
Y67900D01*
X73200Y69400D02*
X73400D01*
X73300Y69300D02*
Y69500D01*
X73600Y68600D02*
X73800D01*
X73700Y68500D02*
Y68700D01*
X72800Y67400D02*
X73000D01*
X72900Y67300D02*
Y67500D01*
X73600Y68200D02*
X73800D01*
X73700Y68100D02*
Y68300D01*
X73200Y68200D02*
X73400D01*
X73300Y68100D02*
Y68300D01*
X72800Y68600D02*
X73000D01*
X72900Y68500D02*
Y68700D01*
X73200Y69000D02*
X73400D01*
X73300Y68900D02*
Y69100D01*
X73600Y69400D02*
X73800D01*
X73700Y69300D02*
Y69500D01*
X73600Y69000D02*
X73800D01*
X73700Y68900D02*
Y69100D01*
X72800Y66200D02*
X73000D01*
X72900Y66100D02*
Y66300D01*
X73200Y68600D02*
X73400D01*
X73300Y68500D02*
Y68700D01*
X72800Y69400D02*
X73000D01*
X72900Y69300D02*
Y69500D01*
X72800Y68200D02*
X73000D01*
X72900Y68100D02*
Y68300D01*
X72800Y65800D02*
X73000D01*
X72900Y65700D02*
Y65900D01*
X72800Y69000D02*
X73000D01*
X72900Y68900D02*
Y69100D01*
X72800Y66600D02*
X73000D01*
X72900Y66500D02*
Y66700D01*
X18400Y48300D02*
X18600D01*
X18500Y48200D02*
Y48400D01*
X21800Y50300D02*
X22000D01*
X21900Y50200D02*
Y50400D01*
X31800Y53900D02*
X32000D01*
X31900Y53800D02*
Y54000D01*
X21300Y51900D02*
X21500D01*
X21400Y51800D02*
Y52000D01*
X19500Y55900D02*
X19700D01*
X19600Y55800D02*
Y56000D01*
X27600Y53300D02*
X27800D01*
X27700Y53200D02*
Y53400D01*
X28000Y51500D02*
X28200D01*
X28100Y51400D02*
Y51600D01*
X30900Y53900D02*
X31100D01*
X31000Y53800D02*
Y54000D01*
X28200Y55600D02*
X28400D01*
X28300Y55500D02*
Y55700D01*
X6800Y61000D02*
X7000D01*
X6900Y60900D02*
Y61100D01*
X7200Y61000D02*
X7400D01*
X7300Y60900D02*
Y61100D01*
X6400Y61000D02*
X6600D01*
X6500Y60900D02*
Y61100D01*
X7200Y59400D02*
X7400D01*
X7300Y59300D02*
Y59500D01*
X7200Y59800D02*
X7400D01*
X7300Y59700D02*
Y59900D01*
X7200Y60600D02*
X7400D01*
X7300Y60500D02*
Y60700D01*
X7200Y60200D02*
X7400D01*
X7300Y60100D02*
Y60300D01*
X6800Y59400D02*
X7000D01*
X6900Y59300D02*
Y59500D01*
X6800Y59800D02*
X7000D01*
X6900Y59700D02*
Y59900D01*
X6800Y60600D02*
X7000D01*
X6900Y60500D02*
Y60700D01*
X6800Y60200D02*
X7000D01*
X6900Y60100D02*
Y60300D01*
X6400Y59400D02*
X6600D01*
X6500Y59300D02*
Y59500D01*
X6400Y59800D02*
X6600D01*
X6500Y59700D02*
Y59900D01*
X6400Y60600D02*
X6600D01*
X6500Y60500D02*
Y60700D01*
X6400Y60200D02*
X6600D01*
X6500Y60100D02*
Y60300D01*
X7200Y57800D02*
X7400D01*
X7300Y57700D02*
Y57900D01*
X7200Y58200D02*
X7400D01*
X7300Y58100D02*
Y58300D01*
X7200Y59000D02*
X7400D01*
X7300Y58900D02*
Y59100D01*
X7200Y58600D02*
X7400D01*
X7300Y58500D02*
Y58700D01*
X6800Y57800D02*
X7000D01*
X6900Y57700D02*
Y57900D01*
X6800Y58200D02*
X7000D01*
X6900Y58100D02*
Y58300D01*
X6800Y59000D02*
X7000D01*
X6900Y58900D02*
Y59100D01*
X6800Y58600D02*
X7000D01*
X6900Y58500D02*
Y58700D01*
X6400Y57800D02*
X6600D01*
X6500Y57700D02*
Y57900D01*
X6400Y58200D02*
X6600D01*
X6500Y58100D02*
Y58300D01*
X6400Y59000D02*
X6600D01*
X6500Y58900D02*
Y59100D01*
X6400Y58600D02*
X6600D01*
X6500Y58500D02*
Y58700D01*
X70400Y66200D02*
X70600D01*
X70500Y66100D02*
Y66300D01*
X70400Y66600D02*
X70600D01*
X70500Y66500D02*
Y66700D01*
X70800Y67000D02*
X71000D01*
X70900Y66900D02*
Y67100D01*
X70800Y66200D02*
X71000D01*
X70900Y66100D02*
Y66300D01*
X70800Y66600D02*
X71000D01*
X70900Y66500D02*
Y66700D01*
X70000Y64400D02*
X70200D01*
X70100Y64300D02*
Y64500D01*
X70400Y64400D02*
X70600D01*
X70500Y64300D02*
Y64500D01*
X70400Y65200D02*
X70600D01*
X70500Y65100D02*
Y65300D01*
X70400Y64800D02*
X70600D01*
X70500Y64700D02*
Y64900D01*
X70800Y64400D02*
X71000D01*
X70900Y64300D02*
Y64500D01*
X70800Y65200D02*
X71000D01*
X70900Y65100D02*
Y65300D01*
X70800Y64800D02*
X71000D01*
X70900Y64700D02*
Y64900D01*
X72600Y58100D02*
X72800D01*
X72700Y58000D02*
Y58200D01*
X72600Y57700D02*
X72800D01*
X72700Y57600D02*
Y57800D01*
X71000Y57700D02*
X71200D01*
X71100Y57600D02*
Y57800D01*
X70600Y57700D02*
X70800D01*
X70700Y57600D02*
Y57800D01*
X71400Y57700D02*
X71600D01*
X71500Y57600D02*
Y57800D01*
X72200Y57700D02*
X72400D01*
X72300Y57600D02*
Y57800D01*
X71800Y57700D02*
X72000D01*
X71900Y57600D02*
Y57800D01*
X71000Y58900D02*
X71200D01*
X71100Y58800D02*
Y59000D01*
X70600Y58900D02*
X70800D01*
X70700Y58800D02*
Y59000D01*
X71400Y58900D02*
X71600D01*
X71500Y58800D02*
Y59000D01*
X71400Y58100D02*
X71600D01*
X71500Y58000D02*
Y58200D01*
X71400Y58500D02*
X71600D01*
X71500Y58400D02*
Y58600D01*
X71800Y58900D02*
X72000D01*
X71900Y58800D02*
Y59000D01*
X71800Y58100D02*
X72000D01*
X71900Y58000D02*
Y58200D01*
X71800Y58500D02*
X72000D01*
X71900Y58400D02*
Y58600D01*
X72200Y58900D02*
X72400D01*
X72300Y58800D02*
Y59000D01*
X72200Y58100D02*
X72400D01*
X72300Y58000D02*
Y58200D01*
X72200Y58500D02*
X72400D01*
X72300Y58400D02*
Y58600D01*
X73200Y67800D02*
X73400D01*
X73300Y67700D02*
Y67900D01*
X73200Y67400D02*
X73400D01*
X73300Y67300D02*
Y67500D01*
X69700Y62400D02*
X69900D01*
X69800Y62300D02*
Y62500D01*
X67000Y62000D02*
X67200D01*
X67100Y61900D02*
Y62100D01*
X67000Y62500D02*
X67200D01*
X67100Y62400D02*
Y62600D01*
X67000Y61500D02*
X67200D01*
X67100Y61400D02*
Y61600D01*
X67500Y62000D02*
X67700D01*
X67600Y61900D02*
Y62100D01*
X66500Y62000D02*
X66700D01*
X66600Y61900D02*
Y62100D01*
X20700Y63700D02*
X20900D01*
X20800Y63600D02*
Y63800D01*
X54600Y66600D02*
X54800D01*
X54700Y66500D02*
Y66700D01*
X54600Y67100D02*
X54800D01*
X54700Y67000D02*
Y67200D01*
X55100Y67100D02*
X55300D01*
X55200Y67000D02*
Y67200D01*
X55100Y66600D02*
X55300D01*
X55200Y66500D02*
Y66700D01*
X55100Y66100D02*
X55300D01*
X55200Y66000D02*
Y66200D01*
X54600Y66100D02*
X54800D01*
X54700Y66000D02*
Y66200D01*
X54100Y66100D02*
X54300D01*
X54200Y66000D02*
Y66200D01*
X54100Y66600D02*
X54300D01*
X54200Y66500D02*
Y66700D01*
X54100Y67100D02*
X54300D01*
X54200Y67000D02*
Y67200D01*
M02*
